<svg width="42" height="24" viewBox="0 0 42 24" fill="none" xmlns="http://www.w3.org/2000/svg" style="margin-left: auto;"><rect width="42" height="24" rx="3" fill="#DBF4D7"></rect><path d="M15.4906 16.6034V7.59277H13.7454L13.7392 13.3791L11.2514 7.59277H9.5V16.6034H11.2514V10.7923L13.7578 16.6034H15.4906Z" fill="#194111"></path><path d="M23.4106 12.6551V11.2812H19.7098V9.00996H24.0171V7.59277H17.9646V16.6034H24.0357V15.1986H19.7098V12.6551H23.4106Z" fill="#194111"></path><path d="M26.7697 16.6034H28.3416L29.0966 11.7391L29.1646 11.2812L29.2327 11.7391L30.0187 16.6034H31.5906L32.8407 7.59277H31.244L30.6313 12.6427L30.588 13.0202L30.5323 12.6489L29.7773 7.59277H28.5334L27.8217 12.6117L27.766 12.9831L27.7227 12.6303L27.1224 7.59277H25.5319L26.7697 16.6034Z" fill="#194111"></path></svg>