<svg xmlns="http://www.w3.org/2000/svg" viewBox="0 0 135 168" fill="none">
                <path d="M133.926 15.9173C134.776 16.7444 133.296 15.6841 134.403 16.5274C134.415 16.3349 134.303 16.0701 133.926 15.9173Z" fill="#381FD1"/>
                <path d="M12.3895 147.316C12.9504 143.55 12.2329 138.608 13.0709 134.537C13.1635 134.092 12.6135 134.637 12.8111 133.554C13.0646 132.604 13.2663 131.457 13.4719 130.246C13.6776 129.035 13.8231 127.755 14.0369 126.416C14.2507 125.076 14.4004 123.733 14.6101 122.458C14.715 121.82 14.8239 121.118 14.8646 120.476C14.9694 119.839 15.0743 119.201 15.1751 118.628L14.9663 118.872C15.0874 117.978 15.7342 116.923 15.9837 116.037C15.9195 116.033 15.7749 116.282 15.7229 116.085C16.056 115.913 16.3461 114.385 16.6232 114.08C16.6476 113.695 16.4551 113.683 16.4877 113.17L16.9012 112.745C17.4552 112.136 17.7088 111.185 18.0265 110.239C18.3443 109.293 18.606 108.214 19.1162 107.28C19.048 107.34 18.9074 107.524 18.9196 107.332C20.5308 104.277 22.1949 100.388 24.079 97.0925C23.9425 97.2127 23.6859 97.1965 23.6981 97.0039C24.023 96.9601 24.6657 95.97 25.1718 95.1C25.1402 94.5826 26.2922 93.6892 26.6822 92.6186L26.5498 92.6746C27.2322 92.0736 27.0763 91.4838 27.7506 91.0112L27.8515 90.4377C28.4371 90.346 28.3138 89.2428 28.9239 88.7661L28.984 88.8343C29.4658 88.3494 29.4942 87.9002 29.8476 87.4072L29.8517 87.343C30.7633 86.1766 31.0728 85.3587 31.3173 85.5675C31.4181 84.994 30.4099 86.6697 30.531 85.7753C33.611 81.9115 36.7592 77.9876 40.1478 74.3367C40.437 73.8396 40.6499 73.5309 40.658 73.4026C40.9992 73.102 42.0269 72.1363 42.4282 71.9041C42.2917 72.0243 42.5127 71.5873 42.7215 71.3428C43.2837 70.6053 43.6525 70.8864 44.2789 70.1529C43.9458 70.3251 43.7492 70.3771 43.7614 70.1845C44.56 69.7842 45.383 68.9988 46.1296 68.4018C45.9971 68.4578 45.7965 68.574 45.7364 68.5057C46.7356 67.9892 47.1735 67.1794 48.0444 66.6547L47.6512 66.7587C48.6911 65.6004 48.2328 66.7311 49.1923 65.8255C48.9234 66.0017 48.9315 65.8734 48.8714 65.8052C50.0631 65.3009 51.5685 63.9144 52.636 63.3378C52.5718 63.3337 52.5718 63.3337 52.5718 63.3337C53.1096 62.9812 53.6555 62.5004 54.2616 62.0878C54.8034 61.6712 55.4736 61.2627 56.0756 60.9143C56.485 60.5536 55.6427 60.6291 56.9149 59.8722C57.0871 60.2052 59.0498 58.7189 58.5477 59.5247C59.0213 59.1681 59.6956 58.6955 60.3016 58.2829C60.9076 57.8703 61.5096 57.5219 61.9028 57.418C61.3772 57.5779 62.2042 56.7283 61.2733 57.1847L61.8273 56.5756C61.6389 56.4992 61.1571 56.9841 61.3018 56.7355C61.7673 56.5073 63.0954 55.8828 63.4967 55.6505C64.4155 55.3867 65.3821 55.3835 66.7705 54.8273C66.0523 54.975 66.9354 54.2578 66.474 54.4219C67.188 54.3383 67.9663 54.2588 68.6762 54.2394C69.1376 54.0753 68.6324 53.9144 69.3546 53.7025C69.3464 53.8309 69.6755 53.7229 69.9321 53.7391C70.0686 53.6189 71.9061 53.0911 71.9947 52.7102C72.1353 52.5258 71.2084 52.918 71.6779 52.6257C72.5325 52.3577 72.6568 52.43 73.5114 52.162L73.5155 52.0979C74.1093 51.8778 75.2766 51.7585 74.7388 52.111C74.3457 52.215 74.8192 51.8584 74.2855 52.1467C74.7307 52.2394 75.7737 52.0478 76.6884 51.8481C76.3676 51.8277 76.3716 51.7635 76.2473 51.6912C77.5348 51.7084 78.8305 51.5973 80.1862 51.5544C80.2382 51.751 79.625 51.2611 79.4243 51.3773C81.1294 50.9055 83.0302 51.4126 84.4664 51.1171C84.2097 51.1008 84.3218 51.3657 84.3258 51.3015C85.1641 51.2902 85.1122 51.0936 85.6856 51.1944C85.762 51.006 86.3875 51.3034 86.8968 51.4001C87.1453 51.5447 87.0292 51.3441 86.5841 51.2514C86.965 51.34 87.9154 51.5935 88.9942 51.8552C90.0729 52.1169 91.2117 52.4469 92.102 52.6322C92.0338 52.6923 93.0239 53.3349 93.4008 53.4877L93.3529 53.227C93.7379 53.2514 94.6038 53.8217 94.7402 53.7015C95.0408 54.0427 94.3633 53.5487 93.6136 53.179C92.928 52.8134 92.1784 52.4437 92.7356 52.8012C93.1288 52.6973 94.0904 53.7892 93.9865 53.396C94.3634 53.5487 94.6679 53.8258 95.0408 54.0427C95.4136 54.2597 95.7222 54.4725 96.1032 54.5611C95.9147 54.4847 95.6906 53.9551 96.2478 54.3126C97.238 54.9552 96.4882 54.5855 97.2258 55.1477L97.6505 55.5612C97.5741 55.7497 98.5124 56.1958 98.0031 56.099C98.2638 56.0512 99.2173 57.2714 99.3701 56.8945L99.4546 56.5777C99.8192 56.9229 99.8549 57.3762 100.023 57.7735C100.087 57.7775 100.212 57.8498 100.216 57.7857C99.9345 58.1544 101.061 58.6769 101.145 59.3909C101.934 60.1497 102.615 61.6103 103.048 61.8955C103.255 62.6819 103.403 63.4 103.8 64.2627C103.748 64.0661 103.7 63.8053 103.768 63.7452C104.06 64.2148 104.048 64.4073 104.08 64.9248C104.084 64.8606 104.26 65.1295 104.432 65.4625C104.604 65.7956 104.768 66.257 104.941 66.5901C104.952 67.4284 104.647 67.1514 104.511 67.2716C104.811 67.6128 104.775 68.1904 104.738 68.7679C104.701 69.3454 104.536 69.9149 104.765 70.3803C104.845 70.1277 105.03 69.2375 105.118 69.8873C105.234 70.088 105.222 70.2805 105.21 70.473C105.198 70.6655 105.121 70.854 105.045 71.0424C104.968 71.2309 104.888 71.4835 104.808 71.7361C104.727 71.9887 104.647 72.2413 104.63 72.498L104.33 72.1568C104.486 72.7466 103.651 73.7245 104.1 73.753C103.887 74.0617 103.693 75.0803 103.453 74.8073C103.36 75.2524 103.071 75.7496 102.85 76.1865C102.565 76.6195 102.276 77.1166 101.866 77.4772C101.662 77.6575 101.517 77.9061 101.376 78.0904C101.172 78.2707 101.031 78.4551 100.891 78.6395C100.609 79.0083 100.332 79.3128 100.248 79.6296C100.115 79.6857 99.9107 79.866 99.7783 79.922C99.5777 80.0381 99.4453 80.0942 99.4534 79.9658C99.7386 79.5329 100.051 79.6816 100.128 79.4931C99.927 79.6093 99.7987 79.6012 99.7987 79.6012C99.3852 80.0259 98.9838 80.2582 99.6296 80.2347C99.1478 80.7196 98.7587 80.7594 98.3055 80.7951C98.1089 80.847 97.8522 80.8308 97.6556 80.8827C97.3948 80.9306 97.1301 81.0427 96.7328 81.2108C96.8571 81.2831 96.7807 81.4715 96.3233 81.5714L95.3526 81.6387C94.3697 81.8985 94.8067 82.1195 94.8546 82.3803C94.2689 82.472 93.5549 82.5556 93.2421 82.4069C93.0374 82.5872 92.7766 82.6351 92.576 82.7512C93.1056 82.5271 92.0708 82.5903 91.8182 82.5099C91.8823 82.514 92.0065 82.5863 92.0707 82.5903C91.9342 82.7106 91.3007 82.5415 90.9798 82.5212C91.0562 82.3327 91.7621 82.3775 92.1512 82.3377C91.8344 82.2532 91.3893 82.1605 91.0765 82.0119C91.1845 82.3409 90.1741 82.0191 89.7289 81.9264C89.2196 81.8297 89.24 81.5088 89.1116 81.5007C89.1075 81.5649 88.8549 81.4844 88.7266 81.4763C88.6023 81.4039 88.4739 81.3958 88.5901 81.5965C88.7143 81.6688 89.0393 81.625 89.2196 81.8297C88.8987 81.8093 88.8183 82.0619 88.201 81.6362C87.7721 81.2869 88.5463 81.2715 87.5999 80.9538C87.7803 81.1585 87.7762 81.2227 87.9565 81.4274C87.6397 81.3429 87.327 81.1942 87.0785 81.0496L87.1548 80.8612C87.0265 80.853 87.0866 80.9213 87.0224 80.9172C86.9704 80.7206 86.6618 80.5077 86.4173 80.2989C86.1728 80.0901 85.9325 79.8172 85.8805 79.6206C85.6961 79.48 85.5117 79.3395 85.2632 79.1949C85.0788 79.0543 84.8302 78.9097 84.6459 78.7691L84.706 78.8374C84.2129 78.484 83.8003 77.8779 83.6403 77.3523L83.6363 77.4165C83.46 77.1476 83.0475 76.5416 82.9436 76.1484C82.4026 75.5342 82.0288 76.3481 81.8291 75.4334C81.4247 74.699 81.5937 74.0655 81.8983 74.3425C81.0772 73.0663 80.8622 71.3774 80.1012 70.1694C80.1175 69.9127 80.2377 70.0492 80.1378 69.5919C79.4338 67.4855 79.2676 65.0266 78.5391 63.3052C78.5626 63.951 78.3425 63.3571 78.2101 63.4132C78.3109 62.8397 77.9258 62.8153 78.1988 62.5749C78.3913 62.5871 78.5238 62.531 78.6796 63.1208C78.5685 61.8251 78.3738 59.8154 78.0977 59.0892C78.2057 59.4182 78.2861 59.1656 78.3065 58.8447C77.9775 58.9527 77.846 57.9779 77.9591 57.2119L78.1597 57.0958L77.9314 56.6303C78.016 56.3135 78.3409 56.2697 78.129 55.5475C78.0648 55.5435 77.9405 55.4711 77.8845 55.3387C78.0617 54.5768 78.3234 53.4981 78.1196 52.6476C78.0034 52.4469 77.9555 52.1861 77.8394 51.9855C77.8638 51.6005 78.093 51.0351 78.1165 51.6809C77.9493 50.2528 78.0062 49.3544 77.778 48.8889C78.5744 46.4911 78.9908 42.9738 79.4265 40.1665L79.294 40.2225C79.2787 39.4484 79.6393 39.8578 79.6077 39.3404C79.3989 39.5849 79.3918 38.6824 79.0985 39.2437C79.1676 38.1527 79.6331 37.9245 79.8704 37.2308C80.067 37.1789 79.6453 37.732 79.9061 37.6841C79.9784 37.5598 80.0679 36.1481 80.457 36.1083C80.4091 35.8475 80.1443 35.9596 80.0078 36.0798L80.3052 35.4544C80.1697 34.5437 79.2327 37.126 79.0371 36.1471L79.202 35.5777C79.0502 34.9238 78.4627 37.0771 78.7528 35.5492C79.0502 34.9238 79.6603 34.447 79.6196 35.0887C80.0901 33.7655 80.4864 34.6283 80.8968 33.2368C80.8611 32.7835 80.5027 34.3716 80.3305 34.0385C80.3152 33.2644 80.8652 32.7194 80.9701 32.0817C80.8611 32.7835 81.3429 32.2987 81.5598 31.9258C81.6728 31.1598 81.1503 32.2864 81.4721 31.276C81.6728 31.1598 82.179 30.2899 81.9977 31.116C82.4632 30.8878 82.3236 30.0413 82.8013 29.6206C82.7014 29.1633 81.7858 30.3938 82.1158 29.255C82.292 29.5239 83.0273 28.0886 83.1109 28.8027C83.2035 28.3575 83.0834 28.221 82.7462 28.4574C82.8552 27.7556 83.8544 27.239 83.4938 26.8296L83.8227 26.7216C83.835 26.5291 83.9195 26.2123 83.9439 25.8273C84.169 25.3261 85.1925 24.4245 84.8157 24.2718C84.9521 24.1516 85.6672 23.0372 85.6305 23.6147C85.325 24.3685 84.944 24.2799 85.0357 24.8656C85.0764 24.2239 85.6784 23.8755 86.0196 23.575L85.8994 23.4385C86.1042 23.2582 86.4616 22.701 86.6582 22.649C86.4576 22.7651 86.4657 22.6368 86.5461 22.3842L86.9393 22.2802C87.7022 21.4266 86.7753 21.8188 87.4699 21.0253L86.7916 21.5621C86.928 21.4419 87.0207 20.9968 87.366 20.6321C87.6909 20.5883 88.0841 20.4843 88.3408 20.5006C88.8144 20.1441 88.3652 20.1156 88.8989 19.8273L88.1645 20.2317C88.0321 20.2878 88.2694 19.5941 88.8235 18.9849C89.2289 18.6885 90.0916 18.2921 89.5334 18.9655C89.8105 18.6609 90.1639 18.1679 89.7707 18.2718C90.5173 17.6748 89.8186 18.5326 90.4929 18.0599C90.6416 17.7472 91.2761 16.8854 91.6336 16.3282C91.3046 16.4362 91.0438 16.484 90.7148 16.592C90.8513 16.4718 90.9878 16.3516 91.1242 16.2314C90.3379 16.4393 91.2811 15.7904 90.7636 15.822C91.0407 15.5174 91.5061 15.2892 91.8392 15.117C91.5459 15.6783 91.8749 15.5703 92.3323 15.4704C92.7896 15.3706 93.3152 15.2106 93.2989 15.4673C93.9691 15.0588 93.9895 14.7379 94.074 14.4211C94.1585 14.1043 94.3032 13.8558 95.2138 13.7202C95.0692 13.9688 95.8514 13.8251 94.9846 14.2856C95.7913 13.7569 95.7547 14.3344 96.6378 13.6173C95.8474 13.8893 97.2081 12.7514 96.0245 13.1274C96.1488 13.1997 95.4827 13.544 95.2861 13.596C95.5672 13.2272 94.9855 13.2548 95.8564 12.7301C96.3901 12.4418 97.1846 12.1056 97.1683 12.3623C97.2804 12.6271 96.3056 12.7586 96.819 12.7912C97.9425 12.347 97.971 11.8977 98.6005 12.131C97.8743 12.4071 97.8539 12.7279 97.91 12.8603C98.1748 12.7483 98.4355 12.7004 98.7645 12.5924L98.5119 12.5119C99.7159 11.8151 99.0212 12.6086 100.217 12.0402L100.972 11.3149C100.783 11.2385 100.318 11.4667 99.9247 11.5706C99.5274 11.7387 99.1944 11.9109 99.2147 11.59C100.013 11.1897 100.39 11.3424 101.124 10.938C100.928 10.9899 100.667 11.0378 100.535 11.0939C100.8 10.9818 100.913 10.2158 102.268 10.1729C102.918 10.0853 102.457 10.2493 102.573 10.4499C103.949 10.0862 104.394 10.1788 105.305 10.0433C105.068 9.70616 106.873 9.69176 105.787 9.55841C105.582 9.73872 104.992 9.89461 104.342 9.98226C103.752 10.1382 103.103 10.2258 102.786 10.1413C103.143 9.58408 101.731 10.5254 101.298 10.2402C102.417 9.86018 102.245 9.52711 102.329 9.21032C102.658 9.10232 102.979 9.12267 103.172 9.13488C103.352 9.3396 102.959 9.44353 103.007 9.70429C104.259 9.26823 105.49 9.15303 106.256 9.26603C106.653 9.09793 106.477 8.82903 105.956 8.92482C107.512 8.7658 109.137 8.54667 110.625 8.44774C110.159 8.67595 110.544 8.70037 110.998 8.66468C111.447 8.69317 111.896 8.72165 111.627 8.89789C110.849 8.9774 110.183 9.32174 110.624 9.47857C111.077 9.44289 110.636 9.28605 110.833 9.23409C111.462 9.4673 111.82 8.9101 112.377 9.26758C110.969 9.11389 112.089 8.73386 111.848 8.46089C112.867 8.65434 111.8 8.20013 112.827 8.26524C113.846 8.45869 115.053 8.72853 116.196 8.99429C117.684 8.89537 119.757 9.73555 120.956 10.1337C121.662 10.1785 121.305 9.70487 122.067 9.88205C122.885 10.1916 121.349 10.0298 122.62 10.3037L122.564 10.1713C122.748 10.3118 123.322 10.4126 123.823 10.6377C124.388 10.8669 124.885 11.1561 124.929 11.481L124.769 10.9554C125.022 11.0359 125.142 11.1724 125.327 11.3129C125.399 11.1887 125.72 11.209 125.347 10.9921C125.796 11.0206 126.169 11.2375 126.478 11.4503C126.85 11.6673 127.155 11.9443 127.528 12.1613C127.335 12.149 127.143 12.1368 126.95 12.1246C127.568 12.5504 128.065 12.8396 128.626 13.1329C129.123 13.4222 129.684 13.7155 130.233 14.2013L130.31 14.0129L130.915 14.6311C130.871 14.3062 131.621 14.6759 131.849 15.1413C131.372 14.5312 130.896 13.9211 130.415 13.3752C129.849 13.1461 130.827 13.9812 130.378 13.9527C129.993 13.9283 128.947 13.1533 128.903 12.8283C129.34 13.0493 129.336 13.1135 129.636 13.4547C129.97 13.2825 129.288 12.8527 129.12 12.4555C129.369 12.6001 129.681 12.7488 129.673 12.8772C129.312 12.4677 128.88 12.1825 128.138 11.6845C128.563 12.098 127.753 11.6601 127.933 11.8648C128.018 11.548 127.336 11.1182 126.334 10.6681C125.885 10.6396 125.448 10.4186 124.955 10.0652C124.458 9.77592 123.9 9.41844 123.331 9.25347C123.688 9.72709 124.241 10.1487 124.858 10.5745C124.096 10.3973 124.04 10.2649 123.278 10.0877C122.978 9.7465 122.874 9.35333 121.935 8.90726L121.795 9.09163C120.917 8.7138 121.001 8.39701 119.858 8.13124C117.821 7.74434 115.78 7.4216 114.176 7.31987L114.099 7.50832C113.293 7.00621 111.22 7.19685 110.064 7.1236C108.115 7.38656 105.664 7.42444 104.789 8.01327C103.028 8.3526 101.459 8.70414 99.8745 9.31238C98.2937 9.85644 96.7649 10.5971 95.1596 11.5262L95.8696 11.5068C95.2156 11.6586 95.5885 11.8755 94.9906 12.1598C95.2676 11.8552 95.0069 11.9031 94.6779 12.0111C94.3489 12.1191 93.8833 12.3473 93.6226 12.3952C92.3942 13.477 90.5884 14.5223 89.3763 15.3474L89.4924 15.5481C88.0959 16.2327 87.0958 17.78 86.0396 19.195C85.9632 19.3834 85.9388 19.7684 85.5895 20.1973C84.7146 20.7861 84.4294 21.219 83.4577 22.3172C83.1726 22.7501 82.811 23.3715 82.5136 23.9969C82.2162 24.6224 81.9188 25.2478 81.7539 25.8172C79.5407 29.2206 78.5785 33.2187 77.4237 37.2046L77.5959 37.5376C76.8963 39.4262 76.5613 41.66 76.2987 43.7695C76.036 45.8791 75.9659 48.0009 75.7317 49.6612L76.1371 49.3648C76.2003 50.3997 75.9183 51.7992 75.6137 51.5222C75.6729 52.6213 75.3786 54.2134 75.723 54.8795C75.7821 55.9786 75.5734 56.2231 75.5806 57.1255C75.8914 59.3359 75.9068 60.11 76.0974 62.1839L76.0016 61.6624C76.082 61.4098 76.2145 61.3537 76.3102 61.8752C76.2614 62.6453 76.8412 64.6794 76.2402 63.997C76.876 66.1635 77.0738 69.1399 78.1068 71.1383C77.9224 70.9977 78.0824 71.5233 78.0661 71.78C78.7182 73.6898 79.8276 75.4998 80.4399 77.0205C80.6803 77.2935 80.4123 76.4389 80.8167 77.1733C81.045 77.6388 80.6803 77.2935 80.9044 77.8231C81.7133 79.2919 82.8512 80.6527 84.1378 81.7007C85.4886 82.7528 86.9839 83.5564 88.4273 84.1634L89.4338 84.5493L90.5125 84.811C90.8934 84.8996 91.2143 84.92 91.5952 85.0085C91.9803 85.033 92.2971 85.1175 92.6862 85.0777C94.1622 85.1713 95.5943 84.94 96.9062 84.5722C98.2823 84.2084 99.5463 83.5798 100.75 82.883C101.894 82.1179 102.978 81.2846 103.937 80.379L103.809 80.3709C104.547 79.9023 105.186 78.9763 105.692 78.1064C106.198 77.2365 106.576 76.3584 107.126 75.8134C107.219 75.3683 107.613 74.2335 107.34 74.4739C107.702 73.8525 107.895 72.8339 107.96 71.8072C107.993 71.2938 108.029 70.7162 108.062 70.2028C108.078 69.9462 108.094 69.6895 108.115 69.3686C108.131 69.1119 108.147 68.8552 108.164 68.5985C108.151 68.7911 108.143 68.9194 108.131 69.1119C107.872 67.0982 107.794 65.2891 106.889 63.2988C106.941 63.4954 107.045 63.8886 106.972 64.0129C106.736 63.6757 106.705 63.1583 106.601 62.7651C106.501 62.3078 106.393 61.9788 106.08 61.8301C105.912 61.4328 106.169 61.4491 106.281 61.7139C105.252 59.6514 103.898 57.6326 102.271 55.8542C100.644 54.0759 98.676 52.598 96.5593 51.4329C94.9234 50.8137 94.847 51.0022 94.7747 51.1265C94.7666 51.2548 94.8908 51.3271 93.7081 50.6723C93.4515 50.656 93.5961 50.4074 93.5238 50.5317C93.0868 50.3107 92.6376 50.2822 92.2485 50.322C91.8594 50.3617 91.5385 50.3414 91.2298 50.1285C91.567 49.8922 90.7969 49.8433 90.8091 49.6508C90.2958 49.6183 89.9148 49.5297 89.5298 49.5053C89.2089 49.4849 88.888 49.4646 88.6313 49.4483C88.0538 49.4117 87.6046 49.3832 86.7825 49.1378L86.8987 49.3384C85.0703 48.707 82.864 48.9537 81.2118 48.5912C75.969 48.9675 71.0381 50.5233 66.4637 52.5527C61.8893 54.5822 57.6073 57.0811 53.5616 59.9172C45.5945 65.6618 38.473 72.2975 32.6136 80.3664C31.5126 82.4872 31.4404 82.6115 29.8342 84.5714C29.9666 84.5154 30.0389 84.3911 30.0267 84.5836C29.6457 84.495 28.9664 86.0627 28.5773 86.1025C26.5771 89.1971 24.7856 92.0473 23.0257 95.415C23.3149 94.9179 23.7122 94.7498 23.3506 95.3712L22.8006 95.9161L22.8566 96.0486C22.5715 96.4815 22.162 96.8421 22.3229 96.3369C19.9968 100.506 18.2359 104.905 16.7919 109.388C15.3479 113.871 14.2247 118.374 13.29 122.954C13.1567 124.041 12.9429 125.38 12.6649 126.715C12.4511 128.055 12.169 129.455 11.9674 130.601C11.7396 134.195 11.7205 137.544 11.7615 140.962C11.8026 144.379 11.976 147.741 12.1331 151.359C12.1331 151.359 12.3419 151.114 12.511 150.481C12.2349 149.754 12.3601 148.796 12.3895 147.316Z" fill="#381FD1"/>
                <path d="M132.896 14.8856C132.575 14.8652 131.898 14.3712 132.246 14.9732C132.443 14.9212 132.884 15.0781 132.896 14.8856Z" fill="#381FD1"/>
                <path d="M112.67 8.70631C112.674 8.64214 112.345 8.75014 112.277 8.81024C112.534 8.82652 112.782 8.97114 112.979 8.91918C112.722 8.9029 112.794 8.77862 112.67 8.70631Z" fill="#381FD1"/>
                <path d="M107.363 9.07852C107.483 9.215 108.578 9.22 109.292 9.13642C108.647 9.1599 108.009 9.05503 107.363 9.07852Z" fill="#381FD1"/>
                <path d="M102.685 10.7148C102.348 10.9511 102.472 11.0234 103.002 10.7993C103.006 10.7351 102.809 10.7871 102.685 10.7148Z" fill="#381FD1"/>
                <path d="M102.248 10.4938C101.855 10.5977 101.714 10.7821 101.514 10.8982C101.522 10.7699 102.493 10.7026 102.248 10.4938Z" fill="#381FD1"/>
                <path d="M93.086 15.776C92.8853 15.8921 92.3516 16.1804 92.2712 16.433C92.4158 16.1845 93.3427 15.7922 93.086 15.776Z" fill="#381FD1"/>
                <path d="M89.2207 18.8168C89.1483 18.9411 89.0801 19.0012 88.9436 19.1214C88.7989 19.3699 89.0638 19.2579 89.2685 19.0775L89.2207 18.8168Z" fill="#381FD1"/>
                <path d="M104.832 71.3511C104.82 71.5436 104.747 71.6679 104.671 71.8563L104.803 71.8003C104.816 71.6078 104.824 71.4794 104.832 71.3511Z" fill="#381FD1"/>
                <path d="M77.3984 51.8287C76.8167 51.8562 77.0612 52.065 76.997 52.0609C77.4504 52.0253 76.7444 51.9805 77.3984 51.8287Z" fill="#381FD1"/>
                <path d="M57.087 60.2052L57.2195 60.1492L56.979 59.8762L57.087 60.2052Z" fill="#381FD1"/>
                <path d="M25.2171 138.078C25.3495 138.022 25.3291 138.343 25.3454 138.086C25.2853 138.018 25.1571 138.01 25.2171 138.078Z" fill="#381FD1"/>
                <path d="M1.97783 141.823C1.72835 142.709 2.75513 142.774 2.71037 143.48C2.7063 143.545 3.05157 143.18 3.03936 143.372C2.92229 144.203 3.73214 144.641 4.49 144.882L4.56228 144.758C4.68657 144.83 4.46961 145.203 4.59389 145.275C4.66213 145.215 4.66623 145.151 4.79457 145.159C4.58985 145.339 4.84248 145.42 4.70193 145.604C4.83027 145.612 4.96675 145.492 5.09916 145.436L4.89033 145.68C4.46867 146.234 5.25095 146.09 5.15829 146.535C5.22653 146.475 5.23065 146.411 5.29482 146.415C5.25413 147.057 5.61475 147.466 5.83888 147.996C5.90712 147.936 6.04361 147.815 6.17603 147.759C5.9713 147.94 5.95903 148.132 6.01507 148.265C6.2799 148.152 5.92652 148.645 6.18321 148.662L6.25144 148.602C6.04264 148.846 6.50405 148.682 6.23109 148.922L6.49186 148.875C6.15065 149.175 6.74851 148.891 6.67213 149.079L6.6039 149.139C6.59577 149.268 6.79238 149.216 6.78424 149.344L6.84839 149.348C6.89629 149.609 7.15705 149.561 6.82398 149.733C7.08881 149.621 6.84025 149.477 7.16925 149.369C7.24876 150.147 7.66542 150.689 8.0179 151.226C8.14624 151.235 8.21042 151.239 8.34283 151.183C8.33876 151.247 8.4549 151.447 8.31842 151.568L8.51503 151.516C8.70756 151.528 8.30217 151.824 8.49469 151.837C8.56293 151.776 8.63517 151.652 8.76758 151.596C8.62296 151.845 8.74723 151.917 8.73503 152.11C8.80328 152.049 8.80332 152.049 8.87156 151.989C8.72287 152.302 9.05185 152.194 8.97547 152.382L9.11199 152.262C9.42878 152.347 8.77479 152.499 9.02742 152.579C9.03148 152.515 9.09977 152.455 9.16394 152.459C8.95108 152.768 9.19554 152.976 9.18334 153.169L9.25155 153.109C9.30353 153.305 9.492 153.382 9.47572 153.638C9.60406 153.647 9.87699 153.406 9.92895 153.603C9.59588 153.775 9.96873 153.992 9.51139 154.092C9.63159 154.228 9.88012 154.373 9.87198 154.501C9.94429 154.377 10.3335 154.337 10.2774 154.205L10.5381 154.157C10.6746 154.037 10.4139 154.084 10.6105 154.032C10.6064 154.097 10.5901 154.353 10.6543 154.357C10.5097 154.606 10.2286 154.975 10.3406 155.24C10.417 155.051 10.6778 155.003 10.6859 154.875C10.5413 155.123 10.4568 155.44 10.3081 155.753C10.3682 155.821 10.5169 155.508 10.5047 155.701C10.4364 155.761 10.4283 155.889 10.356 156.014C10.4201 156.018 10.4558 156.471 10.7369 156.102C10.8092 155.978 10.7492 155.91 10.8174 155.85C10.8734 155.982 10.8011 156.106 10.8572 156.239L10.8612 156.175C10.9254 156.179 10.8969 156.628 10.7604 156.748C10.7003 156.68 10.9051 156.5 10.7727 156.556C10.6881 156.872 10.736 157.133 10.8521 157.334C10.8603 157.205 10.8684 157.077 10.9448 156.889C10.9082 157.466 11.0121 157.859 11.112 158.317C11.0315 158.569 11.1486 157.739 11.1404 157.867C11.2729 157.811 11.3167 158.136 11.3646 158.397C11.4125 158.658 11.4604 158.919 11.6009 158.734C11.6091 158.606 11.5083 159.179 11.5806 159.055C11.6366 159.188 11.7333 158.678 11.7171 158.935C11.7333 158.678 11.769 159.132 11.821 159.328C11.8047 159.585 11.8291 159.2 11.7731 159.067C11.821 159.328 11.9167 159.85 12.0889 160.183C12.1612 160.058 12.2376 159.87 12.3181 159.617C12.3059 159.81 12.4781 160.143 12.4862 160.015L12.4464 159.625C12.4667 159.305 12.5911 159.377 12.5513 158.988C12.6033 159.184 12.535 159.245 12.4067 159.236C12.3425 159.232 12.2141 159.224 12.3344 159.361C12.3628 158.911 12.5024 159.758 12.4708 159.24C12.5431 159.116 12.6511 159.445 12.7519 158.872C12.7438 159 12.6521 158.414 12.7203 158.354C12.8568 158.234 12.7764 158.487 12.9088 158.431L12.9689 158.499C13.0086 158.888 13.0493 158.246 13.0809 158.764C13.0371 158.439 13.2856 158.583 13.1899 158.062L13.086 157.669C13.1542 157.609 13.2581 158.002 13.3783 158.138C13.3824 158.074 13.3906 157.946 13.3304 157.878C13.4823 158.531 13.4109 157.625 13.6472 157.962C13.6757 157.513 13.9405 157.401 13.8366 157.008C13.9649 157.016 14.1574 157.028 14.2379 156.775C14.1737 156.771 14.1697 156.835 14.1136 156.703C14.1299 156.446 14.1859 156.579 14.2542 156.519C14.1941 156.45 14.2185 156.065 14.1706 155.805C14.3631 155.817 14.4792 156.017 14.5995 156.154C14.4874 155.889 14.6199 155.833 14.6881 155.773C14.8205 155.717 14.9529 155.661 14.8368 155.46C14.7726 155.456 14.5118 155.504 14.524 155.312C14.2276 154.906 14.9131 155.272 14.8693 154.947C14.9936 155.019 15.0537 155.087 15.178 155.16C15.0618 154.959 15.507 155.052 15.1341 154.835C15.2625 154.843 15.1504 154.578 15.4591 154.791C15.3552 154.398 16.005 154.31 15.5201 153.828C15.5843 153.832 15.5924 153.704 15.7126 153.841C15.8328 153.977 15.5201 153.828 15.6403 153.965C15.6403 153.965 15.7687 153.973 15.8288 154.041C15.7727 153.909 15.841 153.849 15.5242 153.764C15.4121 153.499 16.1578 153.933 16.1781 153.612C16.0538 153.54 15.9937 153.472 16.0579 153.476L16.3787 153.496C16.3909 153.304 16.1384 153.223 15.8898 153.079C15.9581 153.019 16.0263 152.958 16.2147 153.035L15.9743 152.762C16.1546 152.967 16.1669 152.774 16.231 152.778L16.1669 152.774C16.1068 152.706 16.175 152.646 16.2392 152.65C16.3634 152.722 16.3553 152.85 16.3512 152.915C16.4795 152.923 16.4836 152.859 16.612 152.867C16.3634 152.722 16.56 152.67 16.5641 152.606C16.5682 152.542 16.8208 152.622 16.8208 152.622C16.6965 152.55 16.8931 152.498 16.7005 152.486C16.6364 152.482 16.7566 152.618 16.6283 152.61C16.5682 152.542 16.3838 152.401 16.5763 152.413C16.7046 152.422 17.0092 152.699 16.9573 152.502C16.8931 152.498 16.7688 152.426 16.7046 152.422L16.6527 152.225L16.8371 152.366C16.777 152.297 16.7769 152.297 16.7769 152.297C17.0295 152.378 16.9776 152.181 17.2302 152.262C17.2985 152.202 17.1783 152.065 17.1823 152.001C17.1263 151.868 17.2587 151.812 17.4512 151.825L17.387 151.821C17.3911 151.756 17.4594 151.696 17.6519 151.708C17.5999 151.512 16.9745 151.215 17.2312 151.231C17.3035 151.107 17.6763 151.323 17.8005 151.396C17.8168 151.139 18.2019 151.164 18.0338 150.766C18.098 150.77 18.1581 150.839 18.2223 150.843C18.3068 150.526 18.8283 150.43 18.6001 149.965C18.4717 149.956 18.4157 149.824 18.2914 149.752C18.4799 149.828 18.1752 149.551 18.4839 149.764C18.6683 149.904 18.7325 149.909 18.7885 150.041C18.9891 149.925 19.1297 149.74 19.0136 149.54C19.0737 149.608 19.1378 149.612 19.202 149.616C18.8893 149.467 18.9657 149.279 19.094 149.287L19.2825 149.364L19.1663 149.163C19.2305 149.167 19.5392 149.38 19.423 149.179C19.3629 149.111 19.2987 149.107 19.2386 149.039C19.4311 149.051 19.752 149.071 19.7001 148.875L19.5238 148.606C19.588 148.61 19.7805 148.622 19.7724 148.75C19.7245 148.49 19.7968 148.365 19.6164 148.161C20.3223 148.205 20.6035 147.837 20.8163 147.528L20.6921 147.456C20.6401 147.259 20.9447 147.536 20.8846 147.468C20.7603 147.395 20.7083 147.199 20.5158 147.187C20.4639 146.99 20.8367 147.207 20.9691 147.151C21.1575 147.227 20.8408 147.143 21.0252 147.283C21.0893 147.287 21.0414 147.027 21.2899 147.171C21.2298 147.103 21.0455 146.963 20.9212 146.89L21.1137 146.902C20.8733 146.629 20.4802 146.733 20.1796 146.392L20.2479 146.332C20.0716 146.063 19.7987 146.304 19.8791 146.051C20.0716 146.063 20.4445 146.28 20.5005 146.413C20.7012 146.296 21.1218 146.774 21.2624 146.59C21.1422 146.453 21.1259 146.71 20.9456 146.505C20.8295 146.305 21.1422 146.453 21.1504 146.325C21.2064 146.457 21.4549 146.602 21.5873 146.546C21.5354 146.349 21.3348 146.465 21.4111 146.277C21.5354 146.349 21.732 146.297 21.7839 146.494C22.1568 146.711 21.7962 146.301 22.1089 146.45C21.9286 146.245 21.4794 146.217 21.4956 145.96C21.6759 146.165 21.8807 145.985 22.1812 146.326C22.1852 146.262 22.0009 146.121 21.8124 146.045C21.7605 145.848 22.3217 146.141 21.957 145.796L22.2056 145.941C22.1455 145.873 22.1495 145.808 22.0293 145.672C22.0975 145.612 22.4786 145.7 22.174 145.423C22.2382 145.427 22.3145 145.239 22.4908 145.508C22.5427 145.704 22.2341 145.492 22.5387 145.769C22.3624 145.5 22.6752 145.648 22.8035 145.657L22.6792 145.584C22.7433 145.588 22.7474 145.524 22.9359 145.601C22.8717 145.596 22.7515 145.46 22.7515 145.46L22.9359 145.601C23.1325 145.549 22.6313 145.323 22.7678 145.203L22.5753 145.191C22.6394 145.195 22.4591 144.99 22.5875 144.999C22.7759 145.075 23.0245 145.22 23.1488 145.292C23.2771 145.3 22.9684 145.087 23.2211 145.168L22.9684 145.087C22.9043 145.083 22.7281 144.814 22.8004 144.69C22.9287 144.698 23.2455 144.783 23.2373 144.911C23.3056 144.851 23.2495 144.718 23.0611 144.642C23.1935 144.586 23.2455 144.783 23.438 144.795C23.382 144.662 23.2699 144.398 23.1538 144.197L22.7768 144.044L22.8451 143.984C22.5283 143.899 22.729 143.783 22.4162 143.635C22.4203 143.57 22.5487 143.579 22.6128 143.583C22.9093 143.988 23.2383 143.88 23.607 144.161C23.8719 144.049 22.8176 143.402 23.5113 143.64C23.5673 143.772 23.9482 143.861 23.7516 143.913C23.8239 143.788 24.1887 144.134 24.1408 143.873C23.9483 143.861 23.8443 143.467 23.5235 143.447C23.6478 143.519 23.5795 143.58 23.5153 143.575C23.3951 143.439 23.1466 143.294 23.2189 143.17C23.2872 143.11 23.3554 143.05 23.5398 143.19C23.7241 143.331 23.4073 143.247 23.6559 143.391C23.8525 143.339 23.5479 143.062 23.9207 143.279C23.8525 143.339 24.0328 143.544 24.1571 143.616L24.2895 143.56L24.1652 143.488C24.1815 143.231 24.4779 143.637 24.5543 143.448L24.3139 143.175C24.0653 143.03 24.2294 143.492 23.8647 143.147C23.937 143.022 24.1213 143.163 24.1335 142.97C24.0694 142.966 24.0694 142.966 24.0052 142.962C24.0093 142.898 23.5203 142.48 23.9655 142.573C24.158 142.585 24.0898 142.645 24.2741 142.786C24.4106 142.666 24.599 142.742 24.7355 142.622C24.4269 142.409 24.876 142.438 24.4992 142.285C24.6153 142.486 24.4106 142.666 24.0979 142.517C23.7973 142.176 24.0215 142.706 23.7169 142.429C23.7892 142.304 23.4847 142.027 23.3003 141.887C23.3044 141.822 23.4286 141.895 23.4928 141.899C23.6771 142.039 23.6731 142.104 23.8574 142.244C23.9338 142.056 24.1304 142.004 24.3831 142.084C24.327 141.952 24.1426 141.811 24.0744 141.871C24.275 141.755 24.4156 141.571 24.4319 141.314C24.6682 141.651 24.6325 141.198 24.8729 141.471C24.8648 141.599 25.0411 141.868 25.2295 141.945C25.2336 141.88 25.1093 141.808 25.0492 141.74C25.3018 141.82 24.877 141.407 25.1897 141.555C24.9931 141.607 24.7568 141.27 24.5082 141.126C24.7649 141.142 24.3239 140.985 24.3962 140.861C24.6529 140.877 24.8495 140.825 24.986 140.705C24.878 140.376 25.3312 140.34 25.4076 140.152C25.3557 139.955 25.043 139.807 25.0511 139.678C25.1193 139.618 25.2874 140.015 25.3036 139.759L25.2395 139.755C25.3678 139.763 25.264 139.37 25.6969 139.655L25.3882 139.442C25.3923 139.378 25.4524 139.446 25.5165 139.45C25.3923 139.378 25.3362 139.245 25.2721 139.241C25.16 138.976 25.4727 139.125 25.545 139.001L25.6611 139.201C25.9219 139.154 25.874 138.893 26.0064 138.837L25.8221 138.696L26.0145 138.708C25.8302 138.568 25.7742 138.435 25.9626 138.512L25.325 138.407C25.381 138.539 25.5776 138.487 25.7579 138.692C25.8781 138.829 25.7416 138.949 25.5572 138.808C25.5613 138.744 25.6255 138.748 25.7538 138.756C25.5094 138.548 25.4411 138.608 25.2527 138.531C25.3168 138.535 25.2608 138.403 25.3209 138.471C25.1324 138.395 25.0642 138.455 24.9919 138.579C25.1202 138.587 25.1121 138.716 25.1722 138.784C24.9237 138.639 24.7953 138.631 24.7831 138.824C24.9594 139.093 24.4541 138.932 24.3777 139.12C24.6262 139.265 24.8789 139.345 25.0113 139.289C25.0632 139.486 24.943 139.349 24.995 139.546C24.8065 139.469 24.4979 139.257 24.3655 139.313L24.5499 139.453C24.3533 139.505 24.173 139.3 24.1007 139.425C24.0203 139.677 23.8115 139.922 23.7351 140.11L23.9194 140.251C23.4824 140.03 23.5181 140.483 23.2614 140.467C23.2411 140.788 22.7236 140.819 22.8958 141.152C22.4904 141.449 22.0891 141.681 21.8681 142.118L22.1808 142.267C21.9282 142.186 22.301 142.403 22.1686 142.459C22.0525 142.259 21.8519 142.375 21.6634 142.298C21.7073 142.623 21.3181 142.663 21.0574 142.711L21.2417 142.851C20.7966 142.759 20.9647 143.156 20.8201 143.405C20.8802 143.473 21.0004 143.609 20.9322 143.669C20.5512 143.581 20.5471 143.645 20.2864 143.693C20.2141 143.817 20.1336 144.07 20.1214 144.262C19.4033 144.41 19.3626 145.052 18.7647 145.336L18.945 145.541C18.2269 145.688 18.174 146.523 17.7085 146.751L18.0813 146.968C18.1333 147.164 17.8084 147.208 17.5639 147C17.6159 147.196 17.1666 147.168 17.407 147.441C17.3948 147.633 17.1463 147.488 17.0139 147.544C16.9935 147.865 16.8611 147.921 16.6523 148.166L16.6564 148.102C16.7206 148.106 16.905 148.246 16.9009 148.31C16.7726 148.302 16.7482 148.687 16.4477 148.346C16.5516 148.739 15.8375 148.823 16.0015 149.284C15.8772 149.212 15.8131 149.208 15.749 149.204C15.6043 149.452 15.7123 149.781 15.3833 149.889C15.4434 149.958 15.6359 149.97 15.5677 150.03C15.5035 150.026 15.4434 149.958 15.315 149.95C14.8495 150.178 15.0656 150.836 14.7885 151.14C14.1784 151.617 13.9452 152.247 13.5235 152.8L13.5837 152.868C13.1345 152.84 13.6713 153.518 13.0377 153.349C13.0978 153.417 12.9613 153.537 13.1498 153.614C13.0856 153.61 13.0174 153.67 13.0133 153.734C13.0092 153.798 13.0092 153.798 13.0092 153.798C13.0052 153.862 13.0653 153.93 12.8769 153.854C12.8769 153.854 12.8769 153.854 12.941 153.858C13.0531 154.123 12.8086 153.914 12.9207 154.179C12.9166 154.243 12.9807 154.247 13.0409 154.315C13.1529 154.58 12.7403 153.974 13.0286 154.508L12.9166 154.243C12.9044 154.436 12.8361 154.496 12.7719 154.492C12.7078 154.488 12.6477 154.419 12.5876 154.351C12.5469 154.993 12.6183 155.899 12.5907 155.318C12.5785 155.51 12.5469 154.993 12.5989 155.189C12.551 154.929 12.5256 156.345 12.5541 155.895C12.5663 155.703 12.5704 155.639 12.5744 155.575C12.5826 155.446 12.5826 155.446 12.5989 155.189C12.5143 155.506 12.4859 155.955 12.4543 155.438L12.4339 155.759C12.4624 155.31 12.4063 155.177 12.4185 154.985C12.4267 154.856 12.3747 154.66 12.4633 154.279C12.2432 153.685 12.7403 153.974 11.8795 152.309C11.1144 151.165 10.6142 149.909 9.64446 148.946C9.13108 148.913 9.13513 148.849 9.09537 148.46C9.02713 148.52 9.02709 148.52 8.95884 148.58C9.22774 148.404 8.84275 148.379 9.11572 148.139C8.7551 147.73 8.58699 147.332 8.29461 146.863C8.29054 146.927 8.08172 147.171 8.08986 147.043L8.23046 146.859L8.16223 146.919C8.1663 146.855 8.24263 146.666 8.37098 146.674C7.87074 145.418 6.55978 144.755 5.85482 143.68C5.5421 143.531 5.37807 143.07 5.266 142.805C4.3319 142.295 3.45793 141.853 3.06975 140.862C2.49627 140.761 1.8739 141.43 1.97783 141.823Z" fill="#381FD1"/>
                <path d="M25.0805 138.198C25.2007 138.335 25.1926 138.463 25.4453 138.543C25.2568 138.467 25.2007 138.335 25.0805 138.198Z" fill="#381FD1"/>
                <path d="M24.4757 141.639C24.4115 141.635 24.4716 141.703 24.5317 141.772C24.5317 141.772 24.7203 141.848 24.6642 141.715C24.6 141.711 24.5399 141.643 24.4757 141.639Z" fill="#381FD1"/>
                <path d="M24.05 142.256C24.1743 142.329 24.3709 142.277 24.4391 142.217L24.05 142.256Z" fill="#381FD1"/>
                <path d="M24.1173 143.227C24.1733 143.36 24.2375 143.364 24.3058 143.304C24.2457 143.235 24.1815 143.231 24.1173 143.227Z" fill="#381FD1"/>
                <path d="M23.8086 143.014C23.7404 143.074 23.8006 143.143 23.8606 143.211C23.8006 143.143 24.0571 143.159 23.8086 143.014Z" fill="#381FD1"/>
                <path d="M23.2618 144.526C23.2618 144.526 23.0693 144.514 23.1895 144.65C23.0693 144.514 23.4502 144.602 23.2618 144.526Z" fill="#381FD1"/>
                <path d="M22.5915 144.934C22.5834 145.063 22.7118 145.071 22.7118 145.071L22.5915 144.934Z" fill="#381FD1"/>
                <path d="M14.8449 155.332L14.9774 155.276L14.8531 155.204L14.8449 155.332Z" fill="#381FD1"/>
                <path d="M10.6872 157.903C10.7035 157.646 10.6149 158.027 10.5507 158.023C10.6067 158.156 10.6312 157.771 10.6872 157.903Z" fill="#381FD1"/>
              </svg>