<svg width="59" height="59" viewBox="0 0 59 59" fill="none" xmlns="http://www.w3.org/2000/svg"><title>American Express logo</title><path d="M58.2065 0.588135H0.206543V25.0349L2.38074 19.9661H6.14079L7.37468 22.8054V19.9661H12.0488L12.7833 22.0183L13.4954 19.9661H34.4772V20.9978C34.4772 20.9978 35.5802 19.9661 37.3929 19.9661L44.2008 19.9899L45.4133 22.792V19.9661H49.3249L50.4014 21.5757V19.9661H54.3488V29.072H50.4014L49.3697 27.4572V29.072H43.6228L43.0449 27.6366H41.4999L40.9314 29.072H37.0341C35.4743 29.072 34.4772 28.0614 34.4772 28.0614V29.072H28.601L27.4347 27.6366V29.072H5.58377L5.00623 27.6366H3.4662L2.89275 29.072H0.206774L0.206543 58.5881H58.2065V40.3762L58.2053 40.3745V40.3766C58.2053 40.3766 57.2901 40.9955 56.2316 41.0046H36.8534L35.6871 39.5692V41.0046H31.8653V38.5543C31.8653 38.5543 31.3432 38.8964 30.2146 38.8964H28.9137V41.0046H23.1272L22.0942 39.6272L21.0454 41.0046H11.4644V31.8987H21.1059L22.1403 33.2472L23.2089 31.8987H58.2053V31.9003L58.2065 31.8983V0.588135Z" fill="#10284B"></path><path d="M3.15078 21.0891L0.218262 27.9074H2.12748L2.66857 26.542H5.81416L6.35245 27.9074H8.30372L5.374 21.0891H3.15078ZM4.23576 22.6759L5.19458 25.0618H3.27414L4.23576 22.6759Z" fill="#10284B"></path><path d="M8.50732 27.9064V21.0881L11.2204 21.0982L12.7985 25.4942L14.3387 21.0881H17.0301V27.9064H15.3256V22.8824L13.5187 27.9064H12.0238L10.2119 22.8824V27.9064H8.50732Z" fill="#10284B"></path><path d="M18.195 27.9063V21.0881H23.7573V22.6132H19.9175V23.7795H23.6676V25.2149H19.9175V26.426H23.7573V27.9063H18.195Z" fill="#10284B"></path><path d="M24.7435 21.0891V27.9073H26.448V25.485H27.1658L29.2096 27.9073H31.2926L29.0497 25.3953C29.9702 25.3177 30.9197 24.5276 30.9197 23.3011C30.9197 21.8663 29.7936 21.0891 28.5367 21.0891H24.7435ZM26.448 22.6142H28.3965C28.8639 22.6142 29.2039 22.9798 29.2039 23.3319C29.2039 23.7849 28.7634 24.0496 28.4218 24.0496H26.448V22.6142Z" fill="#10284B"></path><path d="M33.3571 27.9064H31.6167V21.0881H33.3571V27.9064Z" fill="#10284B"></path><path d="M37.482 27.9064H37.1064C35.2887 27.9064 34.1851 26.4743 34.1851 24.5253C34.1851 22.5281 35.2763 21.0881 37.5718 21.0881H39.4557V22.703H37.5029C36.5711 22.703 35.9121 23.4302 35.9121 24.5421C35.9121 25.8626 36.6656 26.4171 37.7512 26.4171H38.1998L37.482 27.9064Z" fill="#10284B"></path><path d="M41.1918 21.0891L38.2593 27.9074H40.1685L40.7096 26.542H43.8552L44.3935 27.9074H46.3447L43.415 21.0891H41.1918ZM42.2768 22.6759L43.2356 25.0618H41.3152L42.2768 22.6759Z" fill="#10284B"></path><path d="M46.5444 27.9064V21.0881H48.7116L51.4787 25.372V21.0881H53.1833V27.9064H51.0862L48.249 23.5104V27.9064H46.5444Z" fill="#10284B"></path><path d="M12.6323 39.838V33.0198H18.1946V34.5449H14.3548V35.7112H18.1049V37.1466H14.3548V38.3578H18.1946V39.838H12.6323Z" fill="#10284B"></path><path d="M39.8882 39.838V33.0198H45.4504V34.5449H41.6107V35.7112H45.3428V37.1466H41.6107V38.3578H45.4504V39.838H39.8882Z" fill="#10284B"></path><path d="M18.4097 39.838L21.1179 36.471L18.3452 33.0198H20.4927L22.144 35.1533L23.8009 33.0198H25.8644L23.1281 36.4289L25.8413 39.838H23.6941L22.0908 37.7382L20.5264 39.838H18.4097Z" fill="#10284B"></path><path d="M26.0444 33.0208V39.839H27.7939V37.6859H29.5881C31.1063 37.6859 32.2571 36.8804 32.2571 35.3141C32.2571 34.0165 31.3546 33.0208 29.8096 33.0208H26.0444ZM27.7939 34.5627H29.6835C30.1739 34.5627 30.5245 34.8633 30.5245 35.3477C30.5245 35.8028 30.1757 36.1327 29.6778 36.1327H27.7939V34.5627Z" fill="#10284B"></path><path d="M32.9976 33.0198V39.838H34.7021V37.4158H35.4198L37.4636 39.838H39.5467L37.3038 37.326C38.2243 37.2484 39.1738 36.4583 39.1738 35.2318C39.1738 33.797 38.0476 33.0198 36.7908 33.0198H32.9976ZM34.7021 34.5449H36.6506C37.118 34.5449 37.458 34.9105 37.458 35.2626C37.458 35.7156 37.0175 35.9803 36.6758 35.9803H34.7021V34.5449Z" fill="#10284B"></path><path d="M46.2394 39.838V38.3578H49.6508C50.1555 38.3578 50.3741 38.085 50.3741 37.7858C50.3741 37.4992 50.1562 37.2094 49.6508 37.2094H48.1092C46.7692 37.2094 46.0229 36.393 46.0229 35.1673C46.0229 34.0741 46.7063 33.0198 48.6975 33.0198H52.017L51.2992 34.5539H48.4284C47.8796 34.5539 47.7107 34.8418 47.7107 35.1168C47.7107 35.3995 47.9194 35.7112 48.3387 35.7112H49.9535C51.4473 35.7112 52.0955 36.5585 52.0955 37.6681C52.0955 38.861 51.3732 39.838 49.8722 39.838H46.2394Z" fill="#10284B"></path><path d="M52.4952 39.838V38.3578H55.9066C56.4114 38.3578 56.6299 38.085 56.6299 37.7858C56.6299 37.4992 56.4121 37.2094 55.9066 37.2094H54.3651C53.0251 37.2094 52.2788 36.393 52.2788 35.1673C52.2788 34.0741 52.9622 33.0198 54.9534 33.0198H58.2728L57.5551 34.5539H54.6843C54.1355 34.5539 53.9666 34.8418 53.9666 35.1168C53.9666 35.3995 54.1753 35.7112 54.5945 35.7112H56.2094C57.7031 35.7112 58.3513 36.5585 58.3513 37.6681C58.3513 38.861 57.629 39.838 56.1281 39.838H52.4952Z" fill="#10284B"></path></svg>