<svg width="124" height="24" viewBox="0 0 124 24" fill="none" xmlns="http://www.w3.org/2000/svg"><title>Deloitte logo</title><path d="M71.0194 3.8786H65.3521V0.0893555H71.0194V3.8786Z" fill="#10284B"></path><path d="M38.8403 22.7268H44.5068V0.090332H38.8403V22.7268Z" fill="#10284B"></path><path fill-rule="evenodd" clip-rule="evenodd" d="M16.0795 19.6737C18.102 17.639 19.1132 14.7402 19.1132 10.9783C19.1132 7.48246 18.152 4.81102 16.2304 2.96025C14.308 1.11043 11.58 0.185057 8.04633 0.185057H0.428223V22.7272H7.54925C11.214 22.7272 14.0571 21.7094 16.0795 19.6737ZM11.7433 6.59856C12.5413 7.59658 12.9403 9.1285 12.9403 11.1934C12.9403 13.4036 12.5176 15.0459 11.6753 16.1194C10.832 17.1947 9.50752 17.7305 7.70015 17.7305H6.37583V5.10342H8.10676C9.73393 5.10342 10.9443 5.60149 11.7433 6.59856Z" fill="#10284B"></path><path d="M120.169 16.5679C118.37 16.5679 116.909 18.0281 116.909 19.8279C116.909 21.6278 118.37 23.087 120.169 23.087C121.968 23.087 123.428 21.6278 123.428 19.8279C123.428 18.0281 121.968 16.5679 120.169 16.5679Z" fill="#10284B"></path><path fill-rule="evenodd" clip-rule="evenodd" d="M60.9335 20.7153C62.3786 19.1778 63.0994 17.0327 63.0994 14.2829C63.0994 12.5312 62.7646 10.9993 62.0929 9.69C61.4223 8.37881 60.4676 7.3723 59.2309 6.66954C57.9952 5.96677 56.5689 5.6149 54.9568 5.6149C52.3476 5.6149 50.3214 6.37426 48.8763 7.89298C47.4312 9.4117 46.7095 11.5417 46.7095 14.2829C46.7095 16.9638 47.4462 19.09 48.9205 20.6634C50.393 22.2369 52.3769 23.0236 54.8691 23.0236C57.4678 23.0236 59.4893 22.2539 60.9335 20.7153ZM53.0287 17.5835C52.6523 16.827 52.4637 15.7262 52.4637 14.2829C52.4637 12.8378 52.6523 11.7521 53.0287 11.0248C53.406 10.2984 54.0277 9.93333 54.8975 9.93333C55.787 9.93333 56.4142 10.3003 56.782 11.0332C57.1489 11.7643 57.332 12.8472 57.332 14.2829C57.332 15.7262 57.1518 16.827 56.7896 17.5835C56.4274 18.341 55.8057 18.7193 54.9266 18.7193C54.038 18.7193 53.406 18.341 53.0287 17.5835Z" fill="#10284B"></path><path d="M65.3521 22.727H71.0194V5.9126H65.3521V22.727Z" fill="#10284B"></path><path d="M82.4983 18.438C83.2633 18.438 84.1745 18.2437 85.2375 17.8579V22.0885C84.4735 22.4244 83.7472 22.6649 83.0567 22.8074C82.3662 22.9517 81.5558 23.0234 80.6286 23.0234C78.7259 23.0234 77.3544 22.5451 76.512 21.5905C75.6734 20.6359 75.2527 19.17 75.2527 17.1919V10.2605H73.2681V5.91372H75.2527V1.61979L80.9636 0.626465V5.91372H84.5793V10.2605H80.9636V16.8051C80.9636 17.8937 81.4757 18.438 82.4983 18.438Z" fill="#10284B"></path><path d="M98.3558 17.8579C97.2928 18.2437 96.3814 18.438 95.6164 18.438C94.5929 18.438 94.0807 17.8937 94.0807 16.8051V10.2605H97.6983V5.91372H94.0807V0.626465L88.371 1.55471V5.91372H86.3853V10.2605H88.371V17.1919C88.371 19.17 88.7917 20.6359 89.6321 21.5905C90.4726 22.5451 91.8441 23.0234 93.7467 23.0234C94.6759 23.0234 95.4834 22.9517 96.1748 22.8074C96.8653 22.6649 97.5927 22.4244 98.3558 22.0885V17.8579Z" fill="#10284B"></path><path fill-rule="evenodd" clip-rule="evenodd" d="M113.499 7.59769C112.152 6.27706 110.241 5.61578 107.769 5.61578C105.17 5.61578 103.17 6.37513 101.768 7.89385C100.367 9.41257 99.6665 11.5916 99.6665 14.431C99.6665 17.1807 100.424 19.3012 101.935 20.7898C103.447 22.2783 105.571 23.0235 108.305 23.0235C109.618 23.0235 110.749 22.9339 111.696 22.7557C112.637 22.5793 113.548 22.2604 114.432 21.8L113.561 18.0108C112.919 18.273 112.308 18.4749 111.73 18.6079C110.897 18.8013 109.982 18.8985 108.986 18.8985C107.893 18.8985 107.031 18.6315 106.399 18.0976C105.767 17.5627 105.43 16.8251 105.392 15.8856H115.521V13.3037C115.521 10.82 114.847 8.91737 113.499 7.59769ZM105.507 12.2349C105.585 11.3143 105.848 10.6398 106.297 10.2087C106.748 9.77858 107.305 9.56352 107.971 9.56352C108.697 9.56352 109.274 9.80498 109.702 10.2917C110.133 10.7756 110.358 11.4237 110.376 12.2349H105.507Z" fill="#10284B"></path><path fill-rule="evenodd" clip-rule="evenodd" d="M28.8956 5.61572C31.3688 5.61572 33.2791 6.277 34.6271 7.59763C35.9741 8.91731 36.6476 10.8199 36.6476 13.3037V15.8855H26.5185C26.5571 16.825 26.8929 17.5627 27.5259 18.0975C28.1579 18.6314 29.0209 18.8984 30.1123 18.8984C31.1085 18.8984 32.0226 18.8012 32.8584 18.6079C33.4347 18.4749 34.046 18.273 34.6884 18.0107L35.5601 21.8C34.6752 22.2603 33.7639 22.5792 32.8224 22.7556C31.8754 22.9339 30.7453 23.0235 29.4323 23.0235C26.6976 23.0235 24.5743 22.2782 23.0631 20.7897C21.55 19.3012 20.7935 17.1807 20.7935 14.4309C20.7935 11.5916 21.4952 9.41252 22.896 7.8938C24.2968 6.37507 26.2957 5.61572 28.8956 5.61572ZM27.4239 10.2087C26.9749 10.6398 26.7117 11.3142 26.6344 12.2349H31.5038C31.484 11.4236 31.2604 10.7756 30.8293 10.2917C30.4001 9.80492 29.8229 9.56346 29.0984 9.56346C28.4315 9.56346 27.8739 9.77852 27.4239 10.2087Z" fill="#10284B"></path></svg>