<svg width="110" height="42" viewBox="0 0 110 42" fill="none" xmlns="http://www.w3.org/2000/svg"><title>Ford logo</title><path d="M49.7773 16.1834C49.8115 16.3641 49.8819 16.3993 49.9639 16.3842C50.3712 16.3026 50.817 15.9675 51.0809 15.5792C51.3212 15.2271 51.434 14.7189 51.1951 14.5153C50.9822 14.3322 50.6355 14.3839 50.3785 14.611C49.8666 15.0633 49.7113 15.7045 49.7773 16.1834Z" fill="#10284B"></path><path d="M76.8306 24.9249C76.8452 25.0186 76.9683 25.1085 77.0874 25.151C77.1314 25.1656 77.1529 25.1949 77.107 25.2946C76.8169 25.9163 76.5468 26.3135 76.209 26.81C76.1509 26.8953 76.0908 26.9837 76.0283 27.0766C75.6361 27.6616 75.1945 28.118 74.66 28.5571C73.8535 29.2244 72.7336 29.9508 71.8077 29.4625C71.3965 29.2491 71.2185 28.6734 71.2264 28.2075C71.246 26.8972 71.8289 25.552 72.9053 24.2299C74.2175 22.6144 75.6682 21.7765 76.6202 22.2345C77.6052 22.7043 77.2909 23.8447 76.8497 24.7398C76.8155 24.8092 76.8159 24.8682 76.8306 24.9249Z" fill="#10284B"></path><path fill-rule="evenodd" clip-rule="evenodd" d="M55.3246 3.46273C27.4442 3.46273 4.84498 11.167 4.84498 20.5945C4.84498 30.0227 27.4442 37.7275 55.3246 37.7275C83.2047 37.7275 105.802 30.0227 105.802 20.5945C105.802 11.167 83.2047 3.46273 55.3246 3.46273ZM29.3962 31.8553C26.4146 31.8748 23.7879 30.0335 23.4865 26.8437C23.319 25.0762 23.8186 23.5009 24.8188 22.2031C25.7064 21.0466 27.2082 20.0859 28.4795 19.8512C28.8931 19.7755 29.4489 19.8219 29.6787 20.0973C30.0391 20.5169 29.9356 20.9777 29.5751 21.1616C28.6053 21.6567 27.4383 22.5045 26.8608 23.662C26.3925 24.6068 26.2978 25.7454 27.0132 26.8302C28.2106 28.6379 31.5482 28.6876 34.6515 25.8046C35.42 25.099 36.1078 24.4211 36.8069 23.618C38.1737 22.0553 38.6283 21.4858 40.4452 18.9656C40.4647 18.9363 40.4745 18.8982 40.4647 18.8796C40.45 18.8454 40.4257 18.8405 40.3715 18.8356C39.1586 18.8698 38.1011 19.2308 37.0733 19.9989C36.7773 20.2148 36.3513 20.1845 36.1648 19.9002C35.9573 19.5789 36.1062 19.1606 36.4476 18.9243C37.951 17.8787 39.5807 17.6114 41.2507 17.3375C41.4172 17.3102 41.5846 17.2828 41.7518 17.2546C41.7503 17.2546 41.8798 17.2594 41.9853 17.1207C42.3058 16.7093 42.5931 16.315 42.8791 15.9225C43.2687 15.3878 43.656 14.8562 44.1214 14.2896C44.9347 13.2925 45.9852 12.3769 46.7879 11.6891C47.756 10.8567 48.424 10.5015 49.0588 10.164C49.1587 10.1109 49.2578 10.0582 49.357 10.0042C49.5495 9.90358 49.3326 9.78346 49.274 9.78346C48.9748 9.72722 48.6747 9.66977 48.3739 9.61217C44.5761 8.88509 40.6621 8.13573 36.9105 9.52458C34.1063 10.571 32.8774 12.7947 33.4685 14.2806C33.889 15.3346 35.2752 15.506 36.573 14.8709C37.6509 14.3427 38.6484 13.4916 39.3555 12.3958C39.7511 11.7873 40.5847 12.2264 40.1343 13.283C38.9495 16.0678 36.686 18.2768 33.9288 18.37C31.5823 18.4462 30.0684 16.72 30.0733 14.5903C30.0831 10.3898 34.7592 7.62282 39.6737 7.20916C43.8147 6.86694 47.8025 7.53595 51.8372 8.21279C53.5689 8.50331 55.3093 8.79528 57.0741 9.00934C61.5765 9.55457 65.893 9.56591 70.4185 8.52631C70.9535 8.41007 71.3288 8.75144 71.294 9.29178C71.25 10.0728 70.6449 10.8251 69.1544 11.638C67.4593 12.5676 65.686 12.8497 63.8338 12.8649C60.7538 12.8917 57.8188 12.0736 54.8819 11.2549C53.5485 10.8832 52.2147 10.5113 50.8667 10.2184C50.8676 10.2514 50.8698 10.2854 50.872 10.3198C50.8827 10.4826 50.8938 10.6534 50.7632 10.7518C48.372 12.5156 46.2105 14.3067 44.7629 16.8224C44.7141 16.8805 44.7385 16.9357 44.8249 16.9299C45.2352 16.908 45.6319 16.8899 46.0211 16.8721C46.824 16.8354 47.5953 16.8001 48.3855 16.7369C48.5906 16.7174 48.5984 16.6686 48.5803 16.5191C48.4763 15.652 48.7298 14.6632 49.4925 13.983C50.2732 13.2831 51.2506 13.2035 51.8986 13.7076C52.6353 14.2817 52.5701 15.314 52.1672 16.0882C51.757 16.8738 51.0795 17.2939 50.4292 17.4979C50.4292 17.4979 50.2925 17.5272 50.313 17.6513C50.3277 17.7709 50.6562 17.9969 50.9312 18.1861C51.1123 18.3107 51.2702 18.4194 51.3003 18.4713C51.3736 18.5959 51.3345 18.7888 51.2012 18.9368C51.1074 19.0442 50.9604 19.1448 50.7724 19.1414C50.6256 19.1385 50.5345 19.0892 50.353 18.9911L50.3338 18.9807C49.9363 18.7654 49.4395 18.4113 49.1081 17.9938C48.9953 17.8526 48.9376 17.8498 48.6558 17.8654C47.386 17.9387 45.4062 18.1301 44.0648 18.2976C43.7395 18.3367 43.6916 18.3987 43.6247 18.5115L43.4799 18.7503C41.383 22.209 39.1459 25.8989 36.6951 28.3879C34.0058 31.1181 31.7704 31.8369 29.3973 31.8555L29.3962 31.8553ZM87.4003 14.7149C87.4711 14.5898 87.3965 14.4985 87.2386 14.4985C86.8324 14.4985 86.3636 14.499 85.8898 14.4994L85.8838 14.4995C85.4001 14.4999 84.9114 14.5004 84.4792 14.5004C84.2751 14.5004 84.1696 14.5248 84.0734 14.7152C83.8653 15.1138 82.1275 17.7481 80.7573 19.825L80.7565 19.8262L80.7554 19.8279C80.0422 20.909 79.4289 21.8386 79.1832 22.2227C79.0621 22.3936 78.9146 22.3696 78.8975 22.1738C78.8248 21.5073 78.2491 20.7411 77.3422 20.3744C76.6511 20.0941 75.9754 20.0433 75.2729 20.1366C74.0046 20.307 72.8747 20.976 71.8814 21.7306C71.2542 22.2073 70.6631 22.7433 70.0653 23.2852C69.2361 24.037 68.3939 24.8006 67.4249 25.434C66.5146 26.0274 65.2681 26.5449 64.4339 25.7724C63.679 25.0725 63.7643 23.5181 64.9193 22.3158C65.041 22.1898 65.187 22.2962 65.164 22.408C65.0551 22.9517 65.1884 23.4925 65.6016 23.8716C66.1054 24.3234 66.8266 24.3743 67.4439 24.0728C68.1722 23.7119 68.6002 23.015 68.7249 22.2241C68.9178 20.9972 67.9735 19.9151 66.7917 19.8283C65.8317 19.7609 64.9111 20.0949 64.0141 20.8353C63.5643 21.2084 63.3089 21.484 62.9199 22.0372C62.8251 22.1735 62.6796 22.1871 62.684 21.9859C62.7279 20.4151 62.0789 19.5313 60.7803 19.5025C59.7722 19.4781 58.6954 20.0253 57.856 20.6945C57.1665 21.2482 56.542 21.9368 55.9093 22.6344C55.6976 22.8678 55.485 23.1023 55.2687 23.333C55.1612 23.4463 55.068 23.4409 55.0377 23.2211C55.0133 22.1803 54.75 21.1723 54.2684 20.4564C54.098 20.2073 53.7392 20.0842 53.4377 20.2522C53.412 20.2663 53.3746 20.2854 53.3283 20.3089C53.1242 20.4128 52.7493 20.6036 52.4618 20.835C52.287 20.9791 52.2186 21.1876 52.2962 21.4549C52.7612 23.0098 52.6591 24.7777 52.0281 26.2708C51.4488 27.6383 50.3231 28.8717 48.9999 29.2891C48.1283 29.5656 47.2221 29.4303 46.6614 28.6575C45.8913 27.591 46.2023 25.7362 47.3503 24.1961C48.3633 22.8399 49.8287 21.9785 51.2904 21.4238C51.4623 21.3573 51.4979 21.247 51.4491 21.1009C51.4007 20.954 51.3344 20.7746 51.2785 20.6232C51.2431 20.5274 51.2116 20.4419 51.1917 20.3841C51.0574 20.0271 50.6821 19.9694 50.2237 20.0192C49.1617 20.1428 48.2037 20.5066 47.2573 21.0134C44.7792 22.3404 43.5368 24.9087 42.9923 26.2827C42.7301 26.9428 42.5059 27.3545 42.2162 27.7196C41.8255 28.2106 41.3351 28.6577 40.4384 29.4452C40.3573 29.5175 40.2967 29.6679 40.3651 29.808C40.4564 29.9975 40.9228 30.6562 41.0544 30.7149C41.2004 30.7867 41.3699 30.6856 41.4377 30.6377C42.0652 30.2124 42.816 29.5382 43.1833 29.0809C43.3122 28.9242 43.4446 28.9901 43.513 29.228C43.8558 30.4511 44.7535 31.4498 45.9949 31.8676C48.2671 32.6339 50.6238 31.5247 52.4028 29.5939C53.17 28.7611 53.6044 28.1299 53.9399 27.6426C54.0987 27.4118 54.2355 27.2131 54.3747 27.0407C54.493 26.8942 54.6298 26.7185 54.7833 26.5213C55.5829 25.4941 56.8357 23.8847 58.2833 22.7882C58.9161 22.3062 59.6649 21.9386 60.0414 22.1828C60.3437 22.3786 60.4414 22.8337 59.9565 23.7156C58.8658 25.7071 57.4565 27.9146 56.4298 29.523C55.8005 30.5087 55.3145 31.27 55.1341 31.6178C55.0472 31.7765 55.1243 31.9014 55.2894 31.9014C55.9818 31.898 56.6696 31.8985 57.3236 31.8989L57.9582 31.8992C58.0974 31.8943 58.1595 31.8289 58.2293 31.7307C58.5394 31.2452 58.8454 30.7652 59.1492 30.2884L59.1654 30.263L59.1661 30.2618L59.1671 30.2603L59.1679 30.2591C60.18 28.6708 61.1693 27.1183 62.2118 25.5264C62.288 25.4038 62.3583 25.497 62.3612 25.5508C62.3905 26.0333 62.5077 26.6932 62.7944 27.1266C63.3092 27.9277 64.0387 28.272 64.8478 28.2772C65.4916 28.287 65.8173 28.1868 66.5115 27.9275C67.0764 27.718 67.5299 27.4431 67.8779 27.1942C68.0811 27.0526 68.1167 27.2895 68.1119 27.3256C67.7993 29.0033 68.1852 30.9912 69.8526 31.8155C71.848 32.7993 74.0402 31.4164 75.3016 30.168C75.4252 30.0479 75.5575 30.0606 75.5702 30.3199C75.5995 30.7966 75.8124 31.3622 76.2068 31.758C77.2638 32.8188 79.3969 32.3984 81.5376 30.7415C82.9119 29.6807 84.35 28.1819 85.649 26.5949C85.6978 26.5333 85.733 26.4347 85.6392 26.3346C85.5092 26.1984 85.3409 26.0494 85.1851 25.9114C85.104 25.8395 85.0263 25.7707 84.9591 25.7082C84.8697 25.632 84.7384 25.654 84.6632 25.7108C84.2862 26.0693 83.9199 26.442 83.5492 26.8193C82.6103 27.7748 81.6427 28.7594 80.4008 29.6156C79.8165 30.0234 78.8853 30.3524 78.4671 29.7861C78.304 29.5664 78.3226 29.2625 78.4818 28.8636C78.8428 27.9632 83.0322 21.4848 85.5436 17.6013C86.5454 16.0522 87.2801 14.916 87.3985 14.7113L87.4003 14.7149Z" fill="#10284B"></path><path fill-rule="evenodd" clip-rule="evenodd" d="M0.726074 20.5877C0.726074 9.19864 25.0193 0.114746 55.3251 0.114746C85.4314 0.114746 109.925 9.2987 109.925 20.5877C109.925 31.8768 85.4314 41.0616 55.3251 41.0616C25.2195 41.0616 0.726074 31.9075 0.726074 20.5877ZM55.3246 39.2802C26.4293 39.2802 3.00537 30.9144 3.00537 20.5945C3.00537 10.273 26.4293 1.90869 55.3246 1.90869C84.2174 1.90869 107.64 10.273 107.64 20.5945C107.64 30.9144 84.2174 39.2802 55.3246 39.2802Z" fill="#10284B"></path></svg>