<svg width="61" height="61" viewBox="0 0 61 61" fill="none" xmlns="http://www.w3.org/2000/svg"><title>GE logo</title><path d="M30.9271 60.5881C14.387 60.5881 0.925049 47.2067 0.925049 30.5861C0.925049 14.0501 14.387 0.588135 30.9271 0.588135C47.4617 0.588135 60.9264 14.0501 60.9264 30.5861C60.9264 47.2067 47.4617 60.5881 30.9271 60.5881ZM30.9271 1.99817C15.1364 1.99817 2.33647 14.7981 2.33647 30.5861C2.33647 46.3754 15.1364 59.1739 30.9271 59.1739C46.7151 59.1739 59.5122 46.3754 59.5122 30.5861C59.5122 14.8814 46.7165 1.99817 30.9271 1.99817ZM56.3494 39.1392L56.1939 39.1712L56.1065 39.0629C56.1121 39.0157 57.1141 36.0583 57.1057 32.6636C57.0932 29.0067 55.6083 26.764 53.6972 26.764C52.5342 26.764 51.7043 27.5967 51.7043 28.8416C51.7043 31.0857 54.4467 31.2522 54.4467 36.1554C54.4467 38.1511 54.0317 40.058 53.3669 42.1383C50.2915 52.5235 40.4837 57.3434 30.9299 57.3434C26.5235 57.3434 23.394 56.4385 22.4614 56.0208C22.4239 56.0014 22.392 55.9278 22.4211 55.8542L22.5419 55.7696C22.9194 55.9195 25.6076 56.7633 28.9328 56.7633C32.5897 56.7633 34.7506 55.2686 34.7506 53.4367C34.7506 52.2778 33.836 51.3632 32.6716 51.3632C30.4275 51.3632 30.261 54.1875 25.4424 54.1875C23.3648 54.1875 21.5385 53.7725 19.3748 53.1077C9.06883 49.9518 4.1573 40.2259 4.16563 30.5861C4.16979 25.8924 5.48407 22.155 5.50627 22.1175L5.65477 22.0925L5.7422 22.2008C5.62146 22.5894 4.74852 25.2707 4.74852 28.5931C4.74852 32.2501 6.24321 34.4095 8.15425 34.4095C9.23537 34.4095 10.1513 33.5796 10.1513 32.4152C10.1513 30.1711 7.4076 29.9227 7.4076 25.1014C7.4076 23.0238 7.82256 21.196 8.48733 19.0352C11.646 8.73191 21.3692 3.90088 30.9271 3.82733C35.3682 3.79402 39.2555 5.12356 39.4012 5.24014L39.4276 5.39002L39.3179 5.47329C39.2721 5.46774 36.7449 4.41021 32.92 4.41021C29.3464 4.40883 27.1037 5.90491 27.1037 7.81733C27.1037 8.89845 27.935 9.81303 29.1812 9.81303C31.4254 9.81303 31.5919 7.06929 36.4104 7.06929C38.488 7.06929 40.3158 7.48426 42.478 8.15041C52.8659 11.3077 57.5998 21.1155 57.6845 30.5874C57.7316 35.4407 56.3633 39.1129 56.3494 39.1392ZM42.0617 32.0016C39.2374 32.0016 37.0752 34.0806 37.0752 36.5718C37.0752 38.6493 38.3201 40.3092 39.9841 40.3092C40.567 40.3092 41.1471 39.9761 41.1471 39.2295C41.1471 38.1511 39.7149 37.886 39.8259 36.2706C39.8967 35.2047 40.9001 34.4928 41.8951 34.4928C43.8908 34.4928 44.8235 36.426 44.8235 38.419C44.7388 41.4944 42.478 43.6344 39.8189 43.6344C36.3258 43.6344 34.0858 40.3092 34.0858 36.7369C34.0858 31.4174 37.5748 29.3398 39.4026 28.8429C39.422 28.8415 44.1823 29.6923 44.0338 27.5939C43.9686 26.6724 42.596 26.3171 41.5995 26.2768C40.4976 26.2338 39.3873 26.6307 39.3873 26.6307C38.8058 26.3379 38.4047 25.7661 38.1577 25.1027C41.5648 22.5269 43.9727 20.0344 43.9727 17.2088C43.9727 15.7127 42.9749 14.3818 41.0638 14.3818C37.6567 14.3818 35.0795 18.7035 35.0795 22.6088C35.0795 23.2736 35.0795 23.9384 35.2474 24.5226C33.0852 26.1006 31.4795 27.0804 28.5692 28.8263C28.5692 28.4613 28.6455 27.5245 28.8884 26.306C29.8863 25.2249 31.2547 23.6081 31.2547 22.3618C31.2547 21.7803 30.9244 21.2807 30.2568 21.2807C28.5956 21.2807 27.3479 23.7746 27.0176 25.5191C26.2682 26.4337 24.7735 27.5994 23.5258 27.5994C22.528 27.5994 22.1977 26.6835 22.1116 26.3532C25.2703 25.2707 29.1771 20.949 29.1771 17.0436C29.1771 16.2123 28.8454 14.3845 26.3515 14.3845C22.6113 14.3845 19.4526 19.9525 19.4526 24.2728C18.123 24.2728 17.6248 22.86 17.6248 21.7817C17.6248 20.7006 18.0398 19.6194 18.0398 19.2891C18.0398 18.9547 17.8732 18.5397 17.375 18.5397C16.1273 18.5397 15.3793 20.2009 15.3793 22.1134C15.4639 24.7738 17.2084 26.4351 19.5358 26.6016C19.8661 28.1809 21.2803 29.6756 23.0248 29.6756C24.1059 29.6756 25.4355 29.3439 26.3501 28.514C26.2654 29.0955 26.1835 29.5938 26.1003 30.092C22.4433 32.0044 19.7843 33.334 17.3736 35.4934C15.4681 37.2365 14.387 39.5625 14.387 41.3917C14.387 43.8842 15.9677 46.2102 19.2083 46.2102C23.0304 46.2102 25.9407 43.1348 27.3521 38.8978C28.0196 36.9035 28.2847 34.0015 28.4512 31.341C32.2733 29.1816 34.0858 27.9297 36.0787 26.5155C36.3272 26.9305 36.5798 27.265 36.9114 27.5134C35.1656 28.428 31.0118 31.0038 31.0118 37.07C31.0118 41.3931 33.9221 46.2102 39.6538 46.2102C44.3918 46.2102 47.6324 42.3063 47.6324 38.5675C47.6296 35.1589 45.7172 32.0016 42.0617 32.0016ZM19.2083 43.6344C17.962 43.6913 17.1321 42.8947 17.1321 41.5666C17.1321 37.9929 22.0853 34.583 25.8255 32.7525C25.1607 37.7403 23.4773 43.4387 19.2083 43.6344ZM21.9507 24.023C21.9507 21.2793 24.6569 16.0666 26.3126 16.6176C28.2653 17.2684 24.693 22.5269 21.9507 24.023ZM37.6581 22.7754C37.6581 19.3682 39.9647 16.0541 41.2248 16.6842C42.6598 17.4031 40.152 20.6145 37.6581 22.7754Z" fill="#10284B"></path></svg>