<svg width="78" height="31" viewBox="0 0 78 31" fill="none" xmlns="http://www.w3.org/2000/svg"><title>IBM logo</title><path d="M0.427734 0.188232V2.29529H15.4138V0.188232H0.427734ZM17.5384 0.188232V2.29529H38.8963C38.8963 2.29529 36.7147 0.188232 33.8256 0.188232H17.5384ZM43.0855 0.188232V2.29529H56.005L55.2385 0.188232H43.0855ZM65.2698 0.188232L64.5033 2.29529H77.3078V0.188232H65.2698ZM0.427734 4.28638V6.39344H15.4138V4.28638H0.427734ZM17.5384 4.28933V6.39246H41.3727C41.3727 6.39246 41.0946 4.77089 40.6091 4.28933H17.5384ZM43.0855 4.28933V6.39246H57.4329L56.7233 4.28933H43.0855ZM63.7359 4.28933L63.0263 6.39246H77.3069V4.28933H63.7359ZM4.73488 8.38453V10.4945H11.2256V8.38453H4.73488ZM21.8456 8.38453V10.4945H28.3363V8.38453H21.8456ZM34.6501 8.38453V10.4945H41.1408C41.1408 10.4945 41.5535 9.38008 41.5535 8.38453H34.6501ZM47.3936 8.38453V10.4945H58.8912L58.1247 8.38453H47.3936ZM62.3237 8.38453L61.5533 10.4945H73.1176V8.38453H62.3237ZM4.73587 12.4856V14.5927H11.2266V12.4856H4.73587ZM21.8465 12.4856V14.5927H38.4246C38.4246 14.5927 39.8102 13.5116 40.2524 12.4856H21.8465ZM47.3936 12.4856V14.5927H53.8843V13.4193L54.2971 14.5927H66.1877L66.6299 13.4193V14.5927H73.1206V12.4856H60.9352L60.2886 14.2703L59.64 12.4856H47.3936ZM4.73488 16.5838V18.6908H11.2256V16.5838H4.73488ZM21.8456 16.5838V18.6908H40.2514C39.8092 17.6688 38.4236 16.5838 38.4236 16.5838H21.8456ZM47.3927 16.5838V18.6908H53.8834V16.5838H47.3927ZM55.0626 16.5838L55.8488 18.6908H64.7637L65.5106 16.5838H55.0626ZM66.6269 16.5838V18.6908H73.1176V16.5838H66.6269ZM4.73685 20.6819V22.789H11.2275V20.6819H4.73685ZM21.8475 20.6819V22.789H28.3382V20.6819H21.8475ZM34.652 20.6819V22.789H41.5545C41.5545 21.7944 41.1417 20.6819 41.1417 20.6819H34.652ZM47.3956 20.6819V22.789H53.8863V20.6819H47.3956ZM56.5386 20.6819L57.2992 22.789H63.274L64.0405 20.6819H56.5386ZM66.6289 20.6819V22.789H73.1196V20.6819H66.6289ZM0.547623 24.7801V26.8901H15.5337V24.7801H0.547623ZM17.5414 24.7801V26.8901H40.6131C41.0985 26.4066 41.3766 24.7801 41.3766 24.7801H17.5414ZM43.2054 24.7801V26.8901H53.8824V24.7801H43.2054ZM58.0146 24.7801L58.7968 26.8901H61.8373L62.5714 24.7801H58.0146ZM66.6289 24.7801V26.8901H77.4268V24.7801H66.6289ZM0.547623 28.8812V30.9882H15.5337V28.8812H0.547623ZM17.5414 28.8812V30.9843H33.8256C36.7147 30.9843 38.8963 28.8812 38.8963 28.8812H17.5414ZM43.2054 28.8812V30.9882H53.8824V28.8812H43.2054ZM59.4985 28.8812L60.2502 30.9823L60.38 30.9853L61.1435 28.8822L59.4985 28.8812ZM66.6299 28.8812V30.9882H77.4277V28.8812H66.6299Z" fill="#10284B"></path></svg>