<svg width="97" height="59" viewBox="0 0 97 59" fill="none" xmlns="http://www.w3.org/2000/svg"><title>Mission Lane logo</title><path d="M44.4195 34.0563C44.3203 33.7868 44.2706 33.4866 44.2706 33.1556C44.2706 32.8341 44.3203 32.5363 44.4195 32.2621C44.5188 31.9879 44.6559 31.7515 44.8308 31.5529C45.0058 31.3543 45.2114 31.1983 45.4478 31.0849C45.6842 30.9714 45.9395 30.9147 46.2137 30.9147C46.4879 30.9147 46.7432 30.969 46.9796 31.0778C47.216 31.1865 47.4217 31.3402 47.5966 31.5387C47.7715 31.7373 47.9086 31.9737 48.0079 32.2479C48.1072 32.5221 48.1568 32.8199 48.1568 33.1414C48.1568 33.4724 48.1072 33.775 48.0079 34.0492C47.9086 34.3234 47.7715 34.5598 47.5966 34.7583C47.4217 34.9569 47.216 35.1105 46.9796 35.2193C46.7432 35.328 46.4879 35.3824 46.2137 35.3824C45.9395 35.3824 45.6842 35.328 45.4478 35.2193C45.2114 35.1105 45.0058 34.9569 44.8308 34.7583C44.6559 34.5598 44.5188 34.3257 44.4195 34.0563Z" fill="#10284B"></path><path d="M21.7805 47.1593C21.4921 47.2728 21.1872 47.3295 20.8657 47.3295C20.5064 47.3295 20.2038 47.2232 19.958 47.0104C19.7121 46.7977 19.5892 46.5306 19.5892 46.2091C19.5892 45.8687 19.7452 45.5874 20.0572 45.3652C20.3693 45.143 20.7711 45.0318 21.2628 45.0318C21.5087 45.0318 21.764 45.0579 22.0287 45.1099C22.2935 45.1619 22.5393 45.2304 22.7663 45.3155V46.1665C22.7663 46.3651 22.6622 46.5447 22.4542 46.7055C22.2935 46.8946 22.0689 47.0459 21.7805 47.1593Z" fill="#10284B"></path><path d="M39.3478 42.8973C39.7118 43.2329 39.9175 43.6797 39.9647 44.2376H36.1069C36.1258 43.9634 36.1896 43.7128 36.2984 43.4859C36.4071 43.2589 36.5466 43.0651 36.7168 42.9044C36.887 42.7436 37.0832 42.6183 37.3054 42.5285C37.5276 42.4387 37.7663 42.3938 38.0216 42.3938C38.5417 42.3938 38.9837 42.5616 39.3478 42.8973Z" fill="#10284B"></path><path fill-rule="evenodd" clip-rule="evenodd" d="M3.25662 0.988037H93.8233C95.1396 0.988037 96.2066 2.05509 96.2066 3.37137V55.8047C96.2066 57.121 95.1396 58.188 93.8233 58.188H3.25662C1.94035 58.188 0.873291 57.121 0.873291 55.8047V3.37137C0.873291 2.05509 1.94035 0.988037 3.25662 0.988037ZM18.6206 30.1913V36.8575H20.5779V26.7873H18.4929L15.4861 32.5174L12.5076 26.7873H10.4084V36.8575H12.3657V30.1913L14.9613 35.1555H16.025L18.6206 30.1913ZM22.284 29.4254V36.8575H24.1846V29.4254H22.284ZM22.284 26.5037V28.39H24.1846V26.5037H22.284ZM26.6708 36.7014C27.2665 36.9 27.8764 36.9993 28.5005 36.9993C29.4271 36.9993 30.1599 36.7889 30.6989 36.3681C31.2378 35.9474 31.5073 35.3729 31.5073 34.6449C31.5073 34.3328 31.453 34.0657 31.3442 33.8435C31.2355 33.6213 31.0653 33.4251 30.8336 33.2549C30.602 33.0847 30.3041 32.9334 29.9401 32.801C29.576 32.6687 29.1387 32.5363 28.6281 32.4039C28.3539 32.3377 28.1246 32.2739 27.9402 32.2124C27.7558 32.151 27.6069 32.0871 27.4935 32.021C27.38 31.9548 27.2973 31.8791 27.2453 31.794C27.1932 31.7089 27.1672 31.6002 27.1672 31.4678C27.1672 31.1747 27.276 30.9619 27.4935 30.8296C27.7109 30.6972 27.9804 30.631 28.3019 30.631C28.6518 30.631 29.004 30.6972 29.3586 30.8296C29.7131 30.9619 30.0795 31.17 30.4578 31.4536L31.2237 30.3048C30.8171 29.9455 30.3703 29.6854 29.8833 29.5247C29.3964 29.364 28.874 29.2836 28.3161 29.2836C27.9 29.2836 27.5147 29.3403 27.1602 29.4538C26.8056 29.5673 26.4959 29.7304 26.2311 29.9431C25.9664 30.1559 25.7607 30.4135 25.6142 30.7161C25.4676 31.0187 25.3943 31.3591 25.3943 31.7373C25.3943 32.021 25.4416 32.2644 25.5362 32.4677C25.6307 32.671 25.782 32.8507 25.99 33.0067C26.1981 33.1627 26.4723 33.3022 26.8127 33.4251C27.1531 33.548 27.5644 33.6757 28.0466 33.8081C28.6234 33.9688 29.0394 34.1106 29.2947 34.2336C29.55 34.3565 29.6777 34.5503 29.6777 34.8151C29.6777 35.0798 29.5689 35.2831 29.3515 35.4249C29.134 35.5668 28.8361 35.6377 28.4579 35.6377C28.0324 35.6377 27.6046 35.555 27.1743 35.3895C26.7441 35.224 26.3021 34.9805 25.8482 34.659L25.139 35.8504C25.5645 36.2192 26.0751 36.5029 26.6708 36.7014ZM33.5113 36.7014C34.107 36.9 34.7169 36.9993 35.341 36.9993C36.2676 36.9993 37.0004 36.7889 37.5394 36.3681C38.0784 35.9474 38.3478 35.3729 38.3478 34.6449C38.3478 34.3328 38.2935 34.0657 38.1847 33.8435C38.076 33.6213 37.9058 33.4251 37.6741 33.2549C37.4425 33.0847 37.1446 32.9334 36.7806 32.801C36.4165 32.6687 35.9792 32.5363 35.4686 32.4039C35.1944 32.3377 34.9651 32.2739 34.7807 32.2124C34.5964 32.151 34.4474 32.0871 34.334 32.021C34.2205 31.9548 34.1378 31.8791 34.0858 31.794C34.0338 31.7089 34.0078 31.6002 34.0078 31.4678C34.0078 31.1747 34.1165 30.9619 34.334 30.8296C34.5515 30.6972 34.8209 30.631 35.1424 30.631C35.4923 30.631 35.8445 30.6972 36.1991 30.8296C36.5537 30.9619 36.9201 31.17 37.2983 31.4536L38.0642 30.3048C37.6576 29.9455 37.2108 29.6854 36.7239 29.5247C36.2369 29.364 35.7145 29.2836 35.1566 29.2836C34.7406 29.2836 34.3553 29.3403 34.0007 29.4538C33.6461 29.5673 33.3364 29.7304 33.0717 29.9431C32.8069 30.1559 32.6012 30.4135 32.4547 30.7161C32.3081 31.0187 32.2348 31.3591 32.2348 31.7373C32.2348 32.021 32.2821 32.2644 32.3767 32.4677C32.4712 32.671 32.6225 32.8507 32.8305 33.0067C33.0386 33.1627 33.3128 33.3022 33.6532 33.4251C33.9936 33.548 34.4049 33.6757 34.8871 33.8081C35.4639 33.9688 35.8799 34.1106 36.1352 34.2336C36.3905 34.3565 36.5182 34.5503 36.5182 34.8151C36.5182 35.0798 36.4095 35.2831 36.192 35.4249C35.9745 35.5668 35.6767 35.6377 35.2984 35.6377C34.8729 35.6377 34.4451 35.555 34.0149 35.3895C33.5846 35.224 33.1426 34.9805 32.6887 34.659L31.9795 35.8504C32.405 36.2192 32.9156 36.5029 33.5113 36.7014ZM39.3732 29.4254V36.8575H41.2738V29.4254H39.3732ZM39.3732 26.5037V28.39H41.2738V26.5037H39.3732ZM44.5826 36.6873C45.0649 36.8953 45.6086 36.9993 46.2137 36.9993C46.8189 36.9993 47.3626 36.8953 47.8448 36.6873C48.327 36.4792 48.7336 36.1979 49.0646 35.8434C49.3955 35.4888 49.6508 35.0798 49.8305 34.6165C50.0101 34.1532 50.0999 33.6662 50.0999 33.1556C50.0999 32.6356 50.0101 32.1439 49.8305 31.6806C49.6508 31.2172 49.3931 30.8083 49.0575 30.4537C48.7218 30.0991 48.3152 29.8178 47.8377 29.6098C47.3602 29.4018 46.8189 29.2978 46.2137 29.2978C45.6086 29.2978 45.0649 29.4018 44.5826 29.6098C44.1004 29.8178 43.6915 30.0991 43.3558 30.4537C43.0201 30.8083 42.7625 31.2172 42.5828 31.6806C42.4031 32.1439 42.3133 32.6356 42.3133 33.1556C42.3133 33.6662 42.4031 34.1532 42.5828 34.6165C42.7625 35.0798 43.0201 35.4888 43.3558 35.8434C43.6915 36.1979 44.1004 36.4792 44.5826 36.6873ZM56.1746 36.8575H58.0751V32.2195C58.0751 31.8602 58.0444 31.5056 57.9829 31.1558C57.9215 30.8059 57.8104 30.4939 57.6496 30.2197C57.4889 29.9455 57.2619 29.7233 56.9688 29.5531C56.6757 29.3829 56.2975 29.2978 55.8342 29.2978C55.1817 29.2978 54.5955 29.4301 54.0754 29.6949C53.5554 29.9597 53.1582 30.3284 52.884 30.8012V29.4254H51.1679V36.8575H53.0684V32.5174C53.1346 32.2904 53.2386 32.0824 53.3804 31.8933C53.5223 31.7042 53.6807 31.5411 53.8556 31.404C54.0305 31.2669 54.2173 31.1605 54.4158 31.0849C54.6144 31.0092 54.8082 30.9714 54.9973 30.9714C55.3661 30.9714 55.6545 31.1085 55.8625 31.3827C56.0705 31.6569 56.1746 32.0919 56.1746 32.6876V36.8575ZM10.4084 38.5075V48.5777H17.5001V46.8615H12.3657V38.5075H10.4084ZM19.3197 48.5422C19.6318 48.6604 19.9674 48.7195 20.3267 48.7195C20.8657 48.7195 21.3716 48.606 21.8443 48.3791C22.3171 48.1522 22.719 47.8212 23.0499 47.3863L23.0925 47.7976C23.1397 48.0623 23.2603 48.2751 23.4541 48.4358C23.648 48.5966 23.9246 48.677 24.2839 48.677C24.5203 48.677 24.7992 48.6439 25.1207 48.5777V46.9608C24.9599 46.9513 24.8441 46.904 24.7732 46.8189C24.7023 46.7338 24.6668 46.592 24.6668 46.3934V44.0816C24.6668 43.0887 24.3713 42.3299 23.7804 41.8052C23.1894 41.2804 22.3597 41.018 21.2912 41.018C20.1849 41.018 19.1543 41.3347 18.1992 41.9683L18.7808 43.1738C19.1779 42.8996 19.5656 42.6916 19.9438 42.5498C20.322 42.4079 20.7097 42.337 21.1068 42.337C21.6552 42.337 22.0689 42.4694 22.3478 42.7342C22.6268 42.9989 22.7663 43.3771 22.7663 43.8688V44.2943C22.5204 44.1903 22.2391 44.1099 21.9223 44.0532C21.6056 43.9965 21.2817 43.9681 20.9508 43.9681C20.4875 43.9681 20.062 44.0272 19.6743 44.1454C19.2866 44.2636 18.9533 44.4267 18.6744 44.6347C18.3954 44.8427 18.178 45.0957 18.0219 45.3935C17.8659 45.6914 17.7879 46.0152 17.7879 46.3651C17.7879 46.7055 17.8517 47.0175 17.9794 47.3012C18.107 47.5848 18.2843 47.833 18.5113 48.0458C18.7382 48.2585 19.0077 48.424 19.3197 48.5422ZM31.2378 48.5777H33.1384V43.9397C33.1384 43.5804 33.1077 43.2258 33.0462 42.876C32.9848 42.5261 32.8736 42.2141 32.7129 41.9399C32.5522 41.6657 32.3252 41.4435 32.0321 41.2733C31.739 41.1031 31.3608 41.018 30.8974 41.018C30.245 41.018 29.6588 41.1504 29.1387 41.4151C28.6187 41.6799 28.2215 42.0486 27.9473 42.5214V41.1456H26.2311V48.5777H28.1317V44.2376C28.1979 44.0107 28.3019 43.8026 28.4437 43.6135C28.5856 43.4244 28.7439 43.2613 28.9189 43.1242C29.0938 42.9871 29.2806 42.8807 29.4791 42.8051C29.6777 42.7294 29.8715 42.6916 30.0606 42.6916C30.4294 42.6916 30.7178 42.8287 30.9258 43.1029C31.1338 43.3771 31.2378 43.8121 31.2378 44.4078V48.5777ZM36.4189 48.4146C36.9011 48.6179 37.4401 48.7195 38.0358 48.7195C38.8679 48.7195 39.5841 48.5375 40.1846 48.1735C40.785 47.8094 41.2223 47.3437 41.4965 46.7764L39.8655 46.3225C39.7425 46.6251 39.5132 46.8686 39.1776 47.053C38.8419 47.2374 38.4849 47.3295 38.1067 47.3295C37.8609 47.3295 37.6245 47.287 37.3976 47.2019C37.1706 47.1168 36.9673 46.9939 36.7877 46.8331C36.608 46.6724 36.4615 46.4785 36.348 46.2516C36.2345 46.0247 36.1636 45.7647 36.1352 45.4715H41.8795C41.8984 45.3959 41.9102 45.3013 41.9149 45.1879C41.9197 45.0744 41.922 44.9562 41.922 44.8333C41.922 44.3321 41.8346 43.8499 41.6596 43.3866C41.4847 42.9233 41.2294 42.5167 40.8937 42.1668C40.5581 41.817 40.1515 41.538 39.674 41.33C39.1965 41.122 38.6551 41.018 38.05 41.018C37.4448 41.018 36.8988 41.122 36.4118 41.33C35.9249 41.538 35.5112 41.8193 35.1708 42.1739C34.8304 42.5285 34.5704 42.9398 34.3907 43.4079C34.211 43.8759 34.1212 44.3747 34.1212 44.9042C34.1212 45.4148 34.2134 45.9018 34.3978 46.3651C34.5822 46.8284 34.8446 47.235 35.185 47.5848C35.5254 47.9347 35.9367 48.2113 36.4189 48.4146Z" fill="#10284B"></path></svg>