<svg width="87" height="61" viewBox="0 0 87 61" fill="none" xmlns="http://www.w3.org/2000/svg"><title>Salesforce logo</title><path d="M55.9672 30.7484C56.2798 30.2745 56.4385 29.6042 56.4385 28.7531C56.4385 27.9032 56.2798 27.2339 55.9685 26.7651C55.6583 26.3011 55.1906 26.0752 54.5386 26.0752C53.8853 26.0752 53.4201 26.3011 53.116 26.7651C52.8082 27.234 52.652 27.9032 52.652 28.7531C52.652 29.6042 52.8082 30.2758 53.116 30.7484C53.4201 31.2185 53.8853 31.4456 54.5386 31.4456C55.1905 31.4456 55.6582 31.2173 55.9672 30.7484Z" fill="#10284B"></path><path d="M72.9293 26.7655C72.7278 27.0719 72.5971 27.4652 72.5275 27.9377H76.0713C76.0359 27.4824 75.9467 27.0719 75.7415 26.7655C75.4326 26.3015 75.0016 26.0451 74.3495 26.0451C73.6974 26.0451 73.2334 26.3003 72.9293 26.7655Z" fill="#10284B"></path><path d="M32.7357 27.9377C32.8065 27.4652 32.936 27.0719 33.1374 26.7655C33.4415 26.3003 33.9055 26.0451 34.5576 26.0451C35.2096 26.0451 35.6407 26.3015 35.9508 26.7655C36.1547 27.0719 36.2438 27.4824 36.2793 27.9377H32.7357Z" fill="#10284B"></path><path d="M21.709 30.8968C21.7749 30.9969 21.8018 31.036 21.996 31.1911C21.9923 31.1899 22.4416 31.5428 23.4527 31.4817C24.1634 31.4389 24.7947 31.3034 24.7947 31.3034H24.7935V29.0444C24.7935 29.0444 24.1573 28.9394 23.4454 28.9296C22.432 28.9162 22.0009 29.2899 22.0045 29.2886C21.7053 29.4999 21.5613 29.8137 21.5613 30.2508C21.5613 30.5268 21.6113 30.7441 21.709 30.8968Z" fill="#10284B"></path><path fill-rule="evenodd" clip-rule="evenodd" d="M47.2494 2.46491C42.9927 2.46491 39.1438 4.25151 36.3792 7.13206C33.3374 3.15489 28.5397 0.588135 23.1412 0.588135C13.9462 0.588135 6.49139 8.03192 6.49139 17.2146C6.49139 19.5653 6.98109 21.8012 7.86147 23.8269C3.58518 26.3265 0.707031 30.9985 0.707031 36.3494C0.707031 44.3342 7.11298 50.806 15.0147 50.8059C16.0234 50.8059 17.0064 50.7009 17.9552 50.4994C20.1263 56.3888 25.7824 60.5881 32.4191 60.5881C38.7921 60.5881 44.2602 56.7173 46.6072 51.1967C48.3924 52.0674 50.3974 52.557 52.5173 52.557C57.5812 52.557 61.9931 49.7667 64.3083 45.637C65.5065 45.8789 66.726 46.0004 67.9484 45.9997C78.1543 45.9997 86.4286 37.6534 86.4286 27.3571C86.4286 17.062 78.1543 8.71572 67.9484 8.71572C65.2877 8.71572 62.7588 9.28359 60.4741 10.3044C57.8449 5.62022 52.9081 2.46491 47.2494 2.46491ZM51.7945 21.7051C51.6358 21.6563 51.4917 21.6233 51.3036 21.5879C51.1131 21.5538 50.886 21.5366 50.6284 21.5366C49.7296 21.5366 49.0213 21.7906 48.5244 22.2912C48.0298 22.7895 47.694 23.5478 47.5255 24.5454L47.4644 24.8812H46.3362C46.3362 24.8812 46.1994 24.8763 46.17 25.0254L45.9857 26.0596C45.9723 26.1573 46.0151 26.2195 46.1469 26.2195H47.2447L46.131 32.4374C46.0442 32.9381 45.9441 33.3496 45.833 33.6621C45.7243 33.9699 45.6181 34.2006 45.4862 34.3692C45.3592 34.5304 45.2396 34.65 45.0319 34.7196C44.861 34.777 44.6632 34.8039 44.447 34.8039C44.3273 34.8039 44.1675 34.7842 44.049 34.7599C43.9318 34.7366 43.8695 34.711 43.7803 34.6731C43.7803 34.6731 43.6521 34.6244 43.6008 34.7526C43.5605 34.8588 43.2674 35.6634 43.232 35.7624C43.1978 35.8613 43.2467 35.9382 43.3089 35.9614C43.4554 36.0127 43.5641 36.0469 43.7631 36.0945C44.0392 36.1593 44.2723 36.1629 44.4909 36.1629C44.9475 36.1629 45.3652 36.0982 45.7108 35.9737C46.0576 35.8479 46.3604 35.6293 46.629 35.3338C46.9185 35.0138 47.1004 34.6793 47.2739 34.2214C47.446 33.7695 47.5938 33.2079 47.711 32.5534L48.8308 26.2195H50.467C50.467 26.2195 50.6049 26.2244 50.6331 26.0743L50.8187 25.0412C50.8309 24.9424 50.7894 24.8813 50.6562 24.8813H49.0676C49.0689 24.8761 49.0715 24.8594 49.0757 24.8331C49.0998 24.6813 49.175 24.2088 49.3302 23.7604C49.4083 23.5369 49.5548 23.3549 49.6782 23.2304C49.8004 23.1082 49.9408 23.0216 50.0947 22.9715C50.2522 22.9202 50.4318 22.8958 50.6283 22.8958C50.7773 22.8958 50.925 22.9129 51.0361 22.936C51.1899 22.9691 51.2497 22.9861 51.2902 22.9984C51.4526 23.0472 51.4745 22.9996 51.5063 22.9215L51.8861 21.8787C51.9251 21.7661 51.8287 21.7185 51.7945 21.7051ZM29.5979 32.4509C29.5979 32.5339 29.5381 32.6011 29.455 32.6011H28.1375C28.0544 32.6011 27.9958 32.5339 27.9958 32.4509V21.8468C27.9958 21.7638 28.0544 21.6966 28.1375 21.6966H29.455C29.5381 21.6966 29.5979 21.7638 29.5979 21.8468V32.4509ZM13.1468 31.8829C13.1212 31.8587 13.0786 31.8186 13.1231 31.7023L13.4701 30.7399C13.5251 30.5738 13.6509 30.6288 13.7009 30.6606C13.7414 30.685 13.7777 30.7085 13.8155 30.733C13.8666 30.7661 13.9206 30.801 13.9915 30.8425C15.0136 31.4885 15.9599 31.4946 16.2567 31.4946C17.0211 31.4946 17.4949 31.0893 17.4949 30.5446V30.5153C17.4949 29.92 16.7673 29.6964 15.9222 29.4366L15.7328 29.3784C14.5715 29.0463 13.3321 28.57 13.3321 27.1011V27.0718C13.3321 25.6785 14.4555 24.7065 16.0649 24.7065L16.2407 24.7053C17.1858 24.7053 18.0992 24.98 18.7598 25.3818C18.8196 25.4184 18.8782 25.4868 18.8453 25.5797C18.8147 25.6651 18.5216 26.454 18.4875 26.5419C18.4252 26.7067 18.2555 26.5968 18.2555 26.5968C17.6767 26.2769 16.7779 26.0253 16.0209 26.0253C15.3395 26.0253 14.8999 26.3869 14.8999 26.8778V26.9082C14.8999 27.4819 15.6512 27.726 16.5225 28.0092L16.6741 28.0585C17.8305 28.4236 19.0626 28.9291 19.0626 30.3212V30.3505C19.0626 31.8561 17.9709 32.7914 16.2126 32.7914C15.3492 32.7914 14.5237 32.6559 13.6494 32.192C13.6152 32.1725 13.581 32.1534 13.5469 32.1343C13.4167 32.0616 13.2874 31.9893 13.1597 31.8965C13.1568 31.8923 13.1521 31.8879 13.1468 31.8829ZM38.8651 31.7023C38.8206 31.8186 38.8632 31.8587 38.8888 31.8829C38.8942 31.8879 38.8988 31.8923 38.9017 31.8965C39.0293 31.9892 39.1584 32.0614 39.2884 32.1341L39.2894 32.1346L39.3328 32.1589L39.3913 32.192C40.2656 32.6559 41.0913 32.7914 41.9545 32.7914C43.7128 32.7914 44.8046 31.8561 44.8046 30.3505V30.3212C44.8046 28.9291 43.5725 28.4236 42.416 28.0585L42.2643 28.0091C41.3931 27.726 40.6417 27.4818 40.6417 26.9082V26.8778C40.6417 26.3869 41.0813 26.0253 41.7627 26.0253C42.5198 26.0253 43.4185 26.2769 43.9974 26.5968C43.9974 26.5968 44.1671 26.7067 44.2293 26.5419C44.2635 26.454 44.5566 25.6651 44.5871 25.5797C44.6202 25.4868 44.5615 25.4184 44.5017 25.3818C43.841 24.98 42.9276 24.7053 41.9825 24.7053L41.8066 24.7065C40.1972 24.7065 39.0739 25.6785 39.0739 27.0718V27.1011C39.0739 28.57 40.3133 29.0463 41.4746 29.3784L41.6657 29.4372C42.5101 29.6967 43.2379 29.9204 43.2379 30.5153V30.5446C43.2379 31.0893 42.7629 31.4946 41.9984 31.4946C41.7018 31.4946 40.7554 31.4885 39.7334 30.8425C39.6369 30.7861 39.5711 30.7432 39.5026 30.6986L39.444 30.6606C39.4122 30.6398 39.2632 30.5824 39.2119 30.7399L38.8651 31.7023ZM57.2384 25.9006C57.5375 26.2583 57.7622 26.6881 57.9063 27.1754C58.0504 27.6601 58.1226 28.1914 58.1226 28.7531C58.1226 29.3148 58.0506 29.846 57.9064 30.3307C57.7623 30.8179 57.5376 31.2478 57.2385 31.6056C56.9392 31.9645 56.5595 32.2515 56.1113 32.4554C55.662 32.6594 55.1333 32.7631 54.5386 32.7631C53.9426 32.7631 53.4139 32.6594 52.9646 32.4554C52.5164 32.2515 52.1366 31.9646 51.8375 31.6056C51.5371 31.2466 51.3136 30.8167 51.1683 30.3307C51.0254 29.8472 50.9534 29.3161 50.9534 28.7531C50.9534 28.1901 51.0254 27.6601 51.1683 27.1754C51.3136 26.6894 51.5383 26.2596 51.8362 25.9006C52.1366 25.5417 52.5151 25.2534 52.9645 25.0434C53.4127 24.8346 53.9426 24.7284 54.5386 24.7284C55.1332 24.7284 55.6631 24.8346 56.1112 25.0434C56.5607 25.2534 56.9392 25.5416 57.2384 25.9006ZM69.9594 31.2183C69.9106 31.0754 69.7726 31.1292 69.7726 31.1292C69.559 31.211 69.3317 31.2867 69.09 31.3245C68.8445 31.3623 68.5747 31.382 68.2852 31.382C67.5747 31.382 67.0105 31.1707 66.6063 30.7531C66.2009 30.3354 65.9738 29.6602 65.9762 28.7468C65.9786 27.9153 66.1788 27.29 66.5391 26.8138C66.897 26.3401 67.4416 26.097 68.1681 26.097C68.7738 26.097 69.2354 26.1666 69.7188 26.3192C69.7188 26.3192 69.8348 26.3693 69.8897 26.2179C69.9311 26.1029 69.969 25.9985 70.006 25.8966C70.0837 25.6825 70.1573 25.4797 70.25 25.2141C70.2891 25.103 70.1938 25.0554 70.1596 25.0419C69.9691 24.9674 69.5197 24.8466 69.1803 24.7953C68.8628 24.7465 68.4916 24.7208 68.0789 24.7208C67.4621 24.7208 66.9127 24.8258 66.4426 25.0359C65.9737 25.2447 65.5756 25.5328 65.2606 25.8919C64.9455 26.2509 64.7062 26.6807 64.5463 27.1667C64.3875 27.6514 64.3069 28.1838 64.3069 28.7468C64.3069 29.9642 64.6354 30.9484 65.2839 31.6689C65.9334 32.3918 66.9091 32.7593 68.1816 32.7593C68.9338 32.7593 69.7055 32.6068 70.2599 32.3881C70.2599 32.3881 70.3661 32.3368 70.3197 32.2136L69.9594 31.2183ZM76.8332 25.736C77.0359 25.9534 77.3449 26.4284 77.4694 26.8985C77.7668 27.9433 77.6421 28.8553 77.6201 29.0162L77.6182 29.0298L77.6171 29.039C77.6036 29.1661 77.473 29.1685 77.473 29.1685L72.5043 29.1636C72.536 29.9182 72.7156 30.4531 73.0831 30.8169C73.4409 31.1723 74.0124 31.3995 74.7829 31.4007C75.8584 31.4029 76.3733 31.2057 76.7252 31.071L76.7691 31.0542L76.8222 31.0343C76.8222 31.0343 76.9603 30.9842 77.009 31.1197L77.3338 32.0295C77.3999 32.1834 77.3473 32.2371 77.2923 32.2676C76.9809 32.4398 76.2252 32.7597 74.7903 32.7646C74.0931 32.7659 73.4862 32.6657 72.9867 32.4727C72.4836 32.2787 72.0635 32.0003 71.7375 31.6449C71.4102 31.292 71.1685 30.8659 71.0171 30.3823C70.8669 29.9025 70.7912 29.3688 70.7912 28.7961C70.7912 28.2333 70.8644 27.6996 71.0097 27.2099C71.1539 26.7178 71.3809 26.2843 71.6826 25.9205C71.9843 25.5554 72.3689 25.2623 72.8268 25.0473C73.2834 24.8325 73.8464 24.7286 74.4667 24.7286C74.9991 24.7286 75.4851 24.8433 75.8905 25.0168C76.2007 25.1511 76.5132 25.3917 76.8332 25.736ZM37.6762 26.8985C37.5517 26.4284 37.244 25.9534 37.0413 25.736C36.7214 25.3917 36.4088 25.1511 36.0987 25.0168C35.6932 24.8433 35.2073 24.7286 34.6749 24.7286C34.0558 24.7286 33.4916 24.8325 33.0349 25.0473C32.577 25.2623 32.1924 25.5554 31.8907 25.9205C31.5891 26.2843 31.362 26.7178 31.2179 27.2099C31.0739 27.6996 30.9994 28.2333 30.9994 28.7961C30.9994 29.3688 31.0751 29.9025 31.2253 30.3823C31.3768 30.8659 31.6186 31.292 31.9458 31.6449C32.2718 32.0003 32.6918 32.2787 33.1949 32.4727C33.6944 32.6657 34.3012 32.7659 34.9985 32.7646C36.4333 32.7597 37.1892 32.4398 37.5006 32.2676C37.5556 32.2371 37.608 32.1834 37.5421 32.0295L37.2185 31.1197C37.1684 30.9842 37.0305 31.0343 37.0305 31.0343C36.9993 31.0458 36.967 31.0582 36.9332 31.0712C36.5815 31.2059 36.0672 31.4029 34.99 31.4007C34.2208 31.3995 33.6493 31.1723 33.2915 30.8169C32.9239 30.4531 32.7444 29.9182 32.7126 29.1636L37.6813 29.1685C37.6813 29.1685 37.8119 29.1661 37.8254 29.039C37.8257 29.0353 37.8268 29.0274 37.8284 29.0154C37.8505 28.8522 37.9742 27.9416 37.6762 26.8985ZM23.1974 27.6767C23.51 27.6767 23.7714 27.6853 23.9729 27.7C23.9729 27.7 24.3648 27.7353 24.7923 27.7963V27.5863C24.7923 26.9244 24.6543 26.6106 24.3832 26.4031C24.1048 26.1894 23.6921 26.082 23.1548 26.082C23.1548 26.082 21.9459 26.0661 20.9898 26.5863C20.9458 26.6119 20.9079 26.6266 20.9079 26.6266C20.9079 26.6266 20.7894 26.6681 20.7455 26.546L20.3938 25.6009C20.3401 25.4641 20.4377 25.403 20.4377 25.403C20.8847 25.0537 21.9702 24.8437 21.9702 24.8437C22.3292 24.7717 22.9288 24.7203 23.3013 24.7203C24.294 24.7203 25.062 24.9512 25.5835 25.4079C26.1073 25.8657 26.3735 26.6045 26.3735 27.601L26.376 32.1447C26.376 32.1447 26.3858 32.2767 26.2624 32.3071C26.1468 32.3385 26.0308 32.3682 25.9144 32.3963C25.7483 32.434 25.15 32.5549 24.6628 32.638C24.1707 32.7224 23.6627 32.7638 23.1535 32.7638C22.6699 32.7638 22.2279 32.7187 21.8383 32.6295C21.4428 32.5403 21.102 32.3927 20.8261 32.1912C20.5477 31.9896 20.3292 31.7284 20.1777 31.4146C20.0263 31.1019 19.9506 30.7197 19.9506 30.2801C19.9506 29.8478 20.0397 29.4619 20.2155 29.1347C20.3895 28.8098 20.636 28.5294 20.936 28.3153C21.2364 28.1005 21.5856 27.938 21.9739 27.8342C22.3598 27.7304 22.7713 27.6767 23.1974 27.6767ZM64.0474 25.1398C64.0851 25.0274 64.0059 24.9737 63.9728 24.9615C63.8886 24.9286 63.4661 24.8394 63.1401 24.8186C62.5162 24.7808 62.1694 24.8858 61.8591 25.025C61.5514 25.1642 61.2096 25.3888 61.019 25.6441V25.0397C61.019 24.9554 60.9592 24.8882 60.8761 24.8882H59.6025C59.5195 24.8882 59.4597 24.9553 59.4597 25.0397V32.4505C59.4597 32.5336 59.5281 32.602 59.6111 32.602H60.9164C60.9564 32.6017 60.9947 32.5857 61.0228 32.5573C61.051 32.5289 61.0667 32.4905 61.0666 32.4505V28.7482C61.0666 28.2512 61.1216 27.7555 61.2315 27.4441C61.339 27.1363 61.4855 26.8897 61.6662 26.7126C61.8481 26.5368 62.0545 26.4135 62.2804 26.3439C62.5112 26.273 62.7664 26.2498 62.9472 26.2498C63.2072 26.2498 63.493 26.3169 63.493 26.3169C63.5881 26.3279 63.6419 26.2693 63.6736 26.1826C63.7592 25.9555 64.001 25.2753 64.0474 25.1398Z" fill="#10284B"></path></svg>