<svg width="126" height="37" viewBox="0 0 126 37" fill="none" xmlns="http://www.w3.org/2000/svg"><title>Shopify logo</title><path d="M43.9142 20.5535C42.8479 19.9643 42.2868 19.4873 42.2868 18.8139C42.2868 17.944 43.0443 17.4109 44.2509 17.4109C45.6538 17.4109 46.8884 18.0002 46.8884 18.0002L47.8705 14.9979C47.8705 14.9979 46.9726 14.2964 44.307 14.2964C40.6032 14.2964 38.0218 16.4289 38.0218 19.4031C38.0218 21.0866 39.2283 22.3773 40.8277 23.3033C42.1184 24.0328 42.5673 24.5659 42.5673 25.3235C42.5673 26.1372 41.922 26.7826 40.7155 26.7826C38.9197 26.7826 37.2362 25.8566 37.2362 25.8566L36.198 28.8589C36.198 28.8589 37.7693 29.8971 40.3788 29.8971C44.1948 29.8971 46.9165 28.0171 46.9165 24.6501C46.9726 22.7982 45.5696 21.5075 43.9142 20.5535Z" fill="#10284B"></path><path d="M59.1229 14.2395C57.2429 14.2395 55.7839 15.1374 54.6335 16.4842L54.5774 16.4561L56.2048 7.92627H51.9398L47.8152 29.6157H52.0521L53.455 22.2082C54.0162 19.4023 55.4472 17.6907 56.794 17.6907C57.748 17.6907 58.1128 18.3361 58.1128 19.262C58.1128 19.8513 58.0567 20.5527 57.9164 21.142L56.317 29.6438H60.5539L62.2094 20.8894C62.4058 19.9635 62.518 18.8692 62.518 18.1116C62.5741 15.6705 61.3395 14.2395 59.1229 14.2395Z" fill="#10284B"></path><path d="M72.1686 14.2397C67.0619 14.2397 63.6667 18.8414 63.6667 23.9762C63.6667 27.259 65.687 29.9246 69.503 29.9246C74.5255 29.9246 77.8926 25.4352 77.8926 20.1882C77.9206 17.1298 76.1529 14.2397 72.1686 14.2397ZM70.0922 26.6417C68.6332 26.6417 68.0439 25.4072 68.0439 23.8639C68.0439 21.4228 69.3066 17.4665 71.6074 17.4665C73.1226 17.4665 73.5996 18.7572 73.5996 20.0199C73.5996 22.6574 72.3369 26.6417 70.0922 26.6417Z" fill="#10284B"></path><path d="M88.7798 14.2397C85.9178 14.2397 84.2904 16.765 84.2904 16.765H84.2342L84.4868 14.4923H80.7269C80.5305 16.0355 80.1938 18.3644 79.8571 20.1321L76.9109 35.6206H81.1478L82.3262 29.3354H82.4104C82.4104 29.3354 83.2802 29.8966 84.9077 29.8966C89.9021 29.8966 93.1569 24.7899 93.1569 19.627C93.1569 16.7931 91.8943 14.2397 88.7798 14.2397ZM84.7393 26.7259C83.645 26.7259 82.9997 26.1086 82.9997 26.1086L83.7011 22.1523C84.2062 19.5148 85.5811 17.7471 87.0401 17.7471C88.3308 17.7471 88.7236 18.9536 88.7236 20.076C88.7236 22.7977 87.0962 26.7259 84.7393 26.7259Z" fill="#10284B"></path><path d="M99.2172 8.15088C97.8704 8.15088 96.7761 9.21711 96.7761 10.6201C96.7761 11.8827 97.5618 12.7525 98.7683 12.7525H98.8244C100.143 12.7525 101.294 11.8546 101.322 10.2833C101.35 9.0207 100.508 8.15088 99.2172 8.15088Z" fill="#10284B"></path><path d="M93.2703 29.6162H97.5352L100.425 14.5767H96.1323L93.2703 29.6162Z" fill="#10284B"></path><path d="M111.199 14.5485H108.252L108.393 13.847C108.645 12.3879 109.487 11.0972 110.918 11.0972C111.676 11.0972 112.265 11.3217 112.265 11.3217L113.107 8.01076C113.107 8.01076 112.377 7.646 110.806 7.646C109.291 7.646 107.804 8.06688 106.653 9.04894C105.194 10.2835 104.521 12.0512 104.184 13.847L104.072 14.5485H102.108L101.49 17.7472H103.454L101.21 29.616H105.447L107.691 17.7472H110.609L111.199 14.5485Z" fill="#10284B"></path><path d="M121.412 14.5767C121.412 14.5767 118.746 21.2547 117.568 24.9023H117.512C117.428 23.7238 116.474 14.5767 116.474 14.5767H112.012L114.566 28.3816C114.622 28.6902 114.594 28.8867 114.481 29.0831C113.976 30.0371 113.163 30.963 112.181 31.6364C111.395 32.2257 110.497 32.5904 109.796 32.8429L110.974 36.4345C111.844 36.2381 113.612 35.5366 115.127 34.1337C117.063 32.3098 118.859 29.532 120.682 25.716L125.873 14.5767H121.412Z" fill="#10284B"></path><path d="M21.5823 4.81214C21.5823 4.81214 21.1895 4.92437 20.5441 5.12078C20.4319 4.75602 20.2635 4.33514 20.039 3.8862C19.3095 2.48326 18.2152 1.72567 16.9245 1.72567C16.8403 1.72567 16.7562 1.72567 16.6439 1.75373C16.6159 1.69761 16.5598 1.66955 16.5317 1.61343C15.9705 0.996139 15.241 0.715551 14.3712 0.74361C12.6876 0.799727 11.0041 2.00626 9.65729 4.16678C8.70329 5.68196 7.97376 7.58996 7.77735 9.07708C5.84129 9.66631 4.49447 10.0872 4.46641 10.1153C3.48435 10.4239 3.45629 10.452 3.34405 11.3779C3.25988 12.0794 0.678467 31.8328 0.678467 31.8328L21.8909 35.5085V4.78408C21.7226 4.78408 21.6384 4.81214 21.5823 4.81214ZM16.672 6.32731C15.5496 6.66402 14.315 7.05684 13.1085 7.42161C13.4452 6.10284 14.1186 4.78408 14.9043 3.91426C15.2129 3.60561 15.6338 3.24084 16.1108 3.01637C16.5878 4.02649 16.7 5.40137 16.672 6.32731ZM14.3712 1.89402C14.764 1.89402 15.1007 1.9782 15.3813 2.14655C14.9323 2.37102 14.4834 2.73579 14.0625 3.15667C12.9963 4.30708 12.1826 6.10284 11.8459 7.81443C10.8358 8.12308 9.82564 8.43172 8.8997 8.71231C9.51699 6.01867 11.7898 1.95014 14.3712 1.89402ZM11.1163 17.3264C11.2286 19.1221 15.9705 19.515 16.2511 23.7518C16.4475 27.0908 14.4834 29.3636 11.6495 29.532C8.22629 29.7564 6.34635 27.7362 6.34635 27.7362L7.07588 24.6497C7.07588 24.6497 8.95582 26.0807 10.471 25.9685C11.4531 25.9124 11.8178 25.0987 11.7898 24.5375C11.6495 22.1805 7.77735 22.3208 7.52482 18.4487C7.30035 15.1939 9.43282 11.911 14.1467 11.6024C15.9705 11.4901 16.8965 11.9391 16.8965 11.9391L15.8302 15.9795C15.8302 15.9795 14.6237 15.4184 13.1927 15.5306C11.1163 15.6709 11.0883 16.9897 11.1163 17.3264ZM17.7943 5.99061C17.7943 5.14884 17.6821 3.94231 17.2893 2.9322C18.58 3.18473 19.1973 4.61573 19.4779 5.48555C18.9728 5.62584 18.4116 5.7942 17.7943 5.99061Z" fill="#10284B"></path><path d="M22.5359 35.4522L31.3464 33.2636C31.3464 33.2636 27.5584 7.6459 27.5304 7.47755C27.5023 7.30919 27.362 7.19696 27.2217 7.19696C27.0814 7.19696 24.6122 7.14084 24.6122 7.14084C24.6122 7.14084 23.0971 5.68178 22.5359 5.12061V35.4522Z" fill="#10284B"></path></svg>