<svg width="60" height="60" viewBox="0 0 60 60" fill="none" xmlns="http://www.w3.org/2000/svg"><title>Volkswagen logo</title><path d="M29.9499 56.3352C15.2802 56.3352 3.26165 44.2577 3.26165 29.5881C3.26165 26.2889 3.8508 23.1664 4.97017 20.2207L20.5825 51.622C20.7592 52.0345 21.0538 52.3879 21.5251 52.3879C21.9964 52.3879 22.291 52.0345 22.4677 51.622L29.6553 35.5384C29.7142 35.3617 29.832 35.1849 30.0088 35.1849C30.1855 35.1849 30.2444 35.3617 30.3623 35.5384L37.5498 51.622C37.7266 52.0345 38.0212 52.3879 38.4925 52.3879C38.9638 52.3879 39.2584 52.0345 39.4351 51.622L55.0474 20.2207C56.1668 23.1664 56.7559 26.2889 56.7559 29.5881C56.6381 44.2577 44.6196 56.3352 29.9499 56.3352ZM29.9499 23.5199C29.7731 23.5199 29.7142 23.3431 29.5964 23.1664L21.2305 4.31378C23.9406 3.31224 26.8863 2.78201 29.9499 2.78201C33.0134 2.78201 35.9591 3.31224 38.6692 4.31378L30.3034 23.1664C30.1855 23.402 30.1266 23.5199 29.9499 23.5199ZM21.4073 42.9027C21.2305 42.9027 21.1716 42.726 21.0538 42.5492L7.50349 15.2129C9.91898 11.5013 13.1593 8.37887 17.1065 6.19904L26.8863 27.9385C27.0042 28.2919 27.2987 28.4098 27.5933 28.4098H32.3065C32.6599 28.4098 32.8956 28.3509 33.0723 27.9385L42.8521 6.19904C46.7405 8.37887 50.0397 11.5013 52.4552 15.2129L38.787 42.5492C38.7281 42.726 38.6103 42.9027 38.4336 42.9027C38.2568 42.9027 38.1979 42.726 38.0801 42.5492L32.9545 30.8842C32.7778 30.4718 32.5421 30.4129 32.1886 30.4129H27.4755C27.122 30.4129 26.8863 30.4718 26.7096 30.8842L21.7608 42.5492C21.7019 42.726 21.584 42.9027 21.4073 42.9027ZM29.9499 59.0453C46.2692 59.0453 59.4071 45.9074 59.4071 29.5881C59.4071 13.2688 46.2692 0.130859 29.9499 0.130859C13.6306 0.130859 0.492676 13.2688 0.492676 29.5881C0.492676 45.9074 13.6306 59.0453 29.9499 59.0453Z" fill="#10284B"></path></svg>