<svg width="75" height="241" viewBox="0 0 75 241" fill="none" xmlns="http://www.w3.org/2000/svg" class="pos-abs"><g clip-path="url(#clip0_1832_20913)"><path d="M43.9286 0.568853C45.4324 0.579604 43.1477 0.908253 44.9007 0.708473C44.7429 0.521571 44.4077 0.377658 43.9286 0.568853Z" fill="#381FD1"></path><path d="M48.0973 227.55C45.3036 223.611 40.3067 219.718 37.499 215.257C37.1929 214.768 37.1682 215.75 36.398 214.586C35.7955 213.493 34.9727 212.267 34.0974 210.978C33.222 209.689 32.2316 208.39 31.251 206.976C30.2703 205.563 29.2274 204.202 28.2993 202.851C27.8353 202.175 27.3186 201.437 26.7923 200.814C26.3283 200.138 25.8643 199.463 25.453 198.849L25.4765 199.257C24.802 198.332 24.468 196.799 23.9181 195.769C23.8558 195.821 23.9417 196.176 23.7215 196.042C23.8751 195.592 22.7988 193.939 22.7849 193.416C22.4691 193.043 22.2822 193.201 21.8612 192.702L21.8665 191.95C21.8386 190.906 21.2361 189.814 20.6958 188.669C20.1555 187.524 19.4477 186.307 19.0943 185.004C19.0847 185.119 19.1179 185.411 18.9601 185.224C17.7517 181.013 15.8592 175.993 14.6895 171.322C14.6702 171.552 14.421 171.763 14.2631 171.576C14.522 171.25 14.2406 169.78 13.9399 168.539C13.4565 168.094 13.7261 166.264 13.1429 164.942L13.071 165.11C13.1677 163.96 12.507 163.557 12.709 162.533L12.2977 161.919C12.7531 161.321 11.6715 160.42 11.8111 159.448L11.9261 159.457C11.9411 158.591 11.5727 158.155 11.4631 157.393L11.4105 157.331C11.2204 155.463 10.7854 154.442 11.1925 154.419C10.7811 153.805 11.33 156.224 10.6554 155.299C10.0809 149.059 9.51604 142.703 9.41091 136.386C9.23906 135.677 9.16277 135.208 9.0575 135.083C9.10585 134.508 9.19825 132.722 9.36153 132.157C9.34219 132.387 9.16069 131.793 9.13706 131.386C9.00389 130.217 9.58825 130.151 9.51738 128.929C9.36377 129.379 9.22948 129.6 9.07158 129.413C9.45077 128.345 9.51417 126.904 9.67317 125.702C9.6012 125.869 9.51957 126.152 9.40464 126.142C9.86547 124.792 9.55508 123.666 9.89131 122.421L9.62271 122.862C9.55722 120.888 10.1308 122.326 10.2136 120.654C10.1222 121.052 10.017 120.927 9.90205 120.917C10.5498 119.409 10.7099 116.819 11.1804 115.353C11.1181 115.406 11.1181 115.406 11.1181 115.406C11.3007 114.611 11.3781 113.692 11.5703 112.782C11.7003 111.925 11.9549 110.962 12.1998 110.115C12.2578 109.425 11.5532 110.234 12.0527 108.424C12.5028 108.578 12.9937 105.494 13.2418 106.672C13.3621 105.93 13.5641 104.905 13.7564 103.996C13.9487 103.086 14.1936 102.238 14.4621 101.798C14.1216 102.406 14.1324 100.902 13.6812 102.137L13.6533 101.093C13.4137 101.189 13.3987 102.056 13.3128 101.701C13.5384 101.084 14.2054 99.3457 14.3687 98.7807C14.9778 97.7324 15.8596 96.8806 16.6416 95.1524C16.1142 95.9182 16.2926 94.4864 16.0144 95.0417C16.5944 94.3382 17.2368 93.582 17.8694 92.9407C18.1476 92.3854 17.544 92.6819 18.0188 91.8537C18.124 91.9783 18.3303 91.5905 18.5795 91.38C18.5988 91.1501 19.8169 89.0535 19.5634 88.627C19.5301 88.3349 19.0263 89.5078 19.1993 88.8279C19.746 87.8322 19.9233 87.7892 20.4701 86.7935L20.4174 86.7312C20.7676 86.0083 21.7311 84.874 21.5485 85.6689C21.28 86.1093 21.4003 85.3671 21.165 86.0996C21.6538 85.7935 22.4401 84.7022 23.1018 83.7161C22.7903 83.9793 22.7376 83.917 22.5604 83.96C23.7537 82.845 24.8419 81.6055 26.0449 80.3757C26.2651 80.5099 25.2737 80.6001 25.1921 80.8826C26.3382 78.9535 28.523 77.7483 29.5779 76.2166C29.3287 76.4272 29.6637 76.5711 29.6111 76.5088C30.3684 75.7623 30.1482 75.6281 30.7615 75.2167C30.6659 74.9771 31.4995 74.7 32.0505 74.3413C32.405 74.2553 32.1225 74.1737 31.6338 74.4798C32.0602 74.2263 33.1526 73.6237 34.3696 72.9159C35.5866 72.2081 36.9186 71.5099 37.8961 70.8977C37.8864 71.0126 39.3569 70.7312 39.836 70.54L39.5631 70.3434C39.937 70.0277 41.2302 69.7892 41.2495 69.5594C41.8242 69.6077 40.7704 69.7506 39.7597 70.0707C38.8112 70.3381 37.8005 70.6581 38.6243 70.496C38.8929 70.0556 40.7318 70.2103 40.2914 69.9417C40.7705 69.7505 41.2925 69.7366 41.8242 69.6077C42.3559 69.4788 42.8253 69.4026 43.2517 69.1491C43.0122 69.2447 42.3419 68.9568 43.1658 68.7946C44.6363 68.5132 43.6255 68.8333 44.7942 68.7001L45.546 68.7056C45.6416 68.9451 46.892 68.5294 46.341 68.8881C46.5375 68.6153 48.4817 68.8946 48.2905 68.4156L48.0896 68.0514C48.7266 68.0472 49.1573 68.4306 49.66 68.6465C49.7223 68.5939 49.8996 68.5509 49.8469 68.4886C49.9135 69.073 51.4033 68.5617 52.1069 69.1417C53.4957 69.1429 55.4012 69.8819 56.0478 69.7627C56.9286 70.2998 57.6945 70.8272 58.8148 71.2687C58.5946 71.1344 58.3218 70.9378 58.3315 70.8229C59.0114 70.9958 59.1693 71.1828 59.6526 71.6285C59.6 71.5662 59.9974 71.6575 60.4475 71.8112C60.8975 71.9648 61.4529 72.243 61.9029 72.3966C62.6494 73.1539 62.1274 73.1678 62.1081 73.3977C62.6827 73.446 63.1564 74.0067 63.6301 74.5674C64.1038 75.1281 64.4528 75.7941 65.0705 76.0197C64.9222 75.7179 64.31 74.7404 64.9609 75.2581C65.2434 75.3398 65.4013 75.5267 65.5592 75.7136C65.7171 75.9005 65.8127 76.14 65.9083 76.3796C66.0039 76.6191 66.1521 76.9209 66.3004 77.2227C66.4486 77.5246 66.5968 77.8264 66.8073 78.0756L66.2326 78.0273C66.8932 78.4301 66.9877 80.0585 67.4238 79.69C67.5001 80.1594 68.2176 81.2615 67.7579 81.2229C68.064 81.7116 68.2359 82.4205 68.4174 83.0145C68.5366 83.6611 68.7084 84.3701 68.6504 85.0597C68.6214 85.4044 68.7073 85.759 68.7406 86.0511C68.7116 86.3959 68.7449 86.6881 68.7782 86.9802C68.8448 87.5646 68.8587 88.0866 69.0596 88.4507C68.9876 88.6183 68.9586 88.9631 68.8866 89.1306C68.805 89.4131 68.733 89.5807 68.6278 89.4561C68.5086 88.8095 68.9253 88.6709 68.8297 88.4314C68.7481 88.7139 68.6235 88.8191 68.6235 88.8191C68.6181 89.571 68.4548 90.136 69.0252 89.5474C69.0101 90.4143 68.6889 90.7923 68.3055 91.2231C68.1712 91.4433 67.922 91.6538 67.7877 91.874C67.5911 92.1468 67.4473 92.4819 67.2313 92.9846C67.4086 92.9416 67.5041 93.1812 67.1733 93.6742L66.344 94.5883C65.6727 95.6893 66.2667 95.5077 66.5395 95.7043C66.0841 96.3026 65.504 97.0061 65.0873 97.1447C65.0583 97.4895 64.8617 97.7623 64.78 98.0448C65.0679 97.3746 64.1764 98.3412 63.8746 98.4895C63.9369 98.4368 64.114 98.3939 64.1763 98.3413C64.157 98.5711 63.4288 98.9728 63.1173 99.236C63.0217 98.9965 63.707 98.4175 64.0282 98.0394C63.664 98.2403 63.1753 98.5464 62.7585 98.685C63.1463 98.8912 61.9389 99.4841 61.4502 99.7902C60.8992 100.149 60.636 99.8375 60.5114 99.9427C60.564 100.005 60.2622 100.153 60.1376 100.259C59.9604 100.301 59.8357 100.407 60.1182 100.488C60.2955 100.445 60.5543 100.12 60.8991 100.149C60.5876 100.412 60.7359 100.714 59.7971 100.866C59.0978 100.923 59.7928 100.23 58.6477 100.77C58.9925 100.799 59.0452 100.861 59.3899 100.89C59.0258 101.091 58.6091 101.229 58.2546 101.315L58.159 101.076C58.0344 101.181 58.1493 101.191 58.087 101.243C57.8668 101.109 57.3974 101.185 56.9903 101.209C56.5832 101.233 56.1236 101.194 55.9034 101.06C55.6112 101.093 55.319 101.126 54.9646 101.212C54.6724 101.246 54.3179 101.331 54.0258 101.365L54.1407 101.374C53.3791 101.484 52.4693 101.292 51.8613 100.951L51.914 101.013C51.5166 100.922 50.6068 100.73 50.1664 100.461C49.132 100.374 49.5047 101.447 48.5186 100.786C47.5036 100.469 47.1019 99.7405 47.6239 99.7266C45.7517 99.2797 44.0718 97.923 42.3145 97.4858C42.104 97.2366 42.3339 97.256 41.8409 96.9251C39.3467 95.6157 37.0353 93.5114 34.8569 92.5758C35.4455 93.1462 34.7227 92.796 34.6507 92.9636C34.2393 92.3502 33.8654 92.6661 33.9041 92.2063C34.091 92.0484 34.163 91.8808 34.8236 92.2837C33.5841 91.1955 31.641 89.5274 30.7505 89.1052C31.1383 89.3115 30.9901 89.0096 30.7269 88.6981C30.5207 89.0859 29.5443 88.3092 28.9751 87.509L29.0567 87.2265L28.439 87.001C28.2382 86.6368 28.4971 86.3113 27.6689 85.8366C27.6066 85.8892 27.4294 85.9322 27.2618 85.8602C26.7548 85.0073 26.047 83.7903 25.1136 83.1909C24.8311 83.1093 24.5583 82.9127 24.2758 82.8311C23.96 82.4573 23.6732 81.7387 24.2618 82.309C22.8547 81.149 22.1179 80.2768 21.5002 80.0512C20.1233 77.1574 17.4155 73.573 15.3489 70.6212L15.2769 70.7888C14.583 70.0938 15.2726 70.1518 14.7893 69.706C14.8129 70.1131 14.0138 69.2935 14.2383 70.0648C13.3435 69.0056 13.5691 68.388 13.1771 67.5448C13.3113 67.3246 13.4112 68.2011 13.6078 67.9283C13.5648 67.7511 12.4069 66.3805 12.7281 66.0024C12.4552 65.8058 12.3113 66.1409 12.292 66.3708L12.0149 65.5372C11.0912 64.8229 12.5014 68.0088 11.4627 67.2849L11.1136 66.6189C10.4004 66.1538 11.7538 68.6404 10.6776 66.9873C10.4004 66.1538 10.5401 65.1817 11.0664 65.8047C10.3349 64.1806 11.4553 64.6221 10.6089 62.9883C10.1782 62.6048 11.2447 64.3729 10.7946 64.2193C10.1008 63.5243 10.1255 62.5425 9.66151 61.8669C10.1782 62.6048 10.1932 61.738 10.0643 61.2063C9.49507 60.4061 10.0063 61.8959 9.41338 60.6886C9.49502 60.4061 9.19431 59.1654 9.75392 60.0806C9.9795 59.463 9.10838 58.811 9.17606 58.0065C8.68304 57.6756 8.92577 59.6058 8.22761 58.2739C8.62504 58.3652 8.03752 56.406 8.74107 56.986C8.43495 56.4973 8.20511 56.4779 8.10412 56.9903C7.58748 56.2523 8.04831 54.9022 7.35872 54.8442L7.56495 54.4564C7.40706 54.2695 7.20619 53.9054 6.89041 53.5316C6.65626 52.8753 6.80127 51.1513 6.3222 51.3425C6.34154 51.1126 6.01722 49.4649 6.49091 50.0256C6.87328 50.9837 6.44681 51.2372 7.0451 51.6927C6.51878 51.0697 6.76372 50.2222 6.81207 49.6475L6.58223 49.6281C6.61124 49.2833 6.44905 48.4595 6.58332 48.2393C6.50168 48.5218 6.39637 48.3972 6.24815 48.0954L6.51675 47.6549C6.46522 46.2038 5.9614 47.3768 5.9002 46.0405L5.75087 47.1276C5.77021 46.8977 5.46412 46.4089 5.45984 45.772C5.71871 45.4465 5.98725 45.0061 6.23645 44.7956C6.35677 44.0534 5.92062 44.4218 6.15587 43.6893L5.839 44.7043C5.76703 44.8719 5.375 44.0287 5.34709 42.9846C5.45774 42.3573 5.89922 41.237 5.97975 42.3434C5.9658 41.8213 5.85629 41.0597 5.58774 41.5001C5.74674 40.2982 5.86055 41.6967 6.06251 40.672C5.92396 40.2552 5.74781 38.9093 5.58563 38.0855C5.37939 38.4732 5.1828 38.7461 4.97656 39.1338C4.9959 38.904 5.01522 38.6741 5.03456 38.4443C4.49748 39.325 4.79076 37.9029 4.34498 38.3862C4.33103 37.8642 4.5566 37.2466 4.7102 36.7965C4.93468 37.5678 5.14096 37.18 5.4718 36.687C5.80264 36.1939 6.14315 35.586 6.35368 35.8352C6.60827 34.8728 6.3451 34.5613 6.14424 34.1971C5.94339 33.833 5.85751 33.4785 6.57182 32.5548C6.65775 32.9092 7.24743 32.0908 6.85857 33.2734C7.1325 32.0811 7.60618 32.6418 7.78452 31.21C7.30007 32.1531 7.54608 29.9167 6.79309 31.3002C6.97032 31.2572 6.66312 32.1573 6.52885 32.3775C6.46226 31.7932 5.95414 32.3292 6.29037 31.0843C6.52562 30.3518 6.95744 29.3464 7.16797 29.5956C7.50309 29.7395 6.72647 30.7159 7.22488 30.2948C7.86294 28.9017 7.49457 28.4656 8.27547 28.1261C7.85332 29.0166 8.11648 29.3281 8.28404 29.4001C8.42798 29.0649 8.62451 28.7921 8.83075 28.4044L8.52898 28.5526C9.01881 26.8576 9.08 28.1938 9.6751 26.6235L9.72882 25.2969C9.48928 25.3925 9.26372 26.0101 8.99517 26.4505C8.77926 26.9532 8.62567 27.4032 8.36251 27.0917C8.7417 26.0241 9.22071 25.8329 9.5376 24.8179C9.40333 25.0381 9.20682 25.3108 9.13484 25.4784C9.27879 25.1433 8.70949 24.343 9.91255 23.1132C10.4303 22.4623 10.1521 23.0176 10.4346 23.0992C11.3745 21.5579 11.8632 21.2518 12.5775 20.328C12.0651 20.2271 13.7043 18.6287 12.5926 19.4612C12.5636 19.806 12.1607 20.4666 11.643 21.1175C11.2402 21.7781 10.7224 22.429 10.3583 22.6299C10.1961 21.806 9.72993 23.908 9.0833 24.0273C9.774 22.6964 9.32393 22.5428 9.12308 22.1787C9.32932 21.7909 9.64078 21.5278 9.82768 21.3699C10.1725 21.3989 9.90397 21.8393 10.1768 22.0358C10.9395 20.5374 11.9653 19.3505 12.7655 18.7813C12.9814 18.2786 12.584 18.1873 12.1909 18.7329C13.4756 17.2206 14.7699 15.5933 16.0449 14.1959C15.8193 14.8135 16.1932 14.4977 16.5767 14.0669C17.0128 13.6985 17.4489 13.3301 17.3576 13.7275C16.7152 14.4837 16.408 15.3838 16.9494 15.14C17.3329 14.7093 16.7914 14.9531 16.9257 14.7329C17.7066 14.3935 17.5444 13.5697 18.3683 13.4075C16.9451 14.5031 17.6357 13.1722 17.176 13.1336C18.2781 12.4161 16.9032 12.937 17.9 12.0949C19.0021 11.3774 20.3437 10.5643 21.623 9.8038C22.8981 8.40638 25.5329 7.35485 26.9798 6.66636C27.6651 6.08741 26.9229 5.96712 27.7757 5.46014C28.7962 5.02514 27.2483 6.22598 28.6522 5.36025L28.4847 5.28827C28.7769 5.25498 29.3902 4.8436 30.0465 4.60945C30.7651 4.32267 31.474 4.15086 31.7994 4.40973L31.1915 4.06918C31.4934 3.92095 31.7232 3.94028 32.0154 3.90699C31.9724 3.72975 32.284 3.4666 31.7523 3.59548C32.1884 3.22706 32.72 3.09822 33.1894 3.02196C33.7211 2.89307 34.2432 2.87908 34.7749 2.7502C34.588 2.90809 34.4011 3.066 34.2142 3.22389C35.153 3.07138 35.8619 2.89956 36.6331 2.67508C37.342 2.50323 38.1132 2.27877 39.0424 2.24119L38.9468 2.0016L40.0435 2.036C39.7181 1.77712 40.7288 1.45705 41.3465 1.68263C40.3744 1.54297 39.4023 1.40333 38.4828 1.32598C37.7642 1.61276 39.3926 1.51826 38.9565 1.88668C38.5827 2.20247 36.9446 2.41191 36.6192 2.15304C37.2132 1.97152 37.2658 2.03385 37.8404 2.08219C37.994 1.63213 36.993 1.83722 36.4903 1.62131C36.8448 1.53539 37.2615 1.39688 37.3667 1.52149C36.6771 1.46347 36.0305 1.58269 34.9145 1.77816C35.6664 1.78354 34.5407 2.09391 34.8855 2.12292C34.6847 1.75878 33.6836 1.96391 32.371 2.43221C31.9349 2.80063 31.3408 2.98218 30.5793 3.09173C29.8703 3.26358 29.0465 3.42574 28.3805 3.77483C29.1227 3.89514 29.9992 3.79526 30.938 3.64275C30.0852 4.14973 29.9176 4.07776 29.0647 4.58474C28.4901 4.53639 28.0497 4.26782 26.7994 4.68349L26.8326 4.97569C25.6973 5.40103 25.4964 5.03688 24.2171 5.79734C22.013 7.23234 19.8614 8.72966 18.3039 10.0454L18.3995 10.285C17.2212 10.5331 15.4907 12.5288 14.3693 13.4762C12.816 15.4289 10.6065 17.6158 10.3229 18.923C9.00922 20.7802 7.88242 22.4794 6.96614 24.4279C5.99724 26.3141 5.24854 28.3345 4.59542 30.5944L5.22809 29.9532C4.76297 30.6664 5.29472 30.5375 4.99717 31.3227C4.98321 30.8007 4.78664 31.0735 4.5804 31.4612C4.37416 31.849 4.14852 32.4667 3.95195 32.7395C3.7779 34.8083 3.04318 37.3507 2.65861 39.1703L2.94107 39.252C2.26433 41.1048 2.70791 43.3992 2.98391 45.6216C3.07951 45.8611 3.39531 46.2349 3.45223 46.9342C3.16863 48.2414 3.28786 48.888 3.36301 50.7463C3.48223 51.3929 3.69701 52.2791 3.97412 53.1126C4.25123 53.9461 4.52834 54.7797 4.87742 55.4456C5.84082 60.5038 8.47131 65.0076 10.9149 69.6694L11.365 69.823C12.3832 72.1657 14.0384 74.5042 15.6506 76.6654C17.2628 78.8265 19.062 80.8299 20.3058 82.555L20.4164 81.9277C21.3831 82.8192 22.3541 84.3477 21.8321 84.3617C22.8514 85.3155 23.9803 87.0309 24.8804 87.3382C25.8998 88.292 25.9234 88.6991 26.7225 89.5187C28.9481 91.2685 29.642 91.9635 31.6377 93.6939L31.092 93.3008C30.9438 92.999 31.0158 92.8314 31.5614 93.2246C32.193 93.9722 34.5099 95.3245 33.3606 95.2278C35.8451 96.6522 38.6399 99.2022 41.3402 100.124C41.0481 100.157 41.656 100.498 41.8666 100.747C44.1405 101.922 46.7452 102.604 48.641 103.458C49.1008 103.497 48.1051 102.95 49.1201 103.267C49.7377 103.493 49.1008 103.497 49.7711 103.785C51.8012 104.418 54.0375 104.664 56.1353 104.494C58.2954 104.27 60.3695 103.693 62.2235 102.98L63.4835 102.45L64.7005 101.742C65.1269 101.488 65.4384 101.225 65.8648 100.972C66.2386 100.656 66.6028 100.455 66.924 100.077C68.3569 98.8666 69.4644 97.3972 70.342 95.9084C71.2819 94.3671 71.8866 92.6818 72.3764 90.9868C72.7513 89.2822 73.0114 87.5678 73.0941 85.8965L72.9694 86.0018C73.2337 84.9244 73.005 83.5162 72.7043 82.2756C72.4035 81.0349 71.9782 79.8996 72.0029 78.9178C71.6968 78.4291 71.0609 77.0445 71.0222 77.5043C70.8074 76.6181 70.09 75.516 69.2479 74.5192C68.8268 74.0208 68.3531 73.4601 67.9321 72.9616C67.7215 72.7124 67.511 72.4632 67.2479 72.1517C67.0373 71.9025 66.8268 71.6533 66.6163 71.4041C66.7742 71.591 66.8794 71.7156 67.0373 71.9025C65.032 70.287 63.3714 68.7005 60.7956 67.6735C61.0158 67.8078 61.4562 68.0764 61.4991 68.2536C60.9868 68.1526 60.5035 67.7068 60.0631 67.4383C59.57 67.1075 59.1823 66.9012 58.7655 67.0398C58.2628 66.8239 58.512 66.6134 58.8471 66.7573C56.0941 65.7734 53.0823 65.1148 50.0318 64.9161C46.9812 64.7173 43.8823 65.0932 40.922 65.8858C38.8811 66.7559 38.9767 66.9954 39.0197 67.1726C39.125 67.2972 39.3021 67.2543 37.6447 67.6936C37.3955 67.9041 37.3097 67.5496 37.3526 67.7268C36.7586 67.9083 36.3225 68.2767 36.0013 68.6548C35.6802 69.0329 35.3686 69.2961 34.8992 69.3724C35.0002 68.86 34.2526 69.4916 34.0947 69.3047C33.5963 69.7257 33.1699 69.9792 32.7961 70.295C32.4846 70.5582 32.173 70.8213 31.9238 71.0319C31.3631 71.5055 30.927 71.874 29.9592 72.3713L30.2417 72.4529C28.014 73.4808 26.2115 75.6441 24.3812 76.7633C19.9137 81.7117 16.7675 87.4658 14.3635 93.3402C11.9594 99.2146 10.2353 105.262 9.02356 111.41C6.77731 123.664 6.08748 135.991 7.81122 148.521C8.66617 151.428 8.70919 151.605 8.96048 154.81C9.03245 154.642 8.98945 154.465 9.14734 154.652C8.72091 154.905 9.47599 156.936 9.15482 157.315C10.042 161.903 10.9055 166.085 12.2524 170.712C12.0805 170.003 12.2965 169.501 12.5113 170.387L12.4865 171.369L12.6541 171.441C12.7733 172.087 12.7153 172.777 12.4189 172.173C13.9515 178.031 16.2028 183.603 18.8182 188.974C21.4336 194.344 24.3605 199.452 27.527 204.464C28.3594 205.576 29.3401 206.989 30.2585 208.456C31.2391 209.869 32.2101 211.398 33.0328 212.624C35.9802 216.113 38.904 219.195 41.9426 222.286C44.9813 225.378 48.0919 228.302 51.4131 231.475C51.4131 231.475 51.3895 231.068 50.9878 230.339C50.0973 229.917 49.3701 228.93 48.0973 227.55Z" fill="#381FD1"></path><path d="M42.08 0.529079C41.7685 0.792221 40.7148 0.935029 41.5623 1.17997C41.6966 0.959779 42.2379 0.715981 42.08 0.529079Z" fill="#381FD1"></path><path d="M18.1438 12.6363C18.0912 12.574 17.8849 12.9617 17.8753 13.0767C18.1245 12.8661 18.4789 12.7802 18.6132 12.56C18.364 12.7705 18.321 12.5933 18.1438 12.6363Z" fill="#381FD1"></path><path d="M13.6141 17.6374C13.8439 17.6567 14.8504 16.6997 15.4304 15.9961C14.8601 16.5847 14.1844 17.0487 13.6141 17.6374Z" fill="#381FD1"></path><path d="M10.7696 23.2432C10.6686 23.7556 10.8459 23.7126 11.1338 23.0424C11.0811 22.9801 10.9469 23.2003 10.7696 23.2432Z" fill="#381FD1"></path><path d="M10.1757 23.4247C9.90718 23.8651 9.94048 24.1573 9.85883 24.4398C9.75356 24.3152 10.5829 23.401 10.1757 23.4247Z" fill="#381FD1"></path><path d="M6.42987 36.3046C6.34823 36.5871 6.11301 37.3197 6.26123 37.6215C6.17531 37.267 6.67908 36.0941 6.42987 36.3046Z" fill="#381FD1"></path><path d="M5.56293 42.482C5.60588 42.6592 5.59619 42.7742 5.57683 43.004C5.66273 43.3585 5.80671 43.0234 5.83575 42.6785L5.56293 42.482Z" fill="#381FD1"></path><path d="M65.9845 76.849C66.1424 77.0359 66.1854 77.2131 66.281 77.4526L66.353 77.2851C66.1951 77.0982 66.0898 76.9736 65.9845 76.849Z" fill="#381FD1"></path><path d="M23.7344 83.0749C23.2263 83.6109 23.6335 83.5873 23.5711 83.6399C23.9546 83.2091 23.2693 83.7881 23.7344 83.0749Z" fill="#381FD1"></path><path d="M12.5027 108.578L12.5748 108.41L12.115 108.372L12.5027 108.578Z" fill="#381FD1"></path><path d="M51.724 207.831C51.7959 207.663 52.059 207.975 51.8485 207.726C51.7336 207.716 51.6091 207.821 51.724 207.831Z" fill="#381FD1"></path><path d="M33.7456 231.667C34.2956 232.697 35.2924 231.855 35.8713 232.54C35.924 232.602 35.9197 231.965 36.0776 232.152C36.6995 233.015 37.8252 232.704 38.7307 232.26L38.6877 232.082C38.865 232.039 38.9938 232.571 39.1711 232.528C39.1807 232.413 39.1281 232.351 39.2527 232.246C39.2237 232.59 39.5256 232.442 39.5589 232.734C39.6835 232.629 39.7028 232.399 39.7748 232.232L39.7984 232.639C39.8982 233.515 40.4879 232.697 40.7941 233.186C40.8037 233.071 40.7511 233.008 40.8134 232.956C41.3398 233.579 42.0294 233.637 42.6996 233.925C42.7093 233.81 42.7286 233.58 42.8006 233.412C42.7716 233.757 42.9294 233.944 43.097 234.016C43.2409 233.681 43.3505 234.442 43.5997 234.232L43.6094 234.117C43.633 234.524 43.9112 233.969 43.8725 234.428L44.0691 234.156C44.0208 234.73 44.3183 233.945 44.4139 234.185L44.4042 234.299C44.5095 234.424 44.6438 234.204 44.749 234.328L44.8113 234.276C45.0842 234.472 45.2807 234.2 45.1271 234.65C45.2711 234.315 44.9166 234.4 45.1228 234.013C45.879 234.655 46.7362 234.785 47.531 234.968C47.6556 234.862 47.7179 234.81 47.7899 234.642C47.8425 234.704 48.125 234.786 48.1057 235.016L48.24 234.796C48.4269 234.638 48.3162 235.265 48.5031 235.107C48.5128 234.992 48.4698 234.815 48.5418 234.648C48.6277 235.002 48.8049 234.959 48.9628 235.146C48.9725 235.031 48.9725 235.031 48.9822 234.916C49.1207 235.333 49.327 234.945 49.4226 235.185L49.4419 234.955C49.8061 234.754 49.3409 235.467 49.6427 235.319C49.5901 235.257 49.5998 235.142 49.6621 235.089C49.7384 235.558 50.1454 235.535 50.3033 235.722L50.313 235.607C50.5332 235.741 50.7727 235.645 50.9833 235.895C51.1079 235.789 51.1465 235.33 51.3667 235.464C51.2131 235.914 51.7448 235.785 51.414 236.278C51.6438 236.298 51.9983 236.212 52.1035 236.336C52.0606 236.159 52.3818 235.781 52.2143 235.709L52.4108 235.436C52.4301 235.206 52.2336 235.479 52.3679 235.259C52.4205 235.321 52.631 235.57 52.6933 235.518C52.7792 235.872 52.8458 236.457 53.1809 236.6C53.0853 236.361 53.2819 236.088 53.1766 235.963C53.2626 236.318 53.4634 236.682 53.602 237.099C53.7169 237.109 53.5784 236.692 53.7363 236.879C53.7266 236.994 53.8318 237.118 53.8748 237.295C53.9371 237.243 54.3678 237.626 54.3012 237.042C54.2583 236.865 54.1434 236.855 54.153 236.74C54.3206 236.812 54.3636 236.989 54.5311 237.061L54.4785 236.999C54.5408 236.946 54.9092 237.382 54.8899 237.612C54.775 237.603 54.804 237.258 54.732 237.425C54.9329 237.79 55.2056 237.986 55.4881 238.068C55.3829 237.943 55.2776 237.819 55.182 237.579C55.6557 238.14 56.0961 238.408 56.5891 238.739C56.7373 239.041 56.1154 238.178 56.2207 238.303C56.2927 238.135 56.6181 238.394 56.891 238.591C57.1638 238.787 57.4366 238.984 57.4033 238.692C57.2981 238.567 57.7095 239.181 57.6665 239.003C57.8341 239.075 57.4753 238.524 57.6858 238.774C57.4753 238.524 57.906 238.908 58.1262 239.042C58.3367 239.291 58.0209 238.917 57.8534 238.846C58.1262 239.042 58.6718 239.435 59.1219 239.589C59.0789 239.412 58.9833 239.172 58.8351 238.87C58.993 239.057 59.4431 239.211 59.3379 239.086L58.9597 238.765C58.6965 238.453 58.8738 238.41 58.4957 238.089C58.7159 238.224 58.7062 238.339 58.5816 238.444C58.5193 238.496 58.3947 238.602 58.6246 238.621C58.2562 238.185 59.1273 238.837 58.6439 238.391C58.601 238.214 58.9887 238.42 58.5773 237.807C58.6826 237.931 58.0843 237.476 58.094 237.361C58.1133 237.131 58.2616 237.433 58.3336 237.265L58.4485 237.275C58.8266 237.596 58.3002 236.973 58.7836 237.419C58.4581 237.16 58.8126 237.074 58.2669 236.681L57.8266 236.413C57.8362 236.298 58.2766 236.566 58.5065 236.586C58.4538 236.523 58.3486 236.399 58.2337 236.389C58.9469 236.854 58.0854 236.087 58.5978 236.188C58.2294 235.752 58.3733 235.417 57.9329 235.148C58.0575 235.043 58.2444 234.885 58.0962 234.583C58.0339 234.636 58.0865 234.698 57.919 234.626C57.7084 234.377 57.876 234.449 57.8856 234.334C57.7707 234.324 57.4549 233.951 57.1821 233.754C57.369 233.596 57.6515 233.678 57.8814 233.697C57.5462 233.553 57.6183 233.386 57.6279 233.271C57.6999 233.103 57.7718 232.936 57.4893 232.854C57.427 232.907 57.2305 233.179 57.0726 232.993C56.4453 232.882 57.3937 232.614 57.0683 232.356C57.2455 232.313 57.3605 232.322 57.5377 232.279C57.2552 232.198 57.7439 231.892 57.2122 232.02C57.3368 231.915 57.0017 231.771 57.4711 231.695C57.0307 231.426 57.5485 230.776 56.6817 230.76C56.744 230.708 56.6386 230.583 56.8685 230.603C57.0984 230.622 56.6816 230.76 56.9115 230.78C56.9115 230.78 57.0361 230.675 57.151 230.684C56.9835 230.612 56.9931 230.497 56.629 230.698C56.2939 230.554 57.3573 230.296 57.0941 229.985C56.9169 230.028 56.8019 230.018 56.8642 229.966L57.1757 229.702C57.0178 229.516 56.716 229.664 56.3616 229.75C56.3712 229.635 56.3809 229.52 56.6204 229.424L56.1607 229.386C56.5055 229.415 56.3476 229.228 56.4099 229.175L56.3476 229.228C56.2327 229.218 56.2424 229.103 56.3047 229.05C56.4819 229.007 56.5871 229.132 56.6398 229.194C56.7644 229.089 56.7117 229.027 56.8363 228.922C56.4819 229.007 56.6162 228.787 56.5635 228.725C56.5109 228.663 56.8128 228.514 56.8128 228.514C56.6355 228.557 56.7697 228.337 56.5828 228.495C56.5205 228.548 56.7504 228.567 56.6258 228.672C56.5109 228.663 56.2187 228.696 56.4056 228.538C56.5302 228.433 57.0522 228.419 56.8321 228.285C56.7697 228.337 56.5925 228.38 56.5302 228.433L56.31 228.299L56.6022 228.265C56.4873 228.256 56.4872 228.256 56.4872 228.256C56.7891 228.107 56.5689 227.973 56.8707 227.825C56.8804 227.71 56.6506 227.691 56.5979 227.628C56.4304 227.556 56.5023 227.389 56.6892 227.231L56.6269 227.284C56.5743 227.221 56.584 227.106 56.7709 226.948C56.5507 226.814 55.7172 227.091 55.9664 226.881C55.9234 226.703 56.455 226.575 56.6323 226.532C56.4217 226.282 56.7956 225.967 56.2929 225.751C56.3552 225.698 56.4702 225.708 56.5325 225.655C56.3316 225.291 56.7247 224.745 56.1071 224.52C55.9825 224.625 55.815 224.553 55.6377 224.596C55.8773 224.5 55.3552 224.514 55.8246 224.438C56.1167 224.405 56.179 224.352 56.3466 224.424C56.4282 224.142 56.395 223.849 56.1125 223.768C56.2274 223.777 56.2897 223.725 56.352 223.672C55.9352 223.811 55.8396 223.571 55.9642 223.466L56.2038 223.37L55.9213 223.289C55.9836 223.236 56.453 223.16 56.1705 223.078C56.0556 223.069 55.9932 223.121 55.8783 223.112C56.0652 222.954 56.3767 222.69 56.1565 222.556L55.7591 222.465C55.8214 222.412 56.0083 222.254 56.1136 222.379C55.8407 222.182 55.7977 222.005 55.4529 221.976C56.1383 221.397 56.0717 220.813 55.9955 220.343L55.8182 220.386C55.598 220.252 56.12 220.238 56.0051 220.229C55.8279 220.272 55.6077 220.137 55.4208 220.295C55.2006 220.161 55.7323 220.032 55.8042 219.864C56.0438 219.769 55.6797 219.97 55.9719 219.936C56.0342 219.884 55.7613 219.687 56.1157 219.601C56.0008 219.592 55.7087 219.625 55.5314 219.668L55.7184 219.51C55.2586 219.471 54.9901 219.912 54.4154 219.863L54.4251 219.748C54.0277 219.657 53.989 220.117 53.8408 219.815C54.0277 219.657 54.5594 219.528 54.7269 219.6C54.8086 219.318 55.6131 219.385 55.5798 219.093C55.3499 219.074 55.5604 219.323 55.2156 219.294C54.9331 219.212 55.3499 219.074 55.2447 218.949C55.4122 219.021 55.7667 218.935 55.8386 218.768C55.6184 218.633 55.5368 218.916 55.4413 218.676C55.6185 218.633 55.7528 218.413 55.9729 218.548C56.5046 218.419 55.8151 218.361 56.2318 218.222C55.887 218.193 55.4509 218.561 55.2404 218.312C55.5852 218.341 55.6142 217.997 56.1888 218.045C56.1362 217.983 55.8441 218.016 55.6045 218.111C55.3843 217.977 56.1555 217.753 55.5186 217.757L55.8731 217.671C55.7581 217.661 55.7055 217.599 55.4756 217.58C55.4853 217.465 55.9117 217.211 55.3897 217.225C55.452 217.173 55.3564 216.933 55.7538 217.024C55.974 217.159 55.5046 217.235 56.0267 217.221C55.6292 217.13 56.046 216.991 56.1706 216.886L55.9933 216.929C56.0556 216.876 56.003 216.814 56.2426 216.718C56.1803 216.771 55.9504 216.752 55.9504 216.752L56.2426 216.718C56.3768 216.498 55.7206 216.732 55.7399 216.502L55.553 216.66C55.6153 216.608 55.2705 216.579 55.3951 216.473C55.6346 216.378 55.9891 216.292 56.1663 216.249C56.2909 216.144 55.8215 216.22 56.1233 216.072L55.8215 216.22C55.7592 216.273 55.3618 216.181 55.3188 216.004C55.4434 215.899 55.8076 215.698 55.9128 215.822C55.9225 215.708 55.7549 215.636 55.5154 215.731C55.5873 215.564 55.8076 215.698 55.9945 215.54C55.8269 215.468 55.4918 215.324 55.2093 215.242L54.7302 215.434L54.7399 215.319C54.3758 215.52 54.4574 215.237 54.0406 215.376C53.988 215.313 54.1126 215.208 54.1749 215.155C54.8022 215.266 55.0084 214.878 55.5928 214.812C55.7367 214.477 54.2039 214.811 55.0471 214.419C55.2147 214.491 55.6411 214.237 55.5068 214.457C55.4638 214.28 56.1009 214.276 55.828 214.079C55.6411 214.237 55.2007 213.968 54.8892 214.232C55.0665 214.189 55.0568 214.304 54.9945 214.356C54.7646 214.337 54.4102 214.423 54.3672 214.246C54.3769 214.131 54.3865 214.016 54.6787 213.982C54.9709 213.949 54.6067 214.15 54.9612 214.064C55.0955 213.844 54.5734 213.858 55.1051 213.729C55.0955 213.844 55.4403 213.873 55.6175 213.83L55.6894 213.662L55.5122 213.705C55.3017 213.456 55.929 213.567 55.8334 213.327L55.3737 213.289C55.0192 213.374 55.5745 213.653 54.9376 213.657C54.8946 213.48 55.1867 213.446 55.0288 213.26C54.9665 213.312 54.9666 213.312 54.9043 213.365C54.8516 213.303 54.0374 213.35 54.5262 213.044C54.7131 212.886 54.7034 213.001 54.9956 212.967C55.0149 212.738 55.2544 212.642 55.2738 212.412C54.8044 212.488 55.2405 212.12 54.7614 212.311C55.0439 212.393 55.0149 212.738 54.5981 212.876C54.0235 212.828 54.6937 213.116 54.1717 213.13C54.1288 212.952 53.6067 212.966 53.3146 213C53.2619 212.937 53.4391 212.894 53.5014 212.842C53.7936 212.808 53.8462 212.871 54.1384 212.837C54.0428 212.598 54.1771 212.378 54.4789 212.229C54.3114 212.157 54.0192 212.191 54.0095 212.306C54.0912 212.023 54.0579 211.731 53.8473 211.482C54.3597 211.583 53.929 211.199 54.3887 211.238C54.4939 211.363 54.8914 211.454 55.131 211.358C55.0783 211.296 54.9011 211.339 54.7861 211.329C55.088 211.181 54.3361 211.176 54.7528 211.037C54.6186 211.257 54.1062 211.156 53.7517 211.242C54.0009 211.032 53.4596 211.276 53.4167 211.098C53.6659 210.888 53.8001 210.668 53.8195 210.438C53.4317 210.232 53.8152 209.801 53.7196 209.561C53.4994 209.427 53.0826 209.566 52.9774 209.441C52.987 209.326 53.4897 209.542 53.2791 209.293L53.2169 209.345C53.3415 209.24 52.9011 208.972 53.5477 208.852L53.0783 208.929C53.0257 208.866 53.1406 208.876 53.2029 208.823C53.0257 208.866 52.8581 208.794 52.7958 208.847C52.4607 208.703 52.8775 208.564 52.8345 208.387L53.1169 208.469C53.3135 208.196 53.0407 208 53.1127 207.832L52.8206 207.865L53.0074 207.707C52.7153 207.741 52.5477 207.669 52.7872 207.573L52.1116 208.037C52.2792 208.109 52.4135 207.889 52.7583 207.918C52.9881 207.937 52.9688 208.167 52.6766 208.2C52.624 208.138 52.6863 208.085 52.8109 207.98C52.4038 208.004 52.3941 208.119 52.1546 208.214C52.2169 208.162 52.0493 208.09 52.1642 208.099C51.9247 208.195 51.915 208.31 51.958 208.487C52.0826 208.382 52.1879 208.506 52.3028 208.516C51.9484 208.602 51.8238 208.707 51.9817 208.894C52.3791 208.986 51.7753 209.282 51.8709 209.522C52.2254 209.436 52.5272 209.287 52.5992 209.12C52.8194 209.254 52.5895 209.235 52.8097 209.369C52.5702 209.465 52.1008 209.541 52.0288 209.708L52.321 209.675C52.1868 209.895 51.842 209.866 51.885 210.044C52.0332 210.345 52.0568 210.752 52.1524 210.992L52.4445 210.959C51.8505 211.14 52.2812 211.524 52.032 211.734C52.2952 212.046 51.8494 212.529 52.2995 212.683C52.1888 213.31 52.0256 213.875 52.2071 214.469L52.6238 214.33C52.322 214.479 52.8537 214.35 52.7817 214.517C52.4992 214.436 52.4176 214.718 52.1781 214.814C52.5036 215.073 52.1824 215.451 51.9858 215.724L52.2779 215.69C51.7892 215.996 52.2919 216.212 52.3778 216.567C52.4927 216.576 52.7227 216.596 52.713 216.711C52.2866 216.964 52.3392 217.026 52.1426 217.299C52.1856 217.477 52.3338 217.778 52.4917 217.965C51.9642 218.731 52.4906 219.354 52.193 220.139L52.5378 220.168C52.0104 220.934 52.6946 221.744 52.469 222.362L53.0007 222.233C53.2209 222.367 52.9621 222.693 52.555 222.716C52.7752 222.85 52.339 223.219 52.7987 223.258C52.9566 223.444 52.6022 223.53 52.5302 223.698C52.7934 224.009 52.7214 224.177 52.745 224.584L52.6924 224.522C52.7547 224.469 53.0469 224.436 53.0995 224.498C52.9749 224.603 53.2907 224.977 52.7161 224.929C53.1565 225.197 52.5764 225.901 53.1317 226.179C52.9544 226.222 52.8922 226.275 52.8299 226.327C52.9158 226.682 53.3036 226.888 53.0973 227.276C53.2123 227.286 53.3991 227.128 53.3895 227.243C53.3272 227.295 53.2122 227.286 53.0876 227.391C52.862 228.008 53.6376 228.421 53.6515 228.943C53.5119 229.915 53.8513 230.696 53.9511 231.572L54.0661 231.582C53.63 231.951 54.717 232.1 53.9888 232.502C54.1037 232.511 54.0843 232.741 54.3238 232.646C54.2615 232.698 54.2519 232.813 54.3045 232.875C54.3572 232.938 54.3572 232.938 54.3572 232.938C54.4098 233 54.5248 233.01 54.2852 233.105C54.2852 233.105 54.2852 233.105 54.3475 233.053C54.6826 233.197 54.2755 233.22 54.6107 233.364C54.6633 233.426 54.7256 233.374 54.8405 233.383C55.1756 233.527 54.2658 233.335 54.9984 233.57L54.6633 233.426C54.8212 233.613 54.8115 233.728 54.7492 233.781C54.6869 233.834 54.572 233.824 54.4571 233.814C54.9834 234.437 55.8448 235.204 55.3088 234.696C55.4667 234.883 54.9834 234.437 55.2035 234.571C54.9307 234.375 56.1509 235.693 55.7825 235.257C55.6246 235.07 55.572 235.008 55.5193 234.945C55.4141 234.821 55.4141 234.821 55.2035 234.571C55.4044 234.936 55.7729 235.372 55.2895 234.926L55.5527 235.237C55.1842 234.801 55.0166 234.729 54.8587 234.542C54.7535 234.418 54.5333 234.284 54.2798 233.857C53.5569 233.507 54.2658 233.335 52.0156 232.567C50.3109 232.192 48.7502 231.482 47.0166 231.452C46.5182 231.873 46.4655 231.811 46.0874 231.49C46.0778 231.605 46.0777 231.605 46.0681 231.719C46.1594 231.322 45.7856 231.638 45.8243 231.178C45.1347 231.12 44.632 230.904 43.9521 230.731C44.0047 230.794 44.0283 231.201 43.923 231.076L43.8898 230.784L43.8801 230.899C43.8275 230.836 43.7319 230.597 43.8565 230.492C42.2958 229.782 40.5138 230.326 38.9241 229.961C38.5073 230.099 37.952 229.821 37.6169 229.677C36.3139 230.031 35.126 230.394 33.9004 229.828C33.287 230.239 33.3052 231.398 33.7456 231.667Z" fill="#381FD1"></path><path d="M51.7045 208.061C51.9344 208.08 52.0397 208.205 52.3416 208.056C52.102 208.152 51.9344 208.08 51.7045 208.061Z" fill="#381FD1"></path><path d="M54.1728 211.741C54.1105 211.793 54.2254 211.803 54.3404 211.813C54.3404 211.813 54.58 211.717 54.4124 211.645C54.3501 211.698 54.2352 211.688 54.1728 211.741Z" fill="#381FD1"></path><path d="M54.3254 212.679C54.5026 212.637 54.6369 212.416 54.6465 212.301L54.3254 212.679Z" fill="#381FD1"></path><path d="M55.2394 213.509C55.407 213.581 55.4693 213.528 55.479 213.413C55.3641 213.404 55.3017 213.456 55.2394 213.509Z" fill="#381FD1"></path><path d="M54.77 213.585C54.7603 213.7 54.8753 213.71 54.9902 213.719C54.8753 213.71 55.1244 213.499 54.77 213.585Z" fill="#381FD1"></path><path d="M55.5971 215.449C55.5971 215.449 55.4102 215.607 55.6401 215.626C55.4102 215.607 55.8366 215.353 55.5971 215.449Z" fill="#381FD1"></path><path d="M55.3424 216.411C55.4477 216.536 55.5723 216.43 55.5723 216.43L55.3424 216.411Z" fill="#381FD1"></path><path d="M57.3841 232.729L57.4561 232.562L57.2789 232.605L57.3841 232.729Z" fill="#381FD1"></path><path d="M55.8373 238.734C55.6267 238.484 55.8802 238.911 55.8179 238.964C55.9855 239.036 55.6697 238.662 55.8373 238.734Z" fill="#381FD1"></path></g><defs><clipPath id="clip0_1832_20913"><rect width="75" height="241" fill="white"></rect></clipPath></defs></svg>