<svg width="58" height="59" viewBox="0 0 58 59" fill="none" xmlns="http://www.w3.org/2000/svg"><title>Charles Schwab logo</title><path d="M22.8061 28.2654C22.4581 28.2654 22.2725 28.1494 22.2725 27.4766C22.2725 25.1334 24.1285 21.8854 25.9845 21.8854C26.5877 21.8854 26.9357 22.2334 26.9357 22.8598C26.9357 23.811 24.3837 28.2654 22.8061 28.2654Z" fill="#10284B"></path><path d="M42.5261 24.0198C42.8973 23.347 43.9645 21.723 44.9621 21.723C45.3565 21.723 45.6581 22.0246 45.6581 22.419C45.6581 23.3934 44.5213 23.9966 42.5261 24.0198Z" fill="#10284B"></path><path d="M40.3453 36.8958C40.3685 36.8494 41.2501 34.3902 41.2501 34.367C41.2639 34.3809 41.576 35.2645 41.8299 35.9834C42.0009 36.4676 42.1455 36.8772 42.1549 36.8958H40.3453Z" fill="#10284B"></path><path d="M48.7205 35.8518H48.2565V33.555C48.2565 33.2998 48.2565 33.091 48.3493 33.0446C48.3539 33.0446 48.3632 33.0428 48.378 33.0398C48.4374 33.0279 48.5859 32.9982 48.8829 32.9982C49.2309 32.9982 50.3445 33.1142 50.3445 34.4134C50.3445 35.3414 49.7645 35.8518 48.7205 35.8518Z" fill="#10284B"></path><path d="M48.2797 38.3806V36.3158H48.6741C49.9733 36.3158 50.7157 36.9422 50.7157 38.0558C50.7157 39.2622 49.9037 39.6798 49.1613 39.6798C48.8133 39.6798 48.6277 39.6334 48.5117 39.5174C48.3261 39.3318 48.2797 38.9606 48.2797 38.3806Z" fill="#10284B"></path><path fill-rule="evenodd" clip-rule="evenodd" d="M-6.10352e-05 0.588135H57.9999V58.5881H-6.10352e-05V0.588135ZM47.3749 29.5182C48.6973 29.5182 50.3909 28.2654 50.3909 26.8734C50.3909 26.1132 49.9383 25.4607 49.5317 24.8744C49.5164 24.8524 49.5012 24.8305 49.4861 24.8086C49.1149 24.3214 48.7669 23.8574 48.7669 23.3702C48.7669 22.7206 49.1381 22.303 49.6949 22.303C49.9325 22.303 50.1363 22.3875 50.3352 22.47C50.3693 22.4842 50.4033 22.4982 50.4373 22.5118C50.4693 22.5246 50.5014 22.5379 50.5336 22.5512C50.7347 22.6345 50.9429 22.7206 51.2029 22.7206C51.5973 22.7206 51.9453 22.303 51.9453 21.9782C51.9453 21.5838 51.5277 21.1662 50.8085 21.1662C49.1845 21.1662 47.7461 23.0222 47.7461 24.4606C47.7461 25.2494 48.2333 25.8758 48.6509 26.4094C48.6775 26.4456 48.704 26.4812 48.7301 26.5164C49.0231 26.9112 49.2773 27.2537 49.2773 27.6158C49.2773 28.2654 48.6741 28.6598 48.0941 28.6598C47.5141 28.6598 47.1197 28.3118 46.7949 28.0102C46.5629 27.8014 46.3541 27.6158 46.1221 27.6158C45.7973 27.6158 45.7277 28.2886 45.7277 28.5206C45.7277 28.8918 46.4933 29.5182 47.3749 29.5182ZM14.9413 16.735C14.9413 16.7118 14.9877 16.6654 15.0109 16.6654V16.6886H17.4469C17.6325 16.6886 17.7949 16.7118 17.7949 16.8974C17.7949 17.0366 17.3077 18.6838 16.1245 21.7462C15.89 22.3179 15.7017 22.7691 15.554 23.1234C15.4679 23.3299 15.3955 23.5034 15.3357 23.6486C15.3046 23.7197 15.276 23.784 15.2504 23.8417C15.142 24.0858 15.0849 24.2143 15.1037 24.2518H15.1269C15.1501 24.2518 15.2893 24.0662 15.4285 23.8574L15.4314 23.8533C16.0357 22.9934 17.287 21.2126 18.8621 21.2126C19.6509 21.2126 20.0917 21.7462 20.0917 22.6742C20.0917 23.8354 19.3097 25.7338 18.8201 26.9224L18.7925 26.9894C18.5837 27.4534 18.4677 27.7782 18.4445 27.871C18.4445 27.987 18.4445 28.0566 18.4677 28.0798C18.4909 28.103 18.5141 28.103 18.5837 28.103C18.7925 28.0798 19.5349 27.3838 19.9757 26.9198C19.9757 26.8966 19.9989 26.8966 20.0221 26.8966C20.0453 26.8966 20.0685 26.9198 20.0685 26.9198L20.3237 27.2446L20.3469 27.291L20.3237 27.3374L20.2077 27.4766L20.1866 27.5015C19.4015 28.4252 18.4331 29.5646 17.1685 29.5646C16.7973 29.5646 16.5885 29.3326 16.5885 28.8918C16.5885 28.4046 17.0293 27.407 17.5165 26.3398C18.0733 25.1334 18.6301 23.8806 18.6301 23.2078C18.6301 22.7902 18.4909 22.651 18.0733 22.651C16.7741 22.651 14.2685 26.0614 13.3637 29.0542C13.3173 29.2398 13.0853 29.3326 12.5517 29.3326C12.0645 29.3326 11.9485 29.263 11.9485 29.0542C11.9485 28.8763 12.4175 27.6538 13.0286 26.061C13.0549 25.9922 13.0816 25.9227 13.1085 25.8526C13.2453 25.4898 13.3882 25.1147 13.5317 24.738C13.948 23.6455 14.3696 22.5392 14.6629 21.6766L15.1269 20.3774L15.1367 20.3498C15.642 18.9256 16.0085 17.8929 16.0085 17.5702C16.0085 17.3846 15.9157 17.315 15.5213 17.2454L15.2197 17.2222L14.9877 17.199C14.9645 17.1758 14.9413 17.1526 14.9413 17.1294V16.735ZM11.5541 27.5694V27.639C11.3221 28.0798 9.93008 29.5182 8.32928 29.5182C6.75168 29.5182 6.12528 28.2886 6.07888 27.1518C6.00928 25.783 6.61248 24.391 7.74928 23.2078C8.95568 21.9782 10.5565 21.1894 11.8557 21.2126C12.9925 21.2358 13.4565 22.0246 13.4565 22.5582C13.4565 22.7206 13.4101 22.883 13.2941 22.999C13.1781 23.0918 13.0389 23.1614 12.9229 23.1614C12.5981 23.1614 12.3661 22.883 12.1341 22.6046C11.8557 22.2798 11.5773 21.955 11.1365 21.955C10.7653 21.955 10.2317 22.2798 9.65168 22.883C8.58448 24.0198 7.51728 25.9222 7.56368 27.1982C7.58688 27.6854 7.74928 28.0566 8.02768 28.3118C8.25968 28.5206 8.56128 28.6134 8.88608 28.5902C9.72128 28.5206 10.6725 27.755 11.1597 27.3142L11.1829 27.291C11.1962 27.2777 11.2019 27.272 11.2087 27.2696C11.2138 27.2678 11.2194 27.2678 11.2293 27.2678C11.2525 27.2678 11.2757 27.2678 11.2757 27.291L11.5541 27.5694ZM32.2949 24.9478C32.3181 24.971 32.4109 24.7854 32.4341 24.7158C33.7333 22.1638 34.6845 21.1894 35.9605 21.1198C36.2853 21.1198 36.6565 21.3054 36.6565 21.839C36.6565 22.1406 36.5637 22.4422 36.3781 22.6046C36.2621 22.6974 36.1229 22.7438 35.9837 22.7438C35.7749 22.7206 35.6589 22.5814 35.5429 22.4422C35.5216 22.4209 35.5011 22.3988 35.4807 22.377C35.3904 22.2798 35.3043 22.187 35.1717 22.187C34.9629 22.187 34.6845 22.3494 34.2901 22.7438C33.6869 23.3238 32.8981 24.8086 31.4829 27.7086C31.2741 28.1262 30.9261 28.9614 30.9261 28.9614C30.8333 29.1934 30.7637 29.2862 30.6245 29.2862H29.9053C29.7661 29.2862 29.6965 29.2166 29.6965 29.0542C29.6965 28.9611 29.846 28.5392 30.0609 27.9324C30.1138 27.7832 30.1706 27.6228 30.2301 27.4534C30.7869 25.9222 31.6221 23.6254 31.6221 22.8598C31.6221 22.5582 31.5293 22.3958 31.3669 22.3958C31.0421 22.3958 30.4389 23.1382 30.1605 23.5094L30.0213 23.695C30.0213 23.695 29.9981 23.7182 29.9749 23.7182C29.9517 23.7182 29.9285 23.7182 29.9285 23.695L29.6733 23.4398C29.6599 23.4265 29.6543 23.4208 29.6519 23.414C29.6501 23.409 29.6501 23.4033 29.6501 23.3934L29.6733 23.3702C30.1141 22.6278 31.4133 21.2126 32.2717 21.2126C32.6661 21.2126 32.8981 21.4214 32.8981 21.839C32.8981 22.1638 32.6429 23.2542 32.4573 24.043C32.4218 24.2025 32.3864 24.3519 32.3561 24.4794C32.3071 24.6858 32.2717 24.8352 32.2717 24.8782V24.9478H32.2949ZM28.1653 21.0966C28.0957 21.0502 28.0261 21.027 27.9797 21.0502C27.8637 21.0966 27.7941 21.1894 27.7477 21.259C27.6781 21.375 27.6085 21.491 27.4693 21.491C27.3702 21.491 27.2711 21.4741 27.1576 21.4547C27.1382 21.4514 27.1184 21.448 27.0981 21.4446C26.9125 21.3982 26.6805 21.3518 26.3557 21.3518C22.7597 21.3518 20.8805 26.1774 20.8805 27.8478C20.8805 28.9846 21.4837 29.495 22.1101 29.495C22.8757 29.495 23.9197 29.2398 25.2421 27.2214C25.2421 27.2214 25.5205 26.7342 25.5669 26.7342H25.5901C25.6133 26.7574 25.6133 26.7806 25.5901 26.827L25.4973 27.059C25.3349 27.407 25.0333 28.0798 25.0333 28.683C25.0333 28.9846 25.1029 29.1934 25.2421 29.3326C25.3581 29.4718 25.5205 29.5182 25.7525 29.5182C27.0053 29.495 28.0957 27.8942 28.4901 27.291C28.4901 27.3142 28.5133 27.2678 28.5133 27.2678L28.4901 27.2214L28.2117 26.8966C28.1885 26.8734 28.1421 26.8734 28.1189 26.8966L27.8405 27.2446C27.8132 27.2771 27.7854 27.3102 27.7572 27.3439C27.402 27.7676 26.9848 28.2654 26.7269 28.2654C26.6573 28.2654 26.6109 28.2422 26.5877 28.219C26.5413 28.1958 26.5413 28.1262 26.5413 27.987C26.5623 27.6509 27.1921 25.983 27.7588 24.4823C27.8179 24.3257 27.8763 24.171 27.9333 24.0198C28.3973 22.8366 28.7685 21.8158 28.7917 21.6534C28.7917 21.6302 28.7917 21.491 28.6757 21.4446L28.1885 21.1198C28.1885 21.0966 28.1653 21.0966 28.1653 21.0966ZM45.2173 21.2126C42.9205 21.2126 39.6493 24.3214 39.6493 27.2446C39.6493 28.5902 40.5309 29.5182 41.7605 29.5182C43.2221 29.5182 44.7765 28.1262 45.1477 27.639C45.1709 27.6158 45.1709 27.5926 45.1477 27.5694L44.9157 27.2678C44.8925 27.2446 44.8461 27.2446 44.8229 27.2678L44.6141 27.407C44.1269 27.7782 43.2221 28.451 42.5493 28.451C41.7373 28.451 41.2269 27.9174 41.2269 27.0822C41.2269 26.0614 41.7141 25.2958 42.0853 24.739C42.0853 24.739 42.1317 24.6926 42.1317 24.6694H42.2709L43.0365 24.6926C44.3821 24.6926 46.8877 24.043 46.8877 22.5118C46.8877 21.8854 46.3077 21.2126 45.2173 21.2126ZM38.9765 27.2678C38.9765 27.2678 38.9997 27.3142 38.9765 27.3374L38.7909 27.523L38.7727 27.5458C38.1231 28.3578 37.1578 29.5646 36.1925 29.5646C35.8909 29.5646 35.6357 29.495 35.4733 29.3094C35.2877 29.1006 35.1949 28.799 35.2181 28.4278C35.2413 27.5694 36.6565 23.9734 37.4917 21.8854C37.4917 21.8854 39.0461 18.0342 39.0693 17.6862C39.0925 17.4542 38.9533 17.3614 38.6053 17.2918L38.0717 17.2454C38.0485 17.2454 38.0253 17.199 38.0253 17.1758L38.0485 16.7814C38.0485 16.735 38.0717 16.7118 38.1181 16.7118H40.5309C40.6701 16.7118 40.7629 16.735 40.8093 16.7814C40.8325 16.8046 40.8557 16.851 40.8557 16.9206C40.8557 16.9929 40.6868 17.431 40.3601 18.2789C40.2673 18.5197 40.1617 18.7935 40.0437 19.1014L39.0229 21.7694C37.6077 25.4814 36.9117 27.4998 36.8885 27.9406C36.8885 28.0334 36.9117 28.1262 36.9581 28.1726C37.0045 28.219 37.0509 28.219 37.0973 28.219C37.4159 28.219 37.8016 27.7947 38.4734 27.0557L38.5125 27.0126L38.6053 26.9198C38.6053 26.8966 38.6285 26.8966 38.6517 26.8966C38.6615 26.8966 38.6672 26.8966 38.6723 26.8984C38.6791 26.9008 38.6847 26.9065 38.6981 26.9198C38.6981 26.9198 38.9765 27.2446 38.9765 27.2678ZM7.84208 36.803C6.98368 36.339 6.07888 35.7358 6.07888 34.599C6.07888 33.2766 7.12288 32.3486 8.60768 32.3718C8.97888 32.3718 9.37328 32.4182 9.67488 32.5342L9.90688 32.6038L10.1853 32.6966V32.7198C10.2219 33.104 10.2873 33.5026 10.3588 33.9383C10.378 34.0552 10.3977 34.1748 10.4173 34.2974V34.3206L9.99968 34.3902V34.367C9.76768 33.6246 9.39648 32.8822 8.44528 32.8822C7.63328 32.8822 7.26208 33.4854 7.26208 34.0886C7.26208 34.6918 7.65648 35.1326 8.63088 35.5734L8.93248 35.7126C9.67488 36.0606 10.6957 36.6638 10.6957 37.9862C10.6957 39.4014 9.60528 40.3758 8.00448 40.3758C7.58688 40.3758 7.16928 40.283 6.82128 40.167L6.31088 39.9814L6.12528 39.9118C6.03248 39.6102 5.89328 38.8214 5.77728 38.1022V38.079L6.17168 37.9398V37.963C6.45008 38.6822 7.09968 39.8654 8.23648 39.8654C8.95568 39.8654 9.44288 39.3086 9.44288 38.543C9.44288 37.8702 9.09488 37.4294 8.21328 36.9886L7.84208 36.803ZM15.9157 40.3526C12.9229 40.3526 11.5773 38.4038 11.5773 36.4782C11.5773 34.0422 13.4565 32.3486 16.1013 32.3718C16.92 32.3718 17.5827 32.5279 17.98 32.6215L18.0037 32.627L18.2125 32.6734H18.2357L18.3981 34.0422L18.4445 34.5758L18.0733 34.6222V34.599C17.7485 33.3926 17.0989 32.8822 15.8925 32.8822C13.8509 32.8822 13.1317 34.6686 13.1317 36.1998C13.1317 38.3806 14.2453 39.8654 15.8925 39.8654C17.1685 39.8654 17.7485 39.1926 18.3517 37.963V37.9398L18.7229 38.0094V38.0326C18.6069 38.543 18.3285 39.5406 18.1197 40.0046C17.7021 40.1206 16.6813 40.3526 15.9157 40.3526ZM24.1517 32.511H27.4925L27.4693 32.8822H27.4461C26.5181 32.9518 26.4485 33.0446 26.4485 34.2974V38.4038C26.4485 39.703 26.5645 39.7494 27.4461 39.819H27.4693V40.1902H24.0357V39.819H24.0589C25.0565 39.7494 25.1261 39.6566 25.1261 38.4038V36.4318H21.5997V38.4038C21.5997 39.6798 21.7157 39.7494 22.5973 39.819H22.6205V40.1902H19.2333V39.819H19.2565C20.2077 39.7494 20.2773 39.6334 20.2773 38.4038V34.2974C20.2773 33.0446 20.2077 32.9518 19.2101 32.8822H19.1869V32.511H22.5741V32.8822H22.5509C21.7157 32.9518 21.5997 33.0214 21.5997 34.2974V35.8518H25.1493V34.2974C25.1493 32.9982 25.0333 32.9518 24.1749 32.8822H24.1517V32.511ZM36.5405 32.511H39.2549V32.9054H39.2317C38.5125 32.975 38.4197 33.0214 38.0253 34.0886C38.0253 34.0934 37.9884 34.2039 37.9204 34.4076C37.656 35.2001 36.9207 37.4039 36.0533 40.283V40.3062H35.4965V40.283C35.4965 40.283 33.5941 35.063 33.5013 34.831C33.5013 34.9006 31.6917 40.3062 31.6917 40.3062H31.1349L29.2093 34.0422C28.8845 33.0446 28.6989 32.975 28.0725 32.9054H28.0493V32.5342H31.2509V32.9054L30.8797 32.9286C30.6709 32.9518 30.5549 32.9982 30.4853 33.091C30.4621 33.1142 30.4389 33.1838 30.4389 33.2534C30.4389 33.3462 30.4621 33.4854 30.5085 33.6478C30.5085 33.6478 31.8077 37.9398 31.8773 38.195C31.9005 38.1022 33.6405 32.627 33.6405 32.627H34.1045V32.6502C34.1045 32.6502 36.0533 37.963 36.1461 38.195C36.6565 36.4782 37.3061 33.9494 37.3293 33.8334C37.3989 33.6014 37.4221 33.4158 37.4221 33.2998C37.4221 33.1838 37.4221 33.1142 37.3757 33.0678C37.3061 32.975 37.1901 32.9286 36.9581 32.9054L36.5405 32.8822V32.511ZM45.4493 39.819C44.7997 39.7494 44.6141 39.703 44.2197 38.6358L42.7581 34.5758L41.9693 32.4414H41.9461L41.4589 32.4878L39.0693 38.6358C38.6517 39.6798 38.5357 39.7262 37.8165 39.819H37.7933V40.1902H40.4381V39.819L40.0901 39.7726C39.8349 39.7494 39.7189 39.703 39.6493 39.6102C39.6261 39.5638 39.6029 39.5174 39.6029 39.4478C39.6029 39.3318 39.6261 39.1926 39.6957 38.9838L39.7653 38.7982C39.8139 38.6592 39.8626 38.514 39.9106 38.3706C40.0229 38.0354 40.1318 37.7103 40.2293 37.499H42.3869C42.4807 37.7523 42.5821 38.017 42.6773 38.2654C42.8175 38.6314 42.9442 38.9621 43.0133 39.1694C43.0597 39.3318 43.0829 39.4246 43.0829 39.5174C43.0829 39.5638 43.0829 39.6102 43.0597 39.6334C43.0133 39.703 42.8973 39.7494 42.6885 39.7726L42.3405 39.819V40.1902H45.4725V39.819H45.4493ZM51.0869 32.9054C50.6461 32.6038 50.1589 32.511 49.2773 32.511V32.4878H46.0061V32.859H46.0293C46.8645 32.9286 46.9573 32.9982 46.9573 34.2742V38.3806C46.9573 39.6566 46.8413 39.7262 45.9597 39.7958H45.9365V40.167H48.8829C49.8109 40.167 50.6229 40.0046 51.1333 39.703C51.8525 39.2622 52.2005 38.6822 52.2005 37.9166C52.2005 36.8494 51.4349 36.1302 50.1357 35.9446C50.7157 35.8286 51.7597 35.3182 51.7597 34.251C51.7597 33.6478 51.5277 33.207 51.0869 32.9054Z" fill="#10284B"></path></svg>