<svg width="142" height="24" viewBox="0 0 142 24" fill="none" xmlns="http://www.w3.org/2000/svg"><title>Critical Mass logo</title><path d="M77.2371 15.7165H74.9062V0.14917H77.2371V15.7165Z" fill="#10284B"></path><path d="M30.5348 2.40377C30.6155 2.20949 30.6553 2.00139 30.6518 1.79183C30.6518 1.37054 30.4798 0.966497 30.1737 0.668596C29.8677 0.370694 29.4525 0.203335 29.0196 0.203335C28.8043 0.199899 28.5905 0.23864 28.3908 0.317253C28.1912 0.395866 28.0099 0.512745 27.8576 0.660941C27.7053 0.809137 27.5852 0.985622 27.5044 1.1799C27.4237 1.37418 27.3839 1.58228 27.3874 1.79183C27.3811 2.00211 27.419 2.21142 27.4988 2.40693C27.5786 2.60243 27.6986 2.78001 27.8514 2.92876C28.0042 3.07751 28.1867 3.1943 28.3876 3.27195C28.5885 3.3496 28.8035 3.38648 29.0196 3.38033C29.2349 3.38377 29.4488 3.34503 29.6484 3.26642C29.848 3.1878 30.0293 3.07092 30.1816 2.92273C30.3339 2.77453 30.454 2.59805 30.5348 2.40377Z" fill="#10284B"></path><path d="M27.8542 5.36914V15.7134H30.185V5.36914H27.8542Z" fill="#10284B"></path><path d="M15.3347 3.47899L13.2357 4.83875C12.7545 4.15403 12.1063 3.5962 11.3492 3.21528C10.592 2.83435 9.74952 2.64224 8.89729 2.65615C5.72427 2.65615 3.39348 4.88005 3.39348 8.15236C3.39348 11.4247 5.72427 13.6486 8.89729 13.6486C9.7473 13.6657 10.5883 13.4763 11.3441 13.0974C12.0999 12.7185 12.7467 12.1621 13.2259 11.4787L15.2694 12.9369C13.9637 14.8272 11.6198 15.9932 8.90055 15.9932C4.12797 15.9932 0.765625 12.6669 0.765625 8.15236C0.765625 3.63784 4.12797 0.311523 8.90055 0.311523C11.659 0.3147 14.1138 1.52514 15.3347 3.47899Z" fill="#10284B"></path><path d="M25.5059 5.39173L24.951 7.61563C24.3936 7.36483 23.7859 7.23786 23.1719 7.24392C21.6964 7.24392 20.642 8.26056 20.642 10.0206V15.717H18.3242V5.36949H20.6093V6.53545C21.3079 5.55375 22.3949 5.09944 23.6942 5.09944C24.3121 5.07839 24.9281 5.17777 25.5059 5.39173Z" fill="#10284B"></path><path d="M41.0709 7.42217H37.0002V11.924C37.0002 13.3187 37.7543 13.8588 38.6879 13.8588C39.4536 13.8166 40.1935 13.574 40.8293 13.1567L41.7499 14.9612C40.7946 15.619 39.6557 15.977 38.4855 15.9874C36.0764 15.9874 34.6694 14.7166 34.6694 11.9685V7.42217H32.5508V5.36982H34.6694V2.2373H37.0002V5.36982H41.0742L41.0709 7.42217Z" fill="#10284B"></path><path d="M46.5816 2.40377C46.6624 2.20949 46.7022 2.00139 46.6987 1.79183C46.6987 1.37054 46.5267 0.966497 46.2206 0.668596C45.9145 0.370694 45.4994 0.203335 45.0665 0.203335C44.8512 0.199899 44.6373 0.23864 44.4377 0.317253C44.2381 0.395866 44.0567 0.512745 43.9045 0.660941C43.7522 0.809137 43.6321 0.985622 43.5513 1.1799C43.4706 1.37418 43.4307 1.58228 43.4343 1.79183C43.428 2.00211 43.4659 2.21142 43.5456 2.40693C43.6254 2.60243 43.7454 2.78001 43.8983 2.92876C44.0511 3.07751 44.2336 3.19429 44.4345 3.27195C44.6353 3.3496 44.8504 3.38648 45.0665 3.38033C45.2818 3.38377 45.4956 3.34503 45.6953 3.26642C45.8949 3.1878 46.0762 3.07092 46.2285 2.92273C46.3808 2.77453 46.5009 2.59805 46.5816 2.40377Z" fill="#10284B"></path><path d="M43.9011 5.36914V15.7166H46.2319V5.36914H43.9011Z" fill="#10284B"></path><path d="M58.6748 6.75147L57.1862 8.29549C56.856 7.95973 56.46 7.69194 56.0214 7.50803C55.5829 7.32411 55.1109 7.22781 54.6334 7.22484C52.8478 7.22484 51.493 8.5846 51.493 10.5416C51.493 12.4987 52.8478 13.8584 54.6334 13.8584C55.6131 13.8333 56.5465 13.4472 57.2449 12.7782L58.678 14.335C58.1796 14.8755 57.5658 15.3035 56.8795 15.5889C56.1932 15.8743 55.4511 16.0101 54.7052 15.987C51.32 15.987 49.1133 13.6424 49.1133 10.5448C49.1133 7.44723 51.3233 5.1026 54.7052 5.1026C55.4506 5.07736 56.1926 5.21198 56.8786 5.49692C57.5646 5.78187 58.1778 6.21017 58.6748 6.75147Z" fill="#10284B"></path><path fill-rule="evenodd" clip-rule="evenodd" d="M68.9391 15.7171H71.2601L71.2634 5.36957H68.9424V6.6086C68.5477 6.11778 68.0387 5.72528 67.4576 5.46346C66.8764 5.20163 66.2396 5.07799 65.5996 5.1027C62.6257 5.1027 60.2852 7.38061 60.2852 10.5449C60.2852 13.7092 62.6257 15.9871 65.5996 15.9871C66.2397 16.0113 66.8765 15.8868 67.4572 15.6238C68.0379 15.3609 68.546 14.967 68.9391 14.4749V15.7171ZM65.8771 13.8585C63.8825 13.8585 62.6714 12.3558 62.6714 10.5417C62.6714 8.72766 63.8793 7.22812 65.8771 7.22494C67.7998 7.22494 69.086 8.65141 69.086 10.5417C69.086 12.432 67.7966 13.8585 65.8771 13.8585Z" fill="#10284B"></path><path d="M101.386 15.7163H103.894L103.9 0.59375H100.048L95.5301 11.3955L91.0122 0.59375H87.1602V15.7163H89.6672V3.38951L94.2048 14.2326H96.8457L101.386 3.27196V15.7163Z" fill="#10284B"></path><path fill-rule="evenodd" clip-rule="evenodd" d="M118.034 15.7161H115.713V14.4739C115.319 14.9658 114.811 15.3596 114.23 15.6225C113.65 15.8855 113.013 16.0101 112.373 15.9862C109.399 15.9862 107.059 13.7083 107.059 10.544C107.059 7.37967 109.399 5.09858 112.373 5.09858C113.013 5.07475 113.649 5.19913 114.23 5.4615C114.81 5.72386 115.319 6.1167 115.713 6.60766V5.36863H118.034V15.7161ZM109.442 10.5408C109.442 12.3548 110.653 13.8576 112.651 13.8576C114.57 13.8576 115.856 12.4311 115.856 10.5408C115.856 8.65047 114.57 7.22717 112.664 7.22717C110.653 7.22717 109.442 8.72672 109.442 10.5408Z" fill="#10284B"></path><path d="M125.625 7.07564C126.779 7.09736 127.909 7.40224 128.909 7.96202L129.918 6.19561C128.616 5.44721 127.124 5.06965 125.612 5.1059C122.906 5.1059 121.218 6.37035 121.218 8.42269C121.218 10.0843 122.455 11.139 124.809 11.4567L125.919 11.5965C127.182 11.7681 127.76 12.1557 127.76 12.7402C127.76 13.525 126.928 14.011 125.341 14.011C123.611 14.011 122.602 13.525 121.835 12.9531L120.758 14.6496C122.321 15.7711 124.228 15.9776 125.328 15.9776C128.39 15.9776 130.166 14.5861 130.166 12.5973C130.166 10.8118 128.792 9.85869 126.471 9.54099L125.37 9.37897C124.394 9.236 123.617 9.04538 123.617 8.30832C123.617 7.57125 124.358 7.07564 125.625 7.07564Z" fill="#10284B"></path><path d="M140.132 7.96202C139.131 7.40224 138.002 7.09736 136.848 7.07564C135.581 7.07564 134.84 7.57125 134.84 8.30832C134.84 9.04538 135.617 9.236 136.593 9.37897L137.693 9.54099C140.014 9.85869 141.389 10.8118 141.389 12.5973C141.389 14.5861 139.613 15.9776 136.551 15.9776C135.451 15.9776 133.544 15.7711 131.98 14.6496L133.058 12.9531C133.825 13.525 134.834 14.011 136.564 14.011C138.15 14.011 138.983 13.525 138.983 12.7402C138.983 12.1557 138.405 11.7681 137.142 11.5965L136.032 11.4567C133.678 11.139 132.441 10.0843 132.441 8.42269C132.441 6.37035 134.128 5.1059 136.835 5.1059C138.346 5.06965 139.838 5.44721 141.14 6.19561L140.132 7.96202Z" fill="#10284B"></path><path d="M0.707031 20.4854H141.707V23.027H0.707031V20.4854Z" fill="#10284B"></path></svg>