<svg width="126" height="47" viewBox="0 0 126 47" fill="none" xmlns="http://www.w3.org/2000/svg"><title>Kroger logo</title><path d="M57.0748 13.7233C57.0643 14.1872 57.0282 14.6502 56.9665 15.1101V15.106C56.7234 16.9924 56 19.7313 53.9381 22.0725C53.8012 22.2275 53.6581 22.3764 53.5151 22.5232L59.198 30.9948H54.0566L50.174 24.8869C49.013 25.425 47.7847 25.8051 46.5223 26.0167V30.9948H42.231V13.2298H46.5223V22.1154C48.4309 21.6708 49.9553 20.8163 51.069 19.5519C52.4913 17.9367 53.0001 15.9789 53.1759 14.6206C53.2269 14.2475 53.2536 13.8715 53.2556 13.4949C53.3171 9.9873 54.7642 6.64591 57.2821 4.19786C59.7999 1.74981 63.1846 0.393228 66.6997 0.423342C70.2147 0.453456 73.5756 1.86782 76.0509 4.35865C78.5263 6.84948 79.9157 10.2152 79.9169 13.7233H76.0792V13.3297C76.0269 10.8146 74.9757 8.42328 73.1567 6.68175C71.3377 4.94023 68.9 3.99117 66.3799 4.04337C63.8597 4.09556 61.4636 5.14473 59.7185 6.96007C57.9735 8.77541 57.0225 11.2082 57.0748 13.7233Z" fill="#10284B"></path><path fill-rule="evenodd" clip-rule="evenodd" d="M82.9072 29.2301C84.2191 27.8977 84.8744 26.2526 84.873 24.2947C84.8943 23.3849 84.7311 22.4802 84.3933 21.635C84.0555 20.7897 83.55 20.0212 82.9072 19.3757C81.6112 18.0899 79.8579 17.3682 78.0304 17.3682C76.2029 17.3682 74.4497 18.0899 73.1537 19.3757C71.894 20.7018 71.1919 22.4594 71.1919 24.2866C71.1919 26.1138 71.894 27.8714 73.1537 29.1974C74.4465 30.4867 76.1981 31.2129 78.0258 31.2171C79.8535 31.2213 81.6085 30.5032 82.9072 29.2199V29.2301ZM75.8797 26.6074C75.3381 25.9635 75.0413 25.1497 75.0413 24.309C75.0413 23.4683 75.3381 22.6545 75.8797 22.0106C76.138 21.7284 76.4495 21.4997 76.7964 21.3378C77.1433 21.1758 77.5188 21.0836 77.9014 21.0666C78.284 21.0495 78.6662 21.1079 79.0262 21.2384C79.3862 21.3689 79.7169 21.5689 79.9993 21.8271C80.062 21.8869 80.1233 21.9481 80.1833 22.0106C80.7266 22.6525 81.0247 23.4657 81.0247 24.306C81.0247 25.1462 80.7266 25.9594 80.1833 26.6013C79.9235 26.8834 79.6107 27.1116 79.2625 27.273C78.9144 27.4344 78.5378 27.5257 78.1543 27.5418C77.7708 27.5579 77.3878 27.4985 77.0274 27.3668C76.6669 27.2352 76.3359 27.034 76.0534 26.7746C75.9941 26.7196 75.9349 26.6625 75.8797 26.6013V26.6074Z" fill="#10284B"></path><path d="M64.8458 17.6279V19.7993C65.9912 18.1858 67.2514 17.3791 68.6263 17.3791C69.0577 17.3684 69.4878 17.4325 69.8973 17.5687V21.4089C69.4268 21.3115 68.9474 21.2636 68.4669 21.2661C66.813 21.2675 65.6373 22.0418 64.9398 23.589V30.996H60.8794V17.6279H64.8458Z" fill="#10284B"></path><path fill-rule="evenodd" clip-rule="evenodd" d="M105.976 17.8639C106.801 17.5252 107.688 17.3602 108.58 17.3791L108.572 17.375C110.473 17.3736 112.029 18.0609 113.24 19.4368C114.451 20.8127 115.056 22.4796 115.056 24.4374C115.056 24.5251 115.052 24.6148 115.044 24.729C115.036 24.8432 115.024 24.9697 115.009 25.1083C114.995 25.2159 114.987 25.3241 114.985 25.4326H105.771C106.077 26.9812 107.106 27.7555 108.858 27.7555C110.076 27.7555 111.06 27.4115 111.809 26.7235L114.754 28.3673C114 29.2202 113.101 29.9328 112.097 30.4719C111.131 30.979 109.967 31.2326 108.605 31.2326C106.586 31.2312 104.951 30.5854 103.701 29.2952C102.45 28.0049 101.825 26.3401 101.825 24.3007C101.823 22.3089 102.476 20.6577 103.782 19.3471C104.404 18.7074 105.15 18.2025 105.976 17.8639ZM106.835 21.3151C106.328 21.7691 105.976 22.3692 105.826 23.0322L111.004 23.0261C110.905 22.4029 110.597 21.8315 110.131 21.4048C109.919 21.1857 109.665 21.0108 109.385 20.8904C109.104 20.77 108.802 20.7064 108.497 20.7033C107.886 20.6963 107.295 20.9141 106.835 21.3151Z" fill="#10284B"></path><path d="M124.521 17.3788C123.144 17.3788 121.881 18.1885 120.733 19.8077V17.6276H116.766V30.9958H120.829V23.5888C121.523 22.0415 122.698 21.2673 124.354 21.2659C124.834 21.2634 125.314 21.3112 125.784 21.4087V17.5685C125.375 17.4323 124.946 17.3681 124.515 17.3788H124.521Z" fill="#10284B"></path><path fill-rule="evenodd" clip-rule="evenodd" d="M100.106 17.6279H96.2438V18.7659C95.7949 18.3092 95.2562 17.9502 94.6615 17.7115C94.0667 17.4728 93.4289 17.3597 92.7882 17.3791C91.069 17.3791 89.5807 18.0242 88.3232 19.3145C87.0658 20.6047 86.4364 22.2036 86.435 24.1111C86.435 26.0145 87.0801 27.5971 88.3702 28.8588C89.6604 30.1205 91.133 30.7534 92.7882 30.7574C94.0456 30.7777 95.2753 30.3882 96.2908 29.648V34.9035C96.2908 37.067 95.4296 39.1419 93.8967 40.6718C92.3638 42.2016 90.2847 43.061 88.1168 43.061C85.949 43.061 83.8699 42.2016 82.337 40.6718C80.8041 39.1419 79.9429 37.067 79.9429 34.9035H76.1216C76.1539 38.0267 77.4078 41.0137 79.6158 43.2272C81.8238 45.4408 84.8111 46.7056 87.9404 46.7519C91.0697 46.7982 94.0933 45.6223 96.3661 43.4751C98.6389 41.3278 99.9809 38.3792 100.106 35.2584V17.6279ZM95.4427 26.3769C94.8834 26.9491 94.1192 27.2761 93.3183 27.2861C92.5174 27.296 91.7453 26.988 91.1719 26.4299L91.1187 26.3769C90.5794 25.7466 90.2831 24.945 90.2831 24.1162C90.2831 23.2874 90.5794 22.4858 91.1187 21.8555C91.6759 21.2847 92.4373 20.9579 93.2358 20.9468C94.0342 20.9357 94.8044 21.2413 95.3773 21.7964L95.4366 21.8555C95.9701 22.4885 96.2626 23.2891 96.2626 24.1162C96.2626 24.9433 95.9701 25.7439 95.4366 26.3769H95.4427Z" fill="#10284B"></path><path fill-rule="evenodd" clip-rule="evenodd" d="M101.053 41.8475H101.374V41.2907H101.525C101.703 41.2907 101.789 41.358 101.814 41.5089C101.834 41.6265 101.871 41.7406 101.924 41.8475H102.271C102.218 41.7383 102.184 41.6212 102.169 41.5008C102.162 41.427 102.134 41.3567 102.089 41.2974C102.045 41.2381 101.985 41.1921 101.916 41.1643V41.1459C101.992 41.1314 102.062 41.0922 102.114 41.0344C102.166 40.9765 102.198 40.9032 102.204 40.8257C102.206 40.7683 102.194 40.7111 102.171 40.6586C102.148 40.606 102.113 40.5593 102.069 40.5219C101.922 40.4417 101.754 40.4062 101.587 40.4199C101.408 40.4158 101.229 40.4302 101.053 40.4627V41.8475ZM101.538 41.0623H101.374L101.384 40.6707C101.443 40.6582 101.503 40.6528 101.562 40.6544C101.767 40.6544 101.859 40.7136 101.859 40.8584C101.859 41.0032 101.716 41.0623 101.538 41.0623Z" fill="#10284B"></path><path fill-rule="evenodd" clip-rule="evenodd" d="M102.795 41.9291C102.945 41.69 103.021 41.4118 103.013 41.1296V41.1011C103.004 40.7318 102.848 40.3814 102.579 40.1268C102.311 39.8721 101.953 39.7341 101.583 39.7428H101.542C101.259 39.751 100.985 39.8427 100.755 40.0062C100.524 40.1698 100.347 40.3978 100.247 40.6616C100.146 40.9255 100.126 41.2131 100.189 41.4883C100.252 41.7635 100.395 42.0138 100.601 42.2077C100.807 42.4015 101.065 42.5301 101.344 42.5773C101.623 42.6245 101.91 42.5881 102.168 42.4727C102.426 42.3573 102.644 42.1681 102.795 41.9291ZM100.585 41.5345C100.535 41.4027 100.512 41.2623 100.516 41.1214V41.1296C100.516 40.8462 100.629 40.5744 100.83 40.374C101.03 40.1736 101.303 40.061 101.587 40.061C101.871 40.061 102.143 40.1736 102.344 40.374C102.545 40.5744 102.658 40.8462 102.658 41.1296V41.1622C102.658 41.3015 102.631 41.4395 102.578 41.5684C102.525 41.6972 102.448 41.8144 102.349 41.9133C102.251 42.0122 102.134 42.0907 102.005 42.1445C101.877 42.1983 101.739 42.2263 101.599 42.2268H101.558C101.417 42.2226 101.278 42.1906 101.149 42.1328C101.02 42.0749 100.904 41.9923 100.808 41.8897C100.711 41.787 100.635 41.6663 100.585 41.5345Z" fill="#10284B"></path><path d="M14.0958 28.9888C14.0897 29.4361 13.9513 29.8716 13.6979 30.2405C13.4444 30.6094 13.0873 30.8953 12.6715 31.0622C12.2557 31.2291 11.7997 31.2696 11.3609 31.1785C10.9221 31.0874 10.52 30.8688 10.2054 30.5503C9.89073 30.2317 9.67749 29.8275 9.5925 29.3883C9.50751 28.9491 9.55455 28.4946 9.72772 28.0821C9.90089 27.6695 10.1924 27.3172 10.5657 27.0696C10.939 26.822 11.3773 26.6901 11.8255 26.6904C12.1263 26.6907 12.4241 26.7505 12.7016 26.8665C12.979 26.9825 13.2307 27.1523 13.4419 27.3662C13.6531 27.58 13.8196 27.8335 13.9319 28.112C14.0441 28.3906 14.0998 28.6886 14.0958 28.9888Z" fill="#10284B"></path><path d="M32.8968 28.9887C32.8968 30.257 31.8794 31.2851 30.6244 31.2851C29.3694 31.2851 28.3521 30.257 28.3521 28.9887C28.3521 27.7205 29.3694 26.6924 30.6244 26.6924C31.8794 26.6924 32.8968 27.7205 32.8968 28.9887Z" fill="#10284B"></path><path d="M11.6878 13.9116C11.679 13.8385 11.6858 13.7644 11.7076 13.6942C11.7295 13.6239 11.7659 13.559 11.8145 13.5037C11.8627 13.4481 11.9223 13.4035 11.9893 13.3729C12.0563 13.3423 12.1291 13.3264 12.2028 13.3263H18.3639C18.4555 13.3262 18.5454 13.3506 18.6245 13.3968C18.7035 13.4431 18.7687 13.5095 18.8134 13.5893C18.8585 13.6693 18.8822 13.7596 18.8822 13.8514C18.8822 13.9432 18.8585 14.0335 18.8134 14.1135L15.6399 19.6728C15.6072 19.7326 15.563 19.7853 15.5098 19.828C15.4566 19.8706 15.3955 19.9024 15.33 19.9213C15.2644 19.9403 15.1958 19.9461 15.128 19.9385C15.0602 19.9308 14.9945 19.9098 14.9349 19.8768C14.9059 19.8603 14.8786 19.8412 14.8532 19.8197C13.1672 18.3712 12.0555 16.3691 11.7185 14.1746L11.7083 14.0866C11.7022 14.0342 11.6954 13.9747 11.6878 13.9116Z" fill="#10284B"></path><path d="M21.6559 21.9896C20.1428 22.1326 18.6181 21.8913 17.2236 21.288C17.1556 21.2588 17.0945 21.2155 17.0445 21.1611C16.9945 21.1066 16.9566 21.0421 16.9334 20.9719C16.9103 20.9015 16.9022 20.827 16.9096 20.7532C16.917 20.6795 16.9397 20.6081 16.9763 20.5436L20.6546 14.1135C20.6993 14.0336 20.7645 13.9671 20.8435 13.9209C20.9226 13.8746 21.0125 13.8502 21.1042 13.8502C21.1958 13.8502 21.2858 13.8746 21.3648 13.9209C21.4438 13.9671 21.5091 14.0336 21.5537 14.1135L25.1074 20.3377C25.143 20.3991 25.1657 20.4672 25.1739 20.5378C25.1822 20.6084 25.1759 20.6798 25.1554 20.7479C25.1349 20.8159 25.1007 20.879 25.0548 20.9333C25.009 20.9876 24.9524 21.032 24.8887 21.0637C23.878 21.5697 22.7817 21.8837 21.6559 21.9896Z" fill="#10284B"></path><path d="M27.8906 18.6694C27.6652 18.9433 27.4244 19.2041 27.1692 19.4505C27.1141 19.506 27.0469 19.5481 26.9728 19.5736C26.8988 19.5991 26.8199 19.6072 26.7422 19.5974C26.664 19.586 26.5894 19.557 26.5243 19.5125C26.4591 19.4679 26.405 19.409 26.3662 19.3404L23.3806 14.1114C23.3345 14.0317 23.3103 13.9414 23.3103 13.8494C23.3103 13.7574 23.3345 13.667 23.3806 13.5873C23.4253 13.5075 23.4906 13.4411 23.5696 13.3948C23.6486 13.3486 23.7386 13.3242 23.8302 13.3242H29.4273C29.5013 13.3243 29.5744 13.3402 29.6417 13.3708C29.709 13.4014 29.769 13.446 29.8176 13.5016C29.8654 13.5575 29.9012 13.6224 29.923 13.6926C29.9448 13.7627 29.952 13.8365 29.9443 13.9095C29.7241 15.6579 29.012 17.3083 27.8906 18.6694Z" fill="#10284B"></path><path d="M21.8884 23.5514C27.2852 23.0477 31.4171 18.6263 31.7809 13.3239L35.5613 13.3178C35.1935 20.5678 29.5984 26.6533 22.2419 27.3386C21.7841 27.3807 21.3312 27.4018 20.883 27.4018C13.3834 27.4018 6.96478 21.6038 6.26387 13.9092C5.941 10.3709 3.99969 8.31113 0.793457 8.0766V4.25684C5.97574 4.50564 9.50892 8.0766 10.0096 13.5585C10.5613 19.6297 15.8948 24.1102 21.8884 23.5514Z" fill="#10284B"></path></svg>