<svg width="160" height="160" viewBox="0 0 160 160" fill="none" xmlns="http://www.w3.org/2000/svg"><title>Stark logo</title><rect width="160" height="160" fill="white"></rect><rect width="160" height="160" fill="url(#paint0_linear_2312_20415)"></rect><g filter="url(#filter0_di_2312_20415)"><path fill-rule="evenodd" clip-rule="evenodd" d="M77.5151 124.577V111.146C86.7076 111.945 95.7826 108.635 102.301 102.104C112.684 91.7201 114.443 75.511 106.529 63.1417L63.3346 106.332L53.7049 115.961C51.9015 114.628 50.2001 113.163 48.615 111.577C31.1745 94.1382 31.1745 65.8629 48.615 48.4227C57.6416 39.3769 70.1185 34.6425 82.8743 35.4231V48.8545C73.6818 48.0547 64.6068 51.3651 58.0889 57.8959C47.7056 68.2799 45.9466 84.489 53.8606 96.8583L97.0548 53.6687L106.685 44.0399C108.488 45.3723 110.19 46.8377 111.775 48.4236C129.215 65.8626 129.215 94.1378 111.775 111.578C102.748 120.624 90.2709 125.358 77.5151 124.577Z" fill="white"></path></g><defs><filter id="filter0_di_2312_20415" x="30.0978" y="32.8156" width="100.194" height="100.194" filterUnits="userSpaceOnUse" color-interpolation-filters="sRGB"><feFlood flood-opacity="0" result="BackgroundImageFix"></feFlood><feColorMatrix in="SourceAlpha" type="matrix" values="0 0 0 0 0 0 0 0 0 0 0 0 0 0 0 0 0 0 127 0" result="hardAlpha"></feColorMatrix><feOffset dy="2.91262"></feOffset><feGaussianBlur stdDeviation="2.71845"></feGaussianBlur><feComposite in2="hardAlpha" operator="out"></feComposite><feColorMatrix type="matrix" values="0 0 0 0 0 0 0 0 0 0 0 0 0 0 0 0 0 0 0.4 0"></feColorMatrix><feBlend mode="normal" in2="BackgroundImageFix" result="effect1_dropShadow_2312_20415"></feBlend><feBlend mode="normal" in="SourceGraphic" in2="effect1_dropShadow_2312_20415" result="shape"></feBlend><feColorMatrix in="SourceAlpha" type="matrix" values="0 0 0 0 0 0 0 0 0 0 0 0 0 0 0 0 0 0 127 0" result="hardAlpha"></feColorMatrix><feOffset dy="0.38835"></feOffset><feComposite in2="hardAlpha" operator="arithmetic" k2="-1" k3="1"></feComposite><feColorMatrix type="matrix" values="0 0 0 0 1 0 0 0 0 1 0 0 0 0 1 0 0 0 0.25 0"></feColorMatrix><feBlend mode="normal" in2="shape" result="effect2_innerShadow_2312_20415"></feBlend></filter><linearGradient id="paint0_linear_2312_20415" x1="80" y1="-39.2233" x2="80" y2="160" gradientUnits="userSpaceOnUse"><stop stop-color="#7E6DE9"></stop><stop offset="1" stop-color="#381FD1"></stop></linearGradient></defs></svg>