<svg width="159" height="35" viewBox="0 0 159 35" fill="none" xmlns="http://www.w3.org/2000/svg"><title>Microsoft logo</title><path d="M56.4781 20.1551L55.5381 22.8268H55.4598C55.3031 22.2244 55.0159 21.3076 54.5459 20.2075L49.5066 7.50382H44.5716V27.7511H47.8355V15.257C47.8355 14.4712 47.8355 13.5806 47.8094 12.4805C47.7833 11.9305 47.731 11.5114 47.7049 11.1971H47.7833C47.9399 11.9828 48.1227 12.5591 48.2533 12.9258L54.3109 27.6987H56.6087L62.6142 12.7948C62.7447 12.4543 62.8753 11.7733 63.0058 11.1971H63.0841C63.0058 12.6901 62.9536 14.0259 62.9275 14.8379V27.6725H66.4002V7.45144H61.6481L56.4781 20.1551ZM69.6901 13.1615H73.0845V27.6725H69.6901V13.1615ZM71.4135 7.03235C70.839 7.03235 70.369 7.24189 69.9774 7.60859C69.5857 7.9753 69.3768 8.44677 69.3768 9.02302C69.3768 9.57308 69.5857 10.0446 69.9774 10.4113C70.369 10.778 70.839 10.9613 71.4135 10.9613C71.9879 10.9613 72.484 10.7518 72.8495 10.4113C73.2412 10.0446 73.4501 9.57308 73.4501 9.02302C73.4501 8.47297 73.2412 8.00149 72.8495 7.60859C72.5101 7.24189 72.014 7.03235 71.4135 7.03235ZM85.1216 13.0306C84.4949 12.8996 83.8422 12.821 83.2155 12.821C81.675 12.821 80.265 13.1615 79.09 13.8426C77.915 14.5236 76.9751 15.4665 76.3745 16.6452C75.7478 17.8501 75.4345 19.2383 75.4345 20.8361C75.4345 22.2244 75.7478 23.4554 76.3484 24.5817C76.9489 25.6819 77.7845 26.5724 78.9072 27.1749C79.9778 27.7773 81.2311 28.0916 82.6411 28.0916C84.2599 28.0916 85.6438 27.7511 86.7405 27.1225L86.7666 27.0963V23.9531L86.636 24.0579C86.1399 24.4246 85.5655 24.7389 84.991 24.9222C84.3905 25.1318 83.8422 25.2366 83.3722 25.2366C82.0144 25.2366 80.9439 24.8437 80.1867 23.9793C79.4034 23.1411 79.0117 21.9886 79.0117 20.548C79.0117 19.055 79.4034 17.8763 80.2128 17.0119C81.0222 16.1476 82.0928 15.7023 83.3983 15.7023C84.4949 15.7023 85.6177 16.069 86.636 16.8024L86.7666 16.9072V13.5806L86.7405 13.5544C86.2966 13.3711 85.8005 13.1615 85.1216 13.0306ZM96.3231 12.9258C95.4875 12.9258 94.7042 13.1877 94.0253 13.7378C93.4509 14.2093 93.0592 14.8903 92.7198 15.7023H92.6937V13.1615H89.2993V27.6725H92.6937V20.2599C92.6937 19.0026 92.9548 17.9549 93.5293 17.1953C94.1037 16.4095 94.8348 16.0166 95.7225 16.0166C96.0359 16.0166 96.3492 16.0952 96.7409 16.1476C97.1064 16.2523 97.3675 16.3571 97.5503 16.4881L97.6809 16.5928V13.1877L97.6025 13.1615C97.3675 13.0044 96.8975 12.9258 96.3231 12.9258ZM105.566 12.8472C103.19 12.8472 101.284 13.5544 99.9525 14.9427C98.5947 16.3309 97.942 18.243 97.942 20.6528C97.942 22.9054 98.6208 24.7389 99.9264 26.0747C101.232 27.3844 103.007 28.0654 105.227 28.0654C107.551 28.0654 109.405 27.3582 110.736 25.9438C112.094 24.5294 112.747 22.6434 112.747 20.3123C112.747 18.0073 112.12 16.1737 110.841 14.8379C109.613 13.502 107.812 12.8472 105.566 12.8472ZM108.282 24.0055C107.655 24.8175 106.663 25.2104 105.436 25.2104C104.209 25.2104 103.216 24.8175 102.511 23.9531C101.806 23.1411 101.467 21.9624 101.467 20.4694C101.467 18.924 101.832 17.7453 102.511 16.9072C103.216 16.069 104.182 15.6499 105.41 15.6499C106.611 15.6499 107.551 16.0428 108.23 16.8548C108.908 17.6668 109.274 18.8454 109.274 20.3908C109.222 21.9624 108.935 23.1935 108.282 24.0055ZM120.319 19.186C119.248 18.7407 118.569 18.4002 118.256 18.112C117.995 17.8501 117.864 17.4834 117.864 17.0119C117.864 16.619 118.021 16.2261 118.413 15.9642C118.804 15.7023 119.248 15.5713 119.901 15.5713C120.476 15.5713 121.076 15.6761 121.65 15.8332C122.225 15.9904 122.747 16.2261 123.165 16.5405L123.295 16.6452V13.4497L123.217 13.4235C122.825 13.2663 122.303 13.1092 121.677 12.9782C121.05 12.8734 120.476 12.821 120.006 12.821C118.387 12.821 117.055 13.2139 116.011 14.0783C114.966 14.8903 114.47 15.9904 114.47 17.2739C114.47 17.9549 114.574 18.5573 114.809 19.055C115.044 19.5527 115.384 20.0241 115.854 20.417C116.324 20.7837 117.003 21.2028 117.943 21.5957C118.726 21.9362 119.327 22.1982 119.692 22.4077C120.058 22.6173 120.293 22.853 120.476 23.0363C120.606 23.2459 120.684 23.5078 120.684 23.8483C120.684 24.8175 119.953 25.289 118.465 25.289C117.891 25.289 117.29 25.1842 116.585 24.9484C115.88 24.7127 115.227 24.3722 114.679 23.9793L114.548 23.8745V27.2011L114.627 27.2272C115.123 27.463 115.723 27.6201 116.454 27.8035C117.186 27.9345 117.838 28.0392 118.413 28.0392C120.162 28.0392 121.598 27.6463 122.617 26.782C123.661 25.9438 124.209 24.8699 124.209 23.4816C124.209 22.5125 123.948 21.6481 123.374 20.9933C122.617 20.3646 121.677 19.7098 120.319 19.186ZM133.165 12.8472C130.789 12.8472 128.883 13.5544 127.552 14.9427C126.22 16.3309 125.541 18.243 125.541 20.6528C125.541 22.9054 126.22 24.7389 127.525 26.0747C128.831 27.3844 130.606 28.0654 132.826 28.0654C135.15 28.0654 137.004 27.3582 138.335 25.9438C139.693 24.5294 140.346 22.6434 140.346 20.3123C140.346 18.0073 139.719 16.1737 138.44 14.8379C137.212 13.502 135.411 12.8472 133.165 12.8472ZM135.855 24.0055C135.228 24.8175 134.236 25.2104 133.009 25.2104C131.755 25.2104 130.789 24.8175 130.084 23.9531C129.379 23.1411 129.04 21.9624 129.04 20.4694C129.04 18.924 129.405 17.7453 130.084 16.9072C130.789 16.069 131.755 15.6499 132.983 15.6499C134.158 15.6499 135.124 16.0428 135.803 16.8548C136.481 17.6668 136.847 18.8454 136.847 20.3908C136.847 21.9624 136.508 23.1935 135.855 24.0055ZM158.493 15.9642V13.1615H155.072V8.86586L154.968 8.89206L151.73 9.8612L151.652 9.8874V13.1615H146.534V11.328C146.534 10.4898 146.743 9.83501 147.108 9.41592C147.474 8.99683 148.022 8.78728 148.701 8.78728C149.171 8.78728 149.667 8.89206 150.216 9.1278L150.346 9.20638V6.24655L150.268 6.22036C149.798 6.0632 149.171 5.95843 148.362 5.95843C147.343 5.95843 146.456 6.19417 145.646 6.58706C144.837 7.03235 144.236 7.63479 143.792 8.44677C143.348 9.23257 143.114 10.1231 143.114 11.1447V13.1615H140.737V15.938H143.114V27.6725H146.534V15.9642H151.652V23.4292C151.652 26.4938 153.088 28.0392 155.96 28.0392C156.43 28.0392 156.926 27.9607 157.396 27.8821C157.892 27.7773 158.258 27.6463 158.467 27.5416L158.493 27.5154V24.7127L158.362 24.8175C158.153 24.9484 157.971 25.0532 157.657 25.1318C157.396 25.2104 157.161 25.2366 156.978 25.2366C156.299 25.2366 155.829 25.0794 155.49 24.6865C155.177 24.3198 155.02 23.7174 155.02 22.8268V15.9642H158.493Z" fill="#10284B"></path><path d="M0.810059 0.693604H16.8159V16.75H0.810059V0.693604Z" fill="#10284B"></path><path d="M18.487 0.693604H34.4929V16.75H18.487V0.693604Z" fill="#10284B"></path><path d="M0.810059 18.4264H16.8159V34.4827H0.810059V18.4264Z" fill="#10284B"></path><path d="M18.487 18.4264H34.4929V34.4827H18.487V18.4264Z" fill="#10284B"></path></svg>