<svg width="91" height="26" viewBox="0 0 91 26" fill="none" xmlns="http://www.w3.org/2000/svg"><title>NASA logo</title><path d="M16.8495 18.5934C17.1292 19.6514 17.5806 20.0606 18.3783 20.0606C19.2052 20.0606 19.6388 19.5638 19.6388 18.5934V0.577752H24.8189V18.5934C24.8189 21.1328 24.4894 22.2331 23.2019 23.521C22.2739 24.4491 20.5623 25.1666 18.4012 25.1666C16.6551 25.1666 14.9844 24.5887 13.9189 23.5212C12.9847 22.5853 12.4716 21.6239 11.6696 18.5932L8.49104 6.58296C8.21113 5.52491 7.75994 5.11596 6.96227 5.11596C6.13514 5.11596 5.70152 5.61259 5.70152 6.58296V24.5988H0.521484V6.58296C0.521484 4.04371 0.851094 2.94324 2.13865 1.65533C3.06624 0.727558 4.77801 0.00976562 6.93937 0.00976562C8.6854 0.00976562 10.3562 0.587869 11.4217 1.65515C12.3558 2.59108 12.869 3.5524 13.6709 6.58314L16.8495 18.5934Z" fill="#10284B"></path><path d="M85.3716 24.5986L79.3893 5.88416C79.3233 5.67756 79.261 5.50219 79.1651 5.38522C79.0007 5.18518 78.7734 5.08011 78.4674 5.08011C78.1615 5.08011 77.9342 5.18518 77.7696 5.38522C77.674 5.50201 77.6115 5.67738 77.5456 5.88416L71.5635 24.5988H66.209L72.7435 4.15535C73.0839 3.09038 73.5706 2.18622 74.1881 1.5838C75.248 0.550595 76.4968 0.00976562 78.4675 0.00976562C80.4383 0.00976562 81.6873 0.550595 82.7468 1.58362C83.3643 2.18622 83.851 3.0902 84.1916 4.15518L90.7259 24.5986H85.3716Z" fill="#10284B"></path><path d="M65.2538 22.5773C63.946 23.8778 62.2907 24.5988 58.8969 24.5988L43.3208 24.5986L37.3385 5.88399C37.2726 5.6772 37.2103 5.50184 37.1145 5.38504C36.95 5.18501 36.7226 5.07993 36.4168 5.07993C36.1109 5.07993 35.8834 5.18501 35.719 5.38504C35.6232 5.50201 35.5609 5.67738 35.4949 5.88399L29.5125 24.5986H24.1582L30.6927 4.15518C31.0331 3.0902 31.5197 2.18622 32.1373 1.58362C33.1966 0.550595 34.4457 0.00976562 36.4164 0.00976562C38.3871 0.00976562 39.636 0.550595 40.6958 1.5838C41.3133 2.18622 41.8 3.09038 42.1405 4.15535L47.0484 19.5103H59.8448C60.854 19.5103 61.3792 19.3367 61.7647 18.9585C62.1987 18.5323 62.3508 17.9084 62.3508 17.2767C62.3508 16.6656 62.1843 16.1473 61.8292 15.7985C61.312 15.2902 60.6582 15.0923 59.0178 15.0923L54.7246 15.0919C51.6596 15.0919 49.7801 14.6175 48.2666 13.1125C47.1091 11.9618 46.3489 10.0386 46.3489 7.96175C46.3489 5.61171 47.0413 4.03785 48.4882 2.59925C49.7962 1.29892 51.4514 0.577752 54.8451 0.577752H66.3049V5.6662H53.8974C52.8882 5.6662 52.363 5.83979 51.9776 6.21803C51.5435 6.6442 51.3914 7.2681 51.3914 7.8998C51.3914 8.51092 51.5579 9.02939 51.913 9.37799C52.4302 9.88616 53.084 10.0844 54.7244 10.0844L59.0175 10.0846C62.0825 10.0846 63.9621 10.5589 65.4755 12.0639C66.6329 13.2147 67.3931 15.1381 67.3931 17.2146C67.3931 19.5646 66.7009 21.1387 65.2538 22.5773Z" fill="#10284B"></path></svg>