<svg width="110" height="25" viewBox="0 0 110 25" fill="none" xmlns="http://www.w3.org/2000/svg"><title>Oscar logo</title><path d="M103.151 3.16297L102.902 3.15673V1.10448H98.6127V24.0407H103.605V11.241C103.605 9.16081 103.885 6.78369 106.001 5.74328C106.864 5.28602 108.246 4.91111 109.24 4.91111V0.45874C106.821 0.542547 104.619 1.1664 103.151 3.16297ZM82.9416 20.7648C78.3642 20.7648 74.7804 16.978 74.7804 12.6512C74.7804 8.15684 78.2351 4.41161 82.9847 4.41161C87.8643 4.41161 91.276 8.03233 91.276 12.6512C91.276 17.1026 87.6051 20.7648 82.9416 20.7648ZM90.9593 4.08048C89.1594 1.62802 86.0782 0.45874 82.9847 0.45874C75.7304 0.45874 70.2894 5.70155 70.2894 12.6926C70.2894 19.6412 75.8169 24.7176 82.9847 24.7176C86.1571 24.7176 89.2367 23.4346 90.9593 20.8321V24.0407H95.8584V1.10448H90.9593V4.08048ZM57.2913 4.41161C60.4869 4.41161 62.689 6.03421 64.0275 8.73913H68.9935C67.6545 3.78767 62.3867 0.45874 57.2479 0.45874C50.1661 0.45874 44.9415 5.82649 44.9415 12.5674C44.9415 19.3086 50.0799 24.7176 57.2046 24.7176C62.689 24.7176 67.223 21.4719 68.9935 16.5206H63.9844C62.7322 19.1834 60.2707 20.7648 57.2046 20.7648C52.4117 20.7648 49.4323 16.9366 49.4323 12.5674C49.4323 8.03233 52.3682 4.41161 57.2913 4.41161ZM36.0023 9.86308C34.3613 9.364 32.2889 8.90571 32.2889 6.86673C32.2889 5.32716 33.5841 4.41161 35.0954 4.41161C36.9092 4.41161 37.9454 5.53513 38.1615 7.19964H42.6524C42.5658 3.20521 39.4136 0.45874 35.3112 0.45874C31.3819 0.45874 27.7978 3.16297 27.7978 7.11601C27.7978 15.2722 38.7226 12.7757 38.7226 17.6021C38.7226 19.5992 37.2544 20.7648 35.2682 20.7648C32.591 20.7648 31.9411 18.9394 31.7679 16.5681H26.8381C26.8381 20.1878 28.575 22.9701 32.1159 24.1765C33.1093 24.5101 34.1454 24.7176 35.182 24.7176C39.759 24.7176 43.2138 21.8882 43.2138 17.3531C43.2138 12.9001 39.9319 11.0277 36.0023 9.86308ZM12.9864 20.7648C8.32282 20.7648 4.56597 17.0613 4.56597 12.5674C4.56597 8.07363 8.32282 4.41161 12.9864 4.41161C17.6503 4.41161 21.4068 8.03233 21.4068 12.526C21.4068 17.0196 17.6931 20.7648 12.9864 20.7648ZM12.9864 0.45874C6.077 0.45874 0.0751953 5.66016 0.0751953 12.4422C0.0751953 19.2669 5.94783 24.7176 12.9864 24.7176C20.241 24.7176 25.8979 19.1 25.8979 12.526C25.8979 5.70155 19.9819 0.45874 12.9864 0.45874Z" fill="#10284B"></path></svg>