<svg width="94" height="55" viewBox="0 0 94 55" fill="none" xmlns="http://www.w3.org/2000/svg"><title>Pfizer logo</title><path d="M58.1793 0.296875C52.8021 0.297778 47.1123 0.871072 41.3399 2.07987C17.686 7.03042 0.24563 20.9699 0.24024 34.2224C0.239342 35.2347 0.340838 36.2434 0.548344 37.2421C2.26049 45.4775 10.8311 51.3222 22.7362 53.6983C25.2532 43.9568 31.0409 21.6604 31.0409 21.6604C32.1764 17.2506 32.8097 15.5479 33.9335 13.6279C35.3959 11.1472 37.7413 9.09646 41.0291 8.79809C42.8167 8.63674 45.4783 8.86208 46.9668 9.91133C48.3726 10.9011 48.5514 11.9377 48.5056 12.8824C48.4086 14.8322 47.2201 16.1365 45.3211 16.1365C43.3727 16.1365 42.7655 14.7024 42.7565 13.7568C42.7448 12.4696 43.5057 12.2712 43.4967 11.3176C43.4913 10.8299 43.0493 10.0682 41.8322 10.2593C40.3293 10.4964 39.078 11.6925 38.2641 13.7784C38.0728 14.2634 37.8383 14.9124 37.5455 16.0211L36.0516 21.8506H45.9068C44.6195 26.5343 42.4367 34.8543 41.8259 37.1331H36.8475L40.2637 24.3565H35.3842L27.5888 54.4519C30.1112 54.7386 32.7468 54.8846 35.4686 54.8792C40.7093 54.8684 46.2679 54.2987 51.9469 53.1088C75.6556 48.1457 93.7931 34.0755 93.8102 20.7842C93.8111 19.8016 93.714 18.8227 93.5119 17.8537C91.2464 6.95921 76.518 0.296875 58.1865 0.296875H58.1793ZM14.4126 14.2228H20.2353C29.168 14.2228 29.7968 18.7975 29.0396 22.0543C28.1044 26.0854 25.697 28.96 15.443 28.9771C14.4315 32.727 13.5574 35.9703 13.2439 37.1331H8.23415C9.15221 33.7329 14.4126 14.2228 14.4126 14.2228ZM59.3489 31.7336C59.3489 26.2017 64.3102 21.4855 69.6137 21.4855C72.2511 21.4855 74.5292 22.715 74.5292 24.809C74.5292 26.9805 72.8062 29.2142 70.2012 30.0615C68.5807 30.606 66.9422 30.9278 64.1925 30.9278C64.1269 31.5083 64.153 31.7327 64.153 32.0464C64.153 33.522 65.4034 34.7813 67.1434 34.7813C69.4781 34.7813 71.6807 32.6323 71.9385 32.3718L72.8062 34.6993C72.1083 35.4258 71.3303 36.0568 70.4455 36.5174C69.0514 37.2458 67.4533 37.6379 65.7052 37.6379C61.9153 37.6379 59.3489 35.26 59.3489 31.7336ZM87.1224 21.5864C89.8882 21.5864 90.3032 23.2369 90.3032 24.5169C90.3032 26.0196 89.2459 27.0508 88.035 27.0508C87.1161 27.0508 86.7118 26.6803 86.5492 26.518C86.127 26.0944 86.0561 25.6608 86.0084 25.3003C85.9483 24.8757 85.8099 24.4655 85.3258 24.3862C84.6251 24.2753 84.052 24.5575 83.4573 25.0875C82.6533 25.8051 81.9679 26.939 81.4676 28.0297C81.1226 28.7815 80.8666 29.4945 80.7229 30.002L78.7889 37.1331H73.7746L77.8861 21.8506H82.7485L81.8763 24.9135C83.019 23.5245 85.1569 21.5864 87.1224 21.5864ZM48.1705 21.8506H60.6334C59.198 26.6028 52.4491 30.4626 50.586 34.0593H58.4398L57.617 37.1331H44.863C44.863 32.3042 52.9162 26.7263 54.4478 24.3565H47.4959L48.1705 21.8506ZM18.8053 16.5025C18.0875 19.1643 17.0734 22.9277 16.0987 26.5397C20.0728 26.5298 22.5691 25.8393 23.7944 21.8929C24.7951 18.6623 24.4034 16.5025 19.6793 16.5025H18.8053ZM67.1227 24.7513C65.8768 25.7095 64.921 27.2185 64.5473 28.905C66.8137 28.8257 68.0947 28.4858 69.2705 27.5601C70.3278 26.7281 70.803 25.7906 70.803 25.001C70.803 24.5674 70.5372 23.8877 69.32 23.8877C68.7657 23.8877 67.8629 24.1789 67.1227 24.7513Z" fill="#10284B"></path></svg>