<svg xmlns="http://www.w3.org/2000/svg" viewBox="0 0 60 77" fill="none">
            <path d="M1.85539 1.32077C1.30115 1.65026 1.96219 1.76669 1.63611 2.06343C1.6324 2.09734 1.95592 1.98327 1.89036 2.05631C1.48151 2.37277 1.82865 2.62163 2.25335 2.7929L2.33792 2.75616C2.4233 2.7653 2.13036 2.91685 2.18358 2.95686C2.23775 2.9377 2.2933 2.9227 2.34975 2.91183C2.17097 2.96702 2.29122 3.02569 2.15859 3.0801C2.23259 3.08803 2.38171 3.04089 2.46709 3.05003L2.2624 3.13114C1.78558 3.33169 2.35208 3.31223 2.11988 3.4875C2.1619 3.46825 2.20596 3.45373 2.25126 3.44433C1.99334 3.69691 2.10898 3.90369 2.04445 4.12551C2.13928 4.09259 2.23641 4.06671 2.33507 4.04801C2.12029 4.1165 2.07751 4.19207 2.04796 4.2518C2.2818 4.21966 1.865 4.39794 2.02822 4.43257L2.08257 4.40991C1.85778 4.51736 2.23617 4.42623 1.96275 4.55706L2.14354 4.53649C1.83275 4.64045 2.33143 4.55656 2.17864 4.63741L2.11596 4.6307C2.04595 4.69182 2.21279 4.641 2.16492 4.71021L2.20467 4.71447C2.14233 4.81072 2.32696 4.80778 2.07802 4.87262C2.28787 4.84934 2.15244 4.77177 2.44952 4.74068C2.38675 4.86912 2.35422 5.01022 2.3546 5.15295C2.35498 5.29569 2.38823 5.43625 2.45168 5.56428C2.53069 5.57344 2.61058 5.57067 2.68868 5.55559C2.6439 5.59654 2.67637 5.66854 2.54943 5.72356C2.5974 5.71634 2.64643 5.72159 2.69173 5.7388C2.79988 5.75038 2.43667 5.86004 2.56065 5.88475C2.63253 5.84085 2.71205 5.81075 2.79504 5.79565C2.61132 5.89606 2.65824 5.94092 2.61037 6.01013C2.65318 5.98475 2.69988 5.96678 2.74866 5.95653C2.54601 6.07207 2.82536 6.04483 2.70103 6.12873L2.83935 6.07485C3.03288 6.09557 2.54564 6.18052 2.66839 6.21653C2.7173 6.18988 2.76985 6.17053 2.8244 6.15896C2.57883 6.2985 2.69725 6.37397 2.62415 6.46336C2.64328 6.46345 2.66241 6.4655 2.68113 6.46946C2.67249 6.54858 2.77123 6.59355 2.65581 6.70128C2.72981 6.7092 3.0014 6.59527 2.96938 6.67761C2.68382 6.7614 2.88816 6.84042 2.55508 6.88482C2.61844 6.93735 2.75517 7.00348 2.66685 7.07408C2.77102 7.01661 3.02585 7.00385 3.03771 6.94794L3.2179 6.93289C3.33729 6.89421 3.16661 6.92761 3.322 6.87563C3.31892 6.90389 3.22624 7.01406 3.27685 7.02519C3.11652 7.12239 2.80203 7.26007 2.79216 7.3505C2.89187 7.28112 3.11129 7.27616 3.14976 7.24025L2.63703 7.5056C2.63332 7.53952 2.86197 7.44963 2.79642 7.52267C2.73703 7.54269 2.68005 7.56915 2.62654 7.60164C2.66069 7.6053 2.61183 7.73734 2.86769 7.6618C2.98523 7.64008 2.91433 7.60382 3.02433 7.59844C3.01878 7.64931 2.94039 7.68108 2.95253 7.72812L2.98671 7.73178C3.03794 7.73727 2.89784 7.85925 2.72969 7.86983C2.72969 7.86983 2.90098 7.83121 2.80991 7.82146C2.71883 7.81171 2.62756 7.96197 2.634 8.0084C2.69656 7.97685 2.76116 7.94929 2.8273 7.92607C2.69715 8.00603 2.58834 8.11607 2.51014 8.24671C2.37305 8.28921 2.74572 8.14603 2.66925 8.16071C2.88555 8.18387 2.46697 8.43093 2.75588 8.42183C2.70558 8.43251 2.65602 8.44608 2.60744 8.4629C2.63727 8.50612 2.82869 8.44084 2.76683 8.47996C2.8793 8.45197 2.76121 8.53106 2.71643 8.57201C2.67165 8.61296 2.77341 8.57806 2.77835 8.53285C2.69571 8.60405 2.57428 8.81968 2.74195 8.86623C2.67056 8.88717 2.48999 9.01084 2.50521 9.02962L2.67386 8.96196C2.782 8.97354 2.66524 9.04109 2.83894 8.97964C2.63692 9.08952 2.96282 8.74133 2.81772 8.85731C2.97064 8.82794 2.56845 9.0307 2.80846 8.94203C2.80353 8.98725 2.63058 9.09453 2.79304 9.08333C2.76458 9.08029 3.02991 8.9715 3.02559 9.01107C3.02127 9.05063 2.94595 9.05385 2.90377 9.12367L2.84586 9.18029C2.67277 9.23609 2.88644 9.23048 2.68674 9.26628C2.8289 9.23004 2.62757 9.38574 2.90867 9.29004L3.13045 9.21076C3.12675 9.24467 2.91009 9.33032 2.81792 9.38335C2.85229 9.37983 2.88602 9.37187 2.91835 9.35976C2.58417 9.46693 2.96967 9.41676 2.7158 9.52681C2.8524 9.54144 2.77499 9.67032 2.99238 9.63069C2.90343 9.70694 2.79686 9.78693 2.88608 9.81364C2.91525 9.78436 2.95119 9.76274 2.99082 9.75058C3.09896 9.76216 3.01558 9.78749 2.98157 9.83531C3.09859 9.824 3.21636 9.82128 3.33378 9.82723C3.2112 9.8994 3.07913 9.95472 2.94148 9.99128C3.29472 9.92046 2.77131 10.1788 3.08731 10.1325C3.13086 10.1029 3.2325 10.0166 3.32926 10.0269C3.6762 9.96115 3.1046 10.1859 3.31013 10.2022L3.02581 10.2748C3.2072 10.2484 2.90026 10.4215 3.18136 10.3258C3.0835 10.3782 3.30089 10.3386 3.02363 10.4518C3.28546 10.4799 2.99096 10.7514 3.47374 10.6544C3.43589 10.6847 3.46822 10.7053 3.34821 10.7496C3.2282 10.7939 3.44854 10.6745 3.35315 10.7043C3.35315 10.7043 3.27363 10.7473 3.23763 10.7606C3.31162 10.7686 3.34013 10.7714 3.55677 10.6859C3.7446 10.706 3.11719 10.9135 3.25516 10.9683C3.36887 10.929 3.40996 10.9218 3.40057 10.9551L3.22712 11.068C3.29111 11.1149 3.49745 11.017 3.68254 10.9568C3.6776 11.002 3.67392 11.036 3.54637 11.0966L3.79863 11.055C3.61663 11.0869 3.69323 11.1238 3.65538 11.1541L3.69313 11.1238C3.77282 11.1323 3.74131 11.1575 3.72177 11.1782C3.65141 11.205 3.57395 11.207 3.50244 11.1835C3.42289 11.2265 3.45507 11.247 3.3629 11.3001C3.54292 11.2336 3.51093 11.3159 3.53939 11.319C3.56784 11.322 3.38599 11.4054 3.39676 11.4123C3.40753 11.4192 3.42662 11.4554 3.55479 11.389C3.55479 11.389 3.45228 11.3783 3.52998 11.3523C3.60768 11.3263 3.77891 11.2875 3.66658 11.3669C3.55425 11.4464 3.2971 11.4816 3.43309 11.5019C3.47664 11.4723 3.54929 11.4399 3.61053 11.4064L3.73004 11.4192L3.55691 11.4752C3.60244 11.4801 3.61378 11.4812 3.63964 11.4553C3.46977 11.5344 3.62859 11.5573 3.41827 11.6377C3.41456 11.6716 3.55489 11.6523 3.58335 11.6554C3.6915 11.6669 3.64549 11.7192 3.56916 11.7854L3.60321 11.789C3.60321 11.789 3.59712 11.8454 3.51572 11.9053C3.65802 11.9205 4.16007 11.6998 3.9625 11.8216C3.95757 11.8668 3.6785 11.9971 3.56158 12.0132C3.70648 12.0573 3.4622 12.2371 3.74604 12.2217C3.6848 12.2552 3.63805 12.2616 3.60465 12.3037C3.71554 12.3957 3.48978 12.6173 3.85516 12.5936C3.91318 12.5369 4.02314 12.5315 4.11853 12.5017C3.97774 12.5781 4.28799 12.4798 4.02966 12.5779C3.93843 12.6241 3.83692 12.6467 3.73457 12.6435C3.67793 12.7403 3.71237 12.847 3.86913 12.8352C3.81085 12.8416 3.75596 12.8656 3.71189 12.904C3.95191 12.8154 4.00568 12.8497 3.93381 12.9278L3.7898 12.9811L3.94843 12.9523C3.90427 12.9876 3.64656 13.08 3.79764 13.0676C3.85213 13.0495 3.90761 13.0345 3.96381 13.0226C3.85656 13.1083 3.66977 13.2369 3.80823 13.2346L4.03757 13.1905C3.98387 13.2481 3.91007 13.2832 3.83117 13.2884C3.95243 13.3352 4.08394 13.3492 4.21249 13.3293C3.80103 13.6169 3.84888 13.8109 3.93776 13.9462L4.04649 13.9006C4.16602 13.9134 3.86392 13.9898 3.94991 13.9933C4.07103 13.9571 4.1895 13.9123 4.30432 13.8595C4.44092 13.8742 4.13902 14.0019 4.10439 14.0553C3.96545 14.1148 4.18584 13.9954 4.00767 14.045C3.95905 14.0684 4.15561 14.0608 3.93651 14.1689C4.05044 14.1381 4.16109 14.0964 4.26686 14.0443L4.17858 14.1149C4.44905 14.0638 4.59835 13.8567 4.92882 13.7834L4.92388 13.8287C5.16589 13.7746 5.15027 13.6529 5.25979 13.7047C5.10306 13.8074 4.9293 13.8818 4.74644 13.9242C4.73595 14.0203 4.23809 14.1499 4.2876 14.2238C4.42346 14.1926 4.29568 14.1502 4.48015 14.0956C4.66462 14.041 4.41027 14.2081 4.46719 14.2142C4.34416 14.2314 4.22768 14.28 4.12928 14.3554C4.24312 14.3675 4.32431 14.2564 4.37121 14.3014C4.24428 14.3564 4.17117 14.4458 4.06302 14.4343C3.79022 14.5594 4.17123 14.4457 3.95597 14.5713C4.16321 14.5192 4.40107 14.3445 4.52506 14.3693C4.32797 14.4339 4.28724 14.5438 3.98585 14.6145C4.10441 14.6017 4.21859 14.5633 4.32052 14.5018C4.45143 14.5158 3.99745 14.7188 4.38594 14.5889L4.19267 14.6709C4.25528 14.6776 4.31227 14.6838 4.42721 14.6332C4.42412 14.6615 4.19816 14.8318 4.49249 14.7204C4.49249 14.7204 4.4838 14.7995 4.28795 14.8529C4.09209 14.9062 4.42043 14.747 4.13426 14.8364C4.37057 14.7816 4.12693 14.9042 4.05753 14.9597L4.17692 14.9208C4.13906 14.9511 4.17076 14.9775 4.05521 15.0337C4.10796 15.001 4.16726 14.9799 4.22895 14.9722L4.05844 15.057C3.99672 15.1476 4.37492 14.9535 4.34351 15.0302L4.46335 14.9345C4.46335 14.9345 4.60932 14.9158 4.57146 14.946L4.10419 15.1646C4.05125 15.2275 4.29375 15.1165 4.13973 15.2086L4.31964 15.0905C4.36826 15.0671 4.59195 15.0225 4.60409 15.0696C4.50221 15.1598 4.37554 15.2179 4.24031 15.2364C4.24031 15.2364 4.35989 15.2494 4.46975 15.1926C4.46173 15.266 4.29104 15.2475 4.20717 15.33C4.32471 15.3083 4.49781 15.304 4.66151 15.2815L4.9141 15.1313L4.91099 15.1597C5.11425 15.0385 5.0828 15.1151 5.30128 15.0127C5.34682 15.0176 5.29458 15.0749 5.22703 15.1134C4.8384 15.1919 4.75599 15.366 4.41551 15.4782C4.35701 15.5921 5.24377 15.2238 4.75708 15.5148C4.66292 15.5333 4.42924 15.6685 4.50234 15.5791C4.56125 15.6197 4.18476 15.7453 4.34537 15.7511C4.46524 15.6552 4.69994 15.6687 4.87029 15.5325C4.76166 15.5781 4.77345 15.5222 4.79622 15.5246C4.93145 15.499 5.12721 15.3944 5.15011 15.4483C5.17302 15.5022 5.14023 15.5386 4.96652 15.6001C4.79282 15.6615 4.97264 15.5437 4.78447 15.6322C4.73982 15.7247 5.033 15.6245 4.71097 15.7788C4.71652 15.7279 4.51941 15.7925 4.3931 15.8419L4.33257 15.9211L4.45379 15.8654C4.57332 15.8782 4.23467 15.9736 4.29742 16.0318L4.55786 15.9681C4.76434 15.8702 4.42103 15.902 4.77413 15.7797C4.80397 15.8229 4.63347 15.9077 4.75931 15.9154C4.75931 15.9154 4.7637 15.8757 4.8174 15.8586C4.87109 15.8414 5.3 15.7101 5.05641 15.8841C4.96747 15.9604 4.9352 15.9399 4.80827 15.9949C4.7984 16.0854 4.67532 16.1581 4.67484 16.2152C4.92302 16.1045 4.73006 16.2896 4.9718 16.1325C4.81256 16.1669 4.78443 16.0553 4.994 15.9291C5.20357 15.8029 4.92934 15.8878 5.22614 15.7538C5.25412 15.814 5.54916 15.6967 5.74687 15.6264C5.74687 15.6264 5.69385 15.6894 5.66861 15.7096C5.48736 15.7874 5.4842 15.7642 5.29219 15.8351C5.36756 15.8832 5.27554 15.9877 5.13167 16.0924C5.23567 16.0765 5.33365 16.0337 5.41583 15.9684C5.40701 16.0144 5.41384 16.062 5.43537 16.1037C5.4569 16.1453 5.4919 16.1786 5.53469 16.1984C5.21622 16.2672 5.52234 16.3116 5.23925 16.3728C5.08824 16.3712 4.93923 16.4085 4.80695 16.4809C4.80695 16.4809 4.93333 16.4313 5.00411 16.416C4.84947 16.5138 5.2803 16.3656 5.04104 16.5001C5.10523 16.3869 5.39845 16.3383 5.6454 16.239C5.53629 16.3416 5.81407 16.1712 5.83128 16.2245C5.74011 16.3037 5.66666 16.4011 5.61578 16.5103C5.87116 16.4919 5.69971 16.6907 5.71507 16.761C5.84338 16.7461 6.09909 16.6192 6.16046 16.6373C6.22184 16.6553 5.86355 16.7197 6.01154 16.7355L6.06083 16.7064C6.00404 16.7518 6.28836 16.731 5.91647 16.9199L6.19001 16.789C6.22417 16.7926 6.18566 16.8284 6.13765 16.8462C6.22018 16.8228 6.29927 16.7891 6.37314 16.7457C6.58422 16.7112 6.36265 16.8418 6.35771 16.887L6.18089 16.9253C6.0807 17.0519 6.26712 17.0316 6.23324 17.1309L6.39679 17.0571L6.31856 17.14C6.47074 17.0648 6.59151 17.0663 6.46656 17.1558L6.82437 16.8853C6.71622 16.8738 6.6395 16.9971 6.46703 17.0473C6.29455 17.0974 6.33919 17.005 6.47998 16.9286C6.51413 16.9323 6.47623 16.9626 6.42575 17.0029C6.55114 16.9541 6.66895 16.8877 6.77554 16.8059C6.77554 16.8059 6.84952 16.814 6.77121 16.8456C6.87722 16.7712 6.88088 16.7371 6.86813 16.6957C6.7918 16.7619 6.71959 16.7371 6.65773 16.7762C6.86299 16.6895 6.90455 16.6253 6.82734 16.5942C6.57963 16.6477 6.93691 16.4345 6.84831 16.4021C6.69996 16.4761 6.56068 16.5666 6.43306 16.672C6.31923 16.6598 6.43739 16.6325 6.30216 16.658C6.46277 16.5889 6.61244 16.4971 6.74652 16.3853L6.59621 16.4435C6.65608 16.3699 6.87907 16.2794 6.81446 16.2382C6.72612 16.178 6.65552 16.0955 6.61015 15.9991L6.45414 16.0567C6.76095 15.8837 6.52067 15.8694 6.64239 15.7566C6.45456 15.7365 6.7062 15.489 6.42434 15.5389C6.44779 15.3241 6.52637 15.1324 6.40643 14.9652L6.19803 15.0802C6.34636 14.9875 6.0622 15.1115 6.08422 15.0681C6.27191 15.0367 6.29432 14.9359 6.42311 14.864C6.2182 14.842 6.36889 14.6753 6.49815 14.5462L6.34214 14.6037C6.60342 14.4258 6.3202 14.4356 6.24161 14.3643C6.16302 14.293 6.02308 14.4151 6.03247 14.3818C6.16121 14.3125 6.2723 14.2151 6.3573 14.0966C6.33182 14.0607 6.29874 14.0305 6.26034 14.0086C6.22194 13.9867 6.17908 13.9735 6.13496 13.9698C6.40597 13.65 6.1136 13.5328 6.24691 13.2612L6.06302 13.3102C6.37573 12.9777 5.93862 12.868 6.07961 12.6315L5.77835 12.7537C5.66452 12.7415 5.79434 12.6068 6.03759 12.5413C5.92375 12.5291 6.13822 12.3577 5.87282 12.4151C5.79883 12.4071 5.99454 12.3022 6.0184 12.2419C5.86396 12.1796 5.87522 12.1293 5.90018 12.0062C5.83325 12.039 5.707 12.0883 5.6747 12.0677C5.75102 12.0016 5.5422 11.9623 5.92637 11.8719C5.67592 11.8451 6.01218 11.5607 5.69035 11.5548C5.79143 11.5256 5.80083 11.4925 5.86776 11.4596C5.83779 11.3649 5.59935 11.3336 5.74631 11.2007C5.68939 11.1946 5.58148 11.286 5.55672 11.249C5.53196 11.2121 5.68813 11.206 5.73353 11.1594C5.87267 10.9398 5.4319 10.9153 5.43779 10.7558C5.54696 10.4416 5.36432 10.2164 5.31624 9.97107L5.2442 9.99742C5.49916 9.82459 4.89176 9.90263 5.27689 9.69799C5.1972 9.68946 5.21992 9.64042 5.08345 9.67728C5.26456 9.548 4.83712 9.55955 5.05794 9.38306C5.05794 9.38306 5.05792 9.38295 5.02514 9.41947C4.83161 9.39875 5.04621 9.22723 4.85008 9.17765C4.81567 9.20882 4.7758 9.23355 4.73258 9.25078C4.5789 9.23433 5.0185 9.05858 4.65141 9.15079C4.65141 9.15079 4.82639 9.07782 4.81885 9.09417C4.61291 8.92345 4.7664 8.62539 4.78217 8.37548C4.51637 8.27841 4.18697 8.55192 4.40072 8.33464C4.33242 8.32733 4.53845 8.28674 4.46137 8.30707C4.54462 8.23022 4.03602 8.35302 4.21096 8.28026C4.3859 8.2075 4.32708 8.21837 4.46417 8.17587C4.28573 8.12246 4.08285 8.13493 4.22611 8.03591L4.11245 8.07511C4.41542 7.88455 4.20218 7.83321 4.56269 7.64309C4.47593 7.11917 4.54657 6.57768 4.45165 6.07576C4.24303 5.61313 4.28264 5.09136 3.94509 4.64924C3.60358 4.61268 3.6093 4.61326 3.70242 4.44596C3.6684 4.46228 3.63229 4.47385 3.59506 4.48026C3.84523 4.40412 3.60549 4.38411 3.83289 4.30553C3.76859 4.13022 3.72862 3.94723 3.71392 3.76119C3.7096 3.80076 3.48909 3.86845 3.4991 3.82949L3.65188 3.74869L3.57795 3.74077C3.64584 3.68559 3.73021 3.65455 3.8179 3.65227C3.91575 3.12524 3.28509 2.78326 3.23386 2.30317C3.10466 2.22072 3.15922 2.0379 3.18541 1.90347C2.76044 1.62925 2.40885 1.36843 2.56389 0.950458C2.62328 0.933943 1.96806 1.1327 1.85539 1.32077Z" fill="#10284B"/>
            <path d="M40.4913 3.44069C39.8113 3.36279 40.1205 4.0236 39.6131 4.09095C39.5676 4.10814 39.8995 4.26197 39.7853 4.29226C39.209 4.30405 39.1737 4.88029 39.28 5.40733L39.3688 5.44677C39.3857 5.54778 39.0768 5.45418 39.0676 5.54358C39.0585 5.63299 39.1512 5.58074 39.2296 5.61555C39.0572 5.53895 39.0785 5.68551 38.9409 5.64304C38.9871 5.7072 39.1159 5.78309 39.1627 5.85994L38.9642 5.77176C38.4649 5.5997 38.8397 6.04653 38.514 6.04511C38.5598 6.05308 38.6029 6.07222 38.6394 6.10082C38.2291 6.1615 38.091 6.48023 37.8272 6.67457C37.9193 6.71467 38.0051 6.76764 38.0822 6.83169C38.0271 6.79192 37.9615 6.76917 37.8933 6.76663C37.8252 6.7641 37.7577 6.78192 37.6996 6.81747C37.8804 6.97255 37.4462 6.82299 37.5036 6.97315L37.5505 6.994C37.3066 6.92299 37.6086 7.1569 37.3299 7.05175L37.4635 7.18597C37.1606 7.05134 37.5504 7.36807 37.3977 7.33133L37.3403 7.30583C37.2379 7.31019 37.363 7.42186 37.2815 7.4355L37.3181 7.45176C37.1794 7.50852 37.2909 7.66401 37.0775 7.52557C37.2269 7.66674 37.219 7.47631 37.4379 7.68573C37.0783 7.88833 36.7887 8.19416 36.6074 8.56289C36.6465 8.63496 36.6978 8.69969 36.7589 8.75465C36.6926 8.76256 36.6375 8.85664 36.5103 8.81881C36.5522 8.84702 36.5844 8.8872 36.6023 8.93424C36.6454 9.04686 36.3218 8.84695 36.3758 8.9769C36.4611 8.98702 36.5413 9.02263 36.6056 9.07902C36.3982 9.02426 36.3739 9.11945 36.2778 9.15151C36.3292 9.16089 36.3776 9.18239 36.4189 9.21419C36.1783 9.16338 36.3507 9.36455 36.2095 9.35784L36.3453 9.41819C36.4304 9.61804 36.0632 9.29297 36.0946 9.43152C36.1509 9.44431 36.204 9.46792 36.2511 9.50111C35.9665 9.43692 35.9588 9.62031 35.8243 9.65401C35.8439 9.66146 35.863 9.66996 35.8817 9.67951C35.7923 9.75198 35.7876 9.88714 35.6379 9.92657C35.6742 9.99878 35.9506 10.109 35.8433 10.1797C35.598 10.0146 35.6369 10.275 35.3862 10.0389C35.3752 10.1462 35.383 10.3367 35.2545 10.3294C35.3642 10.3781 35.5362 10.5666 35.5981 10.5131L35.7193 10.6607C35.829 10.7095 35.7164 10.5844 35.8357 10.6811C35.8193 10.7174 35.6411 10.7503 35.6612 10.8028C35.4625 10.7706 35.1419 10.647 35.0636 10.7368C35.195 10.7516 35.3233 10.9394 35.3873 10.9367L34.8297 10.7823C34.8156 10.8134 35.0222 10.9115 34.9227 10.9234C34.8702 10.8843 34.8094 10.8573 34.745 10.8445C34.7764 10.8584 34.5928 10.945 34.8281 11.1181C34.9185 11.1956 34.9196 11.0964 34.9796 11.1854C34.9491 11.2529 34.8545 11.1985 34.8083 11.259L34.8447 11.2752C34.8549 11.3358 34.6572 11.329 34.5543 11.196C34.5684 11.1649 34.6946 11.302 34.638 11.2332C34.4813 11.1635 34.3937 11.218 34.3475 11.2784C34.4153 11.299 34.4802 11.3279 34.5408 11.3643C34.3698 11.3348 34.1937 11.3538 34.0328 11.4191C33.9022 11.3611 34.2627 11.5211 34.2118 11.4673C34.298 11.6926 33.8187 11.573 33.9932 11.825C33.9932 11.825 33.832 11.7098 33.861 11.7289C33.89 11.748 34.0143 11.9029 33.9219 11.8992C34.0315 11.948 33.8641 11.9297 33.8059 11.9475C33.7477 11.9652 33.8581 11.9707 33.8738 11.9776C33.7534 11.9802 33.4609 12.0997 33.5238 12.3208C33.4507 12.2883 33.2258 12.2444 33.217 12.2778L33.384 12.3521C33.4569 12.4405 33.3058 12.4419 33.435 12.5305C33.2097 12.474 33.7526 12.3973 33.552 12.3829C33.6667 12.49 33.23 12.3459 33.4528 12.4636C33.4246 12.5258 33.1963 12.4617 33.305 12.6096C33.305 12.6096 33.5453 12.7165 33.5103 12.7383C33.4753 12.7602 33.4267 12.7011 33.3288 12.7511L33.2339 12.7527C33.0719 12.6807 33.1963 12.8357 33.072 12.6808C33.1885 12.7699 32.9134 12.7536 33.1709 12.9054L33.3799 12.9983C33.3635 13.0346 33.136 12.9272 33.0297 12.8986C33.0531 12.9262 33.0799 12.9507 33.1095 12.9716C32.8045 12.7862 33.0673 13.0648 32.8223 12.9684C32.8793 13.1058 32.7306 13.1708 32.8701 13.32C32.7445 13.3203 32.6027 13.3008 32.6225 13.4093C32.6652 13.4143 32.7052 13.4322 32.7374 13.4603C32.8004 13.5569 32.7117 13.5174 32.6401 13.523C32.6871 13.5439 32.7584 13.7189 32.8399 13.8299C32.7024 13.7999 32.5726 13.7422 32.4586 13.6605C32.7197 13.9012 32.1599 13.6961 32.3851 13.9333C32.4321 13.9542 32.588 13.9424 32.6305 14.0424C32.8917 14.283 32.337 14.0117 32.4286 14.1833L32.1934 14.01C32.3219 14.1418 31.9718 14.0423 32.2293 14.1942C32.13 14.1501 32.243 14.3437 32.0135 14.1856C32.1245 14.453 31.6703 14.4443 32.0344 14.818C31.9926 14.7994 32.0014 14.8906 31.8745 14.7968C31.7476 14.703 31.9983 14.8144 31.9027 14.7345C31.9027 14.7345 31.8192 14.6974 31.7878 14.6835C31.8142 14.7637 31.8082 14.8048 32.0323 14.8919C32.1221 15.0814 31.5591 14.7314 31.5768 14.9137C31.6813 14.9602 31.7113 15.0047 31.674 15.0317L31.4595 14.9924C31.4196 15.0806 31.6518 15.1775 31.8228 15.2847C31.7675 15.31 31.7416 15.367 31.6005 15.3043L31.7801 15.49C31.6516 15.3581 31.6533 15.465 31.6016 15.4544L31.6486 15.4754C31.727 15.5102 31.6205 15.5376 31.6087 15.5635C31.5433 15.5158 31.4989 15.4447 31.4851 15.3653C31.4068 15.3304 31.3937 15.3869 31.2874 15.3583C31.465 15.4373 31.36 15.5028 31.3592 15.546C31.3584 15.5893 31.1921 15.4716 31.1809 15.5103C31.2697 15.5497 31.1479 15.5831 31.2907 15.6279C31.3221 15.6418 31.2284 15.5439 31.3167 15.5706C31.405 15.5974 31.5154 15.7278 31.3713 15.7135C31.2271 15.6993 31.0547 15.498 31.1092 15.6406C31.1727 15.6618 31.2339 15.6891 31.2921 15.7219L31.3305 15.8448L31.1739 15.7752C31.2104 15.7915 31.226 15.7984 31.2469 15.8077C31.0746 15.7311 31.132 15.8813 30.9434 15.7851C30.927 15.8214 30.998 15.9276 30.992 15.9685C31.0526 16.0702 30.9427 16.0775 30.8341 16.0541L30.8707 16.0704C30.8707 16.0704 30.8069 16.1417 30.7007 16.1132C30.7803 16.2421 31.2571 16.4915 31.0265 16.4326C30.9983 16.4949 30.6925 16.3527 30.6191 16.2516C30.6543 16.423 30.3324 16.3858 30.4987 16.628C30.4361 16.6002 30.3943 16.5816 30.3525 16.563C30.3091 16.7556 29.9612 16.7755 30.1696 17.1049C30.2592 17.101 30.3315 17.1767 30.4039 17.2525C30.2576 17.1875 30.5172 17.3903 30.2782 17.2529C30.1437 17.162 30.073 17.1241 30.0519 17.0462C30.0183 17.0517 29.9866 17.0655 29.9596 17.0861C29.9326 17.1067 29.9112 17.1337 29.8972 17.1646C29.8833 17.1954 29.8772 17.2289 29.8796 17.2626C29.882 17.2963 29.8927 17.3289 29.9108 17.3574C29.8924 17.334 29.8685 17.3155 29.8412 17.3034C29.8139 17.2912 29.784 17.2858 29.7541 17.2877C29.9721 17.4158 29.963 17.5054 29.8554 17.5074L29.7091 17.4424L29.8243 17.5621C29.7773 17.5412 29.5265 17.4298 29.6284 17.5374C29.6763 17.5681 29.7215 17.6027 29.7635 17.6409C29.6193 17.6267 29.3869 17.5858 29.4613 17.7123L29.6221 17.8836C29.5821 17.8871 29.5421 17.8802 29.5055 17.864C29.4689 17.8477 29.4371 17.8226 29.4132 17.7907C29.4688 17.9588 29.4412 18.0337 29.5877 18.1674C29.0688 18.0801 28.8939 18.3137 28.7975 18.5263L28.9072 18.5751C28.963 18.6871 28.7139 18.4892 28.7583 18.5713C28.8027 18.6533 28.9371 18.7443 29.0794 18.7764C29.134 18.919 28.8457 18.7659 28.7694 18.7819C28.6284 18.7192 28.8753 18.7977 28.7047 18.7033C28.6577 18.6824 28.7424 18.8695 28.5353 18.7588C28.6289 18.8327 28.7313 18.8949 28.8402 18.9442L28.7164 18.9266C28.912 19.1319 29.209 19.0582 29.4521 19.2971L29.3968 19.3224C29.5757 19.4954 29.7007 19.3578 29.7018 19.5078C29.5099 19.4727 29.3325 19.3831 29.1912 19.2498C29.0705 19.3084 28.6689 19.0177 28.6289 19.1059C28.7279 19.2059 28.7108 19.0361 28.8597 19.1646C29.0085 19.2931 28.7099 19.2041 28.7363 19.2844C28.6937 19.2384 28.6421 19.2015 28.5846 19.1759C28.5271 19.1504 28.4651 19.1368 28.4021 19.1359C28.4579 19.2479 28.6057 19.2263 28.5809 19.3088C28.4556 19.2531 28.3328 19.2608 28.2779 19.1741C28.0011 19.0511 28.3035 19.2977 28.0794 19.2106C28.2416 19.3512 28.539 19.4149 28.5618 19.5309C28.3925 19.4058 28.2596 19.4776 28.0394 19.2988C28.1123 19.3924 28.2129 19.4609 28.3271 19.495C28.4062 19.6112 27.9413 19.4046 28.2636 19.6351L28.0704 19.5492C28.1161 19.6007 28.1513 19.6476 28.2317 19.7332C28.2129 19.7747 27.905 19.7064 28.1682 19.8732C28.1369 19.8593 28.0875 19.9683 27.9248 19.815C27.8452 19.6861 28.1028 19.8378 27.8716 19.6416C28.0505 19.8146 27.7898 19.7112 27.702 19.6971L27.8001 19.7717C27.7531 19.7508 27.7382 19.8253 27.6204 19.7667C27.6823 19.783 27.7364 19.8204 27.7735 19.8721L27.6011 19.7955C27.4689 19.824 27.8653 19.9877 27.7674 20.0377L27.9295 20.0538C27.9034 20.0422 28.0266 20.1717 27.9527 20.1824C27.796 20.1128 27.6028 20.0269 27.4827 19.9735C27.3625 19.9202 27.6315 20.1021 27.4497 20.0462L27.6572 20.101C27.7094 20.1242 27.8726 20.2902 27.8287 20.3455C27.7849 20.4008 27.508 20.2777 27.4631 20.183C27.449 20.2141 27.5015 20.3058 27.624 20.354C27.5331 20.3884 27.4733 20.2434 27.3524 20.2333C27.4328 20.3189 27.5239 20.4779 27.632 20.6131L27.9154 20.708L27.8967 20.7493C28.1108 20.8445 28.0245 20.8687 28.2468 20.9737C28.264 21.0187 28.1687 21.0075 28.1019 21.0027C27.8258 20.7117 27.5796 20.7705 27.3158 20.5909C27.162 20.6534 27.9914 21.1217 27.4531 20.9386C27.3889 20.8727 27.124 20.7926 27.2562 20.7641C27.247 20.8535 26.9324 20.6201 26.9979 20.7801C27.1578 20.8013 27.2626 21.0408 27.4969 21.0639C27.3872 21.0152 27.4518 20.9693 27.4879 20.9729C27.5793 21.0758 27.7929 21.1583 27.742 21.2291C27.6911 21.3 27.6451 21.3044 27.4972 21.2013C27.3494 21.0982 27.5279 21.134 27.366 21.062C27.25 21.1102 27.501 21.2903 27.1766 21.1337C27.2315 21.0957 27.0698 20.9677 26.9515 20.8964L26.8368 20.9139L26.9623 20.9697C26.9814 21.1214 26.7376 20.8699 26.7062 20.9806L26.9013 21.1732C27.1102 21.266 26.9034 20.9747 27.2071 21.1907C27.1742 21.2633 27.0094 21.184 27.0473 21.2943C27.0786 21.3083 27.1031 21.2817 27.1444 21.2876C27.1856 21.2935 27.5396 21.6064 27.2369 21.5405C27.1108 21.528 27.1168 21.4871 26.9862 21.4291C26.8893 21.5044 26.7517 21.462 26.6898 21.5155C26.9353 21.6246 26.6334 21.6399 26.9163 21.722C26.8063 21.6046 26.9134 21.4653 27.156 21.5669C27.4004 21.7752 27.1645 21.4648 27.458 21.6202C27.4181 21.7083 27.6785 21.8676 27.8478 21.9927C27.836 22.0186 27.7583 21.9964 27.7222 21.9929C27.5446 21.9139 27.5708 21.8697 27.3998 21.7625C27.3893 21.8825 27.2392 21.9092 27.0498 21.8562C27.107 21.9377 27.2829 22.0344 27.3202 22.0074C27.2682 22.0502 27.2267 22.1042 27.199 22.1653C27.1713 22.2265 27.158 22.2932 27.1603 22.3602C26.93 22.1207 27.0223 22.4296 26.8301 22.2445C26.7635 22.1035 26.6452 21.9932 26.4994 21.9356C26.4829 21.9719 26.6247 21.9914 26.6685 22.0607C26.5014 21.9864 26.8594 22.2764 26.6145 22.18C26.7665 22.1354 26.9557 22.3689 27.1784 22.4866C27.0115 22.481 27.3403 22.5586 27.2876 22.6474C27.147 22.6381 27.0064 22.6631 26.8778 22.7205C27.0128 22.9488 26.7189 22.9741 26.6557 23.0581C26.732 23.1668 26.9908 23.2881 26.9992 23.3665C27.0075 23.445 26.7676 23.1577 26.8321 23.2923L26.8843 23.3155C26.8216 23.2876 26.9412 23.5776 26.5821 23.3869L26.8642 23.5122C26.8903 23.5238 26.8106 23.5195 26.7746 23.5159C26.8379 23.5728 26.911 23.618 26.9904 23.6493C27.1356 23.8135 26.8916 23.7424 26.8478 23.7976L26.7216 23.6606C26.5354 23.6838 26.637 23.8474 26.5268 23.9106L26.6887 23.9825L26.5631 23.9827C26.7197 24.0523 26.7732 24.1697 26.6356 24.1272L27.0953 24.2067C27.0376 24.1125 26.8969 24.1185 26.7543 24.0178C26.6117 23.917 26.7422 23.8505 26.8942 23.9305C26.8754 23.972 26.8778 23.9668 26.7796 23.9481C26.9854 24.0894 27.0042 24.0479 27.1556 24.1152C27.1556 24.1152 27.182 24.1955 27.1321 24.1671C27.247 24.2182 27.299 24.1727 27.3429 24.1175C27.2348 24.1068 27.2259 24.0157 27.1557 23.9908C27.3541 24.079 27.4338 24.0831 27.432 23.9763C27.2526 23.7907 27.6556 23.926 27.6532 23.8066C27.4986 23.7332 27.3315 23.6886 27.1606 23.675C27.0995 23.5606 27.1888 23.6129 27.1433 23.5055C27.3011 23.5907 27.4726 23.6477 27.6503 23.6745L27.5157 23.5836C27.6252 23.5637 27.8135 23.7158 27.8391 23.5901C27.8707 23.4386 27.9262 23.2929 28.0035 23.1584L27.869 23.0676C28.1876 23.2092 28.1021 22.9405 28.2818 22.9456C28.2345 22.7314 28.5992 22.7441 28.403 22.526C28.6611 22.405 28.8718 22.2029 29.0024 21.9512L28.783 21.8536C28.9449 21.9256 28.684 21.7536 28.7394 21.7284C28.8661 21.8781 28.9833 21.7993 29.1238 21.8493C29.041 21.6443 29.2987 21.6157 29.5034 21.607L29.3691 21.5159C29.6846 21.5814 29.5357 21.3283 29.573 21.1766C29.5155 21.1511 29.4104 21.0234 29.4454 21.0015C29.5988 21.0462 29.7609 21.0539 29.9182 21.0245C29.9682 20.9164 29.9767 20.794 29.9423 20.6802C30.4218 20.6191 30.3952 20.2209 30.7583 20.0707L30.6122 19.9498C31.123 19.9027 31.0221 19.3779 31.3431 19.2651L31.0453 19.1328C31.0069 19.0098 31.2225 19.0184 31.408 19.1631C31.3696 19.0401 31.6527 19.0664 31.4605 18.8813C31.4511 18.7774 31.6396 18.8735 31.7201 18.8345C31.7029 18.7645 31.7098 18.6908 31.7396 18.625C31.7694 18.5592 31.8205 18.5051 31.8847 18.4713L31.8658 18.5128C31.7979 18.4827 31.6725 18.4272 31.6804 18.3683C31.788 18.3663 31.7298 18.1347 32.0252 18.3968C31.927 18.1289 32.3997 18.152 32.2289 17.8642C32.3229 17.906 32.3438 17.9153 32.4117 17.9455C32.499 17.8223 32.4065 17.5691 32.6217 17.5651C32.594 17.5154 32.4546 17.4909 32.4757 17.4442C32.4969 17.3976 32.601 17.4999 32.6585 17.5254C32.962 17.4235 32.7597 16.9973 32.9274 16.835C33.2361 16.583 33.4917 16.2731 33.6796 15.9231L33.6118 15.8929C33.9343 15.9428 33.5177 15.4771 33.9497 15.6317C33.9058 15.5624 33.9991 15.5229 33.8424 15.4532C34.0819 15.4787 33.8307 15.1052 34.1418 15.125C34.1418 15.125 34.1417 15.125 34.0947 15.1041C34.0294 14.8882 34.302 14.9097 34.278 14.6997C34.2285 14.7022 34.1793 14.691 34.1357 14.6675C34.0433 14.5391 34.4919 14.7262 34.2109 14.5016C34.225 14.4705 34.3885 14.5805 34.3729 14.5736C34.4374 14.2097 34.84 14.0272 35.1064 13.7717C35.0568 13.4381 34.5818 13.4203 34.9297 13.4004C34.867 13.3726 35.0602 13.4584 34.9923 13.4282C35.1226 13.4176 34.7042 13.0945 34.9016 13.1573C35.0991 13.2202 35.0219 13.2108 35.1472 13.2665C35.1075 13.0494 34.9482 12.9164 35.1658 12.9072L35.056 12.8584C35.4226 12.9216 35.3564 12.6801 35.7583 12.7902C36.2527 12.1562 36.8594 11.6345 37.3253 10.9941C37.6816 10.305 38.2442 9.76988 38.485 9.01699C38.315 8.68596 38.33 8.68031 38.5491 8.58452C38.4969 8.56131 38.4865 8.55668 38.4447 8.53811C38.6732 8.67082 38.5429 8.43223 38.7656 8.54992C38.9048 8.30223 39.0659 8.06717 39.247 7.84773C39.1992 7.87011 39.0032 7.77674 39.0434 7.75723L39.2141 7.79567L39.1515 7.76785C39.1964 7.76435 39.2414 7.77222 39.2825 7.79047C39.3236 7.80871 39.3593 7.83675 39.3865 7.87229C39.9861 7.36611 39.9414 6.46782 40.3943 5.88395C40.3987 5.68029 40.613 5.52627 40.7548 5.42105C40.766 4.75931 40.7967 4.19317 41.3154 3.83794C41.3535 3.64303 40.7436 3.34095 40.4913 3.44069Z" fill="#10284B"/>
            <path d="M55.1933 34.7372C54.7266 34.295 54.7855 34.9594 54.4082 34.7226C54.3788 34.7052 54.5685 35.0096 54.482 34.965C54.0693 34.6542 53.9072 35.0551 53.8522 35.4995L53.9081 35.5724C53.8964 35.6582 53.697 35.414 53.6744 35.4734C53.705 35.5215 53.7328 35.5714 53.7579 35.6225C53.6596 35.4649 53.6341 35.5955 53.5368 35.4915C53.5565 35.5694 53.6263 35.6966 53.6401 35.7843L53.5122 35.6093C53.1998 35.1989 53.3561 35.7354 53.1281 35.5606C53.1591 35.5938 53.1831 35.6328 53.1989 35.6753C52.8894 35.4919 52.7183 35.6425 52.4844 35.643C52.5411 35.724 52.5896 35.8102 52.6289 35.9007C52.513 35.7062 52.4295 35.6898 52.3588 35.6744C52.4502 35.8875 52.1622 35.558 52.1789 35.6739L52.2232 35.7001C52.066 35.5076 52.2241 35.8531 52.061 35.6041L52.122 35.7793C51.948 35.504 52.1386 35.9613 52.0276 35.8359L51.9991 35.7728C51.9205 35.7262 51.9864 35.8712 51.949 35.8557C51.8508 35.7975 51.8694 35.9874 51.777 35.7538C51.8498 35.9426 51.8802 35.8151 51.9932 36.0808C51.6365 35.9755 51.4204 36.1455 51.2071 36.2776C51.2197 36.3558 51.2403 36.4324 51.2689 36.5063C51.2198 36.4772 51.1609 36.5086 51.0823 36.3957C51.0823 36.3957 51.1266 36.5211 51.1227 36.5387C51.1187 36.5562 50.9449 36.3141 50.9508 36.4369C51.0087 36.4965 51.0546 36.5664 51.0863 36.643C50.9517 36.4904 50.9144 36.5411 50.8456 36.5004C50.8814 36.5349 50.9112 36.575 50.934 36.6191C50.7778 36.447 50.8751 36.7166 50.7523 36.6107L50.8327 36.7315C50.8484 36.9263 50.6706 36.4698 50.6412 36.618C50.6783 36.6581 50.7095 36.7031 50.7336 36.752C50.5489 36.5498 50.4977 36.6786 50.3936 36.6301C50.409 36.6377 50.4238 36.6465 50.4378 36.6563C50.3602 36.6633 50.3582 36.7882 50.2078 36.7057C50.2127 36.7749 50.3866 37.017 50.2923 37.0075C50.1557 36.7477 50.1215 36.9592 49.9996 36.6419C49.9584 36.7102 49.9259 36.8633 49.8413 36.7933C49.9219 36.8808 49.9849 37.13 50.0419 37.124L50.0949 37.3013C50.1588 37.4054 50.1245 37.2523 50.1707 37.3857C50.1707 37.3857 50.0281 37.3013 50.0173 37.3744C49.8867 37.2373 49.6842 36.9651 49.5938 36.9711C49.697 37.0322 49.7304 37.2641 49.7766 37.2981L49.41 36.8557C49.3854 36.8412 49.5123 37.062 49.4415 37.0135C49.4126 36.9562 49.3741 36.9041 49.3276 36.8596C49.3276 36.8596 49.1948 36.8475 49.3236 37.1092C49.3668 37.2143 49.3875 37.147 49.413 37.2483C49.3924 37.2824 49.3147 37.1901 49.2676 37.2019L49.2971 37.2194C49.2706 37.2633 49.1645 37.1407 49.1085 37.0015C49.1232 36.9771 49.1812 37.1572 49.187 37.0481C49.0849 36.908 49.0112 36.8975 48.966 36.9171C49.009 36.9709 49.0484 37.0273 49.0839 37.0862C48.9751 36.9797 48.8421 36.9009 48.6958 36.8564C48.631 36.7318 48.8392 37.0606 48.8136 36.9925C48.8176 37.2068 48.509 36.8452 48.5689 37.1325C48.5935 37.147 48.4825 36.9553 48.5031 36.9874C48.5238 37.0195 48.5661 37.2036 48.5032 37.153C48.5592 37.2591 48.4589 37.1268 48.4196 37.1035C48.3803 37.0802 48.4383 37.161 48.4786 37.1385C48.3853 37.0832 48.1535 36.9921 48.1456 37.1928C48.1102 37.1189 47.9549 36.9673 47.9432 36.9868L48.0365 37.1415C48.067 37.2456 47.9579 37.1611 48.0316 37.3042C47.8803 37.135 48.285 37.3815 48.1455 37.2591C48.2035 37.406 47.9254 37.0492 48.0581 37.2603C48.0374 37.2945 47.8763 37.1195 47.9196 37.2908C47.9343 37.2665 48.0708 37.4932 48.0315 37.503C47.9922 37.5129 47.9754 37.4301 47.889 37.4186L47.8202 37.3779C47.7318 37.2261 47.7878 37.4315 47.7023 37.2417C47.7692 37.374 47.5765 37.207 47.7239 37.4599L47.842 37.6622C47.7568 37.5787 47.6803 37.4868 47.614 37.388C47.6246 37.4216 47.6384 37.4544 47.6552 37.4855C47.4862 37.18 47.6169 37.5487 47.4498 37.3173C47.4548 37.4527 47.3202 37.3994 47.4018 37.6068C47.3035 37.5486 47.214 37.4427 47.2042 37.5362C47.2372 37.5592 47.2646 37.5891 47.2847 37.6237C47.3043 37.7348 47.2612 37.6627 47.2003 37.62C47.2295 37.7316 47.2525 37.8446 47.2691 37.9587C47.1737 37.856 47.096 37.7385 47.0392 37.6106C47.1679 37.9386 46.8181 37.4795 46.9331 37.7862C47.0043 37.8386 47.0553 37.9135 47.0784 37.9984C47.2071 38.3264 46.8849 37.8106 46.9045 37.9879L46.7807 37.7292C46.8397 37.8966 46.6136 37.6302 46.761 37.8831C46.6903 37.8015 46.7336 38.006 46.6068 37.752C46.6226 38.013 46.3012 37.7498 46.4801 38.2268C46.4408 38.2035 46.4535 38.2707 46.37 38.1218C46.2865 37.9729 46.4732 38.1829 46.4123 38.1071C46.3514 38.0312 46.3612 38.0371 46.3406 38.005C46.3199 37.9729 46.3248 38.1084 46.4643 38.297C46.48 38.4919 46.1677 37.9157 46.1363 38.0561C46.1048 38.1965 46.2099 38.1992 46.1765 38.1993L46.029 38.0456C45.9907 38.109 46.1254 38.2948 46.2168 38.4748C46.1775 38.4516 46.1411 38.4896 46.0497 38.3759L46.1313 38.6163C46.0704 38.4411 46.0487 38.5211 46.0153 38.4881L46.0545 38.5113C46.087 38.5902 46.0251 38.56 46.0221 38.5649C45.989 38.4975 45.9744 38.4226 45.9799 38.3477C45.9259 38.2826 45.9112 38.3071 45.8424 38.2333C45.9426 38.3986 45.8621 38.3773 45.8444 38.4065C45.8267 38.4358 45.7314 38.2733 45.7255 38.283C45.7196 38.2928 45.6989 38.327 45.7804 38.435C45.805 38.4495 45.7548 38.3338 45.801 38.4009C45.8472 38.468 45.9043 38.6276 45.8061 38.5362C45.7078 38.4449 45.6322 38.1946 45.6372 38.33C45.6814 38.3562 45.7136 38.4352 45.7559 38.4867L45.7521 38.6035L45.6665 38.447C45.6773 38.4739 45.6908 38.4994 45.7068 38.5237C45.6007 38.368 45.5997 38.5133 45.4877 38.3343C45.4631 38.3197 45.4975 38.4728 45.4798 38.502C45.5024 38.6082 45.4387 38.5701 45.3483 38.4768L45.3778 38.4943C45.3778 38.4943 45.3149 38.5101 45.255 38.4216C45.2776 38.5608 45.5605 39.0199 45.4072 38.843C45.3649 38.8577 45.188 38.5874 45.1527 38.4803C45.136 38.6294 44.9109 38.4166 44.9768 38.6941C44.951 38.6454 44.916 38.6021 44.8736 38.5666C44.7999 38.6886 44.5494 38.5071 44.625 38.8567C44.6987 38.9004 44.7105 39.0133 44.7577 39.1009C44.6594 38.9764 44.8068 39.2625 44.6594 39.0427C44.5857 38.8997 44.5475 38.8306 44.5504 38.7594C44.5534 38.6883 44.3441 38.7696 44.3784 38.9225C44.3666 38.8643 44.3341 38.8124 44.287 38.7758C44.4137 38.9966 44.3833 39.058 44.3057 38.9987L44.2291 38.8605L44.2812 39.0172C44.2369 38.991 44.1102 38.7372 44.1446 38.89C44.1725 38.9372 44.1961 38.9868 44.2153 39.038C44.117 38.9467 43.9627 38.7824 43.9941 38.907L44.0699 39.124C44.0364 39.1027 44.008 39.0746 43.9866 39.0413C43.9652 39.008 43.9514 38.9707 43.9461 38.9316C43.9362 39.0914 43.8999 39.1293 43.9755 39.3133C43.6257 38.9536 43.4843 39.0222 43.3241 39.1327L43.383 39.2339C43.3997 39.3498 43.273 39.0627 43.27 39.167C43.3212 39.282 43.3813 39.3928 43.4498 39.4986C43.4547 39.6341 43.2887 39.3568 43.2268 39.3267C43.1649 39.2967 43.3006 39.4035 43.2033 39.2332C43.1591 39.207 43.1846 39.3745 43.0805 39.1605C43.1281 39.2687 43.1863 39.3721 43.2544 39.4689L43.1513 39.4078C43.2417 39.6667 43.4715 39.783 43.5884 40.0974L43.5492 40.0741C43.6367 40.3048 43.7545 40.2755 43.7201 40.3876C43.5957 40.2496 43.4975 40.0903 43.4303 39.9176C43.3291 39.8974 43.1355 39.4448 43.0746 39.5015C43.1159 39.6319 43.1491 39.4995 43.2228 39.6757C43.2965 39.8518 43.1099 39.6087 43.106 39.6925C43.0703 39.5737 43.0043 39.466 42.9144 39.38C42.9311 39.4959 43.0442 39.5629 43.0019 39.6108C42.9312 39.496 42.8329 39.4377 42.8309 39.3306C42.6708 39.0767 42.8152 39.4339 42.6786 39.2403C42.7582 39.4399 42.9654 39.6489 42.9585 39.7707C42.8701 39.5858 42.7561 39.5647 42.6422 39.2786C42.6698 39.3917 42.7221 39.4973 42.7954 39.5881C42.8239 39.7176 42.54 39.304 42.7425 39.6757L42.6304 39.4967C42.6559 39.5649 42.6649 39.6164 42.7002 39.7235C42.6855 39.7479 42.4742 39.5234 42.6471 39.8114C42.6177 39.7939 42.5656 39.836 42.484 39.6287C42.4614 39.4894 42.6059 39.7471 42.4909 39.4736C42.5735 39.7014 42.4162 39.4758 42.3681 39.4009L42.4241 39.5071C42.3799 39.4809 42.3671 39.5131 42.2816 39.4227C42.3215 39.4694 42.3498 39.5247 42.3642 39.5842L42.263 39.4314C42.1647 39.3732 42.4044 39.7271 42.3239 39.7059L42.4339 39.8109C42.4044 39.7934 42.4742 39.954 42.4182 39.9142C42.3269 39.7673 42.2137 39.6011 42.14 39.4912C42.0663 39.3813 42.2167 39.6624 42.1136 39.535L42.2501 39.6955C42.2944 39.7217 42.3583 39.9583 42.3161 39.973C42.2113 39.8841 42.1361 39.7658 42.1008 39.6336C42.1008 39.6336 42.0969 39.7505 42.1735 39.8555C42.1047 39.8148 42.0939 39.6892 42.0045 39.6163C42.0399 39.7234 42.0624 39.8956 42.1116 40.0572L42.2895 40.282L42.2748 40.3063C42.4173 40.4901 42.3367 40.4688 42.4674 40.6721C42.4497 40.7013 42.4133 40.6401 42.3593 40.608C42.2335 40.242 42.0458 40.1772 41.8954 39.8629C41.7873 39.7988 42.2541 40.6386 41.9131 40.1981C41.8817 40.1066 41.7157 39.8956 41.811 39.9587C41.7785 40.0124 41.6154 39.664 41.6144 39.8422C41.7244 39.9472 41.7373 40.1799 41.8975 40.3344C41.8385 40.2333 41.8896 40.2371 41.9358 40.2711C41.982 40.3051 42.1068 40.5843 42.0586 40.6088C42.0105 40.6333 41.9662 40.6071 41.8836 40.4456C41.8011 40.284 41.9406 40.4396 41.8276 40.2733C41.7441 40.2238 41.8681 40.5157 41.6755 40.2161C41.7148 40.2394 41.6381 40.0349 41.5732 39.9104L41.4897 39.8609L41.5604 39.9759C41.5358 40.0938 41.4248 39.7697 41.359 39.8565L41.4552 40.1057C41.579 40.2983 41.5074 39.9641 41.6715 40.2998C41.645 40.3437 41.527 40.1746 41.5339 40.2846C41.5339 40.2846 41.5733 40.308 41.6028 40.3254C41.6322 40.3429 41.8111 40.7866 41.6097 40.5679C41.5262 40.4853 41.5388 40.4531 41.471 40.3334C41.3836 40.3346 41.2892 40.2259 41.2352 40.227C41.3737 40.4614 41.188 40.3049 41.3521 40.5082C41.2971 40.3563 41.4081 40.3162 41.5585 40.5311C41.6793 40.828 41.5967 40.4678 41.7579 40.7421C41.7038 40.7763 41.8571 41.0527 41.9455 41.2376C41.9455 41.2376 41.8768 41.1968 41.8473 41.1794C41.75 41.0091 41.7737 41.003 41.6793 40.8279C41.6351 40.901 41.529 40.8448 41.4189 40.6736C41.4435 40.7753 41.4959 40.8683 41.5704 40.9422C41.5238 40.9404 41.4778 40.9536 41.4392 40.9797C41.4007 41.0057 41.3715 41.0433 41.356 41.0869C41.2538 40.7813 41.2451 41.0609 41.1488 40.8118C41.134 40.6629 41.0793 40.5208 40.9905 40.4C40.9728 40.4293 41.0584 40.5196 41.0791 40.5848C40.9661 40.4516 41.1635 40.8535 41.0033 40.6328C41.1163 40.6997 41.2037 40.9637 41.3383 41.1825C41.2057 41.1039 41.4239 41.339 41.3757 41.3635C41.2876 41.2803 41.182 41.2177 41.0663 41.1802C41.1115 41.4256 40.8943 41.2771 40.8285 41.2977C40.857 41.4272 41.0132 41.6654 40.9985 41.7229C40.9837 41.7804 40.8863 41.4447 40.8853 41.5899L40.9296 41.6161C40.8706 41.5812 40.9119 41.8441 40.7085 41.4851L40.8707 41.7468C40.8707 41.7468 40.8264 41.7206 40.7969 41.7031C40.8265 41.7841 40.8683 41.8602 40.9208 41.9289C40.9847 42.1323 40.8276 41.9397 40.7853 41.9544L40.7244 41.7792C40.5868 41.6977 40.624 41.8788 40.5258 41.8537L40.6112 42.0104L40.513 41.9522C40.6044 42.0991 40.6212 42.215 40.5298 42.1012L40.8413 42.4249C40.8187 42.3187 40.7076 42.2596 40.6407 42.0942C40.5739 41.9287 40.6693 41.9585 40.7607 42.1054C40.743 42.1347 40.7607 42.1054 40.6772 42.0559C40.7412 42.1745 40.8207 42.2842 40.9139 42.3818C40.9139 42.3818 40.9158 42.4559 40.9139 42.3818C40.9915 42.4742 41.0269 42.4819 41.0662 42.4721C40.9827 42.4226 41.0101 42.3329 40.9659 42.2736C41.0721 42.4623 41.1409 42.5031 41.1773 42.3988C41.0957 42.1584 41.3443 42.4976 41.3728 42.3953C41.2838 42.2556 41.1773 42.1278 41.0555 42.0151C41.0437 41.9022 41.0731 41.9859 41.0888 41.8825C41.1758 42.0336 41.2826 42.1725 41.4063 42.2958L41.3355 42.148C41.419 42.1975 41.5309 42.4095 41.5643 42.3432C41.614 42.2482 41.6897 42.169 41.7825 42.1147L41.7118 41.9667C41.9133 42.2516 41.9063 42.0093 42.0291 42.1152C42.0488 41.9281 42.3042 42.1456 42.2226 41.8721C42.4417 41.8959 42.6423 41.9284 42.7867 41.7887L42.6453 41.5923C42.7553 41.7304 42.601 41.4668 42.6462 41.4803C42.7012 41.6653 42.8034 41.673 42.8948 41.7867C42.882 41.587 43.0726 41.713 43.221 41.8208L43.1423 41.6749C43.3555 41.9073 43.3104 41.6288 43.3684 41.5439C43.4263 41.459 43.2947 41.3346 43.3251 41.3394C43.4136 41.4557 43.5262 41.5517 43.6553 41.6211C43.69 41.5919 43.7171 41.5547 43.7342 41.5129C43.7513 41.4711 43.758 41.4259 43.7536 41.3811C44.1172 41.5965 44.1888 41.3011 44.4845 41.3969L44.4107 41.2208C44.8038 41.4537 44.8392 41.0309 45.0986 41.1315L44.9248 40.8561C44.9287 40.7392 45.0829 40.8702 45.1773 41.0785C45.1782 40.9665 45.3796 41.1521 45.2833 40.9029C45.3246 40.8346 45.4259 40.9874 45.475 41.0165C45.5212 40.8517 45.5723 40.8554 45.6951 40.8619L45.6803 40.8865C45.6287 40.8277 45.5935 40.7565 45.5781 40.68C45.6666 40.7324 45.6695 40.5289 45.8188 40.889C45.8149 40.6415 46.1452 40.9232 46.1029 40.6067C46.1304 40.667 46.1708 40.7206 46.2216 40.7634C46.312 40.7242 46.3051 40.4816 46.4653 40.603C46.4515 40.5485 46.3535 40.457 46.384 40.4287C46.4144 40.4004 46.4516 40.5485 46.5076 40.5883C46.7493 40.6851 46.711 40.2516 46.8672 40.2249C47.1944 40.2797 47.3939 40.0601 47.6346 39.9709L47.5963 39.9016C47.8105 40.1213 47.6268 39.542 47.9019 39.9038C47.8822 39.8259 47.946 39.8307 47.8655 39.7101C48.0256 39.8646 47.9422 39.4507 48.1564 39.6373C48.1564 39.6373 48.1564 39.6372 48.1121 39.6111C48.12 39.4103 48.3126 39.5775 48.3293 39.3952C48.2917 39.3648 48.2597 39.3279 48.235 39.2863C48.2026 39.1412 48.4727 39.5333 48.2998 39.1791C48.2998 39.1791 48.403 39.3394 48.3853 39.3355C48.5238 39.1063 48.851 39.1943 49.1006 39.1567C49.1477 38.8799 48.8097 38.6 49.0603 38.7815C49.0377 38.7085 49.1409 38.9022 49.1144 38.8136C49.2126 38.8718 48.9866 38.4067 49.1134 38.5613C49.2401 38.7159 49.1978 38.6643 49.2627 38.7889C49.2843 38.6096 49.2018 38.415 49.36 38.5286L49.2961 38.4244C49.5457 38.6849 49.5574 38.4668 49.8158 38.7789C50.3238 38.5896 50.88 38.5414 51.3634 38.3375C51.783 38.0296 52.3106 37.9514 52.6702 37.5219C52.6299 37.18 52.6446 37.1888 52.8381 37.2439C52.7988 37.2206 52.7842 37.2117 52.7813 37.1504C52.9129 37.3741 52.8755 37.1269 53.0052 37.3429C53.1546 37.2061 53.3463 37.187 53.5231 37.093C53.4887 37.0727 53.3628 36.9055 53.4041 36.9035L53.5201 37.0317L53.4896 36.9606C53.5618 37.0121 53.6134 37.0872 53.6351 37.1727C54.1854 37.1343 54.37 36.4423 54.8426 36.2784C54.8927 36.1293 55.0873 36.1384 55.2219 36.1254C55.388 35.6408 55.5531 35.2351 56.008 35.2662C55.7809 35.0305 55.5021 34.8496 55.1933 34.7372Z" fill="#10284B"/>
            <path d="M59.5313 65.8803C59.3057 65.2593 58.8994 65.8405 58.63 65.4357C58.602 65.4073 58.6166 65.7728 58.545 65.6836C58.289 65.1947 57.8149 65.4457 57.4407 65.7904L57.4553 65.8869C57.3895 65.9503 57.3255 65.6324 57.2478 65.6756C57.1701 65.7188 57.2667 65.7601 57.2452 65.8441C57.2399 65.6594 57.1373 65.7345 57.1028 65.6096C57.0692 65.6814 57.063 65.8298 57.0213 65.9096L56.9921 65.6924C56.9148 65.1816 56.7161 65.713 56.5784 65.4424C56.5816 65.4946 56.5971 65.5352 56.5802 65.5831C56.3541 65.2552 56.0493 65.3036 55.7716 65.1677C55.7775 65.2668 55.7732 65.3662 55.7589 65.4645C55.7583 65.2437 55.6782 65.1785 55.6019 65.1334C55.5538 65.3617 55.4918 64.9151 55.3967 65.0384L55.3999 65.0907C55.351 64.8452 55.2805 65.2056 55.2522 64.9403L55.2008 65.1164C55.1936 64.7912 55.0971 65.2797 55.055 65.1145L55.06 65.0464C54.9961 64.9814 54.9776 65.1257 54.9379 65.069L54.9132 65.0928C54.8134 64.9912 54.7376 65.175 54.7496 64.9262C54.6978 65.1263 54.8455 65.0236 54.7721 65.3158C54.4583 65.1048 54.0803 65.008 53.7019 65.0417C53.6599 65.1094 53.6299 65.1836 53.6135 65.2613C53.5735 65.2207 53.4805 65.2075 53.4458 65.0907C53.4397 65.1411 53.4207 65.1892 53.3908 65.2306C53.3085 65.3098 53.3384 64.949 53.2597 65.0564C53.2848 65.1371 53.2891 65.2225 53.2722 65.3053C53.2226 65.0999 53.141 65.1311 53.0731 65.062C53.0854 65.1106 53.0915 65.1607 53.0911 65.2109C53.0216 64.9852 52.9405 65.253 52.8779 65.1077L52.8998 65.2526C52.7755 65.4277 52.8803 64.9473 52.7774 65.0464C52.8133 65.0829 52.788 65.1468 52.787 65.2111C52.7141 64.9412 52.5795 64.9997 52.4916 64.9103C52.4935 64.9317 52.4931 64.9533 52.4906 64.9746C52.394 64.9333 52.2874 65.0122 52.1839 64.8905C52.1304 64.942 52.1784 65.2517 52.0779 65.1903C52.0987 64.8934 51.9095 65.0598 51.9875 64.7315C51.8936 64.7745 51.7503 64.8732 51.695 64.7761C51.7298 64.885 51.6328 65.1286 51.7053 65.1616L51.6418 65.3335C51.6439 65.4579 51.6911 65.2859 51.6764 65.4503C51.6485 65.4219 51.5408 65.3122 51.4996 65.3598C51.4456 65.1745 51.3983 64.8326 51.2774 64.7829C51.3243 64.8959 51.2319 65.1035 51.2595 65.1561L51.1384 64.5845C51.1105 64.5561 51.1186 64.8172 51.0712 64.7363C51.0728 64.6707 51.0629 64.6053 51.0418 64.5431C51.0171 64.5669 50.893 64.465 50.8443 64.7334C50.8183 64.8455 50.9042 64.7943 50.854 64.8981C50.7851 64.8932 50.7867 64.7888 50.7302 64.7721L50.7095 64.792C50.6642 64.8356 50.5818 64.662 50.641 64.5021C50.641 64.5021 50.6181 64.6746 50.668 64.5949C50.6462 64.426 50.5702 64.3728 50.5013 64.3679C50.5172 64.435 50.5229 64.5039 50.5184 64.5728C50.4676 64.4158 50.3762 64.2749 50.253 64.1641C50.2551 64.0276 50.2776 64.4173 50.2949 64.3453C50.1542 64.5282 50.0275 64.073 49.914 64.3325C49.914 64.3325 49.9331 64.14 49.9285 64.1761C49.9239 64.2121 49.8602 64.3922 49.8249 64.3154C49.8109 64.4317 49.781 64.2708 49.7411 64.2301C49.7012 64.1895 49.704 64.2658 49.7642 64.3026C49.7091 64.1976 49.477 64.0099 49.3367 64.1688C49.3419 64.0926 49.2681 63.879 49.2355 63.8866L49.2409 64.0712C49.2027 64.1792 49.1317 64.0498 49.1133 64.1941C49.0559 63.9726 49.3615 64.398 49.279 64.2243C49.2484 64.3725 49.17 63.926 49.1743 64.175C49.1095 64.1662 49.0641 63.9568 48.9925 64.1286C49.0172 64.1048 49.0293 64.3779 48.981 64.3612C48.9326 64.3445 48.9619 64.2767 48.8899 64.2116L48.8301 64.1507C48.8409 63.9742 48.7527 64.1698 48.7962 63.9776C48.7778 64.1219 48.6845 63.8637 48.6635 64.1765L48.6639 64.4055C48.636 64.3771 48.6151 64.1599 48.5884 64.0511L48.5664 64.1594C48.58 63.8063 48.477 64.1823 48.4447 63.9049C48.3577 64.0283 48.2378 63.9065 48.2018 64.1389C48.1427 64.0298 48.092 63.8967 48.0262 63.9601C48.0471 63.9986 48.059 64.0412 48.0608 64.0849C48.0066 64.1846 48.0039 64.0923 47.9643 64.0356C47.9227 64.1478 47.8709 64.2559 47.8093 64.3588C47.7502 64.2497 47.7813 64.0615 47.7791 63.945C47.7089 64.2894 47.6207 63.7101 47.5307 64.0261C47.5626 64.0587 47.613 64.1998 47.559 64.2835C47.4807 64.6278 47.4536 64.0212 47.3579 64.1847L47.3947 63.8961C47.3433 64.0721 47.2677 63.7179 47.2671 64.019C47.2403 63.9183 47.1601 64.1219 47.1768 63.8291C47.015 64.064 46.8184 63.6681 46.7054 64.1646C46.6735 64.132 46.6284 64.1596 46.6468 64.0153C46.6653 63.871 46.6898 64.1322 46.7117 64.0241C46.7117 64.0241 46.6926 63.9395 46.6932 63.8994C46.6356 63.9549 46.6069 63.9826 46.6357 64.2158C46.5236 64.3871 46.554 63.733 46.4187 63.8317C46.4169 63.9521 46.404 63.9963 46.3678 63.9757L46.306 63.7742C46.2162 63.8133 46.2411 64.0344 46.2299 64.235C46.1937 64.2208 46.1631 64.1955 46.1424 64.1627C46.1218 64.13 46.1122 64.0914 46.1151 64.0529L46.0467 64.3009C46.098 64.1249 46.016 64.1801 45.9966 64.1277L46.0324 64.1642C46.019 64.2483 45.9873 64.2078 45.9474 64.1672C45.9529 64.0899 45.987 64.0174 46.0435 63.9637C46.0287 63.8752 45.9838 63.9028 45.9653 63.7861C45.9663 63.9828 45.8822 63.9215 45.8254 63.9208C45.7687 63.9201 45.7876 63.7437 45.7793 63.7517C45.7711 63.7596 45.7061 63.7668 45.7323 63.9076C45.7562 63.932 45.7663 63.8117 45.7892 63.9003C45.8122 63.9889 45.7529 64.1488 45.6821 64.0034C45.6114 63.858 45.7164 63.6223 45.6295 63.7377C45.6428 63.8041 45.6527 63.8713 45.6589 63.9388L45.5682 64.0261L45.5791 63.8496L45.5616 63.9297C45.5482 63.7449 45.4533 63.868 45.4484 63.6592C45.4164 63.6267 45.3413 63.7623 45.3125 63.79C45.2623 63.8938 45.2066 63.8208 45.176 63.7L45.1553 63.72C45.1553 63.72 45.0745 63.7029 45.0396 63.6021C44.9686 63.7337 44.9848 64.2717 44.9275 64.0422C44.8627 64.0333 44.8474 63.7161 44.8776 63.6C44.7582 63.715 44.645 63.4206 44.5273 63.6921C44.5163 63.6157 44.5292 63.5717 44.4974 63.5311C44.3262 63.5932 44.1604 63.3022 44.0092 63.6456C44.0691 63.7065 44.0025 63.818 43.9928 63.9222C43.9628 63.7613 43.9416 64.0823 43.9377 63.8092C43.9522 63.6528 43.9536 63.5726 44.0033 63.5089C43.9826 63.4855 43.9562 63.4676 43.9266 63.4571C43.8969 63.4467 43.865 63.4441 43.834 63.4493C43.803 63.4546 43.7738 63.4677 43.7493 63.4873C43.7248 63.5069 43.7059 63.5324 43.6942 63.5614C43.7056 63.5331 43.711 63.5028 43.71 63.4724C43.7091 63.442 43.7019 63.4122 43.6888 63.3847C43.6849 63.6416 43.6074 63.6766 43.5561 63.5836L43.5584 63.4311L43.5115 63.5872C43.4796 63.5547 43.5083 63.2581 43.4452 63.4058C43.4426 63.4611 43.435 63.5161 43.4224 63.5701C43.3676 63.441 43.3021 63.2193 43.2188 63.3628L43.1587 63.5867C43.1308 63.5583 43.0922 63.4214 43.1419 63.3578C43.0184 63.4767 42.9773 63.5164 42.9219 63.6963C42.7631 63.2086 42.5 63.1773 42.2888 63.1988L42.2913 63.3151C42.2248 63.4187 42.27 63.1142 42.2242 63.1899C42.1784 63.2656 42.1679 63.4261 42.2063 63.563C42.1193 63.6864 42.1122 63.3611 42.0644 63.3043C42.0667 63.1518 42.0991 63.4052 42.0981 63.2085C42.0949 63.1562 41.9829 63.3194 41.9823 63.0906C41.9636 63.2074 41.9593 63.3259 41.969 63.4437L41.9221 63.3307C41.8491 63.5988 42.0361 63.8218 41.9377 64.1618L41.8978 64.1212C41.8374 64.3614 42.0028 64.3997 41.8799 64.4785C41.8305 64.2977 41.8252 64.1077 41.8642 63.9242C41.7804 63.8389 41.8484 63.37 41.7346 63.3846C41.7001 63.5207 41.8273 63.4219 41.792 63.6142C41.7566 63.8065 41.6881 63.5086 41.6467 63.5643C41.6853 63.445 41.683 63.3165 41.6402 63.1989C41.5777 63.3065 41.6653 63.4199 41.5799 63.4389C41.5778 63.3064 41.5064 63.2011 41.5767 63.1096C41.5651 62.8124 41.4903 63.1929 41.441 62.9715C41.4054 63.1798 41.4941 63.4661 41.4034 63.5693C41.4268 63.3649 41.3065 63.283 41.3719 62.9827C41.3311 63.0931 41.3209 63.2121 41.3422 63.3275C41.2836 63.4473 41.2427 62.949 41.2 63.3539L41.1991 63.1412C41.1778 63.2092 41.1527 63.257 41.1226 63.3731C41.0739 63.3725 40.9975 63.0824 40.9846 63.3954C40.9606 63.371 40.8713 63.3699 40.9232 63.1538C40.9752 62.9376 40.9814 63.3192 41.0466 63.035C40.9902 63.2791 40.9579 63.0017 40.9308 62.9171L40.9169 63.0414C40.8809 63.0048 40.8484 63.0124 40.8423 62.8838C40.8535 62.9448 40.8455 63.0078 40.8192 63.0642L40.81 62.8753C40.7222 62.7859 40.7725 63.204 40.6923 63.1468L40.7467 63.2922C40.7467 63.2922 40.6919 63.432 40.6603 63.3754L40.6358 62.8691C40.5759 62.8082 40.6004 63.0614 40.5667 62.8803L40.612 63.0898C40.6193 63.1461 40.5551 63.3661 40.4943 63.3613C40.4336 63.3565 40.4059 63.051 40.4763 62.9595C40.4763 62.9595 40.3858 63.0468 40.4161 63.1837C40.3482 63.1146 40.4351 62.9992 40.376 62.8901C40.3458 63.0061 40.2583 63.1616 40.1991 63.3215L40.2474 63.6071L40.2028 63.6107C40.2438 63.84 40.1637 63.7827 40.1843 64.0239C40.1473 64.0595 40.1284 63.967 40.0845 63.9223C40.1917 63.5422 40.0196 63.3916 40.0614 63.0428C39.9576 62.9371 39.939 63.8885 39.8502 63.3334C39.8759 63.2453 39.8354 62.9759 39.9027 63.0771C39.8451 63.1326 39.8757 62.7234 39.7762 62.8667C39.8347 63.0159 39.6899 63.2189 39.7678 63.4286C39.7695 63.3162 39.8377 63.3612 39.8294 63.3692C39.7909 63.5012 39.8117 63.7262 39.7389 63.7173C39.666 63.7083 39.6341 63.6759 39.6532 63.4915C39.6722 63.307 39.7217 63.5202 39.7046 63.3153C39.6247 63.234 39.5836 63.5427 39.5729 63.1812C39.6168 63.226 39.6567 63.0056 39.6629 62.8652L39.5911 62.7921L39.593 62.9246C39.4901 63.0237 39.5804 62.6837 39.4706 62.7104L39.4058 62.9705C39.4144 63.1995 39.5652 62.8802 39.519 63.249C39.4499 63.2602 39.4406 63.0714 39.3703 63.1629C39.3942 63.1873 39.4101 63.2035 39.4301 63.2238C39.4501 63.2441 39.3536 63.7246 39.273 63.4305C39.2342 63.3176 39.2709 63.298 39.2771 63.1576C39.1725 63.1081 39.1462 62.9673 39.0735 62.9503C39.0693 63.2233 38.9477 62.9688 39.0082 63.2505C39.0552 63.0945 39.2087 63.1206 39.2291 63.3778C39.1715 63.6943 39.3191 63.3388 39.3181 63.664C39.2329 63.6669 39.2199 63.98 39.1884 64.1844C39.1884 64.1844 39.1324 64.1274 39.1332 64.0792C39.1403 63.8826 39.1686 63.887 39.1838 63.6904C39.0818 63.7333 38.9944 63.6199 38.9403 63.4426C38.9024 63.5345 38.8995 63.727 38.9397 63.7516C38.8859 63.7235 38.8258 63.7092 38.7649 63.7099C38.704 63.7105 38.6443 63.7261 38.591 63.7554C38.6769 63.4433 38.4706 63.6735 38.5355 63.4134C38.6194 63.2837 38.6573 63.1302 38.6434 62.9771C38.6146 63.0048 38.6372 63.1175 38.6159 63.1855C38.578 63.0084 38.5226 63.4574 38.4943 63.184C38.5981 63.2897 38.4883 63.5695 38.4926 63.8184C38.4259 63.6771 38.4817 63.9949 38.4129 63.9901C38.3598 63.8675 38.2782 63.7591 38.1746 63.6739C38.0536 63.9012 37.9072 63.6626 37.8182 63.6455C37.7555 63.7691 37.7673 64.0504 37.7139 64.0939C37.6606 64.1374 37.7835 63.7975 37.6803 63.9206L37.6835 63.9729C37.6396 63.9282 37.4983 64.1513 37.4799 63.7657L37.4873 64.0749C37.4626 64.0987 37.4514 64.0384 37.4274 64.014C37.4178 64.1102 37.3923 64.1982 37.4196 64.2668C37.3434 64.4746 37.2985 64.2252 37.2379 64.2124L37.2892 64.0365C37.1901 63.8867 37.1104 64.0583 37.0101 63.9888L36.9993 64.1653L36.9484 64.0562C36.9498 64.2288 36.8834 64.3324 36.8613 64.1876L36.9923 64.6308C37.0426 64.527 36.9551 64.4136 36.9982 64.2455C37.0414 64.0774 37.1134 64.1346 37.1268 64.3194C37.098 64.3471 37.0989 64.291 37.055 64.2463C37.0269 64.4868 37.0796 64.4834 37.0974 64.6482C37.0974 64.6482 37.0398 64.7037 37.0655 64.6157C37.088 64.7364 37.1281 64.761 37.2052 64.7579C37.1702 64.6571 37.2399 64.6058 37.2287 64.5375C37.2133 64.75 37.2731 64.8192 37.355 64.764C37.4277 64.52 37.5069 64.9182 37.5845 64.875C37.5802 64.7061 37.5441 64.5397 37.4785 64.384C37.5449 64.2805 37.5433 64.3927 37.5938 64.2729C37.5893 64.4497 37.6181 64.6259 37.679 64.792L37.6895 64.6316C37.7654 64.7088 37.7373 64.9571 37.8271 64.9181C37.9595 64.8679 38.1001 64.8425 38.2418 64.843L38.2604 64.6828C38.2956 65.0285 38.4528 64.8216 38.5398 64.9672C38.6921 64.8206 38.8412 65.1434 38.9306 64.8675C39.134 65.0302 39.3915 65.1121 39.6529 65.0972L39.6201 64.8599C39.6579 65.037 39.6585 64.728 39.7105 64.7728C39.6509 64.9568 39.7594 65.0184 39.7855 65.1673C39.9098 64.9922 40.0486 65.1985 40.1433 65.3683L40.1539 65.2079C40.2384 65.514 40.3801 65.2588 40.5145 65.2163C40.5358 65.1484 40.5665 65.0001 40.6027 65.0206C40.6299 65.1718 40.6931 65.3142 40.7869 65.4363C40.8422 65.4321 40.8958 65.4164 40.9444 65.39C40.9931 65.3636 41.0355 65.3273 41.0689 65.2835C41.3306 65.6641 41.6382 65.4469 41.9183 65.6832L41.9495 65.4949C42.2107 65.9156 42.5809 65.567 42.8126 65.7867L42.8055 65.4613C42.896 65.3741 42.9783 65.5559 42.9464 65.7843C43.0369 65.6971 43.1182 65.9589 43.1872 65.6867C43.2572 65.6193 43.2781 65.8445 43.3382 65.8894C43.5062 65.7751 43.5585 65.8038 43.7034 65.8698L43.6745 65.8977C43.6633 65.8293 43.6697 65.6887 43.7065 65.6691C43.7783 65.7423 43.9143 65.5955 43.8354 65.9799C44.005 65.7612 44.1933 66.181 44.3641 65.882C44.3422 65.9901 44.3824 66.0147 44.3935 66.0831C44.5352 66.0969 44.6883 65.8861 44.7909 66.072C44.8279 66.0363 44.7653 65.891 44.8222 65.8837C44.8791 65.8764 44.8159 66.024 44.8515 66.0847C45.059 66.296 45.3206 65.9019 45.5265 65.9566C45.8799 66.1777 46.2622 66.0942 46.602 66.1466L46.6032 66.0662C46.7039 66.3726 46.8995 65.7808 46.9615 66.2272C47.015 66.1756 47.0674 66.1965 47.0575 66.0478C47.1394 66.2616 47.3239 65.8623 47.4413 66.1367C47.4413 66.1367 47.4414 66.1368 47.4055 66.1002C47.5618 65.9496 47.6556 66.1756 47.8078 66.0289C47.7805 65.9886 47.7671 65.9405 47.7694 65.8919C47.8325 65.7442 47.8819 66.2266 47.9323 65.8538C47.9323 65.8538 47.9416 66.0425 47.9257 66.0263C48.2438 65.9017 48.5641 66.1547 48.8828 66.259C49.1174 66.0331 48.929 65.6293 49.0989 65.9165C49.1162 65.8444 49.1048 66.0609 49.11 65.9847C49.1733 66.0899 49.242 65.5728 49.2796 65.766C49.3172 65.9591 49.3059 65.8989 49.2997 66.0393C49.452 65.8926 49.4917 65.6882 49.5903 65.8701L49.5921 65.7497C49.7084 66.0964 49.8651 65.9217 49.9563 66.3243C50.6723 66.4254 51.3576 66.6829 52.0618 66.7639C52.7678 66.7244 53.4376 66.9335 54.1537 66.7656C54.3409 66.4588 54.3531 66.4629 54.5252 66.6056C54.522 66.5533 54.51 66.541 54.5269 66.4931C54.5189 66.7539 54.6521 66.5228 54.6564 66.7717C54.9115 66.768 55.1662 66.7873 55.4177 66.8294C55.3817 66.7928 55.3646 66.5878 55.413 66.6045L55.4591 66.7736L55.4684 66.7015C55.4913 66.7392 55.5052 66.7815 55.5095 66.8253C55.5137 66.8691 55.5082 66.9132 55.4929 66.9546C56.1538 67.2196 56.8628 66.7187 57.5056 66.835C57.6692 66.7407 57.8864 66.8557 58.0517 66.918C58.5796 66.5993 59.0536 66.3563 59.5439 66.6353C59.7412 66.7301 59.7314 66.0514 59.5313 65.8803Z" fill="#10284B"/>
          </svg>