<svg width="179" height="40" viewBox="0 0 179 40" fill="none" xmlns="http://www.w3.org/2000/svg"><title>Union Bank logo</title><path d="M61.5131 26.8477C61.5131 32.704 58.2292 35.2657 53.1606 35.2657C48.092 35.2657 44.9081 32.675 44.9081 26.9783V16.1801H49.9267V26.8985C49.9267 29.4892 51.226 30.7301 53.2106 30.7301C55.1952 30.7301 56.4945 29.5618 56.4945 27.0291V16.1801H61.5131V26.8477ZM69.0018 27.4428C69.0018 25.8898 69.8656 25.0625 71.0363 25.0625C72.1857 25.0625 72.971 25.8898 72.971 27.4428V34.9754H77.8111V25.8608C77.8111 22.675 76.055 20.7084 73.1209 20.7084C71.1577 20.7084 69.887 21.7679 68.9946 22.9362V20.9696H64.1545V34.9754H68.9946V27.4428H69.0018ZM80.4097 34.9754H85.2498V20.9696H80.4097V34.9754ZM80.4097 19.3731H85.2498V16.1801H80.4097V19.3731ZM94.6017 35.2584C99.035 35.2584 102.24 31.9711 102.24 27.958C102.24 23.9449 99.0564 20.7084 94.6517 20.7084C90.2185 20.7084 87.0131 23.9957 87.0131 28.0088C87.006 32.0219 90.1899 35.2584 94.6017 35.2584ZM94.6017 24.852C96.3079 24.852 97.5287 26.2526 97.5287 28.0088C97.5287 29.7432 96.4364 31.1147 94.6517 31.1147C92.9455 31.1147 91.7248 29.7142 91.7248 27.958C91.7248 26.2236 92.817 24.852 94.6017 24.852ZM108.715 27.4428C108.715 25.8898 109.579 25.0625 110.75 25.0625C111.892 25.0625 112.685 25.8898 112.685 27.4428V34.9754H117.525V25.8608C117.525 22.675 115.768 20.7084 112.834 20.7084C110.871 20.7084 109.601 21.7679 108.708 22.9362V20.9696H103.868V34.9754H108.708V27.4428H108.715ZM132.331 25.2222C134.265 25.9333 135.829 27.2686 135.822 29.6851V29.7359C135.822 31.376 135.129 32.7113 133.923 33.6039C132.716 34.5037 131.024 34.9754 129.004 34.9754H120.709V16.1801H128.668C130.782 16.1801 132.481 16.7969 133.58 17.8782C134.372 18.6982 134.815 19.7432 134.815 20.9769V21.0277C134.815 23.212 133.616 24.5037 132.331 25.2222ZM123.2 24.3368H128.326C129.525 24.3368 130.517 24.0611 131.196 23.5531C131.874 23.0451 132.259 22.3194 132.259 21.3107V21.2599C132.245 19.6126 131.017 18.5386 128.483 18.5168H123.207V24.3368H123.2ZM133.266 29.5545C133.259 28.6256 132.895 27.9435 132.152 27.4428C131.403 26.942 130.239 26.659 128.69 26.659H123.207V32.6387H129.054C131.745 32.6169 133.266 31.4848 133.273 29.6126V29.5545H133.266ZM143.374 20.7592C145.309 20.7592 146.851 21.2962 147.872 22.3194C148.857 23.3136 149.343 24.6997 149.343 26.4703V34.9827H146.894V33.3644C145.909 34.4021 144.424 35.2584 142.325 35.2584H142.318C141.019 35.2584 139.719 34.8883 138.734 34.1481C137.749 33.4079 137.078 32.2686 137.078 30.81V30.7592C137.078 29.2425 137.699 28.0451 138.77 27.2613C139.834 26.4776 141.319 26.093 143.046 26.093C144.631 26.093 145.795 26.2962 146.901 26.5937V26.4921C146.901 25.3383 146.558 24.5037 145.944 23.9377C145.323 23.3789 144.402 23.0741 143.182 23.0741C141.64 23.0741 140.44 23.4515 139.213 24.0175L138.977 24.1264L138.213 22.0219L138.413 21.9275C139.898 21.2381 141.368 20.7519 143.374 20.7592ZM146.915 28.6909C145.966 28.4224 144.752 28.1757 143.246 28.1757C140.812 28.1902 139.577 29.2062 139.577 30.6576V30.7084C139.577 31.4848 139.919 32.0727 140.483 32.5008C141.047 32.9217 141.84 33.1612 142.703 33.1612C143.888 33.1612 144.952 32.7983 145.709 32.2033C146.466 31.601 146.923 30.7664 146.923 29.7722V28.6909H146.915ZM158.58 20.6793C156.546 20.6721 155.161 21.5792 154.233 22.7838V20.9696H151.763V34.9827H154.233V26.9928C154.247 24.569 155.825 23.0088 158.009 22.9943C160.244 23.0161 161.45 24.4094 161.472 26.8332V34.9754H163.942V26.3325C163.942 24.6779 163.456 23.2555 162.528 22.2541C161.607 21.2526 160.251 20.6793 158.58 20.6793ZM172.908 27.0364L178.783 20.9624H175.628L168.746 28.2192V16.1728H166.269V34.9682H168.746V31.2962L171.202 28.7925L175.899 34.9754H178.883L172.908 27.0364Z" fill="#10284B"></path><path d="M31.0401 10.3049V24.3325C31.0401 35.8782 20.7887 40.2396 11.4296 38.8245C14.7135 37.9754 17.7475 35.7331 17.7475 29.63V23.2004C17.7475 17.1337 19.6108 11.3209 31.0401 10.3049ZM0.407227 0.0944824V24.5212C0.407227 35.6024 6.93929 37.2643 9.06668 37.6053C11.3011 37.9682 14.1567 36.8942 15.3989 34.9783C13.8426 34.0204 13.6998 30.7984 13.6998 27.0103V12.5546C13.6998 3.22946 7.19629 0.0944824 0.407227 0.0944824Z" fill="#10284B"></path></svg>