<svg width="117" height="29" viewBox="0 0 117 29" fill="none" xmlns="http://www.w3.org/2000/svg"><title>United logo</title><path d="M0.925293 0.668213H28.7653V28.5082H0.925293V0.668213Z" fill="white"></path><path fill-rule="evenodd" clip-rule="evenodd" d="M7.08951 4.22287C17.114 4.22287 25.2698 12.4137 25.2698 22.4818C25.2698 24.5238 24.9247 26.5554 24.257 28.4835H28.7195V0.668213H0.919434V5.30761L0.941125 5.2998C2.91482 4.58524 4.98351 4.22287 7.08951 4.22287ZM0.919434 12.877C2.04974 11.2673 2.2132 9.41987 1.22095 8.51801C1.12761 8.43315 1.02666 8.36074 0.919434 8.29789V12.877ZM6.74286 7.01536C5.74311 5.86747 4.07926 5.47414 2.14596 5.75072C2.09333 5.75854 2.03843 5.76595 1.98919 5.77428C1.84177 5.79917 1.6925 5.82941 1.5419 5.86263C1.24336 5.93186 1.03879 6.00026 0.919434 6.04665V6.62553C1.10982 6.47536 1.30412 6.33238 1.50427 6.19816C1.88958 6.11566 2.26388 6.063 2.62471 6.03955C2.06629 6.35841 1.42203 6.79082 0.919434 7.19022V7.6358L0.936807 7.64598C0.936807 7.64598 2.35383 6.5238 3.47962 6.04017C3.75101 6.05981 4.011 6.09787 4.25855 6.15465C2.57629 6.86869 1.33424 7.75429 1.24819 7.81642C1.4209 7.91876 1.57839 8.04702 1.59906 8.06389C1.62075 8.05021 3.2517 7.02966 5.04673 6.41796C5.29016 6.52946 5.52558 6.66801 5.72913 6.82487C3.77466 7.37444 1.89574 8.3558 1.89574 8.3558C2.00163 8.47903 2.09497 8.61233 2.17567 8.75489C2.18832 8.74985 2.20004 8.74522 2.20898 8.74142C4.20951 7.88492 6.33504 7.44572 6.33504 7.44572C6.50128 7.67365 6.63821 7.92802 6.74286 8.20841C6.74286 8.20841 4.83527 8.42667 2.38128 9.21405C2.48963 9.55338 2.51934 9.80846 2.51955 9.81073C2.51955 9.81073 4.833 9.29294 6.96656 9.23555C6.99627 9.57847 6.98558 9.96337 6.93654 10.3583C5.6729 10.2917 2.66316 10.4519 2.54494 10.4612C2.54494 10.4612 2.53404 10.8949 2.42137 11.3033C2.42137 11.3033 4.62051 11.3739 6.62094 11.747C6.46622 12.2263 6.26874 12.6989 6.03445 13.1604C4.70142 12.7598 2.67817 12.2731 2.14596 12.1508C2.00574 12.4961 1.82985 12.8387 1.62106 13.1704C1.62106 13.1704 4.09314 14.2497 5.04169 14.7776H5.04375L5.04323 14.7786C4.63161 15.3956 3.81526 16.2588 3.81526 16.2588C3.57861 16.0818 3.35471 15.9161 3.14356 15.7614C2.48799 15.3024 0.921181 14.2073 0.919434 14.206V16.2513L2.20148 17.7498C1.77917 18.0902 1.34884 18.4006 0.919434 18.679V19.8993C0.935265 19.889 0.950994 19.8791 0.966517 19.8687C1.55208 19.4696 2.13065 19.0252 2.69431 18.5346C7.11768 14.6836 8.93028 9.52612 6.74286 7.01536ZM12.1891 7.22838C10.0897 4.40133 6.80392 4.80526 5.82391 4.94247C4.74768 5.09336 3.9339 5.32901 3.9339 5.32901C4.17435 5.35164 4.50167 5.39453 4.73791 5.44153C4.91226 5.40049 6.42304 5.05592 7.52107 5.19982C7.52261 5.19982 7.52426 5.20013 7.52426 5.20013C6.71726 5.28776 5.61625 5.62081 5.50142 5.65589C5.50039 5.6563 5.49988 5.65702 5.49865 5.65743C5.49988 5.65795 5.50101 5.65836 5.50214 5.65887C5.54182 5.67039 5.85897 5.76677 6.26606 6.00571C6.38501 5.97372 7.87995 5.577 9.30551 5.54902C9.30551 5.54902 9.83227 5.78312 10.3398 6.13161C8.49779 6.12471 6.97283 6.47855 6.9316 6.48821C7.14739 6.67963 7.36193 6.91003 7.55469 7.18682C9.57382 6.88422 11.316 7.01546 11.316 7.01546C11.316 7.01546 11.5531 7.30449 11.6596 7.45991C11.7941 7.65575 11.9316 7.89891 12.0383 8.11244C9.97742 7.87134 8.0063 8.04394 8.00496 8.04394C8.14086 8.39499 8.23287 8.77052 8.28335 9.16529C8.51116 9.16365 10.2566 9.16694 12.4797 9.56736C12.5508 10.0773 12.5579 10.6236 12.5018 11.2C12.124 11.1018 10.2988 10.6456 8.3071 10.4479C8.267 10.946 8.17222 11.4644 8.02675 11.996C8.24973 12.0486 10.7103 12.6353 12.0886 13.194C12.0618 13.2804 12.0339 13.3673 12.0049 13.4549C11.8076 14.0469 11.5609 14.6415 11.269 15.234C10.1593 14.6874 7.4378 13.6229 7.4378 13.6229C7.16579 14.2319 6.83322 14.8484 6.44432 15.4638C6.44432 15.4638 8.77762 16.7959 9.90135 17.5335C9.38251 18.2753 8.79643 19.0034 8.15032 19.7071C7.33551 18.9758 5.29695 17.3954 5.14305 17.2761C4.48553 18.0594 3.65757 18.883 3.4095 19.1266L5.85578 21.933C5.83316 21.9534 5.80962 21.9742 5.78588 21.9948C5.25645 22.434 4.6861 22.8473 4.20416 23.1785C3.78566 23.4629 3.44045 23.6832 3.3212 23.76C3.29282 23.7169 1.69117 21.1581 1.45061 20.751C1.27451 20.8814 1.09718 21.0063 0.919434 21.1289V26.3889C1.20769 26.2501 1.49595 26.1064 1.78369 25.9534C3.16288 25.274 4.50126 24.4118 5.74691 23.4157C6.54527 22.7814 7.38249 22.0373 8.20913 21.1783C9.1914 20.1703 10.0443 19.1144 10.7561 18.0445C13.4543 14.0601 14.177 9.90546 12.1891 7.22838ZM16.4763 8.18845C16.3409 8.00331 16.1878 7.81457 16.0122 7.6466C15.8582 7.49951 15.7079 7.36693 15.55 7.24772C13.8091 5.93463 10.6055 5.27799 10.6055 5.27799C10.9113 5.44102 11.1657 5.60827 11.1674 5.6094C11.1826 5.6131 12.4742 5.9371 13.6198 6.49778C13.6198 6.49778 12.5777 6.261 11.9092 6.16874C12.1855 6.41158 12.4482 6.69105 12.6781 6.98306C12.6781 6.98306 14.8038 7.37104 15.7371 7.88307C15.7371 7.88307 16.1839 8.34295 16.5491 9.14976C15.0922 8.55792 13.4424 8.24934 13.4424 8.24934C13.6613 8.74039 13.8181 9.2663 13.9142 9.8133C13.9142 9.8133 15.7282 10.2575 17.0912 10.9123C17.2091 11.5599 17.2521 12.2293 17.2272 12.9067C15.6172 12.099 14.0193 11.5918 14.0193 11.5918C13.9871 12.29 13.8751 13.0135 13.6865 13.7528C13.6865 13.7528 15.8844 14.7348 16.8721 15.331C16.6541 16.204 16.3479 17.059 15.9799 17.8825C14.4756 16.9045 12.8833 16.035 12.8833 16.035C12.4834 16.9959 11.4995 18.5697 11.4995 18.5697L11.5006 18.5704C11.5253 18.5875 13.1627 19.7121 14.4188 20.7102C13.7949 21.6561 13.0913 22.5649 12.3255 23.4287C12.0613 23.1759 9.64753 21.0321 9.64753 21.0321C8.91908 21.8772 8.10766 22.7005 7.21976 23.4886L9.54709 26.124C9.54689 26.1238 9.5473 26.1243 9.54709 26.124C8.03765 27.3673 6.53345 28.3102 6.53345 28.3102L4.59183 25.5525C4.59183 25.5525 3.22569 26.5923 0.919434 27.6842V28.4835H8.49224C16.9444 22.0851 19.9438 12.9358 16.4763 8.18845ZM15.9394 28.4835C17.9129 26.2752 19.5945 23.6775 20.6047 20.8961C21.4811 18.483 21.9582 15.5358 21.182 12.9143C21.1301 12.7413 21.0716 12.5669 21.0037 12.3916C20.7556 11.7504 20.4338 11.1914 20.0839 10.7523C19.1402 9.69686 18.0714 8.75623 16.9002 7.95569C17.0723 8.17776 17.2296 8.40641 17.3658 8.63835C17.3658 8.63835 18.7918 9.69655 19.6196 10.7718C18.5577 10.0149 17.9564 9.70859 17.8785 9.66981C17.8755 9.66847 17.8723 9.66703 17.8694 9.66539C18.2729 10.6602 18.3941 11.4841 18.3944 11.4855C18.3944 11.4855 19.6545 12.1432 20.7888 13.126C20.9458 13.8528 21.0105 14.5973 21 15.3427C19.8568 14.3365 18.5336 13.5504 18.5336 13.5504C18.5094 14.4027 18.3916 15.2657 18.2045 16.1047C18.2045 16.1047 19.4538 16.8964 20.6712 18.006C20.6712 18.006 20.3218 19.5785 19.7577 20.8152C18.5894 19.727 17.4504 18.8804 17.3608 18.8141C17.3608 18.8141 16.7809 20.3271 15.8415 21.8457C17.011 22.8638 18.1102 23.919 18.1102 23.919C17.4387 24.9673 16.6788 25.9653 15.8591 26.8984L13.7667 24.8148C12.9168 25.8672 11.9848 26.8588 10.9952 27.7714C11.0421 27.8242 11.4639 28.2921 11.6365 28.4835H15.9394ZM19.6616 28.4835H20.7062C23.6797 24.0886 23.8292 20.1935 23.8292 19.4472C23.8292 18.0374 23.5924 16.7422 23.1969 15.7165C23.1969 15.7165 22.5798 14.1225 21.619 12.704C21.724 13.0209 21.9253 13.6635 22.0367 14.2376C22.0441 14.2758 22.0501 14.3095 22.0553 14.3409C22.2447 14.6567 23.0986 16.1628 23.2126 17.8187C23.2128 17.8218 23.2131 17.8239 23.2131 17.8239C23.2131 17.8239 22.6097 16.9786 22.1623 16.4443C22.1464 17.3547 22.0281 18.2655 21.8378 19.1455C21.8378 19.1455 22.7315 20.181 23.1315 20.8489C23.1315 20.8489 22.8593 22.3058 22.2765 23.7016C21.6833 22.8385 20.9256 22.0001 20.9256 22.0001C20.4822 23.0967 19.9209 24.1998 19.2977 25.22C19.2977 25.22 20.4302 26.5459 20.6788 26.9239C20.346 27.4841 20.0217 27.9718 19.6616 28.4835ZM21.6469 28.4835C22.1985 27.4501 22.8102 26.1653 23.2195 25.074C23.2198 25.0744 23.22 25.0751 23.2202 25.0757C23.2333 25.1106 23.4374 25.6503 23.5893 26.211C23.905 25.0948 24.1306 23.9342 24.2555 22.7396C24.2163 22.5847 24.1325 22.333 24.0852 22.1801C24.0852 22.1801 24.2868 21.1659 24.3668 20.0087C24.4756 20.8029 24.5321 21.61 24.5321 22.4258C24.5321 23.8392 24.3652 25.2264 24.0424 26.5659C23.8763 27.2261 23.6738 27.8753 23.454 28.4835H21.6469Z" fill="#10284B"></path><path d="M46.5522 14.7643V10.3352H49.1273V14.6348C49.1273 16.2888 49.913 16.9852 51.4251 16.9852C52.9372 16.9852 53.723 16.2888 53.723 14.6348V10.3352H56.298V14.7643C56.298 17.8589 54.7328 19.1934 51.4251 19.1934C48.1174 19.1934 46.5522 17.8589 46.5522 14.7643ZM67.8881 15.3875L63.0917 10.3352H60.5518V19.0161H62.9494V13.5137L68.1833 19.0161H70.2858V10.3352H67.8881V15.3875ZM74.7754 19.0172H77.3504V10.3352H74.7754V19.0172ZM106.684 10.3363H111.646C115.096 10.3363 116.678 11.8342 116.678 14.6772C116.678 17.5203 115.095 19.0182 111.646 19.0182H106.684V10.3352V10.3363ZM109.259 16.6816H111.551C113.228 16.6816 113.984 16.068 113.984 14.6762C113.984 13.2844 113.228 12.6708 111.551 12.6708H109.259V16.6816ZM96.8195 15.5977H102.171V13.7547H96.8195V12.4616H102.584V10.3352H94.2434V19.0161H102.631V16.8897H96.8185V15.5966L96.8195 15.5977ZM84.5094 12.6708V19.0161H87.0844V12.6708H90.4271V10.3352H81.1656V12.6708H84.5094Z" fill="#10284B"></path></svg>