<svg width="57" height="61" viewBox="0 0 57 61" fill="none" xmlns="http://www.w3.org/2000/svg"><title>University of Michigan logo</title><path d="M16.927 17.7302L28.3585 33.1891L39.8939 17.7302V28.9545H35.3213V40.0257H56.5215V28.9545H52.2607V11.7099H56.5215V0.638672H39.8939L28.4104 16.1996L16.9789 0.638672H0.351318V11.7099H4.61215V28.9545H0.351318V40.0257H21.4996V28.9545H16.927V17.7302Z" fill="#00274C"></path><path fill-rule="evenodd" clip-rule="evenodd" d="M45.194 59.9737V60.3818H48.8313V60.3767L51.6372 60.3308V59.9226C50.494 59.8206 50.3901 59.7696 50.3901 58.5961V54.7697L53.3519 58.392C53.5337 58.5961 53.7026 58.8002 53.8715 59.0042C54.0404 59.2083 54.2092 59.4124 54.3911 59.6165L55.0666 60.4328H55.5343L55.6382 54.7187C55.6382 53.4942 55.6902 53.3411 56.5215 53.3411V52.933H53.5078V53.3411C54.7029 53.3922 54.7548 53.4432 54.7548 54.6166V57.9329L52.6764 55.3819C51.5852 54.0044 51.4293 53.8003 50.8058 52.933H48.5195V53.3411C48.9352 53.3411 49.3509 53.5452 49.6107 53.8513C49.6107 54.6166 49.5587 59.0043 49.4548 59.5145C49.4075 59.8863 49.1876 59.9194 48.6774 59.9609C47.9854 59.8867 47.8756 59.6109 47.5842 58.8002L45.9214 53.7493C45.7579 53.3478 45.723 53.2306 45.6396 52.9503C45.617 52.8744 45.5909 52.7866 45.5577 52.6779C45.09 52.984 44.5704 53.1881 44.0508 53.3411L44.1547 53.4942L42.1282 59.0043C41.8165 59.7696 41.5567 59.9226 40.7772 59.9737V60.3818H43.8949V59.9737C43.4273 59.9737 42.8557 59.9226 42.8557 59.4124C42.8557 59.2594 42.9077 59.1063 42.9596 58.9533L43.1675 58.29H45.8175L46.0253 59.0553C46.0773 59.2084 46.1293 59.3614 46.1293 59.5145C46.1293 59.8879 45.7814 59.9197 45.3242 59.9614C45.2817 59.9653 45.2382 59.9693 45.194 59.9737ZM43.4792 57.4737L44.5704 54.4125L45.6096 57.4737H43.4792Z" fill="#00274C"></path><path d="M17.9662 60.5349C19.3172 60.5859 20.5643 59.8716 21.1878 58.6982L20.7721 58.29C20.3045 59.1063 19.4731 59.5655 18.5378 59.5655C16.7711 59.5655 15.8878 58.0349 15.8878 56.4023C15.8878 54.4636 16.979 53.3921 18.3299 53.3921C18.9015 53.3921 19.4731 53.6472 19.8888 54.1064C20.2525 54.4636 20.5643 54.9227 20.7202 55.4329L21.0839 55.3819L21.0319 53.1371L20.5123 53.5962C19.8368 53.035 18.9535 52.7289 18.0182 52.7289C15.4721 52.7289 14.225 54.7187 14.225 56.7084C14.225 58.9022 15.6799 60.5349 17.9662 60.5349Z" fill="#00274C"></path><path d="M21.7074 59.9737V60.3818H24.8771V59.9737L24.8668 59.9725C23.9414 59.8716 23.8898 59.866 23.8898 58.341V57.0145C24.5653 56.9635 25.0849 56.9635 25.7085 56.9635C26.0202 56.9635 26.293 56.9763 26.5658 56.989C26.8386 57.0018 27.1114 57.0145 27.4232 57.0145V59.4124C27.3233 59.9027 27.1755 59.9219 26.4727 60.0131C26.444 60.0168 26.4145 60.0207 26.384 60.0247V60.4328H29.6575V60.0247C29.0859 59.9737 28.8781 59.9226 28.8261 59.5145C28.7742 59.3104 28.7742 58.3921 28.7742 58.0859V54.9738C28.7742 54.1431 28.7742 53.7955 28.9478 53.6299C29.0728 53.5107 29.2878 53.4859 29.6575 53.4432V53.035H26.384V53.4432C27.4232 53.4942 27.4232 53.5452 27.4232 54.9227V56.1472C26.7997 56.1982 26.2801 56.1982 25.6566 56.1982C25.0332 56.1982 24.6172 56.1982 23.9418 56.1472V55.1268C23.8898 54.7187 23.9418 54.3105 23.9937 53.9023C24.0457 53.4942 24.3055 53.4432 24.929 53.3921V52.984H21.7074V53.3921C22.279 53.4432 22.4869 53.4942 22.5388 53.9534C22.5908 54.1574 22.5908 54.6166 22.5908 55.1268V59.0043C22.5908 59.7186 22.5908 59.9226 21.7074 59.9737Z" fill="#00274C"></path><path d="M30.2811 59.9737V60.4328H33.3987V60.0247C32.8272 59.9737 32.6193 59.8716 32.5674 59.4124C32.5154 59.1573 32.5154 58.341 32.5154 58.0859V55.0758C32.5154 54.1292 32.5154 53.7491 32.7048 53.5747C32.8318 53.4576 33.0441 53.4331 33.3987 53.3921V52.984H30.2811V53.3921C31.1644 53.4942 31.1644 53.5452 31.1644 55.0758V59.0043C31.1644 59.7696 31.0085 59.8716 30.2811 59.9737Z" fill="#00274C"></path><path d="M10.9514 59.9737V60.4328H14.0691V60.0247C13.4975 59.9737 13.2897 59.8716 13.2377 59.4124C13.1858 59.1573 13.1858 58.341 13.1858 58.0859V55.0758C13.1858 54.1292 13.1858 53.7491 13.3752 53.5747C13.5022 53.4576 13.7145 53.4331 14.0691 53.3921V52.984H10.9514V53.3921C11.8348 53.4942 11.8348 53.5452 11.8348 55.0758V59.0043C11.8348 59.7696 11.6789 59.8716 10.9514 59.9737Z" fill="#00274C"></path><path d="M6.89845 59.9737V60.3818L10.1201 60.4328V60.0247C9.54848 59.9737 9.34063 59.8716 9.28867 59.3104C9.23671 58.9022 9.23671 58.29 9.23671 57.7798V54.7187C9.18475 53.5452 9.23671 53.4432 10.1201 53.3921V52.933H7.83375L5.23568 58.5451L2.89742 52.933H0.559164V53.3411C1.23466 53.3922 1.39055 53.4432 1.39055 54.1574V55.0248L1.28662 58.137C1.28662 58.376 1.26879 58.6852 1.25402 58.9412C1.24358 59.1223 1.23466 59.2769 1.23466 59.3614C1.1827 59.8716 0.974855 59.9226 0.351318 59.9737V60.3818H2.89742V59.9737C2.118 59.9226 2.01408 59.7696 2.01408 59.0553L2.06604 54.7187L4.50823 60.4838H5.18372L7.83375 54.7697V58.4941C7.83375 59.8716 7.83375 59.9226 6.89845 59.9737Z" fill="#00274C"></path><path d="M41.089 57.4737V57.0655L38.1272 57.1166V57.5247C38.9586 57.5757 39.0625 57.6268 39.1145 58.5451C39.1664 58.8002 39.1145 59.0553 38.9586 59.2594C38.6468 59.6675 38.1792 59.8716 37.6596 59.8716C36.2046 59.8716 35.3213 58.3921 35.3213 56.7084C35.3213 54.5656 36.4125 53.4942 37.7115 53.4942C38.2831 53.4942 38.8027 53.6983 39.2184 54.0554C39.6341 54.4636 39.9459 54.9737 40.1537 55.535L40.4655 55.4839L40.4135 53.1371L39.9978 53.5962C39.2184 53.035 38.2831 52.7289 37.3478 52.7289C35.3213 52.7289 33.6585 54.2595 33.6585 56.6574C33.6585 58.5961 34.9056 60.5349 37.5037 60.5349C38.5429 60.5349 39.5821 60.2287 40.4135 59.6675V59.1063C40.4135 57.6778 40.4135 57.5247 41.089 57.4737Z" fill="#00274C"></path><path fill-rule="evenodd" clip-rule="evenodd" d="M50.2342 50.7391C51.5332 50.6371 52.5725 49.5147 52.4685 48.1882C52.4166 46.7596 51.2734 45.6372 49.9224 45.6372C48.5195 45.6372 47.3763 46.7596 47.3763 48.1371V48.3412C47.4283 49.7188 48.5714 50.7902 49.9744 50.7391H50.2342ZM50.9617 49.6677C50.7538 50.0249 50.3901 50.2289 49.9744 50.28C49.5587 50.28 49.195 50.0759 48.9871 49.6677C48.6234 49.2086 48.4675 48.5963 48.5195 48.0351C48.4675 47.4739 48.6754 46.9127 49.0391 46.4535L49.195 46.3004C49.7146 45.8923 50.3901 45.9943 50.8058 46.4535C51.1695 46.8617 51.3774 47.4229 51.3774 47.9841C51.4293 48.5963 51.2734 49.1575 50.9617 49.6677Z" fill="#00274C"></path><path d="M52.6764 50.6371V50.382C53.196 50.331 53.248 50.28 53.2999 49.7698V47.2188C53.2999 46.9637 53.2999 46.6576 53.248 46.3515C53.2001 46.1164 53.0639 46.0979 52.7581 46.0566C52.7321 46.053 52.7049 46.0493 52.6764 46.0453V45.8413H56.3137L56.4176 47.0147H56.1578C56.0539 46.2494 55.7421 46.2494 54.7548 46.2494H54.1833V47.9331H54.8588C55.4823 47.9331 55.5862 47.882 55.6382 47.3719H55.898V49.0045H55.6382C55.5862 48.4433 55.3264 48.3922 54.7548 48.3922H54.1833V49.7698C54.1833 50.28 54.2352 50.331 54.7548 50.382V50.6371H52.6764Z" fill="#00274C"></path><path d="M11.8867 50.331V50.6371H13.9132V50.382C13.4975 50.331 13.3936 50.28 13.3417 49.9738V47.1168C13.3417 46.0964 13.3417 46.0964 13.9652 45.9943V45.7392H11.8867V45.9943C12.1162 46.0353 12.2535 46.0598 12.3357 46.1405C12.4583 46.2608 12.4583 46.506 12.4583 47.1168V49.7187C12.4583 50.2289 12.3544 50.28 11.8867 50.331Z" fill="#00274C"></path><path d="M32.5674 50.331V50.6371H34.6458V50.382C34.2301 50.331 34.1262 50.28 34.0742 49.9738V47.1168C34.0742 46.4679 34.0742 46.212 34.2012 46.0997C34.2839 46.0266 34.4204 46.0145 34.6458 45.9943V45.7392H32.5674V45.9943C32.7968 46.0353 32.9341 46.0598 33.0164 46.1405C33.1389 46.2608 33.1389 46.506 33.1389 47.1168V49.7187C33.1389 50.2289 33.035 50.28 32.5674 50.331Z" fill="#00274C"></path><path d="M6.11903 50.331V50.5861L8.14552 50.6371V50.382L8.12637 50.3795C7.36525 50.2799 7.31414 50.2732 7.31414 49.4636V46.9127L9.28867 49.3106C9.3926 49.4382 9.50953 49.5785 9.62646 49.7188C9.74336 49.8591 9.86026 49.9994 9.96417 50.1269L10.4318 50.6371H10.7436V46.9127C10.7955 46.0964 10.8475 45.9943 11.3671 45.9943V45.7392H9.39259V45.9943C10.224 46.0454 10.224 46.0964 10.224 46.8617V49.0555L8.82102 47.3719C8.20476 46.5939 8.03598 46.3651 7.74606 45.9722C7.69374 45.9013 7.63749 45.825 7.57395 45.7392H6.11903V45.9943C6.4308 45.9943 6.6906 46.0964 6.84649 46.3004C6.84649 46.8106 6.79452 49.7698 6.74256 50.0249C6.6906 50.28 6.53472 50.331 6.11903 50.331Z" fill="#00274C"></path><path d="M28.982 49.0045L28.7222 49.0555L28.7742 49.9738L29.1899 50.28C29.6056 50.5351 30.0212 50.6881 30.4889 50.6881H30.5409C31.4762 50.7391 32.2036 50.0249 32.2556 49.1575C32.2556 48.6473 31.9958 48.1882 31.5281 47.9331C31.2683 47.78 31.0605 47.678 30.8007 47.627C30.2291 47.4229 29.6575 47.2188 29.6575 46.6576C29.6575 46.2494 29.9693 45.9943 30.4889 45.9943C30.8526 45.9943 31.2164 46.1474 31.4242 46.4535C31.632 46.6576 31.736 46.9127 31.7879 47.1678L32.0477 47.1168L31.8919 45.6882L31.5801 45.8923C31.2164 45.6372 30.8526 45.5352 30.4369 45.5352H30.2811C29.5016 45.5352 28.8261 46.1474 28.8261 46.9637C28.8781 47.678 29.3457 48.2392 30.0212 48.3922C30.2291 48.4433 30.385 48.4943 30.6448 48.5963C30.9046 48.6984 31.4242 48.9024 31.4242 49.4636C31.4242 50.0249 30.9566 50.2289 30.4369 50.2289C29.7095 50.2289 29.2418 49.8208 28.982 49.0045Z" fill="#00274C"></path><path d="M36.4125 50.382V50.5861H38.439V50.382C37.9713 50.382 37.8674 50.2289 37.8674 49.8208V46.1984H38.4909C39.0625 46.1984 39.4263 46.1984 39.4782 47.0657H39.738L39.6861 45.6882H35.1654L35.1135 47.0657H35.3733C35.4252 46.1984 35.789 46.1984 36.3605 46.1984H36.9841V49.8208C36.9841 50.2289 36.8801 50.382 36.4125 50.382Z" fill="#00274C"></path><path d="M2.53369 45.9433V45.6882H0.40328V45.9433C0.767009 45.9943 0.922893 46.0453 0.974854 46.3515V48.3412C0.974854 49.1575 0.974855 49.8718 1.70231 50.382C2.06604 50.6371 2.53369 50.7391 3.00135 50.7391C3.93665 50.7902 4.71607 50.2289 4.97588 49.3616C4.98172 49.3157 4.98757 49.2704 4.99334 49.2257C5.03888 48.8731 5.0798 48.5561 5.0798 48.2392C5.0798 48.1196 5.09763 47.5974 5.1124 47.1648C5.12285 46.8589 5.13176 46.5978 5.13176 46.5555C5.13176 46.0964 5.23568 45.9943 5.70334 45.9943V45.7392H3.83273V45.9943C3.85454 45.9967 3.87579 45.999 3.89648 46.0012C4.31943 46.0464 4.51065 46.0668 4.56019 46.5045V47.4229C4.56019 48.0351 4.50823 48.6984 4.4043 49.3106C4.24842 49.8718 3.72881 50.28 3.10527 50.2289C2.74154 50.2289 2.37781 50.0759 2.16997 49.8208C1.91016 49.3106 1.80624 48.8004 1.8582 48.2392V47.0657L1.85884 47.053C1.91017 46.0449 1.91276 45.9941 2.53369 45.9433Z" fill="#00274C"></path><path d="M19.4211 45.9433V45.6882L17.6544 45.7392V45.9943C17.9662 45.9943 18.3299 45.9943 18.3299 46.3515C18.304 46.428 18.278 46.5173 18.252 46.6066C18.226 46.6958 18.2 46.7851 18.1741 46.8617L17.1348 49.4126L16.2515 46.9127C16.2363 46.8532 16.2168 46.7894 16.1967 46.7237C16.1478 46.5642 16.0956 46.394 16.0956 46.2494C16.0956 45.9943 16.3554 45.9433 16.7711 45.9433V45.6882H14.4328V45.9433C14.9124 46.0375 14.9494 46.1317 15.2382 46.8676C15.2623 46.929 15.2882 46.995 15.3162 47.0657L16.7191 50.6881H16.9789L18.4858 47.1168C18.8496 46.1474 18.9535 45.9943 19.4211 45.9433Z" fill="#00274C"></path><path d="M41.5047 50.331V50.5861H43.9469V50.331C43.2194 50.28 43.2194 50.1779 43.2194 49.3106V48.2902L43.9988 47.0147C44.5185 46.0964 44.6743 45.9433 45.194 45.9433V45.6882H43.2194V45.9433C43.5832 45.9433 43.791 45.9433 43.791 46.1984C43.739 46.4025 43.6871 46.5555 43.5832 46.7086L42.8557 47.9331L42.0763 46.7086C41.9724 46.5555 41.9204 46.4025 41.8684 46.1984C41.8684 45.9943 42.1282 45.9433 42.6479 45.9433V45.6882H40.0498V45.9433C40.4839 45.9433 40.515 45.9873 40.8083 46.4018C40.8309 46.4338 40.8551 46.468 40.8812 46.5045L42.2322 48.5453V49.4126C42.2322 49.9228 42.2322 50.0759 42.1282 50.1779C42.0434 50.2612 41.9239 50.2765 41.6849 50.3071C41.6312 50.314 41.5714 50.3216 41.5047 50.331Z" fill="#00274C"></path><path d="M23.5261 49.3106C23.4741 49.6677 23.4222 50.2289 23.4222 50.5861L19.629 50.484V50.2289C20.0966 50.1779 20.2006 50.1269 20.2006 49.6167V47.0147C20.2006 46.7596 20.2006 46.4535 20.1486 46.1474C20.1007 45.9123 19.9645 45.8939 19.6588 45.8525C19.6328 45.849 19.6055 45.8453 19.577 45.8413V45.5862H23.1623L23.2143 46.7596H22.9545C22.8506 46.0964 22.5388 46.0453 21.7074 46.0453H21.0839V47.78H21.6035C22.227 47.78 22.331 47.627 22.3829 47.2188H22.6427V48.8514H22.3829C22.3829 48.2902 22.227 48.2392 21.6035 48.2392H21.0839V49.6167C21.0839 49.9738 21.1359 50.1269 21.8633 50.1269C21.9022 50.1269 21.9405 50.127 21.9782 50.1272C22.6453 50.1297 23.1187 50.1315 23.2663 49.3106H23.5261Z" fill="#00274C"></path><path fill-rule="evenodd" clip-rule="evenodd" d="M26.1241 50.331C25.5006 50.331 25.5006 50.1779 25.5006 49.0555L25.4486 48.3412C25.4929 48.3461 25.534 48.35 25.5722 48.3536C25.9379 48.3885 26.0497 48.3992 26.332 48.9535L26.6438 49.5147C27.0075 50.331 27.4232 50.6371 28.3585 50.6371H28.6703V50.484C28.2546 50.433 28.0987 50.28 27.7869 49.7187L26.9036 48.1882C27.4751 48.0351 27.8908 47.5249 27.8908 46.9127C27.8908 46.2494 27.5271 45.6882 26.28 45.6882H24.0457V45.9433C24.4614 45.9943 24.5653 46.0453 24.6173 46.3004C24.6692 46.6576 24.6692 46.9637 24.6692 47.2698V49.6677C24.6173 50.2289 24.5653 50.28 24.0457 50.331V50.5861H26.1241V50.331ZM25.9683 48.0351C25.8124 48.0351 25.6565 48.0351 25.5006 47.9841V46.1474H25.8124C26.7477 46.1474 27.0595 46.6576 27.0075 47.2188C26.9036 47.729 26.4879 48.0861 25.9683 48.0351Z" fill="#00274C"></path></svg>