<svg width="125" height="33" viewBox="0 0 125 33" fill="none" xmlns="http://www.w3.org/2000/svg"><title>US Bank logo</title><path fill-rule="evenodd" clip-rule="evenodd" d="M0 25.2429V0.987305H41.0608V25.2429L20.5584 32.1891L0 25.2429ZM14.2284 24.4583H20.5023V7.37294H14.0043V16.3918C14.0043 19.1366 12.5478 19.6968 11.4275 19.6968C9.52288 19.6968 9.29881 18.2964 9.29881 16.3357V7.37294H2.80078V19.0806C2.80078 23.0018 5.54564 24.8504 8.6266 24.8504C11.2034 24.8504 12.94 24.0101 14.1723 22.2736H14.2284V24.4583ZM31.8739 11.0701C32.322 11.3502 32.6021 11.7983 32.6581 12.3585V12.3025H38.596C38.4279 7.93312 34.0025 6.9248 30.3054 6.9248C26.8883 6.9248 22.2389 8.04515 22.2389 12.3585C22.2389 15.3274 24.1995 16.8959 29.185 17.7362C32.21 18.2403 32.7701 18.5204 32.7701 19.5287C32.7701 20.481 31.4257 20.8171 30.5855 20.8171C29.8012 20.8171 29.185 20.5931 28.8489 20.313C28.3448 19.8648 28.1207 19.4167 28.0647 18.8005H21.8467C21.9588 23.1699 26.3281 24.7944 30.3614 24.7944C34.5067 24.7944 39.0441 23.562 39.0441 18.8005C39.0441 15.9996 37.1395 14.7112 34.9548 14.039C33.8377 13.6953 32.6472 13.4834 31.6083 13.2984C30.6155 13.1217 29.7611 12.9696 29.241 12.7506C28.8489 12.5826 28.4568 12.3585 28.4568 11.8543C28.4568 10.79 29.5211 10.5659 30.4174 10.5659C30.9776 10.5659 31.4817 10.734 31.8739 11.0701Z" fill="#10284B"></path><path d="M43.4141 0.987305H49.9121V9.27789H49.9681C50.9764 7.82144 52.713 6.98118 54.6176 6.98118C60.3314 6.98118 61.8998 11.8547 61.8998 15.8319C61.8998 20.0893 59.5471 24.8508 54.7296 24.8508C51.5366 24.8508 50.5283 23.6184 49.744 22.554H49.688V24.4026H43.4141V0.987305ZM52.5449 11.6866C50.1922 11.6866 49.688 13.8713 49.688 15.888C49.688 17.9046 50.1922 20.1453 52.5449 20.1453C54.8976 20.1453 55.4018 17.9606 55.4018 15.888C55.4018 13.9273 54.8416 11.6866 52.5449 11.6866ZM80.0495 20.6494C80.0495 21.9379 80.1055 23.3943 80.8338 24.4586H74.1677C73.9996 24.0105 73.8876 23.2823 73.9436 22.8341H73.8876C72.4872 24.4026 70.5265 24.8508 68.3979 24.8508C65.0928 24.8508 62.404 23.2823 62.404 19.6972C62.404 14.3195 68.734 14.4875 72.039 13.8713C72.9353 13.7033 73.8316 13.4232 73.8316 12.3589C73.8316 11.1825 72.7672 10.7904 71.7029 10.7904C69.6863 10.7904 69.2942 11.7987 69.2942 12.5269H63.2443C63.4683 7.7094 68.0058 6.92516 72.039 6.92516C80.2176 6.92516 80.1055 10.2862 80.1055 13.5912V20.6494H80.0495ZM73.8316 16.7842C73.0473 17.1764 72.151 17.4004 71.2548 17.6245C69.7983 17.9606 69.0701 18.2967 69.0701 19.4731C69.0701 20.2573 69.9103 21.0416 71.0867 21.0416C72.5432 21.0416 73.7195 20.1453 73.8316 18.3527V16.7842ZM82.4022 7.3733H88.6762V9.55798H88.7322C89.9646 7.82144 91.7011 6.98118 94.278 6.98118C97.3589 6.98118 100.16 8.82976 100.16 12.751V24.4586H93.6057V15.4958C93.6057 13.5352 93.3817 12.1348 91.4771 12.1348C90.3567 12.1348 88.9003 12.695 88.9003 15.4398V24.4586H82.4022V7.3733ZM108.955 0.987305V12.3028L113.1 7.3733H120.438L114.332 13.8153L121.39 24.4586H113.548L110.075 18.2967L108.899 19.5291V24.4586H102.4V0.987305H108.955ZM124.303 22.1059C124.527 22.33 124.695 22.6661 124.695 23.0022C124.695 23.3383 124.583 23.6744 124.303 23.8985C124.079 24.1225 123.743 24.2906 123.407 24.2906C123.071 24.2906 122.735 24.1786 122.511 23.8985C122.287 23.6744 122.119 23.3383 122.119 23.0022C122.119 22.6661 122.231 22.33 122.511 22.1059C122.735 21.8818 123.071 21.7138 123.407 21.7138C123.743 21.7698 124.079 21.8818 124.303 22.1059ZM124.471 21.9939C124.191 21.7138 123.855 21.5457 123.407 21.5457C123.015 21.5457 122.679 21.7138 122.343 21.9939C122.063 22.274 121.895 22.6101 121.895 23.0582C121.895 23.4503 122.063 23.8424 122.343 24.1225C122.623 24.4026 122.959 24.5707 123.407 24.5707C123.799 24.5707 124.135 24.4026 124.471 24.1225C124.751 23.8424 124.92 23.5063 124.92 23.0582C124.864 22.6101 124.751 22.274 124.471 21.9939ZM123.631 22.9462C123.575 22.9462 123.463 23.0022 123.351 23.0022H123.071V22.442H123.295C123.463 22.442 123.575 22.442 123.631 22.498C123.687 22.554 123.743 22.6101 123.743 22.7221C123.799 22.8341 123.743 22.8902 123.631 22.9462ZM122.791 23.8424H123.071V23.2263H123.295C123.463 23.2263 123.575 23.2263 123.631 23.2823C123.743 23.3383 123.799 23.4503 123.799 23.6744V23.8424H124.079V23.5063C124.079 23.4503 124.023 23.3383 123.967 23.2823C123.911 23.1702 123.799 23.1702 123.687 23.1142C123.799 23.1142 123.855 23.0582 123.911 23.0582C124.023 23.0022 124.079 22.8902 124.079 22.7221C124.079 22.498 124.023 22.386 123.855 22.33C123.743 22.274 123.631 22.274 123.407 22.274H122.847V23.8424H122.791Z" fill="#10284B"></path></svg>