<svg xmlns="http://www.w3.org/2000/svg" viewBox="0 0 142 166" fill="none">
                  <path d="M1.37564 9.68387C0.459222 10.5652 2.05142 9.43887 0.860104 10.3354C0.848674 10.1283 0.970915 9.84467 1.37564 9.68387Z" fill="#FEDB63"/>
                  <path d="M130.347 152.035C129.779 147.982 130.589 142.676 129.727 138.293C129.631 137.813 130.215 138.404 130.013 137.238C129.75 136.214 129.544 134.98 129.334 133.676C129.124 132.372 128.979 130.995 128.762 129.553C128.544 128.112 128.395 126.666 128.182 125.293C128.075 124.607 127.964 123.851 127.926 123.161C127.819 122.475 127.713 121.788 127.61 121.171L127.831 121.435C127.709 120.473 127.026 119.334 126.766 118.379C126.835 118.375 126.987 118.644 127.045 118.433C126.69 118.245 126.392 116.599 126.098 116.27C126.075 115.855 126.281 115.844 126.251 115.292L125.812 114.831C125.224 114.172 124.961 113.148 124.629 112.127C124.297 111.107 124.026 109.945 123.488 108.937C123.56 109.002 123.709 109.201 123.698 108.994C121.999 105.696 120.251 101.5 118.262 97.9403C118.407 98.0708 118.682 98.0556 118.671 97.8485C118.323 97.7985 117.644 96.7283 117.109 95.7885C117.148 95.2326 115.922 94.2617 115.514 93.1073L115.655 93.1688C114.93 92.5165 115.102 91.8839 114.384 91.3697L114.281 90.7523C113.655 90.6484 113.796 89.4637 113.147 88.9456L113.082 89.0184C112.571 88.4928 112.544 88.0097 112.17 87.4765L112.166 87.4075C111.2 86.1454 110.876 85.2633 110.612 85.4855C110.509 84.8681 111.574 86.6786 111.452 85.7161C108.189 81.5346 104.852 77.288 101.256 73.3326C100.951 72.7956 100.726 72.4619 100.718 72.3238C100.355 71.9977 99.2635 70.9503 98.8359 70.697C98.981 70.8274 98.7481 70.3556 98.5267 70.0909C97.9312 69.293 97.5341 69.5919 96.8698 68.7978C97.2249 68.9859 97.4349 69.0435 97.4234 68.8364C96.5721 68.3988 95.6979 67.547 94.9039 66.8986C95.0451 66.96 95.2589 67.0867 95.3238 67.0138C94.2587 66.4496 93.7968 65.5751 92.8691 65.0032L93.2891 65.1185C92.1859 63.8639 92.6668 65.0836 91.6475 64.1014C91.9338 64.2933 91.9262 64.1552 91.9911 64.0824C90.7198 63.5295 89.1203 62.0255 87.9826 61.3959C88.0514 61.3922 88.0513 61.3922 88.0513 61.3922C87.4787 61.0084 86.8984 60.4866 86.2533 60.0376C85.6768 59.5848 84.963 59.1395 84.3216 58.7596C83.8864 58.3682 84.7874 58.4569 83.4321 57.6317C83.245 57.9882 81.1568 56.3727 81.6874 57.2434C81.1834 56.8558 80.4657 56.3416 79.8206 55.8926C79.1754 55.4436 78.534 55.0636 78.1141 54.9483C78.6753 55.125 77.7973 54.2043 78.7899 54.7033L78.202 54.0435C78.4044 53.9631 78.9159 54.4887 78.7632 54.2202C78.2669 53.9707 76.8506 53.2873 76.423 53.034C75.4418 52.742 74.4072 52.7298 72.9259 52.1193C73.6933 52.2846 72.7542 51.5057 73.2467 51.6862C72.4831 51.5899 71.6508 51.4974 70.891 51.4701C70.3985 51.2896 70.9407 51.1212 70.1695 50.8868C70.1771 51.0249 69.8259 50.9058 69.551 50.921C69.4059 50.7905 67.4436 50.2065 67.352 49.7962C67.2031 49.5967 68.1919 50.0268 67.6918 49.7082C66.7794 49.4124 66.6457 49.489 65.7333 49.1932L65.7295 49.1242C65.0957 48.8823 63.8473 48.7435 64.4199 49.1273C64.8399 49.2426 64.336 48.855 64.9048 49.1697C64.4276 49.2653 63.3127 49.0499 62.3354 48.827C62.679 48.808 62.6752 48.739 62.8088 48.6624C61.4306 48.6692 60.0447 48.538 58.5939 48.4796C58.5366 48.6905 59.1972 48.1694 59.4109 48.2961C57.5899 47.7735 55.551 48.3015 54.0163 47.9708C54.2911 47.9556 54.169 48.2393 54.1652 48.1703C53.268 48.1506 53.3253 47.9397 52.7106 48.0429C52.6304 47.8396 51.9584 48.1536 51.4125 48.253C51.1452 48.4062 51.2712 48.1916 51.7485 48.096C51.3399 48.1878 50.3205 48.4517 49.1636 48.7233C48.0068 48.9949 46.785 49.3392 45.8305 49.5304C45.903 49.5956 44.8378 50.2775 44.4331 50.4383L44.4865 50.1584C44.0742 50.1812 43.1426 50.7865 42.9975 50.656C42.673 51.0201 43.4023 50.4952 44.2079 50.1046C44.9448 49.7177 45.7504 49.3271 45.1509 49.7064C44.731 49.5911 43.6924 50.7561 43.8069 50.3344C43.4022 50.4952 43.0739 50.7903 42.673 51.0201C42.2721 51.2499 41.9399 51.4759 41.5314 51.5677C41.7338 51.4873 41.9781 50.92 41.3787 51.2992C40.3134 51.9811 41.119 51.5905 40.3248 52.1882L39.8667 52.6289C39.9468 52.8321 38.9388 53.3032 39.4848 53.2038C39.2061 53.15 38.1751 54.453 38.0148 54.0465L37.927 53.7052C37.5338 54.0731 37.4917 54.56 37.3084 54.9855C37.2397 54.9893 37.106 55.0659 37.1022 54.9969C37.4 55.3958 36.1896 55.9473 36.0941 56.7141C35.2426 57.5226 34.5018 59.0866 34.036 59.3893C33.8068 60.2327 33.6426 61.0033 33.211 61.9272C33.2683 61.7163 33.3218 61.4364 33.2493 61.3712C32.9323 61.8733 32.9438 62.0804 32.9055 62.6363C32.9017 62.5673 32.7108 62.8548 32.5237 63.2113C32.3366 63.5678 32.157 64.0623 31.9699 64.4188C31.9507 65.3198 32.2791 65.0248 32.4242 65.1553C32.0996 65.5193 32.1339 66.1405 32.1682 66.7617C32.2025 67.3829 32.3742 67.9965 32.126 68.4948C32.0421 68.2225 31.8513 67.2638 31.7519 67.9616C31.6259 68.1763 31.6373 68.3833 31.6487 68.5904C31.6602 68.7975 31.7404 69.0007 31.8205 69.204C31.9007 69.4073 31.9846 69.6796 32.0685 69.9519C32.1525 70.2242 32.2365 70.4964 32.2518 70.7725L32.5763 70.4085C32.4044 71.041 33.29 72.0998 32.809 72.1264C33.0342 72.4601 33.2326 73.5569 33.4923 73.2656C33.5877 73.745 33.893 74.282 34.1258 74.7537C34.4274 75.2217 34.7328 75.7587 35.168 76.1501C35.3856 76.3458 35.5383 76.6143 35.6872 76.8137C35.9048 77.0094 36.0536 77.2089 36.2025 77.4084C36.5003 77.8073 36.7942 78.1373 36.882 78.4786C37.0232 78.54 37.2408 78.7357 37.3821 78.7971C37.5959 78.9238 37.7371 78.9852 37.7295 78.8472C37.4279 78.3792 37.0919 78.5362 37.0118 78.3329C37.2256 78.4596 37.363 78.452 37.363 78.452C37.802 78.9124 38.2296 79.1657 37.5386 79.1346C38.0501 79.6602 38.4663 79.7065 38.9512 79.749C39.1611 79.8066 39.436 79.7914 39.646 79.8491C39.9247 79.9029 40.2072 80.0258 40.6309 80.2101C40.4973 80.2867 40.5775 80.49 41.0662 80.6015L42.1046 80.6826C43.1545 80.9708 42.6849 81.2044 42.6314 81.4843C43.2575 81.5882 44.0211 81.6845 44.3571 81.5275C44.5747 81.7232 44.8534 81.777 45.0672 81.9037C44.5021 81.658 45.6093 81.7353 45.8804 81.6511C45.8116 81.6549 45.6781 81.7315 45.6094 81.7353C45.7544 81.8658 46.434 81.6898 46.7776 81.6708C46.6975 81.4675 45.9415 81.5093 45.5253 81.463C45.8651 81.375 46.3424 81.2794 46.6784 81.1224C46.56 81.4751 47.6443 81.1383 48.1216 81.0428C48.6675 80.9434 48.6485 80.5983 48.7859 80.5907C48.7898 80.6597 49.0608 80.5755 49.1983 80.5679C49.3319 80.4913 49.4694 80.4837 49.3434 80.6984C49.2097 80.775 48.8623 80.7249 48.6676 80.9434C49.0112 80.9244 49.0951 81.1967 49.7595 80.7447C50.2215 80.373 49.393 80.3495 50.4086 80.0165C50.2139 80.2349 50.2177 80.304 50.023 80.5224C50.3628 80.4344 50.6987 80.2774 50.966 80.1242L50.8858 79.9209C51.0233 79.9133 50.9584 79.9862 51.0271 79.9824C51.0844 79.7715 51.4166 79.5455 51.6801 79.3232C51.9435 79.101 52.2031 78.8097 52.2604 78.5989C52.459 78.4495 52.6575 78.3 52.9248 78.1468C53.1233 77.9974 53.3906 77.8442 53.5891 77.6948L53.5242 77.7676C54.055 77.3921 54.5018 76.7444 54.6775 76.1808L54.6813 76.2498C54.8722 75.9624 55.3189 75.3146 55.4335 74.8929C56.0177 74.2376 56.4109 75.1159 56.6325 74.1344C57.0716 73.3486 56.8961 72.666 56.5677 72.961C57.4574 71.5965 57.7019 69.783 58.5267 68.4913C58.5115 68.2152 58.3817 68.3608 58.4924 67.8701C59.2639 65.6121 59.4627 62.9703 60.2571 61.1265C60.2264 61.8205 60.467 61.1841 60.6083 61.2455C60.5053 60.6281 60.9177 60.6054 60.6275 60.3445C60.4214 60.3558 60.2801 60.2944 60.1082 60.927C60.2382 59.5352 60.4637 57.3765 60.7654 56.5983C60.647 56.951 60.563 56.6787 60.544 56.3336C60.8952 56.4527 61.0442 55.406 60.9297 54.5815L60.716 54.4549L60.9642 53.9566C60.8765 53.6153 60.529 53.5652 60.762 52.7908C60.8307 52.787 60.9643 52.7104 61.0254 52.5685C60.8423 51.7479 60.5713 50.5859 60.7967 49.6734C60.9227 49.4588 60.9762 49.1789 61.1022 48.9643C61.0794 48.5501 60.8389 47.9403 60.8083 48.6343C60.9993 47.1007 60.946 46.1344 61.1942 45.6361C60.3622 43.0512 59.9464 39.2664 59.5039 36.2446L59.6452 36.3061C59.6682 35.474 59.2787 35.9109 59.317 35.3549C59.5384 35.6197 59.5537 34.6496 59.8629 35.2556C59.7981 34.0822 59.3018 33.8327 59.0537 33.0848C58.8438 33.0272 59.2904 33.6256 59.0117 33.5718C58.9354 33.4375 58.8516 31.9191 58.4354 31.8728C58.4889 31.5929 58.7714 31.7158 58.9164 31.8462L58.6034 31.1712C58.7563 30.1935 59.7372 32.9779 59.9549 31.9274L59.7832 31.3138C59.9513 30.6122 60.5618 32.9324 60.2642 31.2872C59.9512 30.6122 59.3023 30.0942 59.3404 30.7844C58.8481 29.3577 58.4165 30.2815 57.9891 28.782C58.0311 28.2951 58.4013 30.0054 58.5884 29.6489C58.6114 28.8169 58.0273 28.2261 57.9205 27.5396C58.0311 28.2951 57.5195 27.7695 57.2905 27.3667C57.1761 26.5423 57.7258 27.7581 57.3899 26.6689C57.1761 26.5422 56.6417 25.6025 56.8287 26.4922C56.3324 26.2427 56.489 25.334 55.9813 24.8774C56.0921 24.3867 57.0616 25.7178 56.7182 24.4906C56.5272 24.778 55.7524 23.2285 55.6569 23.9953C55.5615 23.516 55.6913 23.3703 56.0501 23.6274C55.9395 22.872 54.8744 22.3077 55.2638 21.8708L54.9126 21.7518C54.9012 21.5447 54.8134 21.2034 54.7905 20.7892C54.5539 20.2485 53.4659 19.27 53.8707 19.1092C53.7256 18.9788 52.9697 17.7743 53.004 18.3955C53.3246 19.2086 53.7332 19.1168 53.63 19.7456C53.5919 19.0554 52.9506 18.6754 52.5879 18.3493L52.7177 18.2036C52.5001 18.008 52.1222 17.4057 51.9122 17.3481C52.126 17.4748 52.1184 17.3367 52.0345 17.0644L51.6145 16.9491C50.8052 16.0246 51.794 16.4546 51.0572 15.5953L51.7787 16.1785C51.6337 16.0481 51.5383 15.5687 51.1718 15.1736C50.8244 15.1235 50.4044 15.0082 50.1295 15.0234C49.6256 14.6358 50.1067 14.6093 49.5379 14.2945L50.3205 14.7359C50.4617 14.7974 50.2136 14.0495 49.6257 13.3896C49.1944 13.0673 48.2743 12.6335 48.866 13.3624C48.5721 13.0324 48.1979 12.4992 48.6179 12.6145C47.8238 11.966 48.5644 12.8944 47.8467 12.3801C47.6902 12.0426 47.0184 11.1105 46.6405 10.5083C46.9917 10.6273 47.2704 10.6812 47.6217 10.8002C47.4766 10.6698 47.3316 10.5393 47.1865 10.4089C48.0264 10.6394 47.0224 9.93332 47.576 9.97199C47.282 9.64206 46.7857 9.39253 46.4307 9.20443C46.7399 9.81045 46.3886 9.69138 45.8999 9.57989C45.4112 9.4684 44.85 9.29169 44.8653 9.56777C44.1514 9.12256 44.1323 8.77745 44.0446 8.43614C43.9568 8.09483 43.8041 7.82633 42.8305 7.67238C42.9832 7.94088 42.1471 7.77934 43.071 8.28219C42.212 7.70652 42.2463 8.32771 41.3072 7.54878C42.1509 7.84836 40.7041 6.61283 41.9678 7.02769C41.8341 7.1043 42.5442 7.48049 42.7542 7.53813C42.4564 7.13918 43.0788 7.17405 42.1511 6.60218C41.5823 6.28742 40.7347 5.91882 40.75 6.1949C40.6278 6.47858 41.6701 6.62873 41.1203 6.65908C39.9215 6.17141 39.8948 5.68826 39.219 5.93326C39.994 6.23664 40.013 6.58174 39.9519 6.72358C39.6694 6.60071 39.3908 6.54686 39.0395 6.42779L39.3106 6.3436C38.0278 5.58363 38.7646 6.44297 37.4895 5.82104L36.6878 5.03451C36.8902 4.95411 37.3865 5.20364 37.8064 5.31892C38.2302 5.50322 38.5852 5.69132 38.5662 5.34621C37.7148 4.90859 37.3102 5.06939 36.5276 4.62797C36.7375 4.68561 37.0162 4.73946 37.1574 4.80089C36.8749 4.67803 36.7605 3.85356 35.3097 3.79519C34.6149 3.69508 35.1073 3.87559 34.9813 4.09024C33.5115 3.68676 33.0343 3.78234 32.0607 3.62838C32.3166 3.2681 30.3847 3.23629 31.5491 3.10277C31.7667 3.29845 32.3967 3.47137 33.0916 3.57148C33.7215 3.7444 34.4164 3.8445 34.7562 3.75651C34.3783 3.15429 35.8823 4.17897 36.3482 3.87633C35.1532 3.45767 35.3403 3.10118 35.2526 2.75987C34.9013 2.64079 34.5578 2.65976 34.3516 2.67114C34.1568 2.88959 34.5768 3.00487 34.5233 3.28475C33.1871 2.80466 31.8699 2.66967 31.0491 2.78422C30.6253 2.59992 30.8162 2.31245 31.3736 2.42014C29.709 2.23511 27.972 1.98484 26.3799 1.86503C26.8762 2.11456 26.4638 2.13733 25.9789 2.09486C25.4979 2.12142 25.0168 2.14797 25.3031 2.33986C26.1354 2.43238 26.8455 2.80857 26.3721 2.97317C25.8872 2.9307 26.3607 2.7661 26.1507 2.70846C25.4749 2.95346 25.097 2.35124 24.4976 2.73049C26.0056 2.57801 24.8107 2.15935 25.0704 1.86809C23.9784 2.06683 25.1238 1.58821 24.0243 1.64891C22.9323 1.84765 21.638 2.1268 20.4124 2.40215C18.8204 2.28234 16.5944 3.16676 15.3078 3.58395C14.5518 3.62568 14.9375 3.11977 14.1205 3.30334C13.2423 3.62874 14.8878 3.46867 13.5248 3.75161L13.5859 3.60977C13.3873 3.7592 12.7726 3.86236 12.2343 4.09977C11.6272 4.34098 11.0927 4.64741 11.0431 4.99631L11.2187 4.43276C10.9476 4.51696 10.8178 4.66259 10.6192 4.81201C10.5429 4.67777 10.1993 4.69673 10.6002 4.46691C10.1191 4.49346 9.71827 4.72329 9.38609 4.94932C8.98518 5.17915 8.65676 5.4742 8.25585 5.70403C8.46202 5.69265 8.66821 5.68126 8.87437 5.66988C8.21001 6.12195 7.6755 6.42838 7.07224 6.73861C6.5377 7.04504 5.93445 7.35527 5.34262 7.87256L5.2624 7.6693L4.60947 8.32843C4.65914 7.97953 3.85352 8.37016 3.6053 8.86848C4.12079 8.21694 4.63629 7.5654 5.15559 6.98288C5.76267 6.74167 4.70883 7.63062 5.18989 7.60407C5.60222 7.58131 6.72861 6.75758 6.77828 6.40868C6.30865 6.6423 6.3125 6.71132 5.98794 7.07539C5.63289 6.8873 6.36591 6.43144 6.54922 6.00593C6.28195 6.15915 5.94602 6.31616 5.95364 6.4542C6.34312 6.01731 6.80894 5.71467 7.60694 5.186C7.14874 5.62668 8.01922 5.16324 7.82448 5.38168C7.73671 5.04037 8.46978 4.58451 9.54648 4.10969C10.0275 4.08313 10.4972 3.84951 11.0279 3.47405C11.5625 3.16762 12.1619 2.78837 12.7728 2.61618C12.3871 3.12209 11.7915 3.57036 11.1271 4.02243C11.9442 3.83886 12.0053 3.69703 12.8223 3.51346C13.1469 3.14938 13.2614 2.72767 14.2694 2.25664L14.4184 2.45611C15.3614 2.05789 15.2736 1.71658 16.4992 1.44123C18.6831 1.04375 20.8708 0.715285 22.5889 0.620443L22.669 0.823714C23.5357 0.291247 25.7539 0.514954 26.9909 0.446668C29.0755 0.746985 31.6983 0.80989 32.6298 1.45079C34.512 1.83151 36.188 2.22361 37.8793 2.89179C39.5667 3.49096 41.1969 4.30098 42.9072 5.31427L42.1474 5.28698C42.8461 5.45611 42.4451 5.68594 43.0827 5.9969C42.7887 5.66697 43.0674 5.72081 43.4187 5.83989C43.7699 5.95896 44.2663 6.20849 44.545 6.26234C45.8506 7.43643 47.7746 8.57639 49.065 9.4744L48.939 9.68905C50.4279 10.4376 51.4852 12.1101 52.6037 13.6406C52.6839 13.8439 52.7067 14.258 53.077 14.7222C54.0085 15.3631 54.31 15.8311 55.3407 17.0204C55.6423 17.4883 56.024 18.1596 56.337 18.8346C56.65 19.5097 56.963 20.1847 57.1348 20.7983C59.4747 24.4769 60.4707 28.7835 61.6728 33.0787L61.4857 33.4352C62.2185 35.4717 62.558 37.8761 62.8212 40.1462C63.0844 42.4163 63.1415 44.6978 63.378 46.4848L62.9466 46.1624C62.8701 47.2743 63.1601 48.7814 63.4885 48.4864C63.4158 49.6673 63.7172 51.3815 63.343 52.0945C63.2703 53.2754 63.4917 53.5401 63.4763 54.5102C63.1248 56.8835 63.1018 57.7155 62.8801 59.9432L62.9871 59.3834C62.9031 59.1111 62.7619 59.0497 62.6549 59.6095C62.7006 60.4377 62.0627 62.6191 62.7119 61.891C62.0129 64.2142 61.7759 67.4119 60.6532 69.5509C60.8517 69.4014 60.676 69.965 60.6913 70.2411C59.9771 72.2882 58.7743 74.2239 58.106 75.8531C57.8463 76.1443 58.1404 75.2281 57.7013 76.0139C57.4531 76.5122 57.8463 76.1443 57.6019 76.7117C56.7236 78.2833 55.494 79.7358 54.108 80.8508C52.6533 81.9695 51.0459 82.8198 49.4958 83.4592L48.4152 83.8651L47.2584 84.1366C46.8499 84.2284 46.5063 84.2474 46.0978 84.3391C45.6854 84.3619 45.3456 84.4499 44.9294 84.4036C43.3488 84.4909 41.8179 84.2293 40.4167 83.822C38.9469 83.4185 37.5993 82.7313 36.3166 81.9714C35.0987 81.1386 33.9458 80.233 32.9265 79.2508L33.064 79.2432C32.2776 78.7327 31.6019 77.7316 31.0675 76.7918C30.5331 75.8521 30.1361 74.9048 29.5521 74.3139C29.4567 73.8346 29.0445 72.6111 29.3346 72.872C28.9529 72.2008 28.7545 71.1041 28.6935 69.9997C28.663 69.4475 28.6287 68.8263 28.5982 68.2742C28.583 67.9981 28.5678 67.722 28.5487 67.3769C28.5335 67.1008 28.5182 66.8247 28.503 66.5486C28.5144 66.7557 28.522 66.8938 28.5335 67.1008C28.8277 64.9384 28.9272 62.9944 29.9124 60.8631C29.8551 61.0739 29.7406 61.4957 29.8169 61.6299C30.0728 61.2696 30.111 60.7137 30.2256 60.2919C30.3363 59.8012 30.4547 59.4485 30.7907 59.2915C30.974 58.866 30.6992 58.8812 30.577 59.1648C31.6959 56.9569 33.1622 54.799 34.9186 52.902C36.675 51.005 38.7942 49.4342 41.0698 48.2009C42.8261 47.5501 42.9062 47.7533 42.9825 47.8876C42.9902 48.0256 42.8566 48.1022 44.128 47.409C44.4029 47.3938 44.2502 47.1253 44.3265 47.2595C44.7961 47.0259 45.2772 46.9994 45.6933 47.0456C46.1095 47.0919 46.4532 47.0729 46.7854 46.8469C46.4265 46.5897 47.2511 46.5442 47.2397 46.3372C47.7895 46.3068 48.198 46.215 48.6103 46.1923C48.954 46.1733 49.2976 46.1543 49.5725 46.1392C50.191 46.105 50.6721 46.0785 51.554 45.8221L51.428 46.0367C53.3904 45.3745 55.7499 45.6597 57.5214 45.285C63.1299 45.7369 68.3946 47.454 73.2736 49.677C78.1526 51.9 82.7147 54.6251 87.021 57.7105C95.4998 63.9579 103.066 71.1557 109.269 79.8827C110.43 82.1725 110.506 82.3067 112.208 84.4282C112.067 84.3667 111.991 84.2325 112.002 84.4395C112.411 84.3477 113.125 86.0391 113.541 86.0854C115.655 89.4302 117.549 92.5104 119.404 96.1465C119.098 95.6095 118.675 95.4252 119.056 96.0964L119.64 96.6873L119.579 96.8291C119.881 97.2971 120.316 97.6885 120.148 97.1439C122.603 101.647 124.45 106.391 125.957 111.223C127.465 116.056 128.629 120.907 129.59 125.838C129.724 127.008 129.941 128.45 130.228 129.888C130.445 131.33 130.735 132.837 130.941 134.072C131.154 137.937 131.146 141.537 131.073 145.211C131 148.884 130.786 152.496 130.587 156.384C130.587 156.384 130.366 156.119 130.19 155.436C130.492 154.658 130.366 153.627 130.347 152.035Z" fill="#FEDB63"/>
                  <path d="M2.48679 8.58404C2.83038 8.56508 3.55961 8.0402 3.18159 8.68415C2.97163 8.62651 2.49822 8.79111 2.48679 8.58404Z" fill="#FEDB63"/>
                  <path d="M24.1884 2.12448C24.1846 2.05546 24.5358 2.17453 24.6084 2.23976C24.3335 2.25493 24.0662 2.40815 23.8562 2.35051C24.1311 2.33534 24.0548 2.20109 24.1884 2.12448Z" fill="#FEDB63"/>
                  <path d="M29.8656 2.57262C29.7357 2.71825 28.5637 2.71372 27.8001 2.61741C28.4911 2.64849 29.1745 2.54153 29.8656 2.57262Z" fill="#FEDB63"/>
                  <path d="M34.8592 4.3739C35.2181 4.63101 35.0844 4.70762 34.5194 4.46189C34.5156 4.39286 34.7256 4.4505 34.8592 4.3739Z" fill="#FEDB63"/>
                  <path d="M35.3287 4.14031C35.7487 4.25559 35.8976 4.45507 36.1114 4.58173C36.1038 4.44369 35.0652 4.36255 35.3287 4.14031Z" fill="#FEDB63"/>
                  <path d="M45.0906 9.9015C45.3044 10.0282 45.8732 10.3429 45.9571 10.6152C45.8044 10.3467 44.8157 9.91668 45.0906 9.9015Z" fill="#FEDB63"/>
                  <path d="M49.2021 13.2053C49.2784 13.3396 49.351 13.4048 49.4961 13.5353C49.6488 13.8038 49.3662 13.6809 49.1486 13.4852L49.2021 13.2053Z" fill="#FEDB63"/>
                  <path d="M32.0457 69.5377C32.0572 69.7448 32.1335 69.879 32.2137 70.0823L32.0724 70.0209C32.061 69.8138 32.0533 69.6758 32.0457 69.5377Z" fill="#FEDB63"/>
                  <path d="M61.5756 48.7997C62.198 48.8346 61.9345 49.0568 62.0032 49.053C61.5183 49.0105 62.2743 48.9688 61.5756 48.7997Z" fill="#FEDB63"/>
                  <path d="M83.245 57.9882L83.1037 57.9268L83.3634 57.6355L83.245 57.9882Z" fill="#FEDB63"/>
                  <path d="M116.696 141.989C116.554 141.927 116.573 142.273 116.558 141.996C116.623 141.924 116.76 141.916 116.696 141.989Z" fill="#FEDB63"/>
                  <path d="M141.538 146.225C141.798 147.18 140.698 147.241 140.74 148C140.744 148.069 140.377 147.674 140.389 147.881C140.507 148.774 139.637 149.238 138.823 149.491L138.747 149.356C138.613 149.433 138.842 149.836 138.709 149.912C138.636 149.847 138.632 149.778 138.495 149.786C138.713 149.981 138.441 150.065 138.59 150.265C138.453 150.273 138.308 150.142 138.167 150.081L138.388 150.345C138.835 150.944 137.999 150.782 138.094 151.262C138.021 151.196 138.018 151.127 137.949 151.131C137.987 151.821 137.597 152.258 137.353 152.826C137.281 152.76 137.135 152.63 136.994 152.568C137.212 152.764 137.223 152.971 137.162 153.113C136.88 152.99 137.254 153.523 136.979 153.539L136.906 153.473C137.128 153.738 136.635 153.557 136.925 153.818L136.647 153.765C137.009 154.091 136.372 153.78 136.452 153.983L136.525 154.048C136.532 154.186 136.322 154.129 136.33 154.267L136.261 154.27C136.208 154.55 135.929 154.497 136.284 154.685C136.001 154.562 136.269 154.409 135.917 154.289C135.826 155.125 135.375 155.704 134.993 156.279C134.856 156.287 134.787 156.29 134.646 156.229C134.65 156.298 134.524 156.513 134.669 156.643L134.459 156.585C134.253 156.597 134.684 156.919 134.478 156.93C134.405 156.865 134.329 156.731 134.188 156.67C134.34 156.938 134.207 157.015 134.218 157.222C134.146 157.157 134.146 157.157 134.073 157.091C134.23 157.429 133.878 157.31 133.958 157.513L133.813 157.383C133.474 157.471 134.172 157.64 133.901 157.724C133.897 157.655 133.825 157.59 133.756 157.593C133.981 157.927 133.718 158.149 133.729 158.356L133.657 158.291C133.6 158.502 133.397 158.582 133.412 158.859C133.275 158.866 132.985 158.605 132.928 158.816C133.283 159.004 132.882 159.234 133.37 159.345C133.241 159.491 132.973 159.644 132.981 159.782C132.905 159.648 132.488 159.602 132.549 159.46L132.271 159.406C132.126 159.276 132.404 159.33 132.194 159.272C132.198 159.341 132.213 159.617 132.145 159.621C132.297 159.889 132.595 160.288 132.473 160.572C132.393 160.369 132.114 160.315 132.106 160.177C132.259 160.445 132.347 160.787 132.503 161.124C132.439 161.197 132.282 160.859 132.293 161.066C132.366 161.132 132.374 161.27 132.45 161.404C132.381 161.408 132.339 161.895 132.041 161.496C131.965 161.362 132.03 161.289 131.957 161.223C131.896 161.365 131.973 161.5 131.912 161.641L131.908 161.572C131.839 161.576 131.866 162.059 132.011 162.19C132.076 162.117 131.858 161.921 131.999 161.983C132.087 162.324 132.034 162.604 131.908 162.819C131.9 162.681 131.892 162.543 131.812 162.339C131.847 162.96 131.732 163.382 131.621 163.873C131.705 164.145 131.587 163.252 131.595 163.39C131.453 163.328 131.404 163.677 131.35 163.957C131.297 164.237 131.243 164.517 131.094 164.317C131.087 164.179 131.19 164.797 131.113 164.662C131.052 164.804 130.953 164.256 130.968 164.532C130.953 164.256 130.911 164.743 130.854 164.954C130.869 165.23 130.846 164.816 130.907 164.674C130.854 164.954 130.747 165.513 130.56 165.87C130.483 165.736 130.403 165.532 130.319 165.26C130.331 165.467 130.143 165.824 130.136 165.686L130.182 165.268C130.163 164.923 130.029 164.999 130.075 164.581C130.018 164.792 130.09 164.857 130.228 164.85C130.296 164.846 130.434 164.838 130.304 164.984C130.277 164.501 130.121 165.41 130.159 164.854C130.083 164.719 129.964 165.072 129.861 164.455C129.869 164.593 129.972 163.964 129.899 163.899C129.754 163.768 129.838 164.041 129.697 163.979L129.632 164.052C129.586 164.47 129.548 163.78 129.51 164.336C129.56 163.987 129.292 164.14 129.399 163.58L129.514 163.158C129.441 163.093 129.327 163.515 129.197 163.661C129.193 163.592 129.185 163.453 129.25 163.381C129.082 164.082 129.166 163.108 128.911 163.469C128.884 162.986 128.601 162.863 128.716 162.441C128.579 162.449 128.372 162.46 128.288 162.188C128.357 162.184 128.361 162.253 128.422 162.111C128.407 161.835 128.346 161.977 128.273 161.912C128.338 161.839 128.315 161.425 128.369 161.145C128.163 161.156 128.037 161.371 127.907 161.516C128.029 161.233 127.888 161.171 127.815 161.106C127.674 161.045 127.533 160.983 127.659 160.769C127.727 160.765 128.006 160.819 127.995 160.611C128.315 160.178 127.578 160.565 127.628 160.216C127.494 160.293 127.43 160.366 127.296 160.442C127.422 160.228 126.945 160.323 127.346 160.093C127.208 160.101 127.33 159.817 126.998 160.043C127.113 159.622 126.418 159.522 126.941 159.008C126.872 159.012 126.865 158.874 126.735 159.019C126.605 159.165 126.941 159.008 126.811 159.154C126.811 159.154 126.674 159.161 126.609 159.234C126.67 159.092 126.597 159.027 126.937 158.939C127.059 158.655 126.258 159.115 126.239 158.77C126.372 158.693 126.437 158.621 126.368 158.624L126.025 158.643C126.013 158.436 126.284 158.352 126.552 158.199C126.479 158.134 126.407 158.068 126.204 158.149L126.464 157.857C126.269 158.076 126.258 157.869 126.189 157.873L126.258 157.869C126.323 157.796 126.25 157.731 126.181 157.735C126.048 157.811 126.055 157.949 126.059 158.018C125.922 158.026 125.918 157.957 125.781 157.964C126.048 157.811 125.838 157.754 125.834 157.685C125.83 157.616 125.559 157.7 125.559 157.7C125.693 157.623 125.483 157.565 125.689 157.554C125.758 157.55 125.628 157.696 125.765 157.688C125.83 157.616 126.029 157.466 125.823 157.478C125.685 157.485 125.357 157.78 125.414 157.569C125.483 157.565 125.616 157.489 125.685 157.485L125.742 157.274L125.544 157.424C125.609 157.351 125.609 157.351 125.609 157.351C125.338 157.435 125.395 157.224 125.124 157.308C125.051 157.243 125.181 157.098 125.177 157.029C125.238 156.887 125.097 156.825 124.891 156.837L124.96 156.833C124.956 156.764 124.883 156.699 124.677 156.71C124.735 156.499 125.407 156.185 125.132 156.2C125.055 156.066 124.654 156.296 124.521 156.372C124.506 156.096 124.093 156.119 124.277 155.694C124.208 155.697 124.143 155.77 124.074 155.774C123.986 155.433 123.429 155.325 123.677 154.827C123.815 154.819 123.876 154.677 124.009 154.601C123.807 154.681 124.135 154.386 123.803 154.612C123.605 154.761 123.536 154.765 123.475 154.907C123.261 154.78 123.112 154.581 123.238 154.366C123.173 154.439 123.105 154.443 123.036 154.447C123.372 154.29 123.292 154.086 123.154 154.094L122.952 154.174L123.078 153.96C123.009 153.964 122.677 154.19 122.803 153.975C122.868 153.902 122.937 153.898 123.002 153.825C122.795 153.837 122.452 153.856 122.509 153.645L122.7 153.358C122.631 153.361 122.425 153.373 122.433 153.511C122.486 153.231 122.41 153.097 122.605 152.878C121.849 152.92 121.551 152.521 121.326 152.187L121.459 152.111C121.517 151.9 121.188 152.195 121.253 152.122C121.387 152.045 121.444 151.835 121.65 151.823C121.708 151.612 121.307 151.842 121.165 151.781C120.963 151.861 121.303 151.773 121.104 151.923C121.036 151.926 121.089 151.646 120.822 151.8C120.887 151.727 121.085 151.577 121.219 151.501L121.013 151.512C121.272 151.221 121.692 151.336 122.017 150.972L121.944 150.907C122.135 150.619 122.425 150.88 122.341 150.608C122.135 150.619 121.734 150.849 121.673 150.991C121.459 150.864 121.005 151.374 120.856 151.175C120.986 151.029 121.001 151.305 121.196 151.087C121.322 150.872 120.986 151.029 120.978 150.891C120.917 151.033 120.65 151.186 120.509 151.125C120.566 150.914 120.78 151.04 120.7 150.837C120.566 150.914 120.356 150.856 120.299 151.067C119.898 151.297 120.287 150.86 119.951 151.017C120.146 150.798 120.627 150.772 120.612 150.496C120.417 150.714 120.2 150.519 119.875 150.883C119.871 150.814 120.07 150.664 120.272 150.584C120.329 150.373 119.726 150.683 120.119 150.315L119.852 150.469C119.917 150.396 119.913 150.327 120.043 150.181C119.971 150.116 119.562 150.208 119.89 149.913C119.822 149.916 119.742 149.713 119.551 150.001C119.493 150.211 119.825 149.985 119.497 150.28C119.688 149.993 119.352 150.15 119.215 150.158L119.348 150.081C119.28 150.085 119.276 150.016 119.073 150.096C119.142 150.092 119.272 149.947 119.272 149.947L119.073 150.096C118.863 150.039 119.402 149.801 119.257 149.671L119.463 149.659C119.394 149.663 119.589 149.445 119.451 149.452C119.249 149.533 118.982 149.686 118.848 149.762C118.711 149.77 119.043 149.544 118.772 149.628L119.043 149.544C119.112 149.54 119.303 149.253 119.226 149.118C119.089 149.126 118.749 149.214 118.757 149.352C118.684 149.287 118.745 149.145 118.948 149.065C118.806 149.003 118.749 149.214 118.543 149.225C118.604 149.084 118.726 148.8 118.852 148.585L119.257 148.424L119.184 148.359C119.524 148.271 119.31 148.145 119.646 147.988C119.642 147.919 119.505 147.926 119.436 147.93C119.116 148.363 118.764 148.244 118.367 148.543C118.085 148.42 119.219 147.734 118.474 147.983C118.413 148.125 118.005 148.217 118.215 148.274C118.138 148.14 117.745 148.508 117.798 148.228C118.005 148.217 118.119 147.795 118.463 147.776C118.329 147.853 118.402 147.918 118.47 147.914C118.6 147.768 118.867 147.615 118.791 147.481C118.719 147.416 118.646 147.35 118.447 147.5C118.249 147.649 118.589 147.561 118.321 147.715C118.112 147.657 118.44 147.362 118.039 147.592C118.112 147.657 117.917 147.875 117.783 147.952L117.642 147.891L117.776 147.814C117.76 147.538 117.44 147.971 117.359 147.768L117.619 147.476C117.886 147.323 117.707 147.818 118.1 147.45C118.024 147.316 117.825 147.465 117.814 147.258C117.883 147.254 117.882 147.254 117.951 147.25C117.947 147.181 118.474 146.737 117.997 146.832C117.791 146.844 117.863 146.909 117.665 147.058C117.52 146.928 117.317 147.008 117.172 146.878C117.505 146.652 117.024 146.678 117.428 146.518C117.302 146.732 117.52 146.928 117.856 146.771C118.18 146.407 117.936 146.974 118.264 146.679C118.188 146.545 118.516 146.25 118.715 146.1C118.711 146.031 118.578 146.108 118.509 146.112C118.31 146.261 118.314 146.33 118.116 146.48C118.035 146.276 117.825 146.219 117.554 146.303C117.615 146.161 117.814 146.012 117.886 146.077C117.673 145.95 117.524 145.751 117.509 145.475C117.253 145.835 117.295 145.348 117.035 145.639C117.043 145.777 116.852 146.065 116.649 146.145C116.646 146.076 116.779 146 116.844 145.927C116.573 146.011 117.031 145.57 116.695 145.727C116.905 145.785 117.161 145.425 117.428 145.271C117.154 145.287 117.627 145.122 117.551 144.988C117.276 145.003 117.066 144.945 116.921 144.815C117.039 144.462 116.554 144.42 116.474 144.216C116.531 144.006 116.867 143.849 116.86 143.711C116.787 143.645 116.604 144.071 116.589 143.795L116.657 143.791C116.52 143.799 116.634 143.377 116.169 143.679L116.501 143.453C116.497 143.384 116.432 143.457 116.363 143.461C116.497 143.384 116.558 143.243 116.627 143.239C116.749 142.955 116.413 143.112 116.337 142.978L116.211 143.193C115.932 143.139 115.986 142.859 115.844 142.797L116.043 142.648L115.837 142.659C116.035 142.51 116.096 142.368 115.894 142.448L116.577 142.342C116.516 142.483 116.306 142.426 116.111 142.644C115.982 142.79 116.127 142.92 116.325 142.771C116.321 142.702 116.253 142.706 116.115 142.713C116.379 142.491 116.451 142.556 116.654 142.476C116.585 142.48 116.646 142.338 116.581 142.411C116.784 142.33 116.856 142.395 116.932 142.53C116.795 142.537 116.803 142.675 116.738 142.748C117.005 142.595 117.142 142.587 117.154 142.794C116.963 143.082 117.505 142.913 117.585 143.117C117.318 143.27 117.047 143.354 116.906 143.293C116.848 143.503 116.978 143.358 116.921 143.569C117.123 143.488 117.455 143.262 117.597 143.324L117.398 143.473C117.608 143.531 117.803 143.312 117.879 143.447C117.963 143.719 118.184 143.984 118.265 144.187L118.066 144.336C118.536 144.103 118.494 144.59 118.769 144.574C118.788 144.92 119.341 144.958 119.154 145.315C119.585 145.637 120.013 145.89 120.246 146.362L119.91 146.519C120.181 146.435 119.78 146.665 119.921 146.726C120.047 146.512 120.261 146.638 120.463 146.558C120.414 146.907 120.83 146.953 121.109 147.007L120.91 147.156C121.387 147.061 121.204 147.486 121.357 147.755C121.292 147.827 121.162 147.973 121.234 148.038C121.643 147.947 121.647 148.016 121.926 148.069C122.002 148.204 122.086 148.476 122.097 148.683C122.865 148.848 122.903 149.539 123.54 149.85L123.346 150.068C124.113 150.233 124.163 151.131 124.659 151.38L124.258 151.61C124.201 151.821 124.548 151.871 124.811 151.649C124.754 151.859 125.235 151.833 124.976 152.124C124.987 152.331 125.254 152.178 125.396 152.239C125.415 152.585 125.556 152.646 125.777 152.911L125.773 152.842C125.705 152.845 125.506 152.995 125.51 153.064C125.647 153.056 125.67 153.47 125.995 153.106C125.88 153.528 126.644 153.624 126.464 154.119C126.598 154.042 126.667 154.039 126.735 154.035C126.888 154.303 126.77 154.656 127.121 154.775C127.056 154.848 126.85 154.859 126.922 154.924C126.991 154.921 127.056 154.848 127.194 154.84C127.69 155.09 127.453 155.795 127.747 156.125C128.396 156.643 128.64 157.322 129.087 157.92L129.022 157.993C129.503 157.967 128.923 158.691 129.602 158.515C129.537 158.588 129.682 158.718 129.48 158.799C129.549 158.795 129.621 158.86 129.625 158.929C129.629 158.998 129.629 158.998 129.629 158.998C129.633 159.067 129.568 159.14 129.77 159.06C129.77 159.06 129.77 159.06 129.701 159.063C129.579 159.347 129.843 159.125 129.72 159.409C129.724 159.478 129.656 159.481 129.591 159.554C129.468 159.838 129.915 159.19 129.602 159.761L129.724 159.478C129.736 159.685 129.808 159.75 129.877 159.746C129.946 159.742 130.011 159.669 130.075 159.597C130.114 160.287 130.029 161.261 130.064 160.636C130.075 160.843 130.114 160.287 130.056 160.498C130.11 160.218 130.125 161.74 130.098 161.257C130.087 161.05 130.083 160.981 130.079 160.912C130.072 160.774 130.072 160.774 130.056 160.498C130.144 160.839 130.171 161.322 130.209 160.766L130.228 161.111C130.201 160.628 130.262 160.486 130.251 160.279C130.243 160.141 130.301 159.93 130.209 159.52C130.45 158.884 129.915 159.19 130.851 157.408C131.679 156.185 132.225 154.839 133.272 153.812C133.821 153.782 133.818 153.713 133.863 153.295C133.936 153.36 133.936 153.36 134.009 153.426C133.722 153.234 134.135 153.211 133.844 152.95C134.234 152.513 134.417 152.088 134.734 151.585C134.738 151.655 134.959 151.919 134.952 151.781L134.803 151.582L134.875 151.647C134.872 151.578 134.791 151.375 134.654 151.382C135.2 150.037 136.609 149.336 137.373 148.186C137.709 148.029 137.888 147.534 138.01 147.251C139.015 146.711 139.954 146.243 140.378 145.182C140.992 145.078 141.653 145.803 141.538 146.225Z" fill="#FEDB63"/>
                  <path d="M116.841 142.119C116.711 142.265 116.719 142.403 116.447 142.487C116.65 142.407 116.711 142.265 116.841 142.119Z" fill="#FEDB63"/>
                  <path d="M117.459 145.824C117.528 145.82 117.463 145.893 117.398 145.966C117.398 145.966 117.195 146.046 117.256 145.904C117.325 145.9 117.39 145.828 117.459 145.824Z" fill="#FEDB63"/>
                  <path d="M117.909 146.491C117.776 146.568 117.566 146.51 117.493 146.445L117.909 146.491Z" fill="#FEDB63"/>
                  <path d="M117.829 147.534C117.768 147.676 117.699 147.68 117.627 147.614C117.692 147.542 117.76 147.538 117.829 147.534Z" fill="#FEDB63"/>
                  <path d="M118.161 147.308C118.234 147.373 118.169 147.446 118.104 147.519C118.169 147.446 117.894 147.461 118.161 147.308Z" fill="#FEDB63"/>
                  <path d="M118.734 148.938C118.734 148.938 118.94 148.927 118.81 149.072C118.94 148.927 118.531 149.018 118.734 148.938Z" fill="#FEDB63"/>
                  <path d="M119.448 149.383C119.455 149.521 119.318 149.529 119.318 149.529L119.448 149.383Z" fill="#FEDB63"/>
                  <path d="M127.651 160.631L127.51 160.569L127.643 160.492L127.651 160.631Z" fill="#FEDB63"/>
                  <path d="M132.079 163.432C132.064 163.156 132.156 163.566 132.224 163.563C132.163 163.704 132.14 163.29 132.079 163.432Z" fill="#FEDB63"/>
                </svg>