<svg width="172" height="44" viewBox="0 0 172 44" fill="none" xmlns="http://www.w3.org/2000/svg"><g clip-path="url(#clip0_2466_24932)"><path d="M161.228 2.09297e-05H10.4881C10.0848 2.09297e-05 9.68625 2.09297e-05 9.28395 0.00222093C8.94718 0.00442093 8.6131 0.0108119 8.2731 0.0161909C7.53447 0.0248829 6.79757 0.0898648 6.06881 0.210572C5.34108 0.333907 4.63614 0.566428 3.97784 0.900272C3.32035 1.23694 2.71958 1.67441 2.19733 2.1968C1.67233 2.71772 1.23471 3.31984 0.901285 3.98C0.56694 4.63884 0.335105 5.34485 0.213785 6.07365C0.091312 6.80152 0.0254082 7.53779 0.016665 8.27585C0.006457 8.61311 0.005379 8.95149 0 9.28879V34.7145C0.005379 35.056 0.006457 35.3869 0.016654 35.7286C0.0253999 36.4666 0.0913037 37.2028 0.213774 37.9307C0.334759 38.6599 0.566608 39.3663 0.901274 40.0254C1.23455 40.6834 1.67224 41.2831 2.19733 41.8011C2.7176 42.3258 3.31876 42.7636 3.97784 43.0977C4.63613 43.4324 5.341 43.6663 6.06881 43.7916C6.79769 43.9113 7.53451 43.9763 8.2731 43.986C8.6131 43.9935 8.94718 43.9978 9.28395 43.9978C9.68624 44 10.0848 44 10.4881 44H161.228C161.624 44 162.025 44 162.421 43.9978C162.756 43.9978 163.1 43.9935 163.435 43.986C164.172 43.9768 164.907 43.9118 165.635 43.7916C166.365 43.6654 167.072 43.4316 167.734 43.0977C168.392 42.7634 168.993 42.3257 169.513 41.8011C170.037 41.2811 170.475 40.6818 170.813 40.0254C171.145 39.3658 171.374 38.6595 171.494 37.9307C171.616 37.2027 171.684 36.4666 171.698 35.7286C171.702 35.3869 171.702 35.056 171.702 34.7145C171.711 34.3148 171.711 33.9174 171.711 33.5113V10.4898C171.711 10.0869 171.711 9.68732 171.702 9.28879C171.702 8.95149 171.702 8.61311 171.698 8.2758C171.684 7.53769 171.616 6.80158 171.494 6.0736C171.374 5.34523 171.144 4.63927 170.813 3.97995C170.134 2.65674 169.057 1.57965 167.734 0.900173C167.072 0.567145 166.365 0.334685 165.635 0.210473C164.908 0.089234 164.172 0.0242295 163.435 0.0160369C163.1 0.0106689 162.756 0.00422293 162.421 0.00207793C162.025 -0.00012207 161.624 -0.00012207 161.228 -0.00012207V2.09297e-05Z" fill="#A6A6A6"></path><path d="M9.28933 43.0375C8.95418 43.0375 8.62707 43.0332 8.29461 43.0258C7.60577 43.0168 6.91854 42.9568 6.23856 42.8463C5.60451 42.7371 4.99028 42.534 4.41614 42.2437C3.84727 41.9557 3.32841 41.5781 2.87944 41.1254C2.42398 40.678 2.04478 40.1591 1.75688 39.5892C1.46581 39.0157 1.26437 38.4009 1.15958 37.7663C1.04642 37.0845 0.985191 36.395 0.976431 35.7038C0.969457 35.4718 0.960327 34.6994 0.960327 34.6994V9.2888C0.960327 9.2888 0.970051 8.52825 0.976486 8.3048C0.984874 7.61475 1.04574 6.92634 1.15857 6.24553C1.26355 5.6092 1.46515 4.99265 1.75638 4.41722C2.04322 3.84776 2.42031 3.32847 2.87303 2.87947C3.32524 2.42621 3.84576 2.04669 4.4156 1.75476C4.98842 1.46533 5.60149 1.26363 6.23426 1.15642C6.91647 1.04484 7.60609 0.98452 8.29732 0.975955L9.28987 0.962524H162.415L163.42 0.976494C164.105 0.984634 164.788 1.04442 165.464 1.15534C166.103 1.2639 166.723 1.467 167.302 1.75798C168.444 2.34631 169.373 3.2771 169.959 4.4199C170.245 4.99136 170.444 5.60288 170.547 6.23371C170.661 6.92011 170.725 7.61394 170.738 8.30964C170.742 8.62116 170.742 8.95578 170.742 9.2888C170.75 9.7013 170.75 10.0939 170.75 10.4898V33.5113C170.75 33.9109 170.75 34.3009 170.742 34.694C170.742 35.0517 170.742 35.3794 170.737 35.7167C170.724 36.4 170.662 37.0814 170.549 37.7555C170.447 38.3947 170.246 39.0143 169.955 39.5925C169.665 40.1562 169.288 40.6706 168.838 41.1168C168.389 41.572 167.869 41.9518 167.299 42.2416C166.721 42.5342 166.103 42.738 165.464 42.8463C164.784 42.9574 164.097 43.0174 163.408 43.0258C163.086 43.0332 162.748 43.0375 162.421 43.0375L161.228 43.0397L9.28933 43.0375Z" fill="black"></path><path d="M27.2458 22.3307C27.2576 21.4126 27.5015 20.5124 27.9547 19.7138C28.408 18.9153 29.0558 18.2444 29.838 17.7635C29.3411 17.0538 28.6856 16.4698 27.9234 16.0578C27.1613 15.6457 26.3137 15.4171 25.4477 15.39C23.6006 15.1961 21.8098 16.4953 20.8685 16.4953C19.909 16.4953 18.4598 15.4093 16.8992 15.4414C15.8898 15.474 14.906 15.7675 14.0437 16.2934C13.1814 16.8193 12.4701 17.5595 11.979 18.442C9.85158 22.1253 11.4384 27.5385 13.4763 30.5157C14.4959 31.9736 15.6875 33.6021 17.2467 33.5444C18.7725 33.4811 19.3423 32.5714 21.184 32.5714C23.0087 32.5714 23.5433 33.5444 25.1341 33.5076C26.7714 33.4811 27.8029 32.0433 28.7867 30.5716C29.5193 29.5328 30.083 28.3847 30.457 27.1698C29.5058 26.7675 28.6941 26.0941 28.123 25.2336C27.552 24.3731 27.2469 23.3635 27.2458 22.3307V22.3307Z" fill="white"></path><path d="M24.241 13.432C25.1337 12.3603 25.5735 10.9829 25.467 9.59229C24.1032 9.73553 22.8434 10.3873 21.9386 11.4179C21.4963 11.9213 21.1575 12.507 20.9416 13.1414C20.7258 13.7759 20.637 14.4466 20.6806 15.1154C21.3627 15.1224 22.0376 14.9746 22.6543 14.683C23.271 14.3914 23.8136 13.9636 24.241 13.432Z" fill="white"></path><path d="M50.7639 33.5457V23.4921H50.6973L46.5798 33.4415H45.0083L40.88 23.4921H40.8145V33.5457H38.8831V19.8859H41.3355L45.7559 30.6679H45.8311L50.2429 19.8859H52.7039V33.5457L50.7639 33.5457Z" fill="white"></path><path d="M54.3357 30.7151C54.3357 28.9738 55.6699 27.9222 58.0374 27.7803L60.7638 27.6289V26.8715C60.7638 25.764 60.0344 25.1388 58.7937 25.1388C58.3342 25.0777 57.8681 25.1864 57.4831 25.4445C57.098 25.7026 56.8203 26.0924 56.7022 26.5407H54.7901C54.847 24.7414 56.5228 23.4641 58.8507 23.4641C61.2268 23.4641 62.7984 24.7607 62.7984 26.7201V33.5457H60.839V31.9075H60.7917C60.4779 32.463 60.0207 32.9239 59.4677 33.2422C58.9148 33.5604 58.2865 33.7242 57.6486 33.7165C57.2296 33.7575 56.8067 33.7104 56.407 33.5783C56.0073 33.4461 55.6397 33.2319 55.3277 32.9492C55.0157 32.6666 54.7663 32.3218 54.5955 31.9371C54.4246 31.5523 54.3361 31.1361 54.3357 30.7151V30.7151ZM60.7638 29.816V29.049L58.3114 29.2005C57.09 29.2768 56.3993 29.8063 56.3993 30.6582C56.3993 31.5294 57.119 32.0977 58.2168 32.0977C58.5348 32.1192 58.8539 32.0769 59.1552 31.9732C59.4566 31.8696 59.7341 31.7066 59.9715 31.4939C60.2089 31.2813 60.4013 31.0233 60.5373 30.7351C60.6734 30.4469 60.7504 30.1344 60.7638 29.816H60.7638Z" fill="white"></path><path d="M71.3825 27.0134C71.2932 26.4686 71.0022 25.9774 70.5673 25.6373C70.1325 25.2972 69.5856 25.133 69.0354 25.1775C67.4638 25.1775 66.4229 26.4934 66.4229 28.5667C66.4229 30.6872 67.4735 31.9644 69.0536 31.9644C69.5966 32.0188 70.1398 31.864 70.5726 31.5317C71.0053 31.1993 71.295 30.7144 71.3825 30.1758H73.3515C73.229 31.2057 72.7094 32.147 71.9033 32.7995C71.0971 33.452 70.0681 33.764 69.0354 33.6692C66.1952 33.6692 64.34 31.7281 64.34 28.5667C64.34 25.4708 66.1951 23.4642 69.0161 23.4642C70.0564 23.3759 71.0901 23.6976 71.8966 24.3607C72.7031 25.0237 73.2187 25.9756 73.3333 27.0134H71.3825Z" fill="white"></path><path d="M86.6353 29.8536H81.4285L80.1781 33.5457H77.9728L82.9045 19.8859H85.1958L90.1276 33.5457H87.8845L86.6353 29.8536ZM81.9678 28.1499H86.095L84.0604 22.1579H84.0035L81.9678 28.1499Z" fill="white"></path><path d="M100.778 28.5667C100.778 31.6615 99.122 33.6499 96.6223 33.6499C95.9891 33.683 95.3594 33.5372 94.8052 33.229C94.251 32.9209 93.7948 32.4629 93.4888 31.9075H93.4415V36.8403H91.3973V23.5866H93.3761V25.2431H93.4136C93.7337 24.6904 94.1976 24.2348 94.756 23.9247C95.3144 23.6147 95.9464 23.4618 96.5847 23.4824C99.1124 23.4824 100.778 25.4805 100.778 28.5667ZM98.6773 28.5667C98.6773 26.5504 97.6353 25.2248 96.0455 25.2248C94.4836 25.2248 93.433 26.5783 93.433 28.5667C93.433 30.5734 94.4836 31.9172 96.0455 31.9172C97.6353 31.9172 98.6773 30.6013 98.6773 28.5667Z" fill="white"></path><path d="M111.74 28.5667C111.74 31.6615 110.083 33.6499 107.584 33.6499C106.95 33.683 106.321 33.5372 105.767 33.229C105.212 32.9209 104.756 32.4629 104.45 31.9075H104.403V36.8403H102.359V23.5866H104.337V25.2431H104.375C104.695 24.6904 105.159 24.2348 105.717 23.9247C106.276 23.6147 106.908 23.4618 107.546 23.4824C110.074 23.4824 111.74 25.4805 111.74 28.5667ZM109.639 28.5667C109.639 26.5504 108.597 25.2248 107.007 25.2248C105.445 25.2248 104.394 26.5783 104.394 28.5667C104.394 30.5734 105.445 31.9172 107.007 31.9172C108.597 31.9172 109.639 30.6013 109.639 28.5667Z" fill="white"></path><path d="M118.984 29.7397C119.136 31.0943 120.452 31.9837 122.25 31.9837C123.973 31.9837 125.213 31.0943 125.213 29.8729C125.213 28.8126 124.465 28.1778 122.695 27.7427L120.924 27.3163C118.416 26.7104 117.252 25.5373 117.252 23.6338C117.252 21.277 119.306 19.6581 122.222 19.6581C125.108 19.6581 127.087 21.277 127.154 23.6338H125.09C124.967 22.2706 123.84 21.4478 122.193 21.4478C120.546 21.4478 119.419 22.2803 119.419 23.492C119.419 24.4578 120.139 25.026 121.9 25.461L123.405 25.8306C126.207 26.4934 127.372 27.6192 127.372 29.6172C127.372 32.1728 125.336 33.7733 122.098 33.7733C119.069 33.7733 117.024 32.2104 116.892 29.7396L118.984 29.7397Z" fill="white"></path><path d="M131.784 21.2298V23.5866H133.678V25.2055H131.784V30.6958C131.784 31.5487 132.163 31.9462 132.995 31.9462C133.22 31.9423 133.445 31.9265 133.668 31.8989V33.5081C133.294 33.578 132.913 33.6097 132.532 33.6026C130.516 33.6026 129.73 32.8453 129.73 30.9138V25.2055H128.282V23.5866H129.73V21.2298H131.784Z" fill="white"></path><path d="M134.773 28.5667C134.773 25.4332 136.619 23.4642 139.497 23.4642C142.384 23.4642 144.221 25.4332 144.221 28.5667C144.221 31.7088 142.394 33.6692 139.497 33.6692C136.6 33.6692 134.773 31.7088 134.773 28.5667ZM142.138 28.5667C142.138 26.4172 141.153 25.1485 139.497 25.1485C137.84 25.1485 136.855 26.4269 136.855 28.5667C136.855 30.7248 137.84 31.9838 139.497 31.9838C141.153 31.9838 142.138 30.7248 142.138 28.5667H142.138Z" fill="white"></path><path d="M145.907 23.5866H147.857V25.2817H147.904C148.036 24.7523 148.347 24.2844 148.783 23.9567C149.219 23.6291 149.755 23.4616 150.3 23.4824C150.536 23.4816 150.77 23.5071 151 23.5587V25.4708C150.703 25.3799 150.393 25.3382 150.082 25.3472C149.785 25.3352 149.489 25.3876 149.214 25.5007C148.939 25.6139 148.692 25.7852 148.49 26.0029C148.287 26.2206 148.134 26.4795 148.042 26.7618C147.949 27.0441 147.918 27.3432 147.952 27.6385V33.5457H145.907V23.5866Z" fill="white"></path><path d="M160.424 30.6206C160.149 32.4285 158.389 33.6692 156.136 33.6692C153.239 33.6692 151.441 31.7281 151.441 28.614C151.441 25.4902 153.249 23.4642 156.05 23.4642C158.806 23.4642 160.538 25.3569 160.538 28.3766V29.077H153.504V29.2005C153.472 29.567 153.518 29.9363 153.639 30.2837C153.76 30.6311 153.954 30.9488 154.207 31.2156C154.461 31.4824 154.768 31.6922 155.109 31.8311C155.449 31.9701 155.816 32.0349 156.183 32.0214C156.667 32.0667 157.151 31.9548 157.566 31.7024C157.98 31.45 158.302 31.0706 158.483 30.6206L160.424 30.6206ZM153.514 27.6483H158.493C158.511 27.3187 158.461 26.9889 158.346 26.6796C158.231 26.3702 158.053 26.0881 157.824 25.8507C157.595 25.6134 157.319 25.426 157.013 25.3004C156.708 25.1747 156.38 25.1135 156.05 25.1206C155.717 25.1186 155.387 25.1826 155.079 25.3088C154.771 25.435 154.491 25.621 154.256 25.856C154.02 26.091 153.833 26.3704 153.706 26.678C153.578 26.9856 153.513 27.3154 153.514 27.6483L153.514 27.6483Z" fill="white"></path><path d="M41.6088 9.60413C42.0374 9.57337 42.4675 9.63812 42.868 9.79369C43.2685 9.94927 43.6295 10.1918 43.925 10.5038C44.2204 10.8158 44.4429 11.1894 44.5765 11.5978C44.71 12.0062 44.7513 12.4392 44.6972 12.8655C44.6972 14.9623 43.5639 16.1677 41.6088 16.1677H39.238V9.60413H41.6088ZM40.2575 15.2394H41.495C41.8012 15.2577 42.1077 15.2075 42.3921 15.0924C42.6765 14.9774 42.9316 14.8003 43.139 14.5742C43.3463 14.3481 43.5006 14.0786 43.5907 13.7853C43.6807 13.492 43.7042 13.1823 43.6595 12.8788C43.701 12.5765 43.6751 12.2688 43.5837 11.9776C43.4922 11.6865 43.3375 11.4192 43.1307 11.1949C42.9238 10.9706 42.6699 10.7948 42.3871 10.6801C42.1043 10.5654 41.7996 10.5148 41.495 10.5317H40.2575V15.2394Z" fill="white"></path><path d="M45.8488 13.6888C45.8177 13.3633 45.8549 13.0349 45.9581 12.7246C46.0614 12.4143 46.2283 12.129 46.4482 11.887C46.6682 11.6451 46.9363 11.4517 47.2353 11.3194C47.5343 11.1871 47.8577 11.1188 48.1847 11.1188C48.5117 11.1188 48.8351 11.1871 49.1341 11.3194C49.4332 11.4517 49.7012 11.6451 49.9212 11.887C50.1411 12.129 50.3081 12.4143 50.4113 12.7246C50.5145 13.0349 50.5517 13.3633 50.5206 13.6888C50.5523 14.0146 50.5155 14.3435 50.4126 14.6543C50.3096 14.9651 50.1428 15.2509 49.9228 15.4933C49.7028 15.7358 49.4345 15.9295 49.1352 16.0621C48.8359 16.1947 48.5121 16.2632 48.1847 16.2632C47.8573 16.2632 47.5336 16.1947 47.2342 16.0621C46.9349 15.9295 46.6666 15.7358 46.4466 15.4933C46.2266 15.2509 46.0598 14.9651 45.9568 14.6543C45.8539 14.3435 45.8171 14.0146 45.8488 13.6888V13.6888ZM49.5151 13.6888C49.5151 12.6151 49.0328 11.9872 48.1863 11.9872C47.3366 11.9872 46.8586 12.6151 46.8586 13.6888C46.8586 14.7711 47.3366 15.3941 48.1863 15.3941C49.0328 15.3941 49.5151 14.7668 49.5151 13.6888H49.5151Z" fill="white"></path><path d="M56.7306 16.1675H55.7166L54.6928 12.5195H54.6155L53.596 16.1675H52.5917L51.2263 11.2143H52.2178L53.1051 14.9939H53.1782L54.1965 11.2143H55.1343L56.1527 14.9939H56.23L57.113 11.2143H58.0906L56.7306 16.1675Z" fill="white"></path><path d="M59.2389 11.2143H60.1799V12.0012H60.253C60.3769 11.7186 60.5859 11.4817 60.8508 11.3235C61.1158 11.1653 61.4235 11.0937 61.7311 11.1187C61.9721 11.1006 62.2141 11.1369 62.4391 11.225C62.6642 11.3131 62.8666 11.4508 63.0312 11.6277C63.1959 11.8046 63.3186 12.0163 63.3903 12.2471C63.462 12.4779 63.4809 12.7219 63.4455 12.961V16.1675H62.468V13.2065C62.468 12.4105 62.1221 12.0146 61.3991 12.0146C61.2355 12.007 61.0722 12.0348 60.9203 12.0963C60.7684 12.1577 60.6317 12.2512 60.5193 12.3704C60.407 12.4896 60.3218 12.6317 60.2695 12.787C60.2172 12.9422 60.1991 13.1069 60.2164 13.2698V16.1675H59.2389L59.2389 11.2143Z" fill="white"></path><path d="M65.0032 9.2807H65.9807V16.1675H65.0032V9.2807Z" fill="white"></path><path d="M67.3395 13.6888C67.3084 13.3633 67.3456 13.0349 67.4489 12.7246C67.5521 12.4143 67.719 12.129 67.939 11.887C68.1589 11.6451 68.427 11.4517 68.726 11.3194C69.025 11.1871 69.3484 11.1188 69.6754 11.1188C70.0024 11.1188 70.3258 11.1871 70.6248 11.3194C70.9239 11.4517 71.192 11.6451 71.4119 11.887C71.6318 12.129 71.7988 12.4143 71.902 12.7246C72.0052 13.0349 72.0425 13.3633 72.0113 13.6888C72.043 14.0146 72.0063 14.3435 71.9033 14.6543C71.8004 14.9651 71.6335 15.2509 71.4135 15.4933C71.1935 15.7358 70.9253 15.9295 70.6259 16.0621C70.3266 16.1947 70.0028 16.2632 69.6754 16.2632C69.348 16.2632 69.0243 16.1947 68.7249 16.0621C68.4256 15.9295 68.1573 15.7358 67.9373 15.4933C67.7173 15.2509 67.5505 14.9651 67.4476 14.6543C67.3446 14.3435 67.3078 14.0146 67.3395 13.6888V13.6888ZM71.0058 13.6888C71.0058 12.6151 70.5235 11.9872 69.677 11.9872C68.8273 11.9872 68.3493 12.6151 68.3493 13.6888C68.3493 14.7711 68.8274 15.3941 69.677 15.3941C70.5235 15.3941 71.0058 14.7668 71.0058 13.6888H71.0058Z" fill="white"></path><path d="M73.0405 14.7668C73.0405 13.8751 73.7044 13.3611 74.8828 13.2881L76.2245 13.2107V12.7832C76.2245 12.2601 75.8786 11.9647 75.2104 11.9647C74.6648 11.9647 74.2866 12.165 74.1781 12.5152H73.2317C73.3316 11.6644 74.1319 11.1187 75.2556 11.1187C76.4974 11.1187 77.1978 11.7369 77.1978 12.7832V16.1675H76.2567V15.4714H76.1794C76.0224 15.7211 75.802 15.9247 75.5406 16.0613C75.2792 16.198 74.9862 16.2628 74.6916 16.2491C74.4837 16.2708 74.2735 16.2486 74.0747 16.184C73.8758 16.1195 73.6927 16.0139 73.5372 15.8743C73.3816 15.7346 73.257 15.5639 73.1715 15.3731C73.086 15.1824 73.0413 14.9758 73.0405 14.7668V14.7668ZM76.2245 14.3435V13.9294L75.0149 14.0067C74.3328 14.0524 74.0234 14.2844 74.0234 14.7211C74.0234 15.1669 74.4101 15.4263 74.9419 15.4263C75.0977 15.4421 75.2551 15.4264 75.4047 15.3801C75.5543 15.3338 75.6931 15.2578 75.8128 15.1568C75.9324 15.0558 76.0305 14.9317 76.1013 14.792C76.172 14.6523 76.2139 14.4998 76.2245 14.3435V14.3435Z" fill="white"></path><path d="M78.4824 13.6888C78.4824 12.1236 79.287 11.1321 80.5385 11.1321C80.848 11.1179 81.1553 11.192 81.4242 11.3459C81.6932 11.4998 81.9128 11.727 82.0574 12.0011H82.1305V9.2807H83.108V16.1675H82.1713V15.3849H82.094C81.9382 15.6572 81.7109 15.8816 81.4367 16.034C81.1626 16.1863 80.8519 16.2607 80.5385 16.2491C79.2784 16.2492 78.4824 15.2577 78.4824 13.6888ZM79.4922 13.6888C79.4922 14.7394 79.9874 15.3715 80.8157 15.3715C81.6396 15.3715 82.1488 14.7302 82.1488 13.6931C82.1488 12.6607 81.6342 12.0103 80.8157 12.0103C79.9928 12.0103 79.4922 12.6468 79.4922 13.6888H79.4922Z" fill="white"></path><path d="M87.1525 13.6888C87.1214 13.3632 87.1586 13.0348 87.2619 12.7245C87.3651 12.4142 87.5321 12.1289 87.7521 11.8869C87.972 11.645 88.2401 11.4516 88.5392 11.3193C88.8382 11.187 89.1616 11.1187 89.4887 11.1187C89.8157 11.1187 90.1391 11.187 90.4381 11.3193C90.7372 11.4516 91.0053 11.645 91.2253 11.8869C91.4452 12.1289 91.6122 12.4142 91.7154 12.7245C91.8187 13.0348 91.8559 13.3632 91.8248 13.6888C91.8565 14.0146 91.8197 14.3435 91.7167 14.6543C91.6137 14.9651 91.4469 15.2508 91.2268 15.4933C91.0068 15.7357 90.7385 15.9295 90.4392 16.0621C90.1398 16.1946 89.8161 16.2631 89.4887 16.2631C89.1613 16.2631 88.8375 16.1946 88.5381 16.0621C88.2388 15.9295 87.9705 15.7357 87.7505 15.4933C87.5305 15.2508 87.3636 14.9651 87.2606 14.6543C87.1576 14.3435 87.1208 14.0146 87.1525 13.6888V13.6888ZM90.8188 13.6888C90.8188 12.6151 90.3365 11.9872 89.49 11.9872C88.6403 11.9872 88.1623 12.6151 88.1623 13.6888C88.1623 14.7711 88.6403 15.3941 89.49 15.3941C90.3364 15.3941 90.8188 14.7667 90.8188 13.6888H90.8188Z" fill="white"></path><path d="M93.1365 11.2143H94.0775V12.0012H94.1505C94.2745 11.7186 94.4835 11.4817 94.7484 11.3235C95.0134 11.1653 95.3211 11.0937 95.6287 11.1187C95.8697 11.1006 96.1117 11.1369 96.3367 11.225C96.5618 11.3131 96.7641 11.4508 96.9288 11.6277C97.0934 11.8046 97.2162 12.0163 97.2879 12.2471C97.3596 12.4779 97.3785 12.7219 97.3431 12.961V16.1675H96.3656V13.2065C96.3656 12.4105 96.0197 12.0146 95.2967 12.0146C95.1331 12.007 94.9697 12.0348 94.8179 12.0963C94.666 12.1577 94.5292 12.2512 94.4169 12.3704C94.3046 12.4896 94.2193 12.6317 94.1671 12.787C94.1148 12.9422 94.0967 13.1069 94.114 13.2698V16.1675H93.1365V11.2143Z" fill="white"></path><path d="M102.867 9.98108V11.2368H103.94V12.0602H102.867V14.6072C102.867 15.1261 103.081 15.3532 103.567 15.3532C103.692 15.3528 103.816 15.3453 103.94 15.3307V16.1449C103.764 16.1763 103.586 16.1931 103.408 16.1949C102.321 16.1949 101.888 15.8125 101.888 14.8575V12.0602H101.102V11.2368H101.888V9.98108H102.867Z" fill="white"></path><path d="M105.275 9.2807H106.244V12.0103H106.321C106.451 11.725 106.666 11.4868 106.936 11.328C107.207 11.1692 107.519 11.0976 107.832 11.123C108.071 11.1099 108.311 11.15 108.534 11.2402C108.756 11.3305 108.956 11.4687 109.119 11.6451C109.282 11.8214 109.404 12.0316 109.476 12.2606C109.549 12.4895 109.57 12.7316 109.538 12.9696V16.1675H108.559V13.2107C108.559 12.4196 108.191 12.0189 107.5 12.0189C107.332 12.0051 107.163 12.0282 107.005 12.0866C106.847 12.1449 106.703 12.2371 106.584 12.3567C106.465 12.4763 106.374 12.6205 106.317 12.779C106.26 12.9376 106.238 13.1067 106.253 13.2746V16.1675H105.275L105.275 9.2807Z" fill="white"></path><path d="M115.237 14.8301C115.105 15.2828 114.817 15.6744 114.424 15.9363C114.032 16.1983 113.56 16.314 113.091 16.2631C112.765 16.2717 112.44 16.2092 112.141 16.0799C111.841 15.9506 111.573 15.7577 111.355 15.5144C111.138 15.2712 110.975 14.9835 110.88 14.6713C110.785 14.3591 110.758 14.0298 110.803 13.7065C110.76 13.3821 110.786 13.0522 110.881 12.739C110.977 12.4259 111.138 12.1368 111.354 11.8915C111.571 11.6461 111.838 11.4501 112.137 11.3168C112.435 11.1834 112.76 11.1159 113.087 11.1187C114.465 11.1187 115.296 12.0603 115.296 13.6157V13.9568H111.799V14.0116C111.783 14.1933 111.806 14.3763 111.866 14.5487C111.925 14.7211 112.02 14.8792 112.144 15.0128C112.269 15.1464 112.419 15.2526 112.587 15.3245C112.755 15.3965 112.936 15.4326 113.118 15.4306C113.352 15.4586 113.589 15.4165 113.798 15.3096C114.008 15.2027 114.182 15.0357 114.296 14.8301L115.237 14.8301ZM111.799 13.2338H114.301C114.313 13.0676 114.29 12.9006 114.234 12.7436C114.178 12.5866 114.09 12.4431 113.975 12.3222C113.86 12.2014 113.721 12.1059 113.568 12.0419C113.414 11.9779 113.248 11.9468 113.081 11.9507C112.912 11.9485 112.745 11.9803 112.588 12.044C112.431 12.1078 112.289 12.2022 112.17 12.3218C112.05 12.4414 111.956 12.5837 111.892 12.7403C111.828 12.8969 111.797 13.0647 111.799 13.2338H111.799Z" fill="white"></path></g><defs><clipPath id="clip0_2466_24932"><rect width="171.711" height="44" fill="white"></rect></clipPath></defs></svg>