<svg xmlns="http://www.w3.org/2000/svg" width="143" height="179" viewBox="0 0 143 179" fill="none">
<path d="M1.37564 15.6839C0.459222 16.5652 2.05142 15.4389 0.860104 16.3354C0.848674 16.1283 0.970915 15.8447 1.37564 15.6839Z" fill="#381FD1"/>
<path d="M130.347 158.035C129.779 153.982 130.589 148.676 129.727 144.293C129.631 143.813 130.215 144.404 130.013 143.238C129.75 142.214 129.544 140.98 129.334 139.676C129.124 138.372 128.979 136.995 128.762 135.553C128.544 134.112 128.395 132.666 128.182 131.293C128.075 130.607 127.964 129.851 127.926 129.161C127.819 128.475 127.713 127.788 127.61 127.171L127.831 127.435C127.709 126.473 127.026 125.334 126.766 124.379C126.835 124.375 126.988 124.644 127.045 124.433C126.69 124.245 126.392 122.599 126.098 122.27C126.075 121.855 126.281 121.844 126.251 121.292L125.812 120.831C125.224 120.172 124.961 119.148 124.629 118.127C124.297 117.107 124.026 115.945 123.488 114.937C123.56 115.002 123.709 115.201 123.698 114.994C121.999 111.696 120.251 107.5 118.262 103.94C118.407 104.071 118.682 104.056 118.671 103.849C118.323 103.798 117.644 102.728 117.109 101.789C117.148 101.233 115.922 100.262 115.514 99.1073L115.655 99.1688C114.93 98.5165 115.102 97.8839 114.384 97.3697L114.281 96.7523C113.655 96.6484 113.796 95.4637 113.147 94.9456L113.082 95.0184C112.571 94.4928 112.544 94.0097 112.17 93.4765L112.166 93.4075C111.2 92.1454 110.876 91.2633 110.612 91.4855C110.509 90.8681 111.574 92.6786 111.452 91.7161C108.189 87.5346 104.852 83.288 101.256 79.3326C100.951 78.7956 100.726 78.4619 100.718 78.3238C100.355 77.9977 99.2635 76.9503 98.8359 76.697C98.981 76.8274 98.7481 76.3556 98.5267 76.0909C97.9312 75.293 97.5341 75.5919 96.8698 74.7978C97.2249 74.9859 97.4349 75.0435 97.4234 74.8364C96.5721 74.3988 95.6979 73.547 94.9039 72.8986C95.0451 72.96 95.2589 73.0867 95.3238 73.0138C94.2587 72.4496 93.7968 71.575 92.8691 71.0032L93.2891 71.1185C92.1859 69.8639 92.6668 71.0836 91.6475 70.1014C91.9338 70.2933 91.9262 70.1552 91.9911 70.0824C90.7198 69.5295 89.1203 68.0255 87.9826 67.3959C88.0514 67.3922 88.0513 67.3922 88.0513 67.3922C87.4787 67.0084 86.8984 66.4866 86.2533 66.0376C85.6768 65.5848 84.963 65.1395 84.3216 64.7596C83.8864 64.3682 84.7874 64.4569 83.4321 63.6317C83.245 63.9882 81.1568 62.3727 81.6874 63.2434C81.1834 62.8558 80.4658 62.3416 79.8206 61.8926C79.1754 61.4436 78.534 61.0636 78.1141 60.9483C78.6753 61.125 77.7973 60.2043 78.7899 60.7033L78.202 60.0435C78.4044 59.9631 78.9159 60.4887 78.7632 60.2202C78.2669 59.9707 76.8506 59.2873 76.423 59.034C75.4418 58.742 74.4072 58.7298 72.9259 58.1193C73.6933 58.2846 72.7542 57.5057 73.2467 57.6862C72.4831 57.5899 71.6508 57.4974 70.891 57.4701C70.3985 57.2896 70.9407 57.1212 70.1695 56.8868C70.1771 57.0249 69.8259 56.9058 69.551 56.921C69.4059 56.7905 67.4436 56.2065 67.352 55.7962C67.2031 55.5967 68.1919 56.0268 67.6918 55.7082C66.7794 55.4124 66.6457 55.489 65.7333 55.1932L65.7295 55.1242C65.0957 54.8823 63.8473 54.7435 64.4199 55.1273C64.8399 55.2426 64.336 54.855 64.9048 55.1697C64.4276 55.2653 63.3127 55.0499 62.3354 54.827C62.679 54.808 62.6752 54.739 62.8088 54.6624C61.4306 54.6692 60.0447 54.538 58.5939 54.4796C58.5366 54.6905 59.1972 54.1694 59.4109 54.2961C57.5899 53.7735 55.551 54.3015 54.0163 53.9708C54.2911 53.9556 54.169 54.2393 54.1652 54.1703C53.268 54.1506 53.3253 53.9397 52.7106 54.0429C52.6304 53.8396 51.9584 54.1536 51.4125 54.253C51.1452 54.4062 51.2712 54.1916 51.7485 54.096C51.3399 54.1878 50.3205 54.4517 49.1636 54.7233C48.0068 54.9949 46.785 55.3392 45.8305 55.5304C45.903 55.5956 44.8378 56.2775 44.4331 56.4383L44.4865 56.1584C44.0742 56.1812 43.1426 56.7865 42.9975 56.656C42.673 57.0201 43.4023 56.4952 44.2079 56.1046C44.9448 55.7177 45.7504 55.3271 45.1509 55.7064C44.731 55.5911 43.6924 56.7561 43.8069 56.3344C43.4022 56.4952 43.0739 56.7903 42.673 57.0201C42.2721 57.2499 41.9399 57.4759 41.5314 57.5677C41.7338 57.4873 41.9781 56.92 41.3787 57.2992C40.3134 57.9811 41.119 57.5905 40.3248 58.1882L39.8667 58.6289C39.9468 58.8321 38.9388 59.3032 39.4848 59.2038C39.2061 59.15 38.1751 60.453 38.0148 60.0465L37.927 59.7052C37.5338 60.0731 37.4917 60.56 37.3084 60.9855C37.2397 60.9893 37.106 61.0659 37.1022 60.9969C37.4 61.3958 36.1896 61.9473 36.0941 62.7141C35.2426 63.5226 34.5018 65.0866 34.036 65.3893C33.8068 66.2327 33.6426 67.0033 33.211 67.9272C33.2683 67.7163 33.3218 67.4364 33.2493 67.3712C32.9323 67.8733 32.9438 68.0804 32.9055 68.6363C32.9017 68.5673 32.7108 68.8548 32.5237 69.2113C32.3366 69.5678 32.157 70.0623 31.9699 70.4188C31.9507 71.3199 32.2791 71.0248 32.4242 71.1553C32.0996 71.5193 32.1339 72.1405 32.1682 72.7617C32.2025 73.3829 32.3742 73.9965 32.126 74.4948C32.0421 74.2225 31.8513 73.2638 31.7519 73.9616C31.6259 74.1763 31.6373 74.3833 31.6487 74.5904C31.6602 74.7975 31.7404 75.0007 31.8205 75.204C31.9007 75.4073 31.9846 75.6796 32.0685 75.9519C32.1525 76.2242 32.2365 76.4964 32.2518 76.7725L32.5763 76.4085C32.4044 77.041 33.29 78.0998 32.809 78.1264C33.0342 78.4601 33.2326 79.5569 33.4923 79.2656C33.5877 79.745 33.893 80.282 34.1258 80.7537C34.4274 81.2217 34.7328 81.7587 35.168 82.1501C35.3856 82.3458 35.5383 82.6143 35.6872 82.8137C35.9048 83.0094 36.0536 83.2089 36.2025 83.4084C36.5003 83.8073 36.7942 84.1373 36.882 84.4786C37.0232 84.54 37.2408 84.7357 37.3821 84.7971C37.5959 84.9238 37.7371 84.9852 37.7295 84.8472C37.4279 84.3792 37.0919 84.5362 37.0118 84.3329C37.2256 84.4596 37.363 84.452 37.363 84.452C37.802 84.9124 38.2296 85.1657 37.5386 85.1346C38.0501 85.6602 38.4663 85.7065 38.9512 85.749C39.1611 85.8066 39.436 85.7914 39.646 85.8491C39.9247 85.9029 40.2072 86.0258 40.6309 86.2101C40.4973 86.2867 40.5775 86.49 41.0662 86.6015L42.1046 86.6826C43.1545 86.9708 42.6849 87.2044 42.6314 87.4843C43.2575 87.5882 44.0211 87.6845 44.3571 87.5275C44.5747 87.7232 44.8534 87.777 45.0672 87.9037C44.5021 87.658 45.6093 87.7353 45.8804 87.6511C45.8116 87.6549 45.6781 87.7315 45.6094 87.7353C45.7544 87.8658 46.434 87.6898 46.7776 87.6708C46.6975 87.4675 45.9415 87.5093 45.5253 87.463C45.8651 87.375 46.3424 87.2794 46.6784 87.1224C46.56 87.4751 47.6443 87.1384 48.1216 87.0428C48.6675 86.9434 48.6485 86.5983 48.7859 86.5907C48.7898 86.6597 49.0608 86.5755 49.1983 86.5679C49.3319 86.4913 49.4694 86.4837 49.3434 86.6984C49.2097 86.775 48.8623 86.7249 48.6676 86.9434C49.0112 86.9244 49.0951 87.1967 49.7595 86.7447C50.2215 86.373 49.393 86.3495 50.4086 86.0165C50.2139 86.235 50.2177 86.304 50.023 86.5224C50.3628 86.4344 50.6987 86.2774 50.966 86.1242L50.8858 85.9209C51.0233 85.9133 50.9584 85.9862 51.0271 85.9824C51.0844 85.7715 51.4166 85.5455 51.6801 85.3232C51.9435 85.101 52.2031 84.8097 52.2604 84.5989C52.459 84.4495 52.6575 84.3 52.9248 84.1468C53.1233 83.9974 53.3906 83.8442 53.5891 83.6948L53.5242 83.7676C54.055 83.3921 54.5018 82.7444 54.6775 82.1808L54.6813 82.2498C54.8722 81.9624 55.3189 81.3146 55.4335 80.8929C56.0177 80.2376 56.4109 81.1159 56.6325 80.1344C57.0716 79.3486 56.8961 78.666 56.5677 78.961C57.4574 77.5965 57.7019 75.783 58.5267 74.4913C58.5115 74.2152 58.3817 74.3608 58.4924 73.8701C59.2639 71.6121 59.4627 68.9703 60.2571 67.1265C60.2264 67.8205 60.467 67.1841 60.6083 67.2455C60.5053 66.6281 60.9177 66.6054 60.6275 66.3445C60.4214 66.3558 60.2801 66.2944 60.1082 66.927C60.2382 65.5352 60.4637 63.3765 60.7654 62.5983C60.647 62.951 60.563 62.6787 60.544 62.3336C60.8952 62.4527 61.0442 61.406 60.9297 60.5815L60.716 60.4549L60.9642 59.9566C60.8765 59.6153 60.529 59.5652 60.762 58.7908C60.8307 58.787 60.9643 58.7104 61.0254 58.5685C60.8423 57.7479 60.5714 56.5859 60.7967 55.6734C60.9227 55.4588 60.9762 55.1789 61.1022 54.9643C61.0794 54.5501 60.8389 53.9403 60.8083 54.6343C60.9993 53.1007 60.946 52.1344 61.1942 51.6361C60.3622 49.0512 59.9464 45.2664 59.5039 42.2446L59.6452 42.3061C59.6682 41.474 59.2787 41.9109 59.317 41.3549C59.5384 41.6197 59.5537 40.6496 59.8629 41.2556C59.7981 40.0822 59.3018 39.8327 59.0537 39.0848C58.8438 39.0272 59.2904 39.6256 59.0117 39.5718C58.9354 39.4375 58.8516 37.9191 58.4354 37.8728C58.4889 37.5929 58.7714 37.7158 58.9164 37.8462L58.6034 37.1712C58.7563 36.1935 59.7372 38.9779 59.9549 37.9274L59.7832 37.3138C59.9513 36.6122 60.5618 38.9324 60.2642 37.2872C59.9512 36.6122 59.3023 36.0942 59.3404 36.7844C58.848 35.3577 58.4165 36.2815 57.9891 34.782C58.0311 34.2951 58.4013 36.0054 58.5884 35.6489C58.6114 34.8169 58.0273 34.2261 57.9205 33.5396C58.0311 34.2951 57.5195 33.7695 57.2905 33.3667C57.1761 32.5423 57.7258 33.7581 57.3899 32.6689C57.1761 32.5422 56.6417 31.6025 56.8287 32.4922C56.3324 32.2427 56.489 31.334 55.9813 30.8774C56.0921 30.3867 57.0616 31.7178 56.7182 30.4906C56.5272 30.778 55.7524 29.2285 55.6569 29.9953C55.5615 29.516 55.6913 29.3703 56.0501 29.6274C55.9395 28.872 54.8744 28.3077 55.2638 27.8708L54.9126 27.7518C54.9012 27.5447 54.8134 27.2034 54.7905 26.7892C54.5539 26.2485 53.4659 25.27 53.8707 25.1092C53.7256 24.9788 52.9697 23.7743 53.004 24.3955C53.3246 25.2086 53.7332 25.1168 53.63 25.7456C53.5919 25.0554 52.9506 24.6754 52.5879 24.3493L52.7177 24.2036C52.5001 24.008 52.1222 23.4057 51.9122 23.3481C52.126 23.4748 52.1184 23.3367 52.0345 23.0644L51.6145 22.9491C50.8052 22.0246 51.794 22.4546 51.0572 21.5953L51.7787 22.1785C51.6337 22.0481 51.5383 21.5687 51.1718 21.1736C50.8244 21.1235 50.4044 21.0082 50.1295 21.0234C49.6256 20.6358 50.1067 20.6093 49.5379 20.2945L50.3205 20.7359C50.4617 20.7974 50.2136 20.0495 49.6257 19.3896C49.1944 19.0673 48.2743 18.6335 48.866 19.3624C48.5721 19.0324 48.1979 18.4992 48.6179 18.6145C47.8238 17.966 48.5644 18.8944 47.8467 18.3801C47.6902 18.0426 47.0184 17.1105 46.6405 16.5083C46.9917 16.6273 47.2704 16.6812 47.6217 16.8002C47.4766 16.6698 47.3316 16.5393 47.1865 16.4089C48.0264 16.6394 47.0224 15.9333 47.576 15.972C47.282 15.6421 46.7857 15.3925 46.4307 15.2044C46.7399 15.8104 46.3886 15.6914 45.8999 15.5799C45.4112 15.4684 44.85 15.2917 44.8653 15.5678C44.1514 15.1226 44.1323 14.7775 44.0446 14.4361C43.9568 14.0948 43.8041 13.8263 42.8305 13.6724C42.9832 13.9409 42.1471 13.7793 43.071 14.2822C42.212 13.7065 42.2463 14.3277 41.3072 13.5488C42.1509 13.8484 40.7041 12.6128 41.9678 13.0277C41.8341 13.1043 42.5442 13.4805 42.7542 13.5381C42.4564 13.1392 43.0788 13.1741 42.1511 12.6022C41.5823 12.2874 40.7347 11.9188 40.75 12.1949C40.6278 12.4786 41.6701 12.6287 41.1203 12.6591C39.9215 12.1714 39.8948 11.6883 39.219 11.9333C39.994 12.2366 40.013 12.5817 39.9519 12.7236C39.6694 12.6007 39.3908 12.5469 39.0395 12.4278L39.3106 12.3436C38.0278 11.5836 38.7646 12.443 37.4895 11.821L36.6878 11.0345C36.8902 10.9541 37.3865 11.2036 37.8064 11.3189C38.2302 11.5032 38.5852 11.6913 38.5662 11.3462C37.7148 10.9086 37.3102 11.0694 36.5276 10.628C36.7376 10.6856 37.0162 10.7395 37.1574 10.8009C36.8749 10.678 36.7605 9.85356 35.3097 9.79519C34.6149 9.69508 35.1073 9.87559 34.9813 10.0902C33.5115 9.68676 33.0343 9.78234 32.0607 9.62838C32.3166 9.2681 30.3847 9.23629 31.5491 9.10277C31.7667 9.29845 32.3967 9.47137 33.0916 9.57148C33.7215 9.7444 34.4164 9.8445 34.7562 9.75651C34.3783 9.15429 35.8823 10.179 36.3482 9.87633C35.1532 9.45767 35.3403 9.10118 35.2526 8.75987C34.9013 8.64079 34.5578 8.65976 34.3516 8.67114C34.1568 8.88959 34.5768 9.00487 34.5233 9.28475C33.1871 8.80466 31.8699 8.66967 31.0491 8.78422C30.6253 8.59992 30.8162 8.31245 31.3736 8.42014C29.709 8.23511 27.972 7.98484 26.3799 7.86503C26.8762 8.11456 26.4638 8.13733 25.9789 8.09486C25.4979 8.12142 25.0168 8.14797 25.3031 8.33986C26.1354 8.43238 26.8455 8.80857 26.3721 8.97317C25.8872 8.9307 26.3607 8.7661 26.1507 8.70846C25.4749 8.95346 25.097 8.35124 24.4976 8.73049C26.0056 8.57801 24.8107 8.15935 25.0704 7.86809C23.9784 8.06683 25.1238 7.58821 24.0243 7.64891C22.9323 7.84765 21.638 8.1268 20.4124 8.40215C18.8204 8.28234 16.5944 9.16676 15.3078 9.58395C14.5518 9.62568 14.9375 9.11977 14.1205 9.30334C13.2423 9.62874 14.8878 9.46867 13.5248 9.75161L13.5859 9.60977C13.3873 9.7592 12.7726 9.86236 12.2343 10.0998C11.6272 10.341 11.0927 10.6474 11.0431 10.9963L11.2187 10.4328C10.9476 10.517 10.8178 10.6626 10.6192 10.812C10.5429 10.6778 10.1993 10.6967 10.6002 10.4669C10.1191 10.4935 9.71827 10.7233 9.38609 10.9493C8.98518 11.1791 8.65676 11.4742 8.25585 11.704C8.46202 11.6926 8.6682 11.6813 8.87437 11.6699C8.21001 12.1219 7.6755 12.4284 7.07224 12.7386C6.5377 13.045 5.93445 13.3553 5.34262 13.8726L5.2624 13.6693L4.60947 14.3284C4.65914 13.9795 3.85352 14.3702 3.6053 14.8685C4.12079 14.2169 4.63629 13.5654 5.15559 12.9829C5.76267 12.7417 4.70883 13.6306 5.18989 13.6041C5.60222 13.5813 6.72861 12.7576 6.77828 12.4087C6.30865 12.6423 6.3125 12.7113 5.98794 13.0754C5.63289 12.8873 6.36591 12.4314 6.54922 12.0059C6.28195 12.1592 5.94602 12.3162 5.95364 12.4542C6.34312 12.0173 6.80894 11.7147 7.60694 11.186C7.14874 11.6267 8.01922 11.1632 7.82448 11.3817C7.73671 11.0404 8.46978 10.5845 9.54648 10.1097C10.0275 10.0831 10.4972 9.84951 11.0279 9.47405C11.5625 9.16762 12.1619 8.78837 12.7728 8.61618C12.3871 9.12209 11.7915 9.57036 11.1271 10.0224C11.9442 9.83886 12.0053 9.69703 12.8223 9.51346C13.1469 9.14938 13.2614 8.72767 14.2694 8.25664L14.4184 8.45611C15.3614 8.05789 15.2736 7.71658 16.4992 7.44123C18.6831 7.04375 20.8708 6.71529 22.5889 6.62044L22.669 6.82371C23.5357 6.29125 25.7539 6.51495 26.9909 6.44667C29.0755 6.74699 31.6983 6.80989 32.6298 7.45079C34.512 7.83151 36.188 8.22361 37.8793 8.89179C39.5667 9.49096 41.1969 10.301 42.9072 11.3143L42.1474 11.287C42.8461 11.4561 42.4451 11.6859 43.0827 11.9969C42.7887 11.667 43.0674 11.7208 43.4187 11.8399C43.7699 11.959 44.2663 12.2085 44.545 12.2623C45.8506 13.4364 47.7746 14.5764 49.065 15.4744L48.939 15.6891C50.4279 16.4376 51.4852 18.1101 52.6037 19.6406C52.6839 19.8439 52.7067 20.258 53.077 20.7222C54.0085 21.3631 54.31 21.8311 55.3407 23.0204C55.6423 23.4883 56.024 24.1596 56.337 24.8346C56.65 25.5097 56.963 26.1847 57.1348 26.7983C59.4747 30.4769 60.4707 34.7835 61.6728 39.0787L61.4857 39.4352C62.2185 41.4717 62.558 43.8761 62.8212 46.1462C63.0844 48.4163 63.1415 50.6978 63.378 52.4848L62.9466 52.1624C62.8701 53.2743 63.1601 54.7814 63.4885 54.4864C63.4158 55.6673 63.7172 57.3815 63.343 58.0945C63.2703 59.2754 63.4917 59.5401 63.4763 60.5102C63.1248 62.8835 63.1018 63.7155 62.8801 65.9432L62.9871 65.3834C62.9031 65.1111 62.7619 65.0497 62.6549 65.6095C62.7006 66.4377 62.0627 68.6191 62.7119 67.891C62.0129 70.2142 61.7759 73.4119 60.6532 75.5509C60.8517 75.4014 60.676 75.965 60.6913 76.2411C59.9771 78.2882 58.7743 80.2239 58.106 81.8531C57.8463 82.1443 58.1404 81.2281 57.7013 82.0139C57.4531 82.5122 57.8463 82.1443 57.6019 82.7117C56.7236 84.2833 55.494 85.7358 54.108 86.8508C52.6533 87.9696 51.0459 88.8198 49.4958 89.4592L48.4152 89.8651L47.2584 90.1366C46.8499 90.2284 46.5063 90.2474 46.0978 90.3391C45.6854 90.3619 45.3456 90.4499 44.9294 90.4036C43.3488 90.4909 41.8179 90.2293 40.4167 89.822C38.9469 89.4185 37.5993 88.7313 36.3166 87.9714C35.0987 87.1386 33.9458 86.233 32.9265 85.2508L33.064 85.2432C32.2776 84.7327 31.6019 83.7316 31.0675 82.7918C30.5331 81.8521 30.1361 80.9048 29.5521 80.3139C29.4567 79.8346 29.0445 78.6111 29.3346 78.872C28.9529 78.2008 28.7545 77.1041 28.6935 75.9997C28.663 75.4475 28.6287 74.8263 28.5982 74.2742C28.583 73.9981 28.5678 73.722 28.5487 73.3769C28.5335 73.1008 28.5182 72.8247 28.503 72.5486C28.5144 72.7557 28.522 72.8938 28.5335 73.1008C28.8277 70.9384 28.9272 68.9944 29.9124 66.8631C29.8551 67.0739 29.7406 67.4957 29.8169 67.6299C30.0728 67.2696 30.111 66.7137 30.2256 66.2919C30.3363 65.8012 30.4547 65.4485 30.7907 65.2915C30.974 64.866 30.6992 64.8812 30.577 65.1648C31.6959 62.9569 33.1622 60.799 34.9186 58.902C36.675 57.005 38.7942 55.4342 41.0698 54.2009C42.8261 53.5501 42.9062 53.7533 42.9825 53.8876C42.9902 54.0256 42.8566 54.1022 44.128 53.409C44.4029 53.3938 44.2502 53.1253 44.3265 53.2595C44.7961 53.0259 45.2772 52.9994 45.6933 53.0456C46.1095 53.0919 46.4532 53.0729 46.7854 52.8469C46.4265 52.5897 47.2511 52.5442 47.2397 52.3372C47.7895 52.3068 48.198 52.215 48.6103 52.1923C48.954 52.1733 49.2976 52.1543 49.5725 52.1392C50.191 52.105 50.6721 52.0785 51.554 51.8221L51.428 52.0367C53.3904 51.3745 55.7499 51.6597 57.5214 51.285C63.1299 51.7369 68.3946 53.454 73.2736 55.677C78.1526 57.9 82.7147 60.6251 87.021 63.7105C95.4998 69.9579 103.066 77.1557 109.269 85.8827C110.43 88.1725 110.506 88.3067 112.208 90.4282C112.067 90.3667 111.991 90.2325 112.002 90.4395C112.411 90.3477 113.125 92.0391 113.541 92.0854C115.655 95.4303 117.549 98.5104 119.404 102.146C119.098 101.609 118.675 101.425 119.056 102.096L119.64 102.687L119.579 102.829C119.881 103.297 120.316 103.688 120.148 103.144C122.603 107.647 124.45 112.391 125.957 117.223C127.465 122.056 128.629 126.907 129.59 131.838C129.724 133.008 129.941 134.45 130.228 135.888C130.445 137.33 130.735 138.837 130.941 140.072C131.154 143.937 131.146 147.537 131.073 151.211C131.001 154.884 130.786 158.496 130.587 162.384C130.587 162.384 130.366 162.119 130.19 161.436C130.492 160.658 130.366 159.627 130.347 158.035Z" fill="#381FD1"/>
<path d="M2.48679 14.584C2.83038 14.5651 3.55961 14.0402 3.18159 14.6842C2.97163 14.6265 2.49822 14.7911 2.48679 14.584Z" fill="#381FD1"/>
<path d="M24.1884 8.12448C24.1846 8.05546 24.5358 8.17453 24.6084 8.23976C24.3335 8.25493 24.0662 8.40815 23.8562 8.35051C24.1311 8.33534 24.0548 8.20109 24.1884 8.12448Z" fill="#381FD1"/>
<path d="M29.8656 8.57262C29.7357 8.71825 28.5637 8.71372 27.8001 8.61741C28.4911 8.64849 29.1745 8.54153 29.8656 8.57262Z" fill="#381FD1"/>
<path d="M34.8592 10.3739C35.2181 10.631 35.0844 10.7076 34.5194 10.4619C34.5156 10.3929 34.7256 10.4505 34.8592 10.3739Z" fill="#381FD1"/>
<path d="M35.3287 10.1403C35.7487 10.2556 35.8976 10.4551 36.1114 10.5817C36.1038 10.4437 35.0653 10.3626 35.3287 10.1403Z" fill="#381FD1"/>
<path d="M45.0906 15.9015C45.3044 16.0282 45.8732 16.3429 45.9571 16.6152C45.8044 16.3467 44.8157 15.9167 45.0906 15.9015Z" fill="#381FD1"/>
<path d="M49.2021 19.2053C49.2784 19.3396 49.351 19.4048 49.4961 19.5353C49.6488 19.8038 49.3662 19.6809 49.1486 19.4852L49.2021 19.2053Z" fill="#381FD1"/>
<path d="M32.0457 75.5377C32.0572 75.7448 32.1335 75.879 32.2137 76.0823L32.0724 76.0209C32.061 75.8138 32.0533 75.6758 32.0457 75.5377Z" fill="#381FD1"/>
<path d="M61.5756 54.7997C62.198 54.8345 61.9345 55.0568 62.0032 55.053C61.5183 55.0105 62.2743 54.9688 61.5756 54.7997Z" fill="#381FD1"/>
<path d="M83.245 63.9882L83.1037 63.9268L83.3634 63.6355L83.245 63.9882Z" fill="#381FD1"/>
<path d="M116.696 147.989C116.554 147.927 116.573 148.273 116.558 147.996C116.623 147.924 116.76 147.916 116.696 147.989Z" fill="#381FD1"/>
<path d="M141.538 152.225C141.798 153.18 140.698 153.241 140.74 154C140.744 154.069 140.377 153.674 140.389 153.881C140.507 154.774 139.637 155.238 138.823 155.491L138.747 155.356C138.613 155.433 138.842 155.836 138.709 155.912C138.636 155.847 138.632 155.778 138.495 155.786C138.713 155.981 138.441 156.065 138.59 156.265C138.453 156.273 138.308 156.142 138.167 156.081L138.388 156.345C138.835 156.944 137.999 156.782 138.094 157.262C138.021 157.196 138.018 157.127 137.949 157.131C137.987 157.821 137.597 158.258 137.353 158.826C137.281 158.76 137.135 158.63 136.994 158.568C137.212 158.764 137.223 158.971 137.162 159.113C136.88 158.99 137.254 159.523 136.979 159.539L136.906 159.473C137.128 159.738 136.635 159.557 136.925 159.818L136.647 159.765C137.009 160.091 136.372 159.78 136.452 159.983L136.525 160.048C136.532 160.186 136.322 160.129 136.33 160.267L136.261 160.27C136.208 160.55 135.929 160.496 136.284 160.685C136.001 160.562 136.269 160.409 135.917 160.289C135.826 161.125 135.375 161.704 134.993 162.279C134.856 162.287 134.787 162.29 134.646 162.229C134.65 162.298 134.524 162.513 134.669 162.643L134.459 162.585C134.253 162.597 134.684 162.919 134.478 162.93C134.405 162.865 134.329 162.731 134.188 162.67C134.34 162.938 134.207 163.015 134.218 163.222C134.146 163.157 134.146 163.156 134.073 163.091C134.23 163.429 133.878 163.31 133.958 163.513L133.813 163.383C133.474 163.471 134.172 163.64 133.901 163.724C133.897 163.655 133.825 163.59 133.756 163.593C133.981 163.927 133.718 164.149 133.729 164.356L133.657 164.291C133.6 164.502 133.397 164.582 133.412 164.859C133.275 164.866 132.985 164.605 132.928 164.816C133.283 165.004 132.882 165.234 133.37 165.345C133.241 165.491 132.973 165.644 132.981 165.782C132.905 165.648 132.488 165.602 132.549 165.46L132.271 165.406C132.126 165.276 132.404 165.33 132.194 165.272C132.198 165.341 132.213 165.617 132.145 165.621C132.297 165.889 132.595 166.288 132.473 166.572C132.393 166.369 132.114 166.315 132.106 166.177C132.259 166.445 132.347 166.787 132.503 167.124C132.439 167.197 132.282 166.859 132.293 167.066C132.366 167.132 132.374 167.27 132.45 167.404C132.381 167.408 132.339 167.895 132.041 167.496C131.965 167.362 132.03 167.289 131.957 167.223C131.896 167.365 131.973 167.5 131.912 167.641L131.908 167.572C131.839 167.576 131.866 168.059 132.011 168.19C132.076 168.117 131.858 167.921 131.999 167.983C132.087 168.324 132.034 168.604 131.908 168.819C131.9 168.681 131.892 168.543 131.812 168.339C131.847 168.96 131.732 169.382 131.621 169.873C131.705 170.145 131.587 169.252 131.595 169.39C131.453 169.328 131.404 169.677 131.35 169.957C131.297 170.237 131.243 170.517 131.094 170.317C131.087 170.179 131.19 170.797 131.113 170.662C131.052 170.804 130.953 170.256 130.968 170.532C130.953 170.256 130.911 170.743 130.854 170.954C130.869 171.23 130.846 170.816 130.907 170.674C130.854 170.954 130.747 171.513 130.56 171.87C130.483 171.736 130.403 171.532 130.319 171.26C130.331 171.467 130.143 171.824 130.136 171.686L130.182 171.268C130.163 170.923 130.029 170.999 130.075 170.581C130.018 170.792 130.09 170.857 130.228 170.85C130.296 170.846 130.434 170.838 130.304 170.984C130.277 170.501 130.121 171.41 130.159 170.854C130.083 170.719 129.964 171.072 129.861 170.455C129.869 170.593 129.972 169.964 129.899 169.899C129.754 169.768 129.838 170.041 129.697 169.979L129.632 170.052C129.586 170.47 129.548 169.78 129.51 170.336C129.56 169.987 129.292 170.14 129.399 169.58L129.514 169.158C129.441 169.093 129.327 169.515 129.197 169.661C129.193 169.592 129.185 169.453 129.25 169.381C129.082 170.082 129.166 169.108 128.911 169.469C128.884 168.986 128.601 168.863 128.716 168.441C128.579 168.449 128.372 168.46 128.288 168.188C128.357 168.184 128.361 168.253 128.422 168.111C128.407 167.835 128.346 167.977 128.273 167.912C128.338 167.839 128.315 167.425 128.369 167.145C128.163 167.156 128.037 167.371 127.907 167.516C128.029 167.233 127.888 167.171 127.815 167.106C127.674 167.045 127.533 166.983 127.659 166.769C127.727 166.765 128.006 166.819 127.995 166.611C128.315 166.178 127.578 166.565 127.628 166.216C127.494 166.293 127.43 166.366 127.296 166.442C127.422 166.228 126.945 166.323 127.346 166.093C127.208 166.101 127.33 165.817 126.998 166.043C127.113 165.622 126.418 165.522 126.941 165.008C126.872 165.012 126.865 164.874 126.735 165.019C126.605 165.165 126.941 165.008 126.811 165.154C126.811 165.154 126.674 165.161 126.609 165.234C126.67 165.092 126.597 165.027 126.937 164.939C127.059 164.655 126.258 165.115 126.239 164.77C126.372 164.693 126.437 164.621 126.368 164.624L126.025 164.643C126.013 164.436 126.284 164.352 126.552 164.199C126.479 164.134 126.407 164.068 126.204 164.149L126.464 163.857C126.269 164.076 126.258 163.869 126.189 163.873L126.258 163.869C126.323 163.796 126.25 163.731 126.181 163.735C126.048 163.811 126.055 163.949 126.059 164.018C125.922 164.026 125.918 163.957 125.781 163.964C126.048 163.811 125.838 163.754 125.834 163.685C125.83 163.616 125.559 163.7 125.559 163.7C125.693 163.623 125.483 163.565 125.689 163.554C125.758 163.55 125.628 163.696 125.765 163.688C125.83 163.616 126.029 163.466 125.823 163.478C125.685 163.485 125.357 163.78 125.414 163.569C125.483 163.565 125.616 163.489 125.685 163.485L125.742 163.274L125.544 163.424C125.609 163.351 125.609 163.351 125.609 163.351C125.338 163.435 125.395 163.224 125.124 163.308C125.051 163.243 125.181 163.098 125.177 163.029C125.238 162.887 125.097 162.825 124.891 162.837L124.96 162.833C124.956 162.764 124.883 162.699 124.677 162.71C124.735 162.499 125.407 162.185 125.132 162.2C125.055 162.066 124.654 162.296 124.521 162.372C124.506 162.096 124.093 162.119 124.277 161.694C124.208 161.697 124.143 161.77 124.074 161.774C123.986 161.433 123.429 161.325 123.677 160.827C123.815 160.819 123.876 160.677 124.009 160.601C123.807 160.681 124.135 160.386 123.803 160.612C123.605 160.761 123.536 160.765 123.475 160.907C123.261 160.78 123.112 160.581 123.238 160.366C123.173 160.439 123.105 160.443 123.036 160.447C123.372 160.29 123.292 160.086 123.154 160.094L122.952 160.174L123.078 159.96C123.009 159.964 122.677 160.19 122.803 159.975C122.868 159.902 122.937 159.898 123.002 159.825C122.795 159.837 122.452 159.856 122.509 159.645L122.7 159.358C122.631 159.361 122.425 159.373 122.433 159.511C122.486 159.231 122.41 159.097 122.605 158.878C121.849 158.92 121.551 158.521 121.326 158.187L121.459 158.111C121.517 157.9 121.188 158.195 121.253 158.122C121.387 158.045 121.444 157.835 121.65 157.823C121.708 157.612 121.307 157.842 121.165 157.781C120.963 157.861 121.303 157.773 121.104 157.923C121.036 157.926 121.089 157.646 120.822 157.8C120.887 157.727 121.085 157.577 121.219 157.501L121.013 157.512C121.272 157.221 121.692 157.336 122.017 156.972L121.944 156.907C122.135 156.619 122.425 156.88 122.341 156.608C122.135 156.619 121.734 156.849 121.673 156.991C121.459 156.864 121.005 157.374 120.856 157.175C120.986 157.029 121.001 157.305 121.196 157.087C121.322 156.872 120.986 157.029 120.978 156.891C120.917 157.033 120.65 157.186 120.509 157.125C120.566 156.914 120.78 157.04 120.7 156.837C120.566 156.914 120.356 156.856 120.299 157.067C119.898 157.297 120.287 156.86 119.951 157.017C120.146 156.798 120.627 156.772 120.612 156.496C120.417 156.714 120.2 156.519 119.875 156.883C119.871 156.814 120.07 156.664 120.272 156.584C120.329 156.373 119.726 156.683 120.119 156.315L119.852 156.469C119.917 156.396 119.913 156.327 120.043 156.181C119.971 156.116 119.562 156.208 119.89 155.913C119.822 155.916 119.742 155.713 119.551 156.001C119.493 156.211 119.825 155.985 119.497 156.28C119.688 155.993 119.352 156.15 119.215 156.158L119.348 156.081C119.28 156.085 119.276 156.016 119.073 156.096C119.142 156.092 119.272 155.947 119.272 155.947L119.073 156.096C118.863 156.039 119.402 155.801 119.257 155.671L119.463 155.659C119.394 155.663 119.589 155.445 119.451 155.452C119.249 155.533 118.982 155.686 118.848 155.762C118.711 155.77 119.043 155.544 118.772 155.628L119.043 155.544C119.112 155.54 119.303 155.253 119.226 155.118C119.089 155.126 118.749 155.214 118.757 155.352C118.684 155.287 118.745 155.145 118.948 155.065C118.806 155.003 118.749 155.214 118.543 155.225C118.604 155.084 118.726 154.8 118.852 154.585L119.257 154.424L119.184 154.359C119.524 154.271 119.31 154.145 119.646 153.988C119.642 153.919 119.505 153.926 119.436 153.93C119.116 154.363 118.764 154.244 118.367 154.543C118.085 154.42 119.219 153.734 118.474 153.983C118.413 154.125 118.005 154.217 118.215 154.274C118.138 154.14 117.745 154.508 117.798 154.228C118.005 154.217 118.119 153.795 118.463 153.776C118.329 153.853 118.402 153.918 118.47 153.914C118.6 153.768 118.867 153.615 118.791 153.481C118.719 153.416 118.646 153.35 118.447 153.5C118.249 153.649 118.589 153.561 118.321 153.715C118.112 153.657 118.44 153.362 118.039 153.592C118.112 153.657 117.917 153.875 117.783 153.952L117.642 153.891L117.776 153.814C117.76 153.538 117.44 153.971 117.359 153.768L117.619 153.476C117.886 153.323 117.707 153.818 118.1 153.45C118.024 153.316 117.825 153.465 117.814 153.258C117.883 153.254 117.883 153.254 117.951 153.25C117.947 153.181 118.474 152.737 117.997 152.832C117.791 152.844 117.863 152.909 117.665 153.058C117.52 152.928 117.318 153.008 117.172 152.878C117.505 152.652 117.024 152.678 117.428 152.518C117.302 152.732 117.52 152.928 117.856 152.771C118.18 152.407 117.936 152.974 118.264 152.679C118.188 152.545 118.516 152.25 118.715 152.1C118.711 152.031 118.578 152.108 118.509 152.112C118.31 152.261 118.314 152.33 118.116 152.48C118.035 152.276 117.825 152.219 117.554 152.303C117.615 152.161 117.814 152.012 117.886 152.077C117.673 151.95 117.524 151.751 117.509 151.475C117.253 151.835 117.295 151.348 117.035 151.639C117.043 151.777 116.852 152.065 116.649 152.145C116.646 152.076 116.779 152 116.844 151.927C116.573 152.011 117.031 151.57 116.695 151.727C116.905 151.785 117.161 151.425 117.428 151.271C117.154 151.287 117.627 151.122 117.551 150.988C117.276 151.003 117.066 150.945 116.921 150.815C117.039 150.462 116.554 150.42 116.474 150.216C116.531 150.006 116.867 149.849 116.86 149.711C116.787 149.645 116.604 150.071 116.589 149.795L116.657 149.791C116.52 149.799 116.634 149.377 116.169 149.679L116.501 149.453C116.497 149.384 116.432 149.457 116.363 149.461C116.497 149.384 116.558 149.243 116.627 149.239C116.749 148.955 116.413 149.112 116.337 148.978L116.211 149.193C115.932 149.139 115.986 148.859 115.844 148.797L116.043 148.648L115.837 148.659C116.035 148.51 116.096 148.368 115.894 148.448L116.577 148.342C116.516 148.483 116.306 148.426 116.111 148.644C115.982 148.79 116.127 148.92 116.325 148.771C116.321 148.702 116.253 148.706 116.115 148.713C116.379 148.491 116.451 148.556 116.654 148.476C116.585 148.48 116.646 148.338 116.581 148.411C116.784 148.33 116.856 148.395 116.932 148.53C116.795 148.537 116.803 148.675 116.738 148.748C117.005 148.595 117.142 148.587 117.154 148.794C116.963 149.082 117.505 148.913 117.585 149.117C117.318 149.27 117.047 149.354 116.906 149.293C116.848 149.503 116.978 149.358 116.921 149.569C117.123 149.488 117.455 149.262 117.597 149.324L117.398 149.473C117.608 149.531 117.803 149.312 117.879 149.447C117.963 149.719 118.184 149.984 118.265 150.187L118.066 150.336C118.536 150.103 118.494 150.59 118.769 150.574C118.788 150.92 119.341 150.958 119.154 151.315C119.585 151.637 120.013 151.89 120.246 152.362L119.91 152.519C120.181 152.435 119.78 152.665 119.921 152.726C120.047 152.512 120.261 152.638 120.463 152.558C120.414 152.907 120.83 152.953 121.109 153.007L120.91 153.156C121.387 153.061 121.204 153.486 121.357 153.755C121.292 153.827 121.162 153.973 121.234 154.038C121.643 153.947 121.647 154.016 121.926 154.069C122.002 154.204 122.086 154.476 122.097 154.683C122.865 154.848 122.903 155.539 123.54 155.85L123.346 156.068C124.113 156.233 124.163 157.131 124.659 157.38L124.258 157.61C124.201 157.821 124.548 157.871 124.811 157.649C124.754 157.859 125.235 157.833 124.976 158.124C124.987 158.331 125.254 158.178 125.396 158.239C125.415 158.585 125.556 158.646 125.777 158.911L125.773 158.842C125.705 158.845 125.506 158.995 125.51 159.064C125.647 159.056 125.67 159.47 125.995 159.106C125.88 159.528 126.644 159.624 126.464 160.119C126.598 160.042 126.667 160.039 126.735 160.035C126.888 160.303 126.77 160.656 127.121 160.775C127.056 160.848 126.85 160.859 126.922 160.924C126.991 160.921 127.056 160.848 127.194 160.84C127.69 161.09 127.453 161.795 127.747 162.125C128.396 162.643 128.64 163.322 129.087 163.92L129.022 163.993C129.503 163.967 128.923 164.691 129.602 164.515C129.537 164.588 129.682 164.718 129.48 164.799C129.549 164.795 129.621 164.86 129.625 164.929C129.629 164.998 129.629 164.998 129.629 164.998C129.633 165.067 129.568 165.14 129.77 165.06C129.77 165.06 129.77 165.06 129.701 165.063C129.579 165.347 129.843 165.125 129.72 165.409C129.724 165.478 129.656 165.481 129.591 165.554C129.468 165.838 129.915 165.19 129.602 165.761L129.724 165.478C129.736 165.685 129.808 165.75 129.877 165.746C129.946 165.742 130.011 165.669 130.075 165.597C130.114 166.287 130.029 167.261 130.064 166.636C130.075 166.843 130.114 166.287 130.056 166.498C130.11 166.218 130.125 167.74 130.098 167.257C130.087 167.05 130.083 166.981 130.079 166.912C130.072 166.774 130.072 166.774 130.056 166.498C130.144 166.839 130.171 167.322 130.209 166.766L130.228 167.111C130.201 166.628 130.262 166.486 130.251 166.279C130.243 166.141 130.301 165.93 130.209 165.52C130.45 164.884 129.915 165.19 130.851 163.408C131.679 162.185 132.225 160.839 133.272 159.812C133.821 159.782 133.818 159.713 133.863 159.295C133.936 159.36 133.936 159.36 134.009 159.426C133.722 159.234 134.135 159.211 133.844 158.95C134.234 158.513 134.417 158.088 134.734 157.585C134.738 157.655 134.959 157.919 134.952 157.781L134.803 157.582L134.875 157.647C134.872 157.578 134.791 157.375 134.654 157.382C135.2 156.037 136.609 155.336 137.373 154.186C137.709 154.029 137.888 153.534 138.01 153.251C139.015 152.711 139.954 152.243 140.378 151.182C140.992 151.078 141.653 151.803 141.538 152.225Z" fill="#381FD1"/>
<path d="M116.841 148.119C116.711 148.265 116.719 148.403 116.447 148.487C116.65 148.407 116.711 148.265 116.841 148.119Z" fill="#381FD1"/>
<path d="M117.459 151.824C117.528 151.82 117.463 151.893 117.398 151.966C117.398 151.966 117.195 152.046 117.256 151.904C117.325 151.9 117.39 151.828 117.459 151.824Z" fill="#381FD1"/>
<path d="M117.909 152.491C117.776 152.568 117.566 152.51 117.493 152.445L117.909 152.491Z" fill="#381FD1"/>
<path d="M117.829 153.534C117.768 153.676 117.699 153.68 117.627 153.614C117.692 153.542 117.76 153.538 117.829 153.534Z" fill="#381FD1"/>
<path d="M118.161 153.308C118.234 153.373 118.169 153.446 118.104 153.519C118.169 153.446 117.894 153.461 118.161 153.308Z" fill="#381FD1"/>
<path d="M118.734 154.938C118.734 154.938 118.94 154.927 118.81 155.072C118.94 154.927 118.531 155.018 118.734 154.938Z" fill="#381FD1"/>
<path d="M119.448 155.383C119.455 155.521 119.318 155.529 119.318 155.529L119.448 155.383Z" fill="#381FD1"/>
<path d="M127.651 166.631L127.51 166.569L127.643 166.492L127.651 166.631Z" fill="#381FD1"/>
<path d="M132.079 169.432C132.064 169.156 132.156 169.566 132.224 169.563C132.163 169.704 132.14 169.29 132.079 169.432Z" fill="#381FD1"/>
</svg>